<?xml version="1.0" encoding="utf-8"?>
<!-- Generator: Adobe Illustrator 15.1.0, SVG Export Plug-In . SVG Version: 6.00 Build 0)  -->
<!DOCTYPE svg PUBLIC "-//W3C//DTD SVG 1.1//EN" "http://www.w3.org/Graphics/SVG/1.1/DTD/svg11.dtd">
<svg version="1.1" id="Layer_1" xmlns="http://www.w3.org/2000/svg" xmlns:xlink="http://www.w3.org/1999/xlink" x="0px" y="0px"
	 width="498.25px" height="222.75px" viewBox="0 0 498.25 222.75" enable-background="new 0 0 498.25 222.75" xml:space="preserve">
<style type="text/css">
<![CDATA[
]]>
</style>
<g>
	<defs>
		<rect id="SVGID_1_" x="-146.75" y="-50.25" width="792" height="612"/>
	</defs>
	<clipPath id="SVGID_2_">
		<use xlink:href="#SVGID_1_"  overflow="visible"/>
	</clipPath>
	<g clip-path="url(#SVGID_2_)">
		<defs>
			<rect id="SVGID_3_" x="2.125" y="2.25" width="494.25" height="218.25"/>
		</defs>
		<clipPath id="SVGID_4_">
			<use xlink:href="#SVGID_3_"  overflow="visible"/>
		</clipPath>
		<rect x="3.625" y="126.75" clip-path="url(#SVGID_4_)" fill="#FFFFFF" width="131.25" height="93"/>
		<rect x="467.875" y="126.75" clip-path="url(#SVGID_4_)" fill="#FFFFFF" width="27.75" height="23.25"/>
		<rect x="190.375" y="150" clip-path="url(#SVGID_4_)" fill="#FFFFFF" width="27.75" height="23.25"/>
		<rect x="273.625" y="150" clip-path="url(#SVGID_4_)" fill="#FFFFFF" width="111" height="23.25"/>
		<rect x="467.875" y="150" clip-path="url(#SVGID_4_)" fill="#FFFFFF" width="27.75" height="23.25"/>
		<rect x="218.125" y="173.25" clip-path="url(#SVGID_4_)" fill="#FFFFFF" width="111" height="23.25"/>
		<rect x="356.875" y="173.25" clip-path="url(#SVGID_4_)" fill="#FFFFFF" width="27.75" height="23.25"/>
		<rect x="467.875" y="173.25" clip-path="url(#SVGID_4_)" fill="#FFFFFF" width="27.75" height="23.25"/>
		<rect x="134.875" y="196.5" clip-path="url(#SVGID_4_)" fill="#FFFFFF" width="27.75" height="23.25"/>
		<rect x="218.125" y="196.5" clip-path="url(#SVGID_4_)" fill="#FFFFFF" width="27.75" height="23.25"/>
		<rect x="301.375" y="196.5" clip-path="url(#SVGID_4_)" fill="#FFFFFF" width="83.25" height="23.25"/>
		<rect x="467.875" y="196.5" clip-path="url(#SVGID_4_)" fill="#FFFFFF" width="27.75" height="23.25"/>
		<rect x="2.875" y="3" clip-path="url(#SVGID_4_)" fill="#FFFFFF" width="492.75" height="123.75"/>
		<rect x="134.125" y="126" clip-path="url(#SVGID_4_)" fill="#E06666" width="333.75" height="24"/>
		<rect x="134.125" y="149.25" clip-path="url(#SVGID_4_)" fill="#FFD966" width="56.25" height="24"/>
		<rect x="217.375" y="149.25" clip-path="url(#SVGID_4_)" fill="#FFD966" width="56.25" height="24"/>
		<rect x="383.875" y="149.25" clip-path="url(#SVGID_4_)" fill="#FFD966" width="84" height="24"/>
		<rect x="134.125" y="172.5" clip-path="url(#SVGID_4_)" fill="#6FA8DC" width="84" height="24"/>
		<rect x="328.375" y="172.5" clip-path="url(#SVGID_4_)" fill="#6FA8DC" width="28.5" height="24"/>
		<rect x="383.875" y="172.5" clip-path="url(#SVGID_4_)" fill="#6FA8DC" width="84" height="24"/>
		<rect x="161.875" y="195.75" clip-path="url(#SVGID_4_)" fill="#93C47D" width="56.25" height="24"/>
		<rect x="245.125" y="195.75" clip-path="url(#SVGID_4_)" fill="#93C47D" width="56.25" height="24"/>
		<rect x="383.875" y="195.75" clip-path="url(#SVGID_4_)" fill="#93C47D" width="84" height="24"/>
	</g>
	<g clip-path="url(#SVGID_2_)">
		<defs>
			<rect id="SVGID_5_" x="2.125" y="2.25" width="494.25" height="218.25"/>
		</defs>
		<clipPath id="SVGID_6_">
			<use xlink:href="#SVGID_5_"  overflow="visible"/>
		</clipPath>
		<g clip-path="url(#SVGID_6_)">
			<defs>
				<rect id="SVGID_7_" x="3.625" y="3" width="492" height="123.75"/>
			</defs>
			<clipPath id="SVGID_8_">
				<use xlink:href="#SVGID_7_"  overflow="visible"/>
			</clipPath>
			<rect x="134.125" y="3.375" clip-path="url(#SVGID_8_)" fill="#FFFFFF" width="27.75" height="123"/>
		</g>
	</g>
	<g clip-path="url(#SVGID_2_)">
		<defs>
			<rect id="SVGID_9_" x="2.125" y="2.25" width="494.25" height="218.25"/>
		</defs>
		<clipPath id="SVGID_10_">
			<use xlink:href="#SVGID_9_"  overflow="visible"/>
		</clipPath>
		<g clip-path="url(#SVGID_10_)">
			<defs>
				<rect id="SVGID_11_" x="3.625" y="3" width="492" height="123.75"/>
			</defs>
			<clipPath id="SVGID_12_">
				<use xlink:href="#SVGID_11_"  overflow="visible"/>
			</clipPath>
			<rect x="161.875" y="3.375" clip-path="url(#SVGID_12_)" fill="#FFFFFF" width="27.75" height="123"/>
		</g>
	</g>
	<g clip-path="url(#SVGID_2_)">
		<defs>
			<rect id="SVGID_13_" x="2.125" y="2.25" width="494.25" height="218.25"/>
		</defs>
		<clipPath id="SVGID_14_">
			<use xlink:href="#SVGID_13_"  overflow="visible"/>
		</clipPath>
		<g clip-path="url(#SVGID_14_)">
			<defs>
				<rect id="SVGID_15_" x="3.625" y="3" width="492" height="123.75"/>
			</defs>
			<clipPath id="SVGID_16_">
				<use xlink:href="#SVGID_15_"  overflow="visible"/>
			</clipPath>
			<rect x="189.625" y="3.375" clip-path="url(#SVGID_16_)" fill="#FFFFFF" width="27.75" height="123"/>
		</g>
	</g>
	<g clip-path="url(#SVGID_2_)">
		<defs>
			<rect id="SVGID_17_" x="2.125" y="2.25" width="494.25" height="218.25"/>
		</defs>
		<clipPath id="SVGID_18_">
			<use xlink:href="#SVGID_17_"  overflow="visible"/>
		</clipPath>
		<g clip-path="url(#SVGID_18_)">
			<defs>
				<rect id="SVGID_19_" x="3.625" y="3" width="492" height="123.75"/>
			</defs>
			<clipPath id="SVGID_20_">
				<use xlink:href="#SVGID_19_"  overflow="visible"/>
			</clipPath>
			<rect x="218.125" y="3.375" clip-path="url(#SVGID_20_)" fill="#FFFFFF" width="27.75" height="123"/>
		</g>
	</g>
	<g clip-path="url(#SVGID_2_)">
		<defs>
			<rect id="SVGID_21_" x="2.125" y="2.25" width="494.25" height="218.25"/>
		</defs>
		<clipPath id="SVGID_22_">
			<use xlink:href="#SVGID_21_"  overflow="visible"/>
		</clipPath>
		<g clip-path="url(#SVGID_22_)">
			<defs>
				<rect id="SVGID_23_" x="3.625" y="3" width="492" height="123.75"/>
			</defs>
			<clipPath id="SVGID_24_">
				<use xlink:href="#SVGID_23_"  overflow="visible"/>
			</clipPath>
			<rect x="245.125" y="3.375" clip-path="url(#SVGID_24_)" fill="#FFFFFF" width="27.75" height="123"/>
		</g>
	</g>
	<g clip-path="url(#SVGID_2_)">
		<defs>
			<rect id="SVGID_25_" x="2.125" y="2.25" width="494.25" height="218.25"/>
		</defs>
		<clipPath id="SVGID_26_">
			<use xlink:href="#SVGID_25_"  overflow="visible"/>
		</clipPath>
		<g clip-path="url(#SVGID_26_)">
			<defs>
				<rect id="SVGID_27_" x="3.625" y="3" width="492" height="123.75"/>
			</defs>
			<clipPath id="SVGID_28_">
				<use xlink:href="#SVGID_27_"  overflow="visible"/>
			</clipPath>
			<rect x="272.875" y="3.375" clip-path="url(#SVGID_28_)" fill="#FFFFFF" width="27.75" height="123"/>
		</g>
	</g>
	<g clip-path="url(#SVGID_2_)">
		<defs>
			<rect id="SVGID_29_" x="2.125" y="2.25" width="494.25" height="218.25"/>
		</defs>
		<clipPath id="SVGID_30_">
			<use xlink:href="#SVGID_29_"  overflow="visible"/>
		</clipPath>
		<g clip-path="url(#SVGID_30_)">
			<defs>
				<rect id="SVGID_31_" x="3.625" y="3" width="492" height="123.75"/>
			</defs>
			<clipPath id="SVGID_32_">
				<use xlink:href="#SVGID_31_"  overflow="visible"/>
			</clipPath>
			<rect x="300.625" y="3.375" clip-path="url(#SVGID_32_)" fill="#FFFFFF" width="27.75" height="123"/>
		</g>
	</g>
	<g clip-path="url(#SVGID_2_)">
		<defs>
			<rect id="SVGID_33_" x="2.125" y="2.25" width="494.25" height="218.25"/>
		</defs>
		<clipPath id="SVGID_34_">
			<use xlink:href="#SVGID_33_"  overflow="visible"/>
		</clipPath>
		<g clip-path="url(#SVGID_34_)">
			<defs>
				<rect id="SVGID_35_" x="3.625" y="3" width="492" height="123.75"/>
			</defs>
			<clipPath id="SVGID_36_">
				<use xlink:href="#SVGID_35_"  overflow="visible"/>
			</clipPath>
			<rect x="328.375" y="3.375" clip-path="url(#SVGID_36_)" fill="#FFFFFF" width="27.75" height="123"/>
		</g>
	</g>
	<g clip-path="url(#SVGID_2_)">
		<defs>
			<rect id="SVGID_37_" x="2.125" y="2.25" width="494.25" height="218.25"/>
		</defs>
		<clipPath id="SVGID_38_">
			<use xlink:href="#SVGID_37_"  overflow="visible"/>
		</clipPath>
		<g clip-path="url(#SVGID_38_)">
			<defs>
				<rect id="SVGID_39_" x="3.625" y="3" width="492" height="123.75"/>
			</defs>
			<clipPath id="SVGID_40_">
				<use xlink:href="#SVGID_39_"  overflow="visible"/>
			</clipPath>
			<rect x="356.125" y="3.375" clip-path="url(#SVGID_40_)" fill="#FFFFFF" width="27.75" height="123"/>
		</g>
	</g>
	<g clip-path="url(#SVGID_2_)">
		<defs>
			<rect id="SVGID_41_" x="2.125" y="2.25" width="494.25" height="218.25"/>
		</defs>
		<clipPath id="SVGID_42_">
			<use xlink:href="#SVGID_41_"  overflow="visible"/>
		</clipPath>
		<g clip-path="url(#SVGID_42_)">
			<defs>
				<rect id="SVGID_43_" x="3.625" y="3" width="492" height="123.75"/>
			</defs>
			<clipPath id="SVGID_44_">
				<use xlink:href="#SVGID_43_"  overflow="visible"/>
			</clipPath>
			<rect x="383.875" y="3.375" clip-path="url(#SVGID_44_)" fill="#FFFFFF" width="27.75" height="123"/>
		</g>
	</g>
	<g clip-path="url(#SVGID_2_)">
		<defs>
			<rect id="SVGID_45_" x="2.125" y="2.25" width="494.25" height="218.25"/>
		</defs>
		<clipPath id="SVGID_46_">
			<use xlink:href="#SVGID_45_"  overflow="visible"/>
		</clipPath>
		<g clip-path="url(#SVGID_46_)">
			<defs>
				<rect id="SVGID_47_" x="3.625" y="3" width="492" height="123.75"/>
			</defs>
			<clipPath id="SVGID_48_">
				<use xlink:href="#SVGID_47_"  overflow="visible"/>
			</clipPath>
			<rect x="412.375" y="3.375" clip-path="url(#SVGID_48_)" fill="#FFFFFF" width="27.75" height="123"/>
		</g>
	</g>
	<g clip-path="url(#SVGID_2_)">
		<defs>
			<rect id="SVGID_49_" x="2.125" y="2.25" width="494.25" height="218.25"/>
		</defs>
		<clipPath id="SVGID_50_">
			<use xlink:href="#SVGID_49_"  overflow="visible"/>
		</clipPath>
		<g clip-path="url(#SVGID_50_)">
			<defs>
				<rect id="SVGID_51_" x="3.625" y="3" width="492" height="123.75"/>
			</defs>
			<clipPath id="SVGID_52_">
				<use xlink:href="#SVGID_51_"  overflow="visible"/>
			</clipPath>
			<rect x="439.375" y="3.375" clip-path="url(#SVGID_52_)" fill="#FFFFFF" width="27.75" height="123"/>
		</g>
	</g>
	<g clip-path="url(#SVGID_2_)">
		<defs>
			<rect id="SVGID_53_" x="2.125" y="2.25" width="494.25" height="218.25"/>
		</defs>
		<clipPath id="SVGID_54_">
			<use xlink:href="#SVGID_53_"  overflow="visible"/>
		</clipPath>
		<path opacity="0.149" clip-path="url(#SVGID_54_)" d="M467.875,219L467.875,219h27.75v0.75h-27.75V219z M467.875,195.75
			L467.875,195.75h27.75v0.75h-27.75V195.75z M467.875,172.5L467.875,172.5h27.75v0.75h-27.75V172.5z M467.875,149.25
			L467.875,149.25h27.75V150h-27.75V149.25z M467.875,126L467.875,126h27.75v0.75h-27.75V126z M467.875,3L467.875,3h27.75v0.75
			h-27.75V3z M495.625,196.5L495.625,196.5V219h-0.75v-22.5H495.625z M495.625,173.25L495.625,173.25v22.5h-0.75v-22.5H495.625z
			 M495.625,150L495.625,150v22.5h-0.75V150H495.625z M495.625,126.75L495.625,126.75v22.5h-0.75v-22.5H495.625z M495.625,3.75
			L495.625,3.75V126h-0.75V3.75H495.625z"/>
		<path clip-path="url(#SVGID_54_)" fill="none" stroke="#CCCCCC" stroke-width="0.75" stroke-miterlimit="10" d="M467.5,126v93.75
			 M413.125,219.375h54.75 M413.125,196.125h54.75 M413.125,172.875h54.75 M413.125,149.625h54.75 M413.125,126.375h54.75
			 M2.875,3.375h465 M439.75,126v93.75 M218.875,219.375h192 M218.875,196.125h192 M218.875,172.875h192 M218.875,149.625h192
			 M218.875,126.375h192 M384.25,126v93.75 M356.5,126v93.75 M328.75,126v93.75 M301,126v93.75 M273.25,126v93.75 M245.5,126v93.75
			 M2.875,219.375h213.75 M2.875,196.125h213.75 M2.875,172.875h213.75 M2.875,149.625h213.75 M2.875,126.375h213.75 M190,126v93.75
			 M162.25,126v93.75 M134.5,126v93.75 M3.25,3v216.75"/>
		<path clip-path="url(#SVGID_54_)" fill="none" stroke="#CCCCCC" stroke-width="2.25" stroke-miterlimit="10" d="M412,126v93.75
			 M217.75,126v93.75"/>
	</g>
	<g clip-path="url(#SVGID_2_)">
		<defs>
			<rect id="SVGID_55_" x="2.125" y="2.25" width="494.25" height="218.25"/>
		</defs>
		<clipPath id="SVGID_56_">
			<use xlink:href="#SVGID_55_"  overflow="visible"/>
		</clipPath>
		<g clip-path="url(#SVGID_56_)">
			<defs>
				<rect id="SVGID_57_" x="3.625" y="3" width="492" height="123.75"/>
			</defs>
			<clipPath id="SVGID_58_">
				<use xlink:href="#SVGID_57_"  overflow="visible"/>
			</clipPath>
			
				<line clip-path="url(#SVGID_58_)" fill="none" stroke="#CCCCCC" stroke-width="0.75" stroke-miterlimit="10" x1="134.125" y1="249.375" x2="134.125" y2="-119.625"/>
			
				<line clip-path="url(#SVGID_58_)" fill="none" stroke="#CCCCCC" stroke-width="0.75" stroke-miterlimit="10" x1="134.125" y1="3.375" x2="161.875" y2="3.375"/>
		</g>
	</g>
	<g clip-path="url(#SVGID_2_)">
		<defs>
			<rect id="SVGID_59_" x="2.125" y="2.25" width="494.25" height="218.25"/>
		</defs>
		<clipPath id="SVGID_60_">
			<use xlink:href="#SVGID_59_"  overflow="visible"/>
		</clipPath>
		<g clip-path="url(#SVGID_60_)">
			<defs>
				<rect id="SVGID_61_" x="3.625" y="3" width="492" height="123.75"/>
			</defs>
			<clipPath id="SVGID_62_">
				<use xlink:href="#SVGID_61_"  overflow="visible"/>
			</clipPath>
			
				<line clip-path="url(#SVGID_62_)" fill="none" stroke="#CCCCCC" stroke-width="0.75" stroke-miterlimit="10" x1="161.875" y1="249.375" x2="161.875" y2="-119.625"/>
			
				<line clip-path="url(#SVGID_62_)" fill="none" stroke="#CCCCCC" stroke-width="0.75" stroke-miterlimit="10" x1="161.875" y1="3.375" x2="189.625" y2="3.375"/>
		</g>
	</g>
	<g clip-path="url(#SVGID_2_)">
		<defs>
			<rect id="SVGID_63_" x="2.125" y="2.25" width="494.25" height="218.25"/>
		</defs>
		<clipPath id="SVGID_64_">
			<use xlink:href="#SVGID_63_"  overflow="visible"/>
		</clipPath>
		<g clip-path="url(#SVGID_64_)">
			<defs>
				<rect id="SVGID_65_" x="3.625" y="3" width="492" height="123.75"/>
			</defs>
			<clipPath id="SVGID_66_">
				<use xlink:href="#SVGID_65_"  overflow="visible"/>
			</clipPath>
			
				<line clip-path="url(#SVGID_66_)" fill="none" stroke="#CCCCCC" stroke-width="0.75" stroke-miterlimit="10" x1="189.625" y1="249.375" x2="189.625" y2="-119.625"/>
			
				<line clip-path="url(#SVGID_66_)" fill="none" stroke="#CCCCCC" stroke-width="0.75" stroke-miterlimit="10" x1="189.625" y1="3.375" x2="217.375" y2="3.375"/>
		</g>
	</g>
	<g clip-path="url(#SVGID_2_)">
		<defs>
			<rect id="SVGID_67_" x="2.125" y="2.25" width="494.25" height="218.25"/>
		</defs>
		<clipPath id="SVGID_68_">
			<use xlink:href="#SVGID_67_"  overflow="visible"/>
		</clipPath>
		<g clip-path="url(#SVGID_68_)">
			<defs>
				<rect id="SVGID_69_" x="3.625" y="3" width="492" height="123.75"/>
			</defs>
			<clipPath id="SVGID_70_">
				<use xlink:href="#SVGID_69_"  overflow="visible"/>
			</clipPath>
			
				<line clip-path="url(#SVGID_70_)" fill="none" stroke="#CCCCCC" stroke-width="2.25" stroke-miterlimit="10" x1="218.125" y1="249.375" x2="218.125" y2="-119.625"/>
			
				<line clip-path="url(#SVGID_70_)" fill="none" stroke="#CCCCCC" stroke-width="0.75" stroke-miterlimit="10" x1="218.125" y1="3.375" x2="245.875" y2="3.375"/>
		</g>
	</g>
	<g clip-path="url(#SVGID_2_)">
		<defs>
			<rect id="SVGID_71_" x="2.125" y="2.25" width="494.25" height="218.25"/>
		</defs>
		<clipPath id="SVGID_72_">
			<use xlink:href="#SVGID_71_"  overflow="visible"/>
		</clipPath>
		<g clip-path="url(#SVGID_72_)">
			<defs>
				<rect id="SVGID_73_" x="3.625" y="3" width="492" height="123.75"/>
			</defs>
			<clipPath id="SVGID_74_">
				<use xlink:href="#SVGID_73_"  overflow="visible"/>
			</clipPath>
			
				<line clip-path="url(#SVGID_74_)" fill="none" stroke="#CCCCCC" stroke-width="0.75" stroke-miterlimit="10" x1="245.125" y1="249.375" x2="245.125" y2="-119.625"/>
			
				<line clip-path="url(#SVGID_74_)" fill="none" stroke="#CCCCCC" stroke-width="0.75" stroke-miterlimit="10" x1="245.125" y1="3.375" x2="272.875" y2="3.375"/>
		</g>
	</g>
	<g clip-path="url(#SVGID_2_)">
		<defs>
			<rect id="SVGID_75_" x="2.125" y="2.25" width="494.25" height="218.25"/>
		</defs>
		<clipPath id="SVGID_76_">
			<use xlink:href="#SVGID_75_"  overflow="visible"/>
		</clipPath>
		<g clip-path="url(#SVGID_76_)">
			<defs>
				<rect id="SVGID_77_" x="3.625" y="3" width="492" height="123.75"/>
			</defs>
			<clipPath id="SVGID_78_">
				<use xlink:href="#SVGID_77_"  overflow="visible"/>
			</clipPath>
			
				<line clip-path="url(#SVGID_78_)" fill="none" stroke="#CCCCCC" stroke-width="0.75" stroke-miterlimit="10" x1="272.875" y1="249.375" x2="272.875" y2="-119.625"/>
			
				<line clip-path="url(#SVGID_78_)" fill="none" stroke="#CCCCCC" stroke-width="0.75" stroke-miterlimit="10" x1="272.875" y1="3.375" x2="300.625" y2="3.375"/>
		</g>
	</g>
	<g clip-path="url(#SVGID_2_)">
		<defs>
			<rect id="SVGID_79_" x="2.125" y="2.25" width="494.25" height="218.25"/>
		</defs>
		<clipPath id="SVGID_80_">
			<use xlink:href="#SVGID_79_"  overflow="visible"/>
		</clipPath>
		<g clip-path="url(#SVGID_80_)">
			<defs>
				<rect id="SVGID_81_" x="3.625" y="3" width="492" height="123.75"/>
			</defs>
			<clipPath id="SVGID_82_">
				<use xlink:href="#SVGID_81_"  overflow="visible"/>
			</clipPath>
			
				<line clip-path="url(#SVGID_82_)" fill="none" stroke="#CCCCCC" stroke-width="0.75" stroke-miterlimit="10" x1="300.625" y1="249.375" x2="300.625" y2="-119.625"/>
			
				<line clip-path="url(#SVGID_82_)" fill="none" stroke="#CCCCCC" stroke-width="0.75" stroke-miterlimit="10" x1="300.625" y1="3.375" x2="328.375" y2="3.375"/>
		</g>
	</g>
	<g clip-path="url(#SVGID_2_)">
		<defs>
			<rect id="SVGID_83_" x="2.125" y="2.25" width="494.25" height="218.25"/>
		</defs>
		<clipPath id="SVGID_84_">
			<use xlink:href="#SVGID_83_"  overflow="visible"/>
		</clipPath>
		<g clip-path="url(#SVGID_84_)">
			<defs>
				<rect id="SVGID_85_" x="3.625" y="3" width="492" height="123.75"/>
			</defs>
			<clipPath id="SVGID_86_">
				<use xlink:href="#SVGID_85_"  overflow="visible"/>
			</clipPath>
			
				<line clip-path="url(#SVGID_86_)" fill="none" stroke="#CCCCCC" stroke-width="0.75" stroke-miterlimit="10" x1="328.375" y1="249.375" x2="328.375" y2="-119.625"/>
			
				<line clip-path="url(#SVGID_86_)" fill="none" stroke="#CCCCCC" stroke-width="0.75" stroke-miterlimit="10" x1="328.375" y1="3.375" x2="356.125" y2="3.375"/>
		</g>
	</g>
	<g clip-path="url(#SVGID_2_)">
		<defs>
			<rect id="SVGID_87_" x="2.125" y="2.25" width="494.25" height="218.25"/>
		</defs>
		<clipPath id="SVGID_88_">
			<use xlink:href="#SVGID_87_"  overflow="visible"/>
		</clipPath>
		<g clip-path="url(#SVGID_88_)">
			<defs>
				<rect id="SVGID_89_" x="3.625" y="3" width="492" height="123.75"/>
			</defs>
			<clipPath id="SVGID_90_">
				<use xlink:href="#SVGID_89_"  overflow="visible"/>
			</clipPath>
			
				<line clip-path="url(#SVGID_90_)" fill="none" stroke="#CCCCCC" stroke-width="0.75" stroke-miterlimit="10" x1="356.125" y1="249.375" x2="356.125" y2="-119.625"/>
			
				<line clip-path="url(#SVGID_90_)" fill="none" stroke="#CCCCCC" stroke-width="0.75" stroke-miterlimit="10" x1="356.125" y1="3.375" x2="383.875" y2="3.375"/>
		</g>
	</g>
	<g clip-path="url(#SVGID_2_)">
		<defs>
			<rect id="SVGID_91_" x="2.125" y="2.25" width="494.25" height="218.25"/>
		</defs>
		<clipPath id="SVGID_92_">
			<use xlink:href="#SVGID_91_"  overflow="visible"/>
		</clipPath>
		<g clip-path="url(#SVGID_92_)">
			<defs>
				<rect id="SVGID_93_" x="3.625" y="3" width="492" height="123.75"/>
			</defs>
			<clipPath id="SVGID_94_">
				<use xlink:href="#SVGID_93_"  overflow="visible"/>
			</clipPath>
			
				<line clip-path="url(#SVGID_94_)" fill="none" stroke="#CCCCCC" stroke-width="0.75" stroke-miterlimit="10" x1="383.875" y1="249.375" x2="383.875" y2="-119.625"/>
			
				<line clip-path="url(#SVGID_94_)" fill="none" stroke="#CCCCCC" stroke-width="0.75" stroke-miterlimit="10" x1="383.875" y1="3.375" x2="411.625" y2="3.375"/>
		</g>
	</g>
	<g clip-path="url(#SVGID_2_)">
		<defs>
			<rect id="SVGID_95_" x="2.125" y="2.25" width="494.25" height="218.25"/>
		</defs>
		<clipPath id="SVGID_96_">
			<use xlink:href="#SVGID_95_"  overflow="visible"/>
		</clipPath>
		<g clip-path="url(#SVGID_96_)">
			<defs>
				<rect id="SVGID_97_" x="3.625" y="3" width="492" height="123.75"/>
			</defs>
			<clipPath id="SVGID_98_">
				<use xlink:href="#SVGID_97_"  overflow="visible"/>
			</clipPath>
			
				<line clip-path="url(#SVGID_98_)" fill="none" stroke="#CCCCCC" stroke-width="2.25" stroke-miterlimit="10" x1="412.375" y1="249.375" x2="412.375" y2="-119.625"/>
			
				<line clip-path="url(#SVGID_98_)" fill="none" stroke="#CCCCCC" stroke-width="0.75" stroke-miterlimit="10" x1="412.375" y1="3.375" x2="440.125" y2="3.375"/>
		</g>
	</g>
	<g clip-path="url(#SVGID_2_)">
		<defs>
			<rect id="SVGID_99_" x="2.125" y="2.25" width="494.25" height="218.25"/>
		</defs>
		<clipPath id="SVGID_100_">
			<use xlink:href="#SVGID_99_"  overflow="visible"/>
		</clipPath>
		<g clip-path="url(#SVGID_100_)">
			<defs>
				<rect id="SVGID_101_" x="3.625" y="3" width="492" height="123.75"/>
			</defs>
			<clipPath id="SVGID_102_">
				<use xlink:href="#SVGID_101_"  overflow="visible"/>
			</clipPath>
			
				<line clip-path="url(#SVGID_102_)" fill="none" stroke="#CCCCCC" stroke-width="0.75" stroke-miterlimit="10" x1="439.375" y1="249.375" x2="439.375" y2="-119.625"/>
			
				<line clip-path="url(#SVGID_102_)" fill="none" stroke="#CCCCCC" stroke-width="0.75" stroke-miterlimit="10" x1="439.375" y1="3.375" x2="467.125" y2="3.375"/>
			
				<line clip-path="url(#SVGID_102_)" fill="none" stroke="#CCCCCC" stroke-width="0.75" stroke-miterlimit="10" x1="467.125" y1="-119.625" x2="467.125" y2="249.375"/>
		</g>
	</g>
	<g clip-path="url(#SVGID_2_)">
		<defs>
			<rect id="SVGID_103_" x="2.125" y="2.25" width="494.25" height="218.25"/>
		</defs>
		<clipPath id="SVGID_104_">
			<use xlink:href="#SVGID_103_"  overflow="visible"/>
		</clipPath>
		<g clip-path="url(#SVGID_104_)">
			<text transform="matrix(0 -1 1 0 152.2705 125.2485)" font-family="'ArialMT'" font-size="9.75">  art</text>
		</g>
	</g>
	<g clip-path="url(#SVGID_2_)">
		<defs>
			<rect id="SVGID_105_" x="2.125" y="2.25" width="494.25" height="218.25"/>
		</defs>
		<clipPath id="SVGID_106_">
			<use xlink:href="#SVGID_105_"  overflow="visible"/>
		</clipPath>
		<g clip-path="url(#SVGID_106_)">
			<text transform="matrix(0 -1 1 0 180.0205 125.2485)" font-family="'ArialMT'" font-size="9.75">  design</text>
		</g>
	</g>
	<g clip-path="url(#SVGID_2_)">
		<defs>
			<rect id="SVGID_107_" x="2.125" y="2.25" width="494.25" height="218.25"/>
		</defs>
		<clipPath id="SVGID_108_">
			<use xlink:href="#SVGID_107_"  overflow="visible"/>
		</clipPath>
		<g clip-path="url(#SVGID_108_)">
			<text transform="matrix(0 -1 1 0 207.7705 125.2485)" font-family="'ArialMT'" font-size="9.75"> psychology</text>
		</g>
	</g>
	<g clip-path="url(#SVGID_2_)">
		<defs>
			<rect id="SVGID_109_" x="2.125" y="2.25" width="494.25" height="218.25"/>
		</defs>
		<clipPath id="SVGID_110_">
			<use xlink:href="#SVGID_109_"  overflow="visible"/>
		</clipPath>
		<g clip-path="url(#SVGID_110_)">
			<text transform="matrix(0 -1 1 0 238.5205 125.2485)" font-family="'ArialMT'" font-size="9.75">  social media</text>
		</g>
	</g>
	<g clip-path="url(#SVGID_2_)">
		<defs>
			<rect id="SVGID_111_" x="2.125" y="2.25" width="494.25" height="218.25"/>
		</defs>
		<clipPath id="SVGID_112_">
			<use xlink:href="#SVGID_111_"  overflow="visible"/>
		</clipPath>
		<g clip-path="url(#SVGID_112_)">
			<text transform="matrix(0 -1 1 0 263.2705 125.2485)" font-family="'ArialMT'" font-size="9.75">  information behavior</text>
		</g>
	</g>
	<g clip-path="url(#SVGID_2_)">
		<defs>
			<rect id="SVGID_113_" x="2.125" y="2.25" width="494.25" height="218.25"/>
		</defs>
		<clipPath id="SVGID_114_">
			<use xlink:href="#SVGID_113_"  overflow="visible"/>
		</clipPath>
		<g clip-path="url(#SVGID_114_)">
			<text transform="matrix(0 -1 1 0 291.0205 125.2485)" font-family="'ArialMT'" font-size="9.75">  information visualization</text>
		</g>
	</g>
	<g clip-path="url(#SVGID_2_)">
		<defs>
			<rect id="SVGID_115_" x="2.125" y="2.25" width="494.25" height="218.25"/>
		</defs>
		<clipPath id="SVGID_116_">
			<use xlink:href="#SVGID_115_"  overflow="visible"/>
		</clipPath>
		<g clip-path="url(#SVGID_116_)">
			<text transform="matrix(0 -1 1 0 318.7705 125.2485)" font-family="'ArialMT'" font-size="9.75">  information retrieval</text>
		</g>
	</g>
	<g clip-path="url(#SVGID_2_)">
		<defs>
			<rect id="SVGID_117_" x="2.125" y="2.25" width="494.25" height="218.25"/>
		</defs>
		<clipPath id="SVGID_118_">
			<use xlink:href="#SVGID_117_"  overflow="visible"/>
		</clipPath>
		<g clip-path="url(#SVGID_118_)">
			<text transform="matrix(0 -1 1 0 346.5205 125.2485)" font-family="'ArialMT'" font-size="9.75">  sensors</text>
		</g>
	</g>
	<g clip-path="url(#SVGID_2_)">
		<defs>
			<rect id="SVGID_119_" x="2.125" y="2.25" width="494.25" height="218.25"/>
		</defs>
		<clipPath id="SVGID_120_">
			<use xlink:href="#SVGID_119_"  overflow="visible"/>
		</clipPath>
		<g clip-path="url(#SVGID_120_)">
			<text transform="matrix(0 -1 1 0 374.2705 125.2485)" font-family="'ArialMT'" font-size="9.75">  programming languages</text>
		</g>
	</g>
	<g clip-path="url(#SVGID_2_)">
		<defs>
			<rect id="SVGID_121_" x="2.125" y="2.25" width="494.25" height="218.25"/>
		</defs>
		<clipPath id="SVGID_122_">
			<use xlink:href="#SVGID_121_"  overflow="visible"/>
		</clipPath>
		<g clip-path="url(#SVGID_122_)">
			<text transform="matrix(0 -1 1 0 402.0205 125.2485)" font-family="'ArialMT'" font-size="9.75">  systems</text>
		</g>
	</g>
	<g clip-path="url(#SVGID_2_)">
		<defs>
			<rect id="SVGID_123_" x="2.125" y="2.25" width="494.25" height="218.25"/>
		</defs>
		<clipPath id="SVGID_124_">
			<use xlink:href="#SVGID_123_"  overflow="visible"/>
		</clipPath>
		<g clip-path="url(#SVGID_124_)">
			<text transform="matrix(0 -1 1 0 432.7705 125.2485)" font-family="'ArialMT'" font-size="9.75">  qualitative methods</text>
		</g>
	</g>
	<g clip-path="url(#SVGID_2_)">
		<defs>
			<rect id="SVGID_125_" x="2.125" y="2.25" width="494.25" height="218.25"/>
		</defs>
		<clipPath id="SVGID_126_">
			<use xlink:href="#SVGID_125_"  overflow="visible"/>
		</clipPath>
		<g clip-path="url(#SVGID_126_)">
			<text transform="matrix(0 -1 1 0 457.5205 125.2485)" font-family="'ArialMT'" font-size="9.75">  quantitative methods</text>
		</g>
	</g>
	<g clip-path="url(#SVGID_2_)">
		<defs>
			<rect id="SVGID_127_" x="2.125" y="2.25" width="494.25" height="218.25"/>
		</defs>
		<clipPath id="SVGID_128_">
			<use xlink:href="#SVGID_127_"  overflow="visible"/>
		</clipPath>
		<g clip-path="url(#SVGID_128_)">
			<text transform="matrix(1 0 0 1 5.8745 141.1455)" font-family="'ArialMT'" font-size="9.75">composition → curation</text>
		</g>
		<g clip-path="url(#SVGID_128_)">
			<text transform="matrix(1 0 0 1 5.8745 164.3955)" font-family="'ArialMT'" font-size="9.75">live media</text>
		</g>
		<g clip-path="url(#SVGID_128_)">
			<text transform="matrix(1 0 0 1 5.8745 187.6455)" font-family="'ArialMT'" font-size="9.75">body-based interaction</text>
		</g>
		<g clip-path="url(#SVGID_128_)">
			<text transform="matrix(1 0 0 1 5.8745 210.8955)" font-family="'ArialMT'" font-size="9.75">Team Coordination Game</text>
		</g>
	</g>
</g>
</svg>
