<?xml version="1.0" encoding="utf-8"?>
<!-- Generator: Adobe Illustrator 15.1.0, SVG Export Plug-In . SVG Version: 6.00 Build 0)  -->
<!DOCTYPE svg PUBLIC "-//W3C//DTD SVG 1.1//EN" "http://www.w3.org/Graphics/SVG/1.1/DTD/svg11.dtd">
<svg version="1.1" id="Layer_1" xmlns="http://www.w3.org/2000/svg" xmlns:xlink="http://www.w3.org/1999/xlink" x="0px" y="0px"
	 width="534px" height="300.75px" viewBox="0 0 534 300.75" enable-background="new 0 0 534 300.75" xml:space="preserve">
<g>
	<defs>
		<rect id="SVGID_1_" x="-129" y="-53.25" width="792" height="612"/>
	</defs>
	<clipPath id="SVGID_2_">
		<use xlink:href="#SVGID_1_"  overflow="visible"/>
	</clipPath>
	<g clip-path="url(#SVGID_2_)">
		<defs>
			<rect id="SVGID_3_" x="-0.75" y="-0.75" width="535.5" height="302.25"/>
		</defs>
		<clipPath id="SVGID_4_">
			<use xlink:href="#SVGID_3_"  overflow="visible"/>
		</clipPath>
		<rect x="0.75" y="113.25" clip-path="url(#SVGID_4_)" fill="#FFFFFF" width="362.25" height="187.5"/>
		<rect x="448.5" y="113.25" clip-path="url(#SVGID_4_)" fill="#FFFFFF" width="85.5" height="37.5"/>
		<rect x="405.75" y="150.75" clip-path="url(#SVGID_4_)" fill="#FFFFFF" width="42.75" height="75"/>
		<rect x="491.25" y="150.75" clip-path="url(#SVGID_4_)" fill="#FFFFFF" width="42.75" height="75"/>
		<rect x="363" y="225.75" clip-path="url(#SVGID_4_)" fill="#FFFFFF" width="128.25" height="37.5"/>
		<rect x="405.75" y="263.25" clip-path="url(#SVGID_4_)" fill="#FFFFFF" width="128.25" height="37.5"/>
		<rect clip-path="url(#SVGID_4_)" fill="#FFFFFF" width="534" height="113.25"/>
		<rect x="362.25" y="112.5" clip-path="url(#SVGID_4_)" fill="#E06666" width="43.5" height="113.25"/>
		<rect x="405" y="112.5" clip-path="url(#SVGID_4_)" fill="#FFD966" width="43.5" height="38.25"/>
		<rect x="447.75" y="150" clip-path="url(#SVGID_4_)" fill="#6FA8DC" width="43.5" height="75.75"/>
		<rect x="490.5" y="225" clip-path="url(#SVGID_4_)" fill="#93C47D" width="43.5" height="38.25"/>
		<rect x="362.25" y="262.5" clip-path="url(#SVGID_4_)" fill="#E06666" width="43.5" height="38.25"/>
	</g>
	<g clip-path="url(#SVGID_2_)">
		<defs>
			<rect id="SVGID_5_" x="-0.75" y="-0.75" width="535.5" height="302.25"/>
		</defs>
		<clipPath id="SVGID_6_">
			<use xlink:href="#SVGID_5_"  overflow="visible"/>
		</clipPath>
		<g clip-path="url(#SVGID_6_)">
			<defs>
				<rect id="SVGID_7_" x="0.75" width="533.25" height="113.25"/>
			</defs>
			<clipPath id="SVGID_8_">
				<use xlink:href="#SVGID_7_"  overflow="visible"/>
			</clipPath>
			<rect x="362.25" y="0.375" clip-path="url(#SVGID_8_)" fill="#FFFFFF" width="42.75" height="112.5"/>
		</g>
	</g>
	<g clip-path="url(#SVGID_2_)">
		<defs>
			<rect id="SVGID_9_" x="-0.75" y="-0.75" width="535.5" height="302.25"/>
		</defs>
		<clipPath id="SVGID_10_">
			<use xlink:href="#SVGID_9_"  overflow="visible"/>
		</clipPath>
		<g clip-path="url(#SVGID_10_)">
			<defs>
				<rect id="SVGID_11_" x="0.75" width="533.25" height="113.25"/>
			</defs>
			<clipPath id="SVGID_12_">
				<use xlink:href="#SVGID_11_"  overflow="visible"/>
			</clipPath>
			<rect x="405" y="0.375" clip-path="url(#SVGID_12_)" fill="#FFFFFF" width="42.75" height="112.5"/>
		</g>
	</g>
	<g clip-path="url(#SVGID_2_)">
		<defs>
			<rect id="SVGID_13_" x="-0.75" y="-0.75" width="535.5" height="302.25"/>
		</defs>
		<clipPath id="SVGID_14_">
			<use xlink:href="#SVGID_13_"  overflow="visible"/>
		</clipPath>
		<g clip-path="url(#SVGID_14_)">
			<defs>
				<rect id="SVGID_15_" x="0.75" width="533.25" height="113.25"/>
			</defs>
			<clipPath id="SVGID_16_">
				<use xlink:href="#SVGID_15_"  overflow="visible"/>
			</clipPath>
			<rect x="447.75" y="0.375" clip-path="url(#SVGID_16_)" fill="#FFFFFF" width="42.75" height="112.5"/>
		</g>
	</g>
	<g clip-path="url(#SVGID_2_)">
		<defs>
			<rect id="SVGID_17_" x="-0.75" y="-0.75" width="535.5" height="302.25"/>
		</defs>
		<clipPath id="SVGID_18_">
			<use xlink:href="#SVGID_17_"  overflow="visible"/>
		</clipPath>
		<g clip-path="url(#SVGID_18_)">
			<defs>
				<rect id="SVGID_19_" x="0.75" width="533.25" height="113.25"/>
			</defs>
			<clipPath id="SVGID_20_">
				<use xlink:href="#SVGID_19_"  overflow="visible"/>
			</clipPath>
			<rect x="490.5" y="0.375" clip-path="url(#SVGID_20_)" fill="#FFFFFF" width="42.75" height="112.5"/>
		</g>
	</g>
	<g clip-path="url(#SVGID_2_)">
		<defs>
			<rect id="SVGID_21_" x="-0.75" y="-0.75" width="535.5" height="302.25"/>
		</defs>
		<clipPath id="SVGID_22_">
			<use xlink:href="#SVGID_21_"  overflow="visible"/>
		</clipPath>
		<path opacity="0.149" clip-path="url(#SVGID_22_)" d="M405.75,300L405.75,300H534v0.75H405.75V300z M534,263.25L534,263.25V300
			h-0.75v-36.75H534z M534,225.75L534,225.75v36.75h-0.75v-36.75H534z M534,188.25L534,188.25V225h-0.75v-36.75H534z M534,150.75
			L534,150.75v36.75h-0.75v-36.75H534z M534,113.25L534,113.25V150h-0.75v-36.75H534z M534,0.75L534,0.75V112.5h-0.75V0.75H534z
			 M491.25,263.25L491.25,263.25V300h-0.75v-36.75H491.25z M448.5,263.25L448.5,263.25V300h-0.75v-36.75H448.5z M0,300L0,300h362.25
			v0.75H0V300z M0.75,263.25L0.75,263.25V300H0v-36.75H0.75z"/>
		<path clip-path="url(#SVGID_22_)" fill="none" stroke="#CCCCCC" stroke-width="0.75" stroke-miterlimit="10" d="M0,262.875h534
			 M0,225.375h534 M0,187.875h534 M0,150.375h534 M0,112.875h534 M0,0.375h534 M490.875,112.5v150.75 M448.125,112.5v150.75
			 M405.375,112.5v188.25 M362.25,300.375h43.5 M362.625,112.5v188.25 M0.375,0v263.25"/>
	</g>
	<g clip-path="url(#SVGID_2_)">
		<defs>
			<rect id="SVGID_23_" x="-0.75" y="-0.75" width="535.5" height="302.25"/>
		</defs>
		<clipPath id="SVGID_24_">
			<use xlink:href="#SVGID_23_"  overflow="visible"/>
		</clipPath>
		<g clip-path="url(#SVGID_24_)">
			<defs>
				<rect id="SVGID_25_" x="0.75" width="533.25" height="113.25"/>
			</defs>
			<clipPath id="SVGID_26_">
				<use xlink:href="#SVGID_25_"  overflow="visible"/>
			</clipPath>
			
				<line clip-path="url(#SVGID_26_)" fill="none" stroke="#CCCCCC" stroke-width="0.75" stroke-miterlimit="10" x1="362.25" y1="225.375" x2="362.25" y2="-112.125"/>
			
				<line clip-path="url(#SVGID_26_)" fill="none" stroke="#CCCCCC" stroke-width="0.75" stroke-miterlimit="10" x1="362.25" y1="0.375" x2="405" y2="0.375"/>
		</g>
	</g>
	<g clip-path="url(#SVGID_2_)">
		<defs>
			<rect id="SVGID_27_" x="-0.75" y="-0.75" width="535.5" height="302.25"/>
		</defs>
		<clipPath id="SVGID_28_">
			<use xlink:href="#SVGID_27_"  overflow="visible"/>
		</clipPath>
		<g clip-path="url(#SVGID_28_)">
			<defs>
				<rect id="SVGID_29_" x="0.75" width="533.25" height="113.25"/>
			</defs>
			<clipPath id="SVGID_30_">
				<use xlink:href="#SVGID_29_"  overflow="visible"/>
			</clipPath>
			
				<line clip-path="url(#SVGID_30_)" fill="none" stroke="#CCCCCC" stroke-width="0.75" stroke-miterlimit="10" x1="405" y1="225.375" x2="405" y2="-112.125"/>
			
				<line clip-path="url(#SVGID_30_)" fill="none" stroke="#CCCCCC" stroke-width="0.75" stroke-miterlimit="10" x1="405" y1="0.375" x2="447.75" y2="0.375"/>
		</g>
	</g>
	<g clip-path="url(#SVGID_2_)">
		<defs>
			<rect id="SVGID_31_" x="-0.75" y="-0.75" width="535.5" height="302.25"/>
		</defs>
		<clipPath id="SVGID_32_">
			<use xlink:href="#SVGID_31_"  overflow="visible"/>
		</clipPath>
		<g clip-path="url(#SVGID_32_)">
			<defs>
				<rect id="SVGID_33_" x="0.75" width="533.25" height="113.25"/>
			</defs>
			<clipPath id="SVGID_34_">
				<use xlink:href="#SVGID_33_"  overflow="visible"/>
			</clipPath>
			
				<line clip-path="url(#SVGID_34_)" fill="none" stroke="#CCCCCC" stroke-width="0.75" stroke-miterlimit="10" x1="447.75" y1="225.375" x2="447.75" y2="-112.125"/>
			
				<line clip-path="url(#SVGID_34_)" fill="none" stroke="#CCCCCC" stroke-width="0.75" stroke-miterlimit="10" x1="447.75" y1="0.375" x2="490.5" y2="0.375"/>
		</g>
	</g>
	<g clip-path="url(#SVGID_2_)">
		<defs>
			<rect id="SVGID_35_" x="-0.75" y="-0.75" width="535.5" height="302.25"/>
		</defs>
		<clipPath id="SVGID_36_">
			<use xlink:href="#SVGID_35_"  overflow="visible"/>
		</clipPath>
		<g clip-path="url(#SVGID_36_)">
			<defs>
				<rect id="SVGID_37_" x="0.75" width="533.25" height="113.25"/>
			</defs>
			<clipPath id="SVGID_38_">
				<use xlink:href="#SVGID_37_"  overflow="visible"/>
			</clipPath>
			
				<line clip-path="url(#SVGID_38_)" fill="none" stroke="#CCCCCC" stroke-width="0.75" stroke-miterlimit="10" x1="490.5" y1="225.375" x2="490.5" y2="-112.125"/>
			
				<line clip-path="url(#SVGID_38_)" fill="none" stroke="#CCCCCC" stroke-width="0.75" stroke-miterlimit="10" x1="490.5" y1="0.375" x2="533.25" y2="0.375"/>
		</g>
	</g>
	<g clip-path="url(#SVGID_2_)">
		<defs>
			<rect id="SVGID_39_" x="-0.75" y="-0.75" width="535.5" height="302.25"/>
		</defs>
		<clipPath id="SVGID_40_">
			<use xlink:href="#SVGID_39_"  overflow="visible"/>
		</clipPath>
		<g clip-path="url(#SVGID_40_)">
			<text transform="matrix(0 -1 1 0 387.8955 107.7485)" font-family="'ArialMT'" font-size="9.75">composition → curation</text>
		</g>
	</g>
	<g clip-path="url(#SVGID_2_)">
		<defs>
			<rect id="SVGID_41_" x="-0.75" y="-0.75" width="535.5" height="302.25"/>
		</defs>
		<clipPath id="SVGID_42_">
			<use xlink:href="#SVGID_41_"  overflow="visible"/>
		</clipPath>
		<g clip-path="url(#SVGID_42_)">
			<text transform="matrix(0 -1 1 0 430.6455 107.7485)" font-family="'ArialMT'" font-size="9.75">live media</text>
		</g>
	</g>
	<g clip-path="url(#SVGID_2_)">
		<defs>
			<rect id="SVGID_43_" x="-0.75" y="-0.75" width="535.5" height="302.25"/>
		</defs>
		<clipPath id="SVGID_44_">
			<use xlink:href="#SVGID_43_"  overflow="visible"/>
		</clipPath>
		<g clip-path="url(#SVGID_44_)">
			<text transform="matrix(0 -1 1 0 473.3955 107.7485)" font-family="'ArialMT'" font-size="9.75">embodied interaction</text>
		</g>
	</g>
	<g clip-path="url(#SVGID_2_)">
		<defs>
			<rect id="SVGID_45_" x="-0.75" y="-0.75" width="535.5" height="302.25"/>
		</defs>
		<clipPath id="SVGID_46_">
			<use xlink:href="#SVGID_45_"  overflow="visible"/>
		</clipPath>
		<g clip-path="url(#SVGID_46_)">
			<text transform="matrix(0 -1 1 0 508.3955 106.9985)" font-family="'ArialMT'" font-size="9.75">games for</text>
		</g>
		<g clip-path="url(#SVGID_46_)">
			<text transform="matrix(0 -1 1 0 519.6064 106.9985)" font-family="'ArialMT'" font-size="9.75">crisis response</text>
		</g>
	</g>
	<g clip-path="url(#SVGID_2_)">
		<defs>
			<rect id="SVGID_47_" x="-0.75" y="-0.75" width="535.5" height="302.25"/>
		</defs>
		<clipPath id="SVGID_48_">
			<use xlink:href="#SVGID_47_"  overflow="visible"/>
		</clipPath>
		<g clip-path="url(#SVGID_48_)">
			<text transform="matrix(1 0 0 1 2.9995 129.1455)" font-family="'ArialMT'" font-size="9.75">2015-19        CHS-Small: Learning Communities in the Crowd: Scaling </text>
		</g>
		<g clip-path="url(#SVGID_48_)">
			<text transform="matrix(1 0 0 1 2.9995 140.3564)" font-family="'ArialMT'" font-size="9.75">Participation in Online Courses through Social Live Media Composition, $547,827.</text>
		</g>
		<g clip-path="url(#SVGID_48_)">
			<text transform="matrix(1 0 0 1 2.9995 166.6455)" font-family="'ArialMT'" font-size="9.75">2012-17        EAGER: Embodying Visual Semantic Information Composition to </text>
		</g>
		<g clip-path="url(#SVGID_48_)">
			<text transform="matrix(1 0 0 1 2.9995 177.8564)" font-family="'ArialMT'" font-size="9.75">Stimulate Sensemaking and Ideation, $344,000.</text>
		</g>
		<g clip-path="url(#SVGID_48_)">
			<text transform="matrix(1 0 0 1 2.9995 204.1455)" font-family="'ArialMT'" font-size="9.75">2008-17        CAREER: A Multimodal Mixed-Initiative Research Notebook for </text>
		</g>
		<g clip-path="url(#SVGID_48_)">
			<text transform="matrix(1 0 0 1 2.9995 215.3564)" font-family="'ArialMT'" font-size="9.75">Information Discovery, $650,000.</text>
		</g>
		<g clip-path="url(#SVGID_48_)">
			<text transform="matrix(1 0 0 1 2.9995 241.6445)" font-family="'ArialMT'" font-size="9.75">2008-13        HCC-Medium: Location-Aware Non-Mimetic Simulation Game for </text>
		</g>
		<g clip-path="url(#SVGID_48_)">
			<text transform="matrix(1 0 0 1 2.9995 252.8564)" font-family="'ArialMT'" font-size="9.75">Teaching Team Coordination, $539,806.</text>
		</g>
		<g clip-path="url(#SVGID_48_)">
			<text transform="matrix(1 0 0 1 2.9995 279.1445)" font-family="'ArialMT'" font-size="9.75">2006-9          ALT: Promoting Information Discovery in Learning: Mixed-Initiative </text>
		</g>
		<g clip-path="url(#SVGID_48_)">
			<text transform="matrix(1 0 0 1 2.9995 290.3564)" font-family="'ArialMT'" font-size="9.75">Composition of Hybrid Image-Text Surrogates, $266,940.</text>
		</g>
	</g>
</g>
</svg>
