<?xml version="1.0" encoding="UTF-8" standalone="no"?>
<!-- Created with Inkscape (http://www.inkscape.org/) -->

<svg
   xmlns:dc="http://purl.org/dc/elements/1.1/"
   xmlns:cc="http://creativecommons.org/ns#"
   xmlns:rdf="http://www.w3.org/1999/02/22-rdf-syntax-ns#"
   xmlns:svg="http://www.w3.org/2000/svg"
   xmlns="http://www.w3.org/2000/svg"
   xmlns:sodipodi="http://sodipodi.sourceforge.net/DTD/sodipodi-0.dtd"
   xmlns:inkscape="http://www.inkscape.org/namespaces/inkscape"
   version="1.1"
   id="svg29"
   xml:space="preserve"
   width="401.77734"
   height="247.556"
   viewBox="0 0 401.77734 247.556"
   sodipodi:docname="studyMethods.svg"
   inkscape:version="0.92.2 5c3e80d, 2017-08-06"><metadata
     id="metadata35"><rdf:RDF><cc:Work
         rdf:about=""><dc:format>image/svg+xml</dc:format><dc:type
           rdf:resource="http://purl.org/dc/dcmitype/StillImage" /><dc:title></dc:title></cc:Work></rdf:RDF></metadata><defs
     id="defs33"><clipPath
       clipPathUnits="userSpaceOnUse"
       id="clipPath73"><path
         d="m 4.667,3 h 291 v 176 h -291 z"
         id="path71"
         inkscape:connector-curvature="0" /></clipPath><clipPath
       clipPathUnits="userSpaceOnUse"
       id="clipPath85"><path
         d="m 4.667,3 h 291 v 176 h -291 z"
         id="path83"
         inkscape:connector-curvature="0" /></clipPath><clipPath
       clipPathUnits="userSpaceOnUse"
       id="clipPath97"><path
         d="m 180.667,158 h 113.999 v 21 H 180.667 Z"
         id="path95"
         inkscape:connector-curvature="0" /></clipPath><clipPath
       clipPathUnits="userSpaceOnUse"
       id="clipPath109"><path
         d="m 180.667,136 h 113.999 v 21 H 180.667 Z"
         id="path107"
         inkscape:connector-curvature="0" /></clipPath><clipPath
       clipPathUnits="userSpaceOnUse"
       id="clipPath121"><path
         d="m 180.667,114 h 113.999 v 21 H 180.667 Z"
         id="path119"
         inkscape:connector-curvature="0" /></clipPath><clipPath
       clipPathUnits="userSpaceOnUse"
       id="clipPath133"><path
         d="m 180.667,92 h 113.999 v 21.001 H 180.667 Z"
         id="path131"
         inkscape:connector-curvature="0" /></clipPath><clipPath
       clipPathUnits="userSpaceOnUse"
       id="clipPath145"><path
         d="m 49.667,26 h 203 v 21 h -203 z"
         id="path143"
         inkscape:connector-curvature="0" /></clipPath></defs><sodipodi:namedview
     pagecolor="#ffffff"
     bordercolor="#666666"
     borderopacity="1"
     objecttolerance="10"
     gridtolerance="10"
     guidetolerance="10"
     inkscape:pageopacity="0"
     inkscape:pageshadow="2"
     inkscape:window-width="1489"
     inkscape:window-height="904"
     id="namedview31"
     showgrid="false"
     inkscape:zoom="4.6494531"
     inkscape:cx="200.88867"
     inkscape:cy="123.778"
     inkscape:window-x="0"
     inkscape:window-y="0"
     inkscape:window-maximized="0"
     inkscape:current-layer="g37" /><g
     id="g37"
     inkscape:groupmode="layer"
     inkscape:label="studyMethods"
     transform="matrix(1.3333333,0,0,-1.3333333,0,247.556)"><text
       transform="matrix(1,0,0,-1,6.6665,160)"
       style="font-variant:normal;font-weight:bold;font-stretch:normal;font-size:10px;font-family:Helvetica;-inkscape-font-specification:Helvetica-Bold;writing-mode:lr-tb;fill:#000000;fill-opacity:1;fill-rule:nonzero;stroke:none"
       id="text41"><tspan
         x="0 6.0100002 12 15"
         y="0"
         sodipodi:role="line"
         id="tspan39">data</tspan></text>
<text
       transform="matrix(1,0,0,-1,51.6665,160)"
       style="font-variant:normal;font-weight:normal;font-stretch:normal;font-size:10px;font-family:Helvetica;-inkscape-font-specification:Helvetica;writing-mode:lr-tb;fill:#000000;fill-opacity:1;fill-rule:nonzero;stroke:none"
       id="text49"><tspan
         x="0 5.9899998 11.98 17.969999 19.969999 21.969999 24.98 30.969999 33.970001 35.970001 40.970001"
         y="0"
         sodipodi:role="line"
         id="tspan43">qualitative</tspan><tspan
         x="0 3 6 9 14 16 21 26.99 32.98 34.98 37.98 43.970001 49.959999 52.959999"
         y="22"
         sodipodi:role="line"
         id="tspan45"> - visual data</tspan><tspan
         x="0 3 6 9 14.99 17.99 23.98 29.969999 35.959999 41.950001 47.939999 53.93 56.93 59.939999 65.93 71.919998 77.910004 80.910004 85.910004 88.910004 91.910004 94.910004 100.9 105.9 108.9 114.89 120.88 122.88"
         y="44"
         sodipodi:role="line"
         id="tspan47"> - grounded theory (textual)</tspan></text>
<text
       transform="matrix(1,0,0,-1,6.6665,72)"
       style="font-variant:normal;font-weight:bold;font-stretch:normal;font-size:10px;font-family:Helvetica;-inkscape-font-specification:Helvetica-Bold;writing-mode:lr-tb;fill:#000000;fill-opacity:1;fill-rule:nonzero;stroke:none"
       id="text53"><tspan
         x="0 5.9899998 11.98 14.98 17.98 20.98 26.99"
         y="0"
         sodipodi:role="line"
         id="tspan51">setting</tspan></text>
<text
       transform="matrix(1,0,0,-1,51.6665,72)"
       style="font-variant:normal;font-weight:normal;font-stretch:normal;font-size:10px;font-family:Helvetica;-inkscape-font-specification:Helvetica;writing-mode:lr-tb;fill:#000000;fill-opacity:1;fill-rule:nonzero;stroke:none"
       id="text57"><tspan
         x="0 3 5 10.99 12.99 131 133 138.99001 204 209 212 217.99001 224.99001"
         y="0"
         sodipodi:role="line"
         id="tspan55">fieldlabcrowd</tspan></text>
<text
       transform="matrix(1,0,0,-1,6.6665,50)"
       style="font-variant:normal;font-weight:bold;font-stretch:normal;font-size:10px;font-family:Helvetica;-inkscape-font-specification:Helvetica-Bold;writing-mode:lr-tb;fill:#000000;fill-opacity:1;fill-rule:nonzero;stroke:none"
       id="text61"><tspan
         x="0 3 8.9899998 14.98"
         y="0"
         sodipodi:role="line"
         id="tspan59">task</tspan></text>
<text
       transform="matrix(1,0,0,-1,51.6665,50)"
       style="font-variant:normal;font-weight:normal;font-stretch:normal;font-size:10px;font-family:Helvetica;-inkscape-font-specification:Helvetica;writing-mode:lr-tb;fill:#000000;fill-opacity:1;fill-rule:nonzero;stroke:none"
       id="text65"><tspan
         x="0 5 7 10 15.99 21.98 24.98 30.969999 131 136 141.99001 147.98 150.98 153.98 159.97 161.97 163.97 169.96001"
         y="0"
         sodipodi:role="line"
         id="tspan63">situatedcontrolled</tspan></text>
<g
       id="g67"><g
         id="g69"
         clip-path="url(#clipPath73)"><text
           transform="matrix(1,0,0,-1,6.6665,6)"
           style="font-variant:normal;font-weight:bold;font-stretch:normal;font-size:10px;font-family:Helvetica;-inkscape-font-specification:Helvetica-Bold;writing-mode:lr-tb;fill:#000000;fill-opacity:1;fill-rule:nonzero;stroke:none"
           id="text77"><tspan
             x="0 5.9899998 11.98 14.98 17.98 23.969999 26.969999 29.969999"
             y="0"
             sodipodi:role="line"
             id="tspan75">activity</tspan></text>
</g></g><g
       id="g79"><g
         id="g81"
         clip-path="url(#clipPath85)"><text
           transform="matrix(1,0,0,-1,51.6665,6)"
           style="font-variant:normal;font-weight:normal;font-stretch:normal;font-size:10px;font-family:Helvetica;-inkscape-font-specification:Helvetica;writing-mode:lr-tb;fill:#000000;fill-opacity:1;fill-rule:nonzero;stroke:none"
           id="text89"><tspan
             x="0 5.9899998 11.98 17.969999 23.959999 26.969999 32.959999 38.950001 44.939999 50.93"
             y="0"
             sodipodi:role="line"
             id="tspan87">open-ended</tspan></text>
</g></g><g
       id="g91"><g
         id="g93"
         clip-path="url(#clipPath97)"><text
           transform="matrix(1,0,0,-1,182.6665,160)"
           style="font-variant:normal;font-weight:normal;font-stretch:normal;font-size:10px;font-family:Helvetica;-inkscape-font-specification:Helvetica;writing-mode:lr-tb;fill:#000000;fill-opacity:1;fill-rule:nonzero;stroke:none"
           id="text101"><tspan
             x="0 5.9899998 11.98 17.969999 23.959999 26.959999 28.959999 31.959999 37.950001 40.950001 42.950001 47.950001"
             y="0"
             sodipodi:role="line"
             id="tspan99">quantitative</tspan></text>
</g></g><g
       id="g103"><g
         id="g105"
         clip-path="url(#clipPath109)"><text
           transform="matrix(1,0,0,-1,185.6665,138)"
           style="font-variant:normal;font-weight:normal;font-stretch:normal;font-size:10px;font-family:Helvetica;-inkscape-font-specification:Helvetica;writing-mode:lr-tb;fill:#000000;fill-opacity:1;fill-rule:nonzero;stroke:none"
           id="text113"><tspan
             x="0 3 6 8 13.99 19.98 25.969999 28.969999 30.969999 36.959999 42.950001 45.950001 53.950001 59.939999 62.939999 65.940002 67.940002 72.940002"
             y="0"
             sodipodi:role="line"
             id="tspan111">- ideation metrics</tspan></text>
</g></g><g
       id="g115"><g
         id="g117"
         clip-path="url(#clipPath121)"><text
           transform="matrix(1,0,0,-1,185.6665,116)"
           style="font-variant:normal;font-weight:normal;font-stretch:normal;font-size:10px;font-family:Helvetica;-inkscape-font-specification:Helvetica;writing-mode:lr-tb;fill:#000000;fill-opacity:1;fill-rule:nonzero;stroke:none"
           id="text125"><tspan
             x="0 3 6 13 16 19 24.99 30.98 35.98 37.98 43.970001 49.959999 52.959999 58.950001 64.940002 70.93 72.940002 77.940002 80.940002 82.940002 87.940002"
             y="0"
             sodipodi:role="line"
             id="tspan123">- AI design analytics</tspan></text>
</g></g><g
       id="g127"><g
         id="g129"
         clip-path="url(#clipPath133)"><text
           transform="matrix(1,0,0,-1,185.6665,94)"
           style="font-variant:normal;font-weight:normal;font-stretch:normal;font-size:10px;font-family:Helvetica;-inkscape-font-specification:Helvetica;writing-mode:lr-tb;fill:#000000;fill-opacity:1;fill-rule:nonzero;stroke:none"
           id="text137"><tspan
             x="0 3 6 11.99 17.98 23.969999 29.959999 35.950001 41.939999 49.950001 55.939999 61.93 64.93 67.93 73.919998 79.910004 85.900002 87.910004 92.910004 95.910004 97.910004 102.91"
             y="0"
             sodipodi:role="line"
             id="tspan135">- engagement analytics</tspan></text>
</g></g><g
       id="g139"><g
         id="g141"
         clip-path="url(#clipPath145)"><text
           transform="matrix(1,0,0,-1,54.6665,28)"
           style="font-variant:normal;font-weight:normal;font-stretch:normal;font-size:10px;font-family:Helvetica;-inkscape-font-specification:Helvetica;writing-mode:lr-tb;fill:#000000;fill-opacity:1;fill-rule:nonzero;stroke:none"
           id="text149"><tspan
             x="0 3 6 8 13.99 16.99 22.98 25.98 33.98 39.970001 42.970001 44.970001 50.959999 56.950001 59.950001 65.940002 71.93 76.93 82.919998 88.910004 91.910004 93.910004 99.900002 105.89 111.88 114.88 116.88 122.87"
             y="0"
             sodipodi:role="line"
             id="tspan147">- information-based ideation</tspan></text>
</g></g><path
       d="m 179.666,47 h 1.001 v 132 h -1.001 z"
       style="fill:#aeaaaa;fill-opacity:1;fill-rule:nonzero;stroke:none"
       id="path151"
       inkscape:connector-curvature="0" /><path
       d="m 3.667,3 h 1 v 177 h -1 z"
       style="fill:#aeaaaa;fill-opacity:1;fill-rule:nonzero;stroke:none"
       id="path153"
       inkscape:connector-curvature="0" /><path
       d="m 48.667,3 h 1 v 176 h -1 z"
       style="fill:#aeaaaa;fill-opacity:1;fill-rule:nonzero;stroke:none"
       id="path155"
       inkscape:connector-curvature="0" /><path
       d="m 179.666,3 h 1.001 v 22.001 h -1.001 z"
       style="fill:#aeaaaa;fill-opacity:1;fill-rule:nonzero;stroke:none"
       id="path157"
       inkscape:connector-curvature="0" /><path
       d="m 294.666,47 h 1 v 132 h -1 z"
       style="fill:#aeaaaa;fill-opacity:1;fill-rule:nonzero;stroke:none"
       id="path159"
       inkscape:connector-curvature="0" /><path
       d="m 252.667,3 h 1 v 88 h -1 z"
       style="fill:#aeaaaa;fill-opacity:1;fill-rule:nonzero;stroke:none"
       id="path161"
       inkscape:connector-curvature="0" /><path
       d="m 4.667,179 h 291 v 1 h -291 z"
       style="fill:#aeaaaa;fill-opacity:1;fill-rule:nonzero;stroke:none"
       id="path163"
       inkscape:connector-curvature="0" /><path
       d="m 4.667,157 h 291 v 1.001 h -291 z"
       style="fill:#aeaaaa;fill-opacity:1;fill-rule:nonzero;stroke:none"
       id="path165"
       inkscape:connector-curvature="0" /><path
       d="m 4.667,135 h 291 v 1 h -291 z"
       style="fill:#aeaaaa;fill-opacity:1;fill-rule:nonzero;stroke:none"
       id="path167"
       inkscape:connector-curvature="0" /><path
       d="m 4.667,113 h 291 v 1 h -291 z"
       style="fill:#aeaaaa;fill-opacity:1;fill-rule:nonzero;stroke:none"
       id="path169"
       inkscape:connector-curvature="0" /><path
       d="m 4.667,91 h 291 v 1 h -291 z"
       style="fill:#aeaaaa;fill-opacity:1;fill-rule:nonzero;stroke:none"
       id="path171"
       inkscape:connector-curvature="0" /><path
       d="m 4.667,69 h 291 v 1 h -291 z"
       style="fill:#aeaaaa;fill-opacity:1;fill-rule:nonzero;stroke:none"
       id="path173"
       inkscape:connector-curvature="0" /><path
       d="m 4.667,47 h 291 v 1 h -291 z"
       style="fill:#aeaaaa;fill-opacity:1;fill-rule:nonzero;stroke:none"
       id="path175"
       inkscape:connector-curvature="0" /><path
       d="m 4.667,25 h 249 v 1 h -249 z"
       style="fill:#aeaaaa;fill-opacity:1;fill-rule:nonzero;stroke:none"
       id="path177"
       inkscape:connector-curvature="0" /><path
       d="m 4.667,3 h 249 v 1 h -249 z"
       style="fill:#aeaaaa;fill-opacity:1;fill-rule:nonzero;stroke:none"
       id="path179"
       inkscape:connector-curvature="0" /></g></svg>