<?xml version="1.0" encoding="utf-8"?>
<!-- Generator: Adobe Illustrator 15.1.0, SVG Export Plug-In . SVG Version: 6.00 Build 0)  -->
<!DOCTYPE svg PUBLIC "-//W3C//DTD SVG 1.1//EN" "http://www.w3.org/Graphics/SVG/1.1/DTD/svg11.dtd">
<svg version="1.1" id="Layer_1" xmlns="http://www.w3.org/2000/svg" xmlns:xlink="http://www.w3.org/1999/xlink" x="0px" y="0px"
	 width="333.333px" height="120.667px" viewBox="0 0 333.333 120.667" enable-background="new 0 0 333.333 120.667"
	 xml:space="preserve">
<g>
	<defs>
		<rect id="SVGID_1_" x="-229" y="-49" width="792" height="612"/>
	</defs>
	<clipPath id="SVGID_2_">
		<use xlink:href="#SVGID_1_"  overflow="visible"/>
	</clipPath>
	<g clip-path="url(#SVGID_2_)">
		<defs>
			<rect id="SVGID_3_" x="3.125" y="3.5" width="327.75" height="114.75"/>
		</defs>
		<clipPath id="SVGID_4_">
			<use xlink:href="#SVGID_3_"  overflow="visible"/>
		</clipPath>
		<rect x="4.625" y="5" clip-path="url(#SVGID_4_)" fill="#FFFFFF" width="325.5" height="112.5"/>
		<path opacity="0.149" clip-path="url(#SVGID_4_)" d="M3.875,116.75L3.875,116.75h326.25v0.75H3.875V116.75z M3.875,94.25
			L3.875,94.25h326.25V95H3.875V94.25z M3.875,71.75L3.875,71.75h326.25v0.75H3.875V71.75z M3.875,49.25L3.875,49.25h326.25V50
			H3.875V49.25z M3.875,26.75L3.875,26.75h326.25v0.75H3.875V26.75z M3.875,4.25L3.875,4.25h326.25V5H3.875V4.25z M330.125,95
			L330.125,95v21.75h-0.75V95H330.125z M330.125,72.5L330.125,72.5v21.75h-0.75V72.5H330.125z M330.125,50L330.125,50v21.75h-0.75
			V50H330.125z M330.125,27.5L330.125,27.5v21.75h-0.75V27.5H330.125z M330.125,5L330.125,5v21.75h-0.75V5H330.125z M254.375,95
			L254.375,95v21.75h-0.75V95H254.375z M254.375,72.5L254.375,72.5v21.75h-0.75V72.5H254.375z M254.375,50L254.375,50v21.75h-0.75
			V50H254.375z M254.375,27.5L254.375,27.5v21.75h-0.75V27.5H254.375z M254.375,5L254.375,5v21.75h-0.75V5H254.375z M146.375,95
			L146.375,95v21.75h-0.75V95H146.375z M146.375,72.5L146.375,72.5v21.75h-0.75V72.5H146.375z M146.375,50L146.375,50v21.75h-0.75
			V50H146.375z M146.375,27.5L146.375,27.5v21.75h-0.75V27.5H146.375z M146.375,5L146.375,5v21.75h-0.75V5H146.375z M62.375,95
			L62.375,95v21.75h-0.75V95H62.375z M62.375,72.5L62.375,72.5v21.75h-0.75V72.5H62.375z M62.375,50L62.375,50v21.75h-0.75V50
			H62.375z M62.375,27.5L62.375,27.5v21.75h-0.75V27.5H62.375z M62.375,5L62.375,5v21.75h-0.75V5H62.375z M4.625,95L4.625,95v21.75
			h-0.75V95H4.625z M4.625,72.5L4.625,72.5v21.75h-0.75V72.5H4.625z M4.625,50L4.625,50v21.75h-0.75V50H4.625z M4.625,27.5
			L4.625,27.5v21.75h-0.75V27.5H4.625z M4.625,5L4.625,5v21.75h-0.75V5H4.625z"/>
		<g clip-path="url(#SVGID_4_)">
			<text transform="matrix(1 0 0 1 6.8745 22.4502)" font-family="'HelveticaNeue-Bold'" font-size="9.75">data</text>
		</g>
		<g clip-path="url(#SVGID_4_)">
			<text transform="matrix(1 0 0 1 64.6245 22.4502)" font-family="'HelveticaNeue'" font-size="9.75">qualitative</text>
		</g>
		<g clip-path="url(#SVGID_4_)">
			<text transform="matrix(1 0 0 1 148.6245 22.4502)" font-family="'HelveticaNeue'" font-size="9.75">quantiative</text>
		</g>
		<g clip-path="url(#SVGID_4_)">
			<text transform="matrix(1 0 0 1 64.6245 44.9502)" font-family="'HelveticaNeue'" font-size="9.75">grounded theory</text>
		</g>
		<g clip-path="url(#SVGID_4_)">
			<text transform="matrix(1 0 0 1 148.6245 44.9502)" font-family="'HelveticaNeue'" font-size="9.75">ideation metrics</text>
		</g>
		<g clip-path="url(#SVGID_4_)">
			<text transform="matrix(1 0 0 1 64.6245 67.4502)" font-family="'HelveticaNeue'" font-size="9.75">visual data</text>
		</g>
		<g clip-path="url(#SVGID_4_)">
			<text transform="matrix(1 0 0 1 148.6245 67.4502)" font-family="'HelveticaNeue'" font-size="9.75">engagement analytics</text>
		</g>
		<g clip-path="url(#SVGID_4_)">
			<text transform="matrix(1 0 0 1 6.8745 89.9502)" font-family="'HelveticaNeue-Bold'" font-size="9.75">setting</text>
		</g>
		<g clip-path="url(#SVGID_4_)">
			<text transform="matrix(1 0 0 1 64.6245 89.9502)" font-family="'HelveticaNeue'" font-size="9.75">field</text>
		</g>
		<g clip-path="url(#SVGID_4_)">
			<text transform="matrix(1 0 0 1 148.6245 89.9502)" font-family="'HelveticaNeue'" font-size="9.75">lab</text>
		</g>
		<g clip-path="url(#SVGID_4_)">
			<text transform="matrix(1 0 0 1 256.625 89.9502)" font-family="'HelveticaNeue'" font-size="9.75">crowd</text>
		</g>
		<g clip-path="url(#SVGID_4_)">
			<text transform="matrix(1 0 0 1 6.8745 112.4502)" font-family="'HelveticaNeue-Bold'" font-size="9.75">task</text>
		</g>
		<g clip-path="url(#SVGID_4_)">
			<text transform="matrix(1 0 0 1 64.6245 112.4502)" font-family="'HelveticaNeue'" font-size="9.75">situated</text>
		</g>
		<g clip-path="url(#SVGID_4_)">
			<text transform="matrix(1 0 0 1 148.6245 112.4502)" font-family="'HelveticaNeue'" font-size="9.75">controlled</text>
		</g>
	</g>
</g>
</svg>
