<?xml version="1.0" encoding="utf-8"?>
<!-- Generator: Adobe Illustrator 15.1.0, SVG Export Plug-In  -->
<!DOCTYPE svg PUBLIC "-//W3C//DTD SVG 1.0//EN" "http://www.w3.org/TR/2001/REC-SVG-20010904/DTD/svg10.dtd" [
	<!ENTITY ns_flows "http://ns.adobe.com/Flows/1.0/">
]>
<svg version="1.0"
	 xmlns="http://www.w3.org/2000/svg" xmlns:xlink="http://www.w3.org/1999/xlink" xmlns:a="http://ns.adobe.com/AdobeSVGViewerExtensions/3.0/"
	 x="0px" y="0px" width="538px" height="209px" viewBox="-3 -2.3 538 209"
	 style="overflow:visible;enable-background:new -3 -2.3 538 209;" xml:space="preserve">
<style type="text/css">
<![CDATA[
	.st0{clip-path:url(#SVGID_254_);fill:#BFBFBF;}
	.st1{clip-path:url(#SVGID_276_);fill:#BFBFBF;}
	.st2{clip-path:url(#SVGID_135_);fill:#BFBFBF;}
	.st3{font-family:'Times-Roman';}
	.st4{clip-path:url(#SVGID_244_);fill:#BFBFBF;}
	.st5{clip-path:url(#SVGID_266_);fill:#BFBFBF;}
	.st6{clip-path:url(#SVGID_125_);fill:#BFBFBF;}
	.st7{clip-path:url(#SVGID_256_);fill:#BFBFBF;}
	.st8{clip-path:url(#SVGID_130_);fill:#BFBFBF;}
	.st9{clip-path:url(#SVGID_137_);fill:#BFBFBF;}
	.st10{clip-path:url(#SVGID_246_);fill:#BFBFBF;}
	.st11{clip-path:url(#SVGID_120_);fill:#BFBFBF;}
	.st12{clip-path:url(#SVGID_268_);fill:#BFBFBF;}
	.st13{clip-path:url(#SVGID_127_);fill:#BFBFBF;}
	.st14{clip-path:url(#SVGID_258_);fill:#BFBFBF;}
	.st15{clip-path:url(#SVGID_132_);fill:#BFBFBF;}
	.st16{font-family:'Helvetica-Bold';}
	.st17{clip-path:url(#SVGID_248_);fill:#BFBFBF;}
	.st18{clip-path:url(#SVGID_122_);fill:#BFBFBF;}
	.st19{clip-path:url(#SVGID_129_);fill:#BFBFBF;}
	.st20{font-size:6;}
	.st21{clip-path:url(#SVGID_238_);fill:#BFBFBF;}
	.st22{clip-path:url(#SVGID_134_);fill:#BFBFBF;}
	.st23{clip-path:url(#SVGID_119_);fill:#BFBFBF;}
	.st24{clip-path:url(#SVGID_124_);fill:#BFBFBF;}
	.st25{clip-path:url(#SVGID_270_);fill:#BFBFBF;}
	.st26{clip-path:url(#SVGID_136_);fill:#BFBFBF;}
	.st27{clip-path:url(#SVGID_260_);fill:#BFBFBF;}
	.st28{clip-path:url(#SVGID_126_);fill:#BFBFBF;}
	.st29{clip-path:url(#SVGID_100_);}
	.st30{clip-path:url(#SVGID_101_);}
	.st31{clip-path:url(#SVGID_102_);}
	.st32{clip-path:url(#SVGID_103_);}
	.st33{clip-path:url(#SVGID_104_);}
	.st34{clip-path:url(#SVGID_105_);}
	.st35{clip-path:url(#SVGID_106_);}
	.st36{clip-path:url(#SVGID_107_);}
	.st37{clip-path:url(#SVGID_108_);}
	.st38{clip-path:url(#SVGID_109_);}
	.st39{clip-path:url(#SVGID_110_);}
	.st40{clip-path:url(#SVGID_111_);}
	.st41{clip-path:url(#SVGID_112_);}
	.st42{clip-path:url(#SVGID_113_);}
	.st43{clip-path:url(#SVGID_114_);}
	.st44{clip-path:url(#SVGID_115_);}
	.st45{clip-path:url(#SVGID_116_);}
	.st46{clip-path:url(#SVGID_117_);}
	.st47{clip-path:url(#SVGID_118_);}
	.st48{clip-path:url(#SVGID_140_);}
	.st49{clip-path:url(#SVGID_142_);}
	.st50{clip-path:url(#SVGID_144_);}
	.st51{clip-path:url(#SVGID_146_);}
	.st52{clip-path:url(#SVGID_148_);}
	.st53{clip-path:url(#SVGID_150_);}
	.st54{clip-path:url(#SVGID_152_);}
	.st55{clip-path:url(#SVGID_154_);}
	.st56{clip-path:url(#SVGID_156_);}
	.st57{clip-path:url(#SVGID_158_);}
	.st58{clip-path:url(#SVGID_160_);}
	.st59{clip-path:url(#SVGID_162_);}
	.st60{clip-path:url(#SVGID_164_);}
	.st61{clip-path:url(#SVGID_166_);}
	.st62{clip-path:url(#SVGID_168_);}
	.st63{clip-path:url(#SVGID_170_);}
	.st64{clip-path:url(#SVGID_172_);}
	.st65{clip-path:url(#SVGID_174_);}
	.st66{clip-path:url(#SVGID_176_);}
	.st67{clip-path:url(#SVGID_178_);}
	.st68{clip-path:url(#SVGID_180_);}
	.st69{clip-path:url(#SVGID_182_);}
	.st70{clip-path:url(#SVGID_184_);}
	.st71{clip-path:url(#SVGID_186_);}
	.st72{clip-path:url(#SVGID_188_);}
	.st73{clip-path:url(#SVGID_190_);}
	.st74{clip-path:url(#SVGID_192_);}
	.st75{clip-path:url(#SVGID_194_);}
	.st76{clip-path:url(#SVGID_196_);}
	.st77{clip-path:url(#SVGID_198_);}
	.st78{clip-path:url(#SVGID_200_);}
	.st79{clip-path:url(#SVGID_202_);}
	.st80{clip-path:url(#SVGID_204_);}
	.st81{clip-path:url(#SVGID_206_);}
	.st82{clip-path:url(#SVGID_208_);}
	.st83{clip-path:url(#SVGID_210_);}
	.st84{clip-path:url(#SVGID_212_);}
	.st85{clip-path:url(#SVGID_214_);}
	.st86{clip-path:url(#SVGID_216_);}
	.st87{clip-path:url(#SVGID_218_);}
	.st88{clip-path:url(#SVGID_220_);}
	.st89{clip-path:url(#SVGID_222_);}
	.st90{clip-path:url(#SVGID_224_);}
	.st91{clip-path:url(#SVGID_226_);}
	.st92{clip-path:url(#SVGID_228_);}
	.st93{clip-path:url(#SVGID_230_);}
	.st94{clip-path:url(#SVGID_232_);}
	.st95{clip-path:url(#SVGID_234_);}
	.st96{clip-path:url(#SVGID_236_);}
	.st97{clip-path:url(#SVGID_250_);fill:#BFBFBF;}
	.st98{clip-path:url(#SVGID_272_);fill:#BFBFBF;}
	.st99{clip-path:url(#SVGID_131_);fill:#BFBFBF;}
	.st100{font-family:'Helvetica';}
	.st101{clip-path:url(#SVGID_138_);fill:#BFBFBF;}
	.st102{font-size:10;}
	.st103{clip-path:url(#SVGID_240_);fill:#BFBFBF;}
	.st104{clip-path:url(#SVGID_262_);fill:#BFBFBF;}
	.st105{clip-path:url(#SVGID_121_);fill:#BFBFBF;}
	.st106{clip-path:url(#SVGID_128_);fill:#BFBFBF;}
	.st107{clip-path:url(#SVGID_70_);}
	.st108{clip-path:url(#SVGID_71_);}
	.st109{clip-path:url(#SVGID_72_);}
	.st110{clip-path:url(#SVGID_73_);}
	.st111{clip-path:url(#SVGID_74_);}
	.st112{clip-path:url(#SVGID_75_);}
	.st113{clip-path:url(#SVGID_76_);}
	.st114{clip-path:url(#SVGID_77_);}
	.st115{clip-path:url(#SVGID_78_);}
	.st116{clip-path:url(#SVGID_79_);}
	.st117{clip-path:url(#SVGID_80_);}
	.st118{clip-path:url(#SVGID_81_);}
	.st119{clip-path:url(#SVGID_82_);}
	.st120{clip-path:url(#SVGID_83_);}
	.st121{clip-path:url(#SVGID_84_);}
	.st122{clip-path:url(#SVGID_85_);}
	.st123{clip-path:url(#SVGID_86_);}
	.st124{clip-path:url(#SVGID_87_);}
	.st125{clip-path:url(#SVGID_88_);}
	.st126{clip-path:url(#SVGID_89_);}
	.st127{clip-path:url(#SVGID_90_);}
	.st128{clip-path:url(#SVGID_91_);}
	.st129{clip-path:url(#SVGID_92_);}
	.st130{clip-path:url(#SVGID_93_);}
	.st131{clip-path:url(#SVGID_94_);}
	.st132{clip-path:url(#SVGID_95_);}
	.st133{clip-path:url(#SVGID_96_);}
	.st134{clip-path:url(#SVGID_97_);}
	.st135{clip-path:url(#SVGID_98_);}
	.st136{clip-path:url(#SVGID_99_);}
	.st137{clip-path:url(#SVGID_252_);fill:#BFBFBF;}
	.st138{clip-path:url(#SVGID_274_);fill:#BFBFBF;}
	.st139{clip-path:url(#SVGID_133_);fill:#BFBFBF;}
	.st140{clip-path:url(#SVGID_242_);fill:#BFBFBF;}
	.st141{clip-path:url(#SVGID_264_);fill:#BFBFBF;}
	.st142{clip-path:url(#SVGID_123_);fill:#BFBFBF;}
]]>
</style>
<defs>
</defs>
<g>
	<defs>
		<rect id="SVGID_69_" x="2" y="2" width="529" height="27"/>
	</defs>
	<clipPath id="SVGID_70_">
		<use xlink:href="#SVGID_69_"  style="overflow:visible;"/>
	</clipPath>
	<g class="st107">
		<text transform="matrix(1 0 0 1 205 14)"><tspan x="0" y="0" class="st16 st102">v</tspan><tspan x="6" y="0" class="st16 st102">i</tspan><tspan x="9" y="0" class="st16 st102">s</tspan><tspan x="15" y="0" class="st16 st102">u</tspan><tspan x="21" y="0" class="st16 st102">a</tspan><tspan x="27" y="0" class="st16 st102">l</tspan></text>
	</g>
</g>
<g>
	<defs>
		<rect id="SVGID_68_" x="2" y="2" width="529" height="27"/>
	</defs>
	<clipPath id="SVGID_71_">
		<use xlink:href="#SVGID_68_"  style="overflow:visible;"/>
	</clipPath>
	<g class="st108">
		<text transform="matrix(1 0 0 1 210 27)"><tspan x="0" y="0" class="st16 st102">d</tspan><tspan x="6" y="0" class="st16 st102">a</tspan><tspan x="12" y="0" class="st16 st102">t</tspan><tspan x="15" y="0" class="st16 st102">a</tspan></text>
	</g>
</g>
<g>
	<defs>
		<rect id="SVGID_67_" x="255" y="2" width="68" height="27"/>
	</defs>
	<clipPath id="SVGID_72_">
		<use xlink:href="#SVGID_67_"  style="overflow:visible;"/>
	</clipPath>
	<g class="st109">
		<text transform="matrix(1 0 0 1 266 14)"><tspan x="0" y="0" class="st16 st102">g</tspan><tspan x="6" y="0" class="st16 st102">r</tspan><tspan x="10" y="0" class="st16 st102">ound</tspan><tspan x="34" y="0" class="st16 st102">e</tspan><tspan x="40" y="0" class="st16 st102">d</tspan><tspan x="46" y="0" class="st16 st102"> </tspan></text>
	</g>
</g>
<g>
	<defs>
		<rect id="SVGID_66_" x="255" y="2" width="68" height="27"/>
	</defs>
	<clipPath id="SVGID_73_">
		<use xlink:href="#SVGID_66_"  style="overflow:visible;"/>
	</clipPath>
	<g class="st110">
		<text transform="matrix(1 0 0 1 274 27)"><tspan x="0" y="0" class="st16 st102">t</tspan><tspan x="3" y="0" class="st16 st102">h</tspan><tspan x="9" y="0" class="st16 st102">e</tspan><tspan x="15" y="0" class="st16 st102">o</tspan><tspan x="21" y="0" class="st16 st102">r</tspan><tspan x="25" y="0" class="st16 st102">y</tspan></text>
	</g>
</g>
<g>
	<defs>
		<rect id="SVGID_65_" x="324" y="2" width="68" height="27"/>
	</defs>
	<clipPath id="SVGID_74_">
		<use xlink:href="#SVGID_65_"  style="overflow:visible;"/>
	</clipPath>
	<g class="st111">
		<text transform="matrix(1 0 0 1 338 14)"><tspan x="0" y="0" class="st16 st102">i</tspan><tspan x="3" y="0" class="st16 st102">d</tspan><tspan x="9" y="0" class="st16 st102">ea</tspan><tspan x="21" y="0" class="st16 st102">t</tspan><tspan x="24" y="0" class="st16 st102">i</tspan><tspan x="27" y="0" class="st16 st102">on</tspan><tspan x="39" y="0" class="st16 st102"> </tspan></text>
	</g>
</g>
<g>
	<defs>
		<rect id="SVGID_64_" x="324" y="2" width="68" height="27"/>
	</defs>
	<clipPath id="SVGID_75_">
		<use xlink:href="#SVGID_64_"  style="overflow:visible;"/>
	</clipPath>
	<g class="st112">
		<text transform="matrix(1 0 0 1 339 27)"><tspan x="0" y="0" class="st16 st102">m</tspan><tspan x="9" y="0" class="st16 st102">e</tspan><tspan x="15" y="0" class="st16 st102">t</tspan><tspan x="18" y="0" class="st16 st102">r</tspan><tspan x="22" y="0" class="st16 st102">i</tspan><tspan x="25" y="0" class="st16 st102">c</tspan><tspan x="31" y="0" class="st16 st102">s</tspan></text>
	</g>
</g>
<g>
	<defs>
		<rect id="SVGID_63_" x="393" y="2" width="68" height="27"/>
	</defs>
	<clipPath id="SVGID_76_">
		<use xlink:href="#SVGID_63_"  style="overflow:visible;"/>
	</clipPath>
	<g class="st113">
		<text transform="matrix(1 0 0 1 404 14)"><tspan x="0" y="0" class="st16 st102">A</tspan><tspan x="7" y="0" class="st16 st102">I </tspan><tspan x="13" y="0" class="st16 st102">d</tspan><tspan x="19" y="0" class="st16 st102">es</tspan><tspan x="31" y="0" class="st16 st102">i</tspan><tspan x="34" y="0" class="st16 st102">gn</tspan><tspan x="46" y="0" class="st16 st102"> </tspan></text>
	</g>
</g>
<g>
	<defs>
		<rect id="SVGID_62_" x="393" y="2" width="68" height="27"/>
	</defs>
	<clipPath id="SVGID_77_">
		<use xlink:href="#SVGID_62_"  style="overflow:visible;"/>
	</clipPath>
	<g class="st114">
		<text transform="matrix(1 0 0 1 405 27)"><tspan x="0" y="0" class="st16 st102">a</tspan><tspan x="6" y="0" class="st16 st102">n</tspan><tspan x="12" y="0" class="st16 st102">a</tspan><tspan x="18" y="0" class="st16 st102">l</tspan><tspan x="21" y="0" class="st16 st102">y</tspan><tspan x="27" y="0" class="st16 st102">t</tspan><tspan x="30" y="0" class="st16 st102">i</tspan><tspan x="33" y="0" class="st16 st102">c</tspan><tspan x="39" y="0" class="st16 st102">s</tspan></text>
	</g>
</g>
<g>
	<defs>
		<rect id="SVGID_61_" x="462" y="2" width="68" height="27"/>
	</defs>
	<clipPath id="SVGID_78_">
		<use xlink:href="#SVGID_61_"  style="overflow:visible;"/>
	</clipPath>
	<g class="st115">
		<text transform="matrix(1 0 0 1 466 14)"><tspan x="0" y="0" class="st16 st102">e</tspan><tspan x="6" y="0" class="st16 st102">ng</tspan><tspan x="18" y="0" class="st16 st102">a</tspan><tspan x="24" y="0" class="st16 st102">g</tspan><tspan x="30" y="0" class="st16 st102">e</tspan><tspan x="36" y="0" class="st16 st102">m</tspan><tspan x="45" y="0" class="st16 st102">e</tspan><tspan x="51" y="0" class="st16 st102">n</tspan><tspan x="57" y="0" class="st16 st102">t</tspan><tspan x="60" y="0" class="st16 st102"> </tspan></text>
	</g>
</g>
<g>
	<defs>
		<rect id="SVGID_60_" x="462" y="2" width="68" height="27"/>
	</defs>
	<clipPath id="SVGID_79_">
		<use xlink:href="#SVGID_60_"  style="overflow:visible;"/>
	</clipPath>
	<g class="st116">
		<text transform="matrix(1 0 0 1 474 27)"><tspan x="0" y="0" class="st16 st102">a</tspan><tspan x="6" y="0" class="st16 st102">n</tspan><tspan x="12" y="0" class="st16 st102">a</tspan><tspan x="18" y="0" class="st16 st102">l</tspan><tspan x="21" y="0" class="st16 st102">y</tspan><tspan x="27" y="0" class="st16 st102">t</tspan><tspan x="30" y="0" class="st16 st102">i</tspan><tspan x="33" y="0" class="st16 st102">c</tspan><tspan x="39" y="0" class="st16 st102">s</tspan></text>
	</g>
</g>
<g>
	<defs>
		<rect id="SVGID_59_" x="2" y="2" width="529" height="202"/>
	</defs>
	<clipPath id="SVGID_80_">
		<use xlink:href="#SVGID_59_"  style="overflow:visible;"/>
	</clipPath>
	<g class="st117">
		<text transform="matrix(1 0 0 1 10 41)" class="st100 st20">3</text>
	</g>
</g>
<g>
	<defs>
		<rect id="SVGID_58_" x="2" y="2" width="529" height="202"/>
	</defs>
	<clipPath id="SVGID_81_">
		<use xlink:href="#SVGID_58_"  style="overflow:visible;"/>
	</clipPath>
	<g class="st118">
		<text transform="matrix(1 0 0 1 23 42)"><tspan x="0" y="0" class="st3 st102">A</tspan><tspan x="7" y="0" class="st3 st102">l</tspan><tspan x="10" y="0" class="st3 st102">go</tspan><tspan x="20" y="0" class="st3 st102">r</tspan><tspan x="23" y="0" class="st3 st102">it</tspan><tspan x="29" y="0" class="st3 st102">h</tspan><tspan x="34" y="0" class="st3 st102">m</tspan><tspan x="42" y="0" class="st3 st102">-</tspan><tspan x="45" y="0" class="st3 st102">i</tspan><tspan x="48" y="0" class="st3 st102">n</tspan><tspan x="53" y="0" class="st3 st102">-</tspan><tspan x="56" y="0" class="st3 st102">L</tspan><tspan x="62" y="0" class="st3 st102">oop</tspan><tspan x="77" y="0" class="st3 st102"> </tspan><tspan x="80" y="0" class="st3 st102">C</tspan><tspan x="87" y="0" class="st3 st102">o</tspan><tspan x="92" y="0" class="st3 st102">m</tspan><tspan x="100" y="0" class="st3 st102">po</tspan><tspan x="110" y="0" class="st3 st102">s</tspan><tspan x="114" y="0" class="st3 st102">iti</tspan><tspan x="123" y="0" class="st3 st102">on</tspan></text>
	</g>
</g>
<g>
	<defs>
		<rect id="SVGID_57_" x="2" y="2" width="529" height="202"/>
	</defs>
	<clipPath id="SVGID_82_">
		<use xlink:href="#SVGID_57_"  style="overflow:visible;"/>
	</clipPath>
	<g class="st119">
		<text transform="matrix(1 0 0 1 218 43)" class="st100 st102">x</text>
	</g>
</g>
<g>
	<defs>
		<rect id="SVGID_56_" x="2" y="2" width="529" height="202"/>
	</defs>
	<clipPath id="SVGID_83_">
		<use xlink:href="#SVGID_56_"  style="overflow:visible;"/>
	</clipPath>
	<g class="st120">
		<text transform="matrix(1 0 0 1 287 43)" class="st100 st102">x</text>
	</g>
</g>
<g>
	<defs>
		<rect id="SVGID_55_" x="2" y="2" width="529" height="202"/>
	</defs>
	<clipPath id="SVGID_84_">
		<use xlink:href="#SVGID_55_"  style="overflow:visible;"/>
	</clipPath>
	<g class="st121">
		<text transform="matrix(1 0 0 1 356 43)" class="st100 st102">x</text>
	</g>
</g>
<g>
	<defs>
		<rect id="SVGID_54_" x="2" y="2" width="529" height="202"/>
	</defs>
	<clipPath id="SVGID_85_">
		<use xlink:href="#SVGID_54_"  style="overflow:visible;"/>
	</clipPath>
	<g class="st122">
		<text transform="matrix(1 0 0 1 8 60)"><tspan x="0" y="0" class="st100 st20">2</tspan><tspan x="3" y="0" class="st100 st20">a</tspan></text>
	</g>
</g>
<g>
	<defs>
		<rect id="SVGID_53_" x="2" y="2" width="529" height="202"/>
	</defs>
	<clipPath id="SVGID_86_">
		<use xlink:href="#SVGID_53_"  style="overflow:visible;"/>
	</clipPath>
	<g class="st123">
		<text transform="matrix(1 0 0 1 23 61)"><tspan x="0" y="0" class="st3 st102">S</tspan><tspan x="6" y="0" class="st3 st102">t</tspan><tspan x="9" y="0" class="st3 st102">r</tspan><tspan x="12" y="0" class="st3 st102">a</tspan><tspan x="16" y="0" class="st3 st102">t</tspan><tspan x="19" y="0" class="st3 st102">e</tspan><tspan x="23" y="0" class="st3 st102">g</tspan><tspan x="28" y="0" class="st3 st102">i</tspan><tspan x="31" y="0" class="st3 st102">e</tspan><tspan x="35" y="0" class="st3 st102">s</tspan><tspan x="39" y="0" class="st3 st102"> </tspan><tspan x="42" y="0" class="st3 st102">[</tspan><tspan x="45" y="0" class="st3 st102">F</tspan><tspan x="51" y="0" class="st3 st102">r</tspan><tspan x="54" y="0" class="st3 st102">ee</tspan><tspan x="62" y="0" class="st3 st102">-</tspan><tspan x="65" y="0" class="st3 st102">F</tspan><tspan x="71" y="0" class="st3 st102">o</tspan><tspan x="76" y="0" class="st3 st102">r</tspan><tspan x="79" y="0" class="st3 st102">m</tspan><tspan x="87" y="0" class="st3 st102"> </tspan><tspan x="90" y="0" class="st3 st102">C</tspan><tspan x="97" y="0" class="st3 st102">u</tspan><tspan x="102" y="0" class="st3 st102">r</tspan><tspan x="105" y="0" class="st3 st102">a</tspan><tspan x="109" y="0" class="st3 st102">ti</tspan><tspan x="115" y="0" class="st3 st102">on]</tspan></text>
	</g>
</g>
<g>
	<defs>
		<rect id="SVGID_52_" x="2" y="2" width="529" height="202"/>
	</defs>
	<clipPath id="SVGID_87_">
		<use xlink:href="#SVGID_52_"  style="overflow:visible;"/>
	</clipPath>
	<g class="st124">
		<text transform="matrix(1 0 0 1 218 62)" class="st100 st102">x</text>
	</g>
</g>
<g>
	<defs>
		<rect id="SVGID_51_" x="2" y="2" width="529" height="202"/>
	</defs>
	<clipPath id="SVGID_88_">
		<use xlink:href="#SVGID_51_"  style="overflow:visible;"/>
	</clipPath>
	<g class="st125">
		<text transform="matrix(1 0 0 1 287 62)" class="st100 st102">x</text>
	</g>
</g>
<g>
	<defs>
		<rect id="SVGID_50_" x="2" y="2" width="529" height="202"/>
	</defs>
	<clipPath id="SVGID_89_">
		<use xlink:href="#SVGID_50_"  style="overflow:visible;"/>
	</clipPath>
	<g class="st126">
		<text transform="matrix(1 0 0 1 494 62)" class="st100 st102">x</text>
	</g>
</g>
<g>
	<defs>
		<rect id="SVGID_49_" x="2" y="2" width="529" height="202"/>
	</defs>
	<clipPath id="SVGID_90_">
		<use xlink:href="#SVGID_49_"  style="overflow:visible;"/>
	</clipPath>
	<g class="st127">
		<text transform="matrix(1 0 0 1 10 79)" class="st100 st20">2</text>
	</g>
</g>
<g>
	<defs>
		<rect id="SVGID_48_" x="2" y="2" width="529" height="202"/>
	</defs>
	<clipPath id="SVGID_91_">
		<use xlink:href="#SVGID_48_"  style="overflow:visible;"/>
	</clipPath>
	<g class="st128">
		<text transform="matrix(1 0 0 1 23 80)"><tspan x="0" y="0" class="st3 st102">P</tspan><tspan x="6" y="0" class="st3 st102">a</tspan><tspan x="10" y="0" class="st3 st102">tt</tspan><tspan x="16" y="0" class="st3 st102">e</tspan><tspan x="20" y="0" class="st3 st102">r</tspan><tspan x="23" y="0" class="st3 st102">n</tspan><tspan x="28" y="0" class="st3 st102">s</tspan><tspan x="32" y="0" class="st3 st102"> </tspan><tspan x="35" y="0" class="st3 st102">[</tspan><tspan x="38" y="0" class="st3 st102">F</tspan><tspan x="44" y="0" class="st3 st102">r</tspan><tspan x="47" y="0" class="st3 st102">ee</tspan><tspan x="55" y="0" class="st3 st102">-</tspan><tspan x="58" y="0" class="st3 st102">F</tspan><tspan x="64" y="0" class="st3 st102">o</tspan><tspan x="69" y="0" class="st3 st102">r</tspan><tspan x="72" y="0" class="st3 st102">m</tspan><tspan x="80" y="0" class="st3 st102"> </tspan><tspan x="83" y="0" class="st3 st102">C</tspan><tspan x="90" y="0" class="st3 st102">u</tspan><tspan x="95" y="0" class="st3 st102">r</tspan><tspan x="98" y="0" class="st3 st102">a</tspan><tspan x="102" y="0" class="st3 st102">ti</tspan><tspan x="108" y="0" class="st3 st102">on]</tspan></text>
	</g>
</g>
<g>
	<defs>
		<rect id="SVGID_47_" x="2" y="2" width="529" height="202"/>
	</defs>
	<clipPath id="SVGID_92_">
		<use xlink:href="#SVGID_47_"  style="overflow:visible;"/>
	</clipPath>
	<g class="st129">
		<text transform="matrix(1 0 0 1 218 81)" class="st100 st102">x</text>
	</g>
</g>
<g>
	<defs>
		<rect id="SVGID_46_" x="2" y="2" width="529" height="202"/>
	</defs>
	<clipPath id="SVGID_93_">
		<use xlink:href="#SVGID_46_"  style="overflow:visible;"/>
	</clipPath>
	<g class="st130">
		<text transform="matrix(1 0 0 1 10 98)" class="st100 st20">5</text>
	</g>
</g>
<g>
	<defs>
		<rect id="SVGID_45_" x="2" y="2" width="529" height="202"/>
	</defs>
	<clipPath id="SVGID_94_">
		<use xlink:href="#SVGID_45_"  style="overflow:visible;"/>
	</clipPath>
	<g class="st131">
		<text transform="matrix(1 0 0 1 23 99)"><tspan x="0" y="0" class="st3 st102">C</tspan><tspan x="7" y="0" class="st3 st102">o</tspan><tspan x="12" y="0" class="st3 st102">ll</tspan><tspan x="18" y="0" class="st3 st102">a</tspan><tspan x="22" y="0" class="st3 st102">bo</tspan><tspan x="32" y="0" class="st3 st102">r</tspan><tspan x="35" y="0" class="st3 st102">a</tspan><tspan x="39" y="0" class="st3 st102">ti</tspan><tspan x="45" y="0" class="st3 st102">v</tspan><tspan x="50" y="0" class="st3 st102">e</tspan><tspan x="54" y="0" class="st3 st102"> </tspan><tspan x="57" y="0" class="st3 st102">L</tspan><tspan x="63" y="0" class="st3 st102">i</tspan><tspan x="66" y="0" class="st3 st102">v</tspan><tspan x="71" y="0" class="st3 st102">e</tspan><tspan x="75" y="0" class="st3 st102"> </tspan><tspan x="78" y="0" class="st3 st102">M</tspan><tspan x="87" y="0" class="st3 st102">e</tspan><tspan x="91" y="0" class="st3 st102">d</tspan><tspan x="96" y="0" class="st3 st102">i</tspan><tspan x="99" y="0" class="st3 st102">a</tspan><tspan x="103" y="0" class="st3 st102"> </tspan><tspan x="106" y="0" class="st3 st102">C</tspan><tspan x="113" y="0" class="st3 st102">u</tspan><tspan x="118" y="0" class="st3 st102">r</tspan><tspan x="121" y="0" class="st3 st102">a</tspan><tspan x="125" y="0" class="st3 st102">ti</tspan><tspan x="131" y="0" class="st3 st102">on</tspan></text>
	</g>
</g>
<g>
	<defs>
		<rect id="SVGID_44_" x="2" y="2" width="529" height="202"/>
	</defs>
	<clipPath id="SVGID_95_">
		<use xlink:href="#SVGID_44_"  style="overflow:visible;"/>
	</clipPath>
	<g class="st132">
		<text transform="matrix(1 0 0 1 218 100)" class="st100 st102">x</text>
	</g>
</g>
<g>
	<defs>
		<rect id="SVGID_43_" x="2" y="2" width="529" height="202"/>
	</defs>
	<clipPath id="SVGID_96_">
		<use xlink:href="#SVGID_43_"  style="overflow:visible;"/>
	</clipPath>
	<g class="st133">
		<text transform="matrix(1 0 0 1 287 100)" class="st100 st102">x</text>
	</g>
</g>
<g>
	<defs>
		<rect id="SVGID_42_" x="2" y="2" width="529" height="202"/>
	</defs>
	<clipPath id="SVGID_97_">
		<use xlink:href="#SVGID_42_"  style="overflow:visible;"/>
	</clipPath>
	<g class="st134">
		<text transform="matrix(1 0 0 1 10 117)" class="st100 st20">8</text>
	</g>
</g>
<g>
	<defs>
		<rect id="SVGID_41_" x="2" y="2" width="529" height="202"/>
	</defs>
	<clipPath id="SVGID_98_">
		<use xlink:href="#SVGID_41_"  style="overflow:visible;"/>
	</clipPath>
	<g class="st135">
		<text transform="matrix(1 0 0 1 23 118)"><tspan x="0" y="0" class="st3 st102">R</tspan><tspan x="7" y="0" class="st3 st102">ec</tspan><tspan x="15" y="0" class="st3 st102">ogn</tspan><tspan x="30" y="0" class="st3 st102">i</tspan><tspan x="33" y="0" class="st3 st102">z</tspan><tspan x="37" y="0" class="st3 st102">i</tspan><tspan x="40" y="0" class="st3 st102">ng</tspan><tspan x="50" y="0" class="st3 st102"> </tspan><tspan x="53" y="0" class="st3 st102">M</tspan><tspan x="62" y="0" class="st3 st102">u</tspan><tspan x="67" y="0" class="st3 st102">lti</tspan><tspan x="76" y="0" class="st3 st102">s</tspan><tspan x="80" y="0" class="st3 st102">ca</tspan><tspan x="88" y="0" class="st3 st102">l</tspan><tspan x="91" y="0" class="st3 st102">e</tspan><tspan x="95" y="0" class="st3 st102"> </tspan><tspan x="98" y="0" class="st3 st102">D</tspan><tspan x="105" y="0" class="st3 st102">e</tspan><tspan x="109" y="0" class="st3 st102">s</tspan><tspan x="113" y="0" class="st3 st102">i</tspan><tspan x="116" y="0" class="st3 st102">gn</tspan></text>
	</g>
</g>
<g>
	<defs>
		<rect id="SVGID_40_" x="2" y="2" width="529" height="202"/>
	</defs>
	<clipPath id="SVGID_99_">
		<use xlink:href="#SVGID_40_"  style="overflow:visible;"/>
	</clipPath>
	<g class="st136">
		<text transform="matrix(1 0 0 1 218 119)" class="st100 st102">x</text>
	</g>
</g>
<g>
	<defs>
		<rect id="SVGID_39_" x="2" y="2" width="529" height="202"/>
	</defs>
	<clipPath id="SVGID_100_">
		<use xlink:href="#SVGID_39_"  style="overflow:visible;"/>
	</clipPath>
	<g class="st29">
		<text transform="matrix(1 0 0 1 425 119)" class="st100 st102">x</text>
	</g>
</g>
<g>
	<defs>
		<rect id="SVGID_38_" x="2" y="2" width="529" height="202"/>
	</defs>
	<clipPath id="SVGID_101_">
		<use xlink:href="#SVGID_38_"  style="overflow:visible;"/>
	</clipPath>
	<g class="st30">
		<text transform="matrix(1 0 0 1 10 136)" class="st100 st20">4</text>
	</g>
</g>
<g>
	<defs>
		<rect id="SVGID_37_" x="2" y="2" width="529" height="202"/>
	</defs>
	<clipPath id="SVGID_102_">
		<use xlink:href="#SVGID_37_"  style="overflow:visible;"/>
	</clipPath>
	<g class="st31">
		<text transform="matrix(1 0 0 1 23 137)"><tspan x="0" y="0" class="st3 st102">I</tspan><tspan x="3" y="0" class="st3 st102">n</tspan><tspan x="8" y="0" class="st3 st102">t</tspan><tspan x="11" y="0" class="st3 st102">e</tspan><tspan x="15" y="0" class="st3 st102">r</tspan><tspan x="18" y="0" class="st3 st102">s</tspan><tspan x="22" y="0" class="st3 st102">ti</tspan><tspan x="28" y="0" class="st3 st102">ce</tspan><tspan x="36" y="0" class="st3 st102">s</tspan><tspan x="40" y="0" class="st3 st102"> </tspan><tspan x="43" y="0" class="st3 st102">(</tspan><tspan x="46" y="0" class="st3 st102">E</tspan><tspan x="52" y="0" class="st3 st102">m</tspan><tspan x="60" y="0" class="st3 st102">bod</tspan><tspan x="75" y="0" class="st3 st102">i</tspan><tspan x="78" y="0" class="st3 st102">e</tspan><tspan x="82" y="0" class="st3 st102">d</tspan><tspan x="87" y="0" class="st3 st102"> </tspan><tspan x="90" y="0" class="st3 st102">M</tspan><tspan x="99" y="0" class="st3 st102">ac</tspan><tspan x="107" y="0" class="st3 st102">h</tspan><tspan x="112" y="0" class="st3 st102">e</tspan><tspan x="116" y="0" class="st3 st102">)</tspan></text>
	</g>
</g>
<g>
	<defs>
		<rect id="SVGID_36_" x="2" y="2" width="529" height="202"/>
	</defs>
	<clipPath id="SVGID_103_">
		<use xlink:href="#SVGID_36_"  style="overflow:visible;"/>
	</clipPath>
	<g class="st32">
		<text transform="matrix(1 0 0 1 218 138)" class="st100 st102">x</text>
	</g>
</g>
<g>
	<defs>
		<rect id="SVGID_35_" x="2" y="2" width="529" height="202"/>
	</defs>
	<clipPath id="SVGID_104_">
		<use xlink:href="#SVGID_35_"  style="overflow:visible;"/>
	</clipPath>
	<g class="st33">
		<text transform="matrix(1 0 0 1 287 138)" class="st100 st102">x</text>
	</g>
</g>
<g>
	<defs>
		<rect id="SVGID_34_" x="2" y="2" width="529" height="202"/>
	</defs>
	<clipPath id="SVGID_105_">
		<use xlink:href="#SVGID_34_"  style="overflow:visible;"/>
	</clipPath>
	<g class="st34">
		<text transform="matrix(1 0 0 1 494 138)" class="st100 st102">x</text>
	</g>
</g>
<g>
	<defs>
		<rect id="SVGID_33_" x="2" y="2" width="529" height="202"/>
	</defs>
	<clipPath id="SVGID_106_">
		<use xlink:href="#SVGID_33_"  style="overflow:visible;"/>
	</clipPath>
	<g class="st35">
		<text transform="matrix(1 0 0 1 10 158)" class="st100 st20">1</text>
	</g>
</g>
<g>
	<defs>
		<rect id="SVGID_32_" x="2" y="2" width="529" height="202"/>
	</defs>
	<clipPath id="SVGID_107_">
		<use xlink:href="#SVGID_32_"  style="overflow:visible;"/>
	</clipPath>
	<g class="st36">
		<text transform="matrix(1 0 0 1 23 159)"><tspan x="0" y="0" class="st3 st102">S</tspan><tspan x="6" y="0" class="st3 st102">t</tspan><tspan x="9" y="0" class="st3 st102">r</tspan><tspan x="12" y="0" class="st3 st102">ea</tspan><tspan x="20" y="0" class="st3 st102">mi</tspan><tspan x="31" y="0" class="st3 st102">ng</tspan><tspan x="41" y="0" class="st3 st102"> </tspan><tspan x="44" y="0" class="st3 st102">on</tspan><tspan x="54" y="0" class="st3 st102"> </tspan><tspan x="57" y="0" class="st3 st102">T</tspan><tspan x="63" y="0" class="st3 st102">w</tspan><tspan x="70" y="0" class="st3 st102">it</tspan><tspan x="76" y="0" class="st3 st102">c</tspan><tspan x="80" y="0" class="st3 st102">h</tspan></text>
	</g>
</g>
<g>
	<defs>
		<rect id="SVGID_31_" x="2" y="2" width="529" height="202"/>
	</defs>
	<clipPath id="SVGID_108_">
		<use xlink:href="#SVGID_31_"  style="overflow:visible;"/>
	</clipPath>
	<g class="st37">
		<text transform="matrix(1 0 0 1 218 160)" class="st100 st102">x</text>
	</g>
</g>
<g>
	<defs>
		<rect id="SVGID_30_" x="2" y="2" width="529" height="202"/>
	</defs>
	<clipPath id="SVGID_109_">
		<use xlink:href="#SVGID_30_"  style="overflow:visible;"/>
	</clipPath>
	<g class="st38">
		<text transform="matrix(1 0 0 1 287 160)" class="st100 st102">x</text>
	</g>
</g>
<g>
	<defs>
		<rect id="SVGID_29_" x="2" y="2" width="529" height="202"/>
	</defs>
	<clipPath id="SVGID_110_">
		<use xlink:href="#SVGID_29_"  style="overflow:visible;"/>
	</clipPath>
	<g class="st39">
		<text transform="matrix(1 0 0 1 10 177)" class="st100 st20">6</text>
	</g>
</g>
<g>
	<defs>
		<rect id="SVGID_28_" x="2" y="2" width="529" height="202"/>
	</defs>
	<clipPath id="SVGID_111_">
		<use xlink:href="#SVGID_28_"  style="overflow:visible;"/>
	</clipPath>
	<g class="st40">
		<text transform="matrix(1 0 0 1 23 178)"><tspan x="0" y="0" class="st3 st102">T</tspan><tspan x="6" y="0" class="st3 st102">ea</tspan><tspan x="14" y="0" class="st3 st102">m</tspan><tspan x="22" y="0" class="st3 st102"> </tspan><tspan x="25" y="0" class="st3 st102">C</tspan><tspan x="32" y="0" class="st3 st102">oo</tspan><tspan x="42" y="0" class="st3 st102">r</tspan><tspan x="45" y="0" class="st3 st102">d</tspan><tspan x="50" y="0" class="st3 st102">i</tspan><tspan x="53" y="0" class="st3 st102">n</tspan><tspan x="58" y="0" class="st3 st102">a</tspan><tspan x="62" y="0" class="st3 st102">ti</tspan><tspan x="68" y="0" class="st3 st102">on</tspan><tspan x="78" y="0" class="st3 st102"> </tspan><tspan x="81" y="0" class="st3 st102">G</tspan><tspan x="88" y="0" class="st3 st102">a</tspan><tspan x="92" y="0" class="st3 st102">m</tspan><tspan x="100" y="0" class="st3 st102">e</tspan></text>
	</g>
</g>
<g>
	<defs>
		<rect id="SVGID_27_" x="2" y="2" width="529" height="202"/>
	</defs>
	<clipPath id="SVGID_112_">
		<use xlink:href="#SVGID_27_"  style="overflow:visible;"/>
	</clipPath>
	<g class="st41">
		<text transform="matrix(1 0 0 1 218 179)" class="st100 st102">x</text>
	</g>
</g>
<g>
	<defs>
		<rect id="SVGID_26_" x="2" y="2" width="529" height="202"/>
	</defs>
	<clipPath id="SVGID_113_">
		<use xlink:href="#SVGID_26_"  style="overflow:visible;"/>
	</clipPath>
	<g class="st42">
		<text transform="matrix(1 0 0 1 287 179)" class="st100 st102">x</text>
	</g>
</g>
<g>
	<defs>
		<rect id="SVGID_25_" x="2" y="2" width="529" height="202"/>
	</defs>
	<clipPath id="SVGID_114_">
		<use xlink:href="#SVGID_25_"  style="overflow:visible;"/>
	</clipPath>
	<g class="st43">
		<text transform="matrix(1 0 0 1 494 179)" class="st100 st102">x</text>
	</g>
</g>
<g>
	<defs>
		<rect id="SVGID_24_" x="2" y="2" width="529" height="202"/>
	</defs>
	<clipPath id="SVGID_115_">
		<use xlink:href="#SVGID_24_"  style="overflow:visible;"/>
	</clipPath>
	<g class="st44">
		<text transform="matrix(1 0 0 1 10 196)" class="st100 st20">7</text>
	</g>
</g>
<g>
	<defs>
		<rect id="SVGID_23_" x="2" y="2" width="529" height="202"/>
	</defs>
	<clipPath id="SVGID_116_">
		<use xlink:href="#SVGID_23_"  style="overflow:visible;"/>
	</clipPath>
	<g class="st45">
		<text transform="matrix(1 0 0 1 23 197)"><tspan x="0" y="0" class="st3 st102">P</tspan><tspan x="6" y="0" class="st3 st102">e</tspan><tspan x="10" y="0" class="st3 st102">n</tspan><tspan x="15" y="0" class="st3 st102">-</tspan><tspan x="18" y="0" class="st3 st102">i</tspan><tspan x="21" y="0" class="st3 st102">n</tspan><tspan x="26" y="0" class="st3 st102">-</tspan><tspan x="29" y="0" class="st3 st102">H</tspan><tspan x="36" y="0" class="st3 st102">a</tspan><tspan x="40" y="0" class="st3 st102">nd</tspan><tspan x="50" y="0" class="st3 st102"> </tspan><tspan x="53" y="0" class="st3 st102">C</tspan><tspan x="60" y="0" class="st3 st102">o</tspan><tspan x="65" y="0" class="st3 st102">mm</tspan><tspan x="81" y="0" class="st3 st102">a</tspan><tspan x="85" y="0" class="st3 st102">nd</tspan></text>
	</g>
</g>
<g>
	<defs>
		<rect id="SVGID_22_" x="2" y="2" width="529" height="202"/>
	</defs>
	<clipPath id="SVGID_117_">
		<use xlink:href="#SVGID_22_"  style="overflow:visible;"/>
	</clipPath>
	<g class="st46">
		<text transform="matrix(1 0 0 1 218 198)" class="st100 st102">x</text>
	</g>
</g>
<g>
	<defs>
		<rect id="SVGID_21_" x="2" y="2" width="529" height="202"/>
	</defs>
	<clipPath id="SVGID_118_">
		<use xlink:href="#SVGID_21_"  style="overflow:visible;"/>
	</clipPath>
	<g class="st47">
		<text transform="matrix(1 0 0 1 287 198)" class="st100 st102">x</text>
	</g>
</g>
<g>
	<defs>
		<rect id="SVGID_20_" width="534" height="207"/>
	</defs>
	<clipPath id="SVGID_119_">
		<use xlink:href="#SVGID_20_"  style="overflow:visible;"/>
	</clipPath>
	<rect x="185" y="1" class="st23" width="1" height="203"/>
</g>
<g>
	<defs>
		<rect id="SVGID_19_" width="534" height="207"/>
	</defs>
	<clipPath id="SVGID_120_">
		<use xlink:href="#SVGID_19_"  style="overflow:visible;"/>
	</clipPath>
	<rect x="254" y="2" class="st11" width="1" height="202"/>
</g>
<g>
	<defs>
		<rect id="SVGID_18_" width="534" height="207"/>
	</defs>
	<clipPath id="SVGID_121_">
		<use xlink:href="#SVGID_18_"  style="overflow:visible;"/>
	</clipPath>
	<rect x="323" y="2" class="st105" width="1" height="202"/>
</g>
<g>
	<defs>
		<rect id="SVGID_17_" width="534" height="207"/>
	</defs>
	<clipPath id="SVGID_122_">
		<use xlink:href="#SVGID_17_"  style="overflow:visible;"/>
	</clipPath>
	<rect x="392" y="2" class="st18" width="1" height="202"/>
</g>
<g>
	<defs>
		<rect id="SVGID_16_" width="534" height="207"/>
	</defs>
	<clipPath id="SVGID_123_">
		<use xlink:href="#SVGID_16_"  style="overflow:visible;"/>
	</clipPath>
	<rect x="461" y="2" class="st142" width="1" height="202"/>
</g>
<g>
	<defs>
		<rect id="SVGID_15_" width="534" height="207"/>
	</defs>
	<clipPath id="SVGID_124_">
		<use xlink:href="#SVGID_15_"  style="overflow:visible;"/>
	</clipPath>
	<rect x="530" y="2" class="st24" width="1" height="202"/>
</g>
<g>
	<defs>
		<rect id="SVGID_14_" width="534" height="207"/>
	</defs>
	<clipPath id="SVGID_125_">
		<use xlink:href="#SVGID_14_"  style="overflow:visible;"/>
	</clipPath>
	<rect x="1" y="29" class="st6" width="1" height="175"/>
</g>
<g>
	<defs>
		<rect id="SVGID_13_" width="534" height="207"/>
	</defs>
	<clipPath id="SVGID_126_">
		<use xlink:href="#SVGID_13_"  style="overflow:visible;"/>
	</clipPath>
	<rect x="20" y="30" class="st28" width="1" height="174"/>
</g>
<g>
	<defs>
		<rect id="SVGID_12_" width="534" height="207"/>
	</defs>
	<clipPath id="SVGID_127_">
		<use xlink:href="#SVGID_12_"  style="overflow:visible;"/>
	</clipPath>
	<rect x="186" y="1" class="st13" width="345" height="1"/>
</g>
<g>
	<defs>
		<rect id="SVGID_11_" width="534" height="207"/>
	</defs>
	<clipPath id="SVGID_128_">
		<use xlink:href="#SVGID_11_"  style="overflow:visible;"/>
	</clipPath>
	<rect x="2" y="29" class="st106" width="529" height="1"/>
</g>
<g>
	<defs>
		<rect id="SVGID_10_" width="534" height="207"/>
	</defs>
	<clipPath id="SVGID_129_">
		<use xlink:href="#SVGID_10_"  style="overflow:visible;"/>
	</clipPath>
	<rect x="2" y="48" class="st19" width="529" height="1"/>
</g>
<g>
	<defs>
		<rect id="SVGID_9_" width="534" height="207"/>
	</defs>
	<clipPath id="SVGID_130_">
		<use xlink:href="#SVGID_9_"  style="overflow:visible;"/>
	</clipPath>
	<rect x="2" y="67" class="st8" width="529" height="1"/>
</g>
<g>
	<defs>
		<rect id="SVGID_8_" width="534" height="207"/>
	</defs>
	<clipPath id="SVGID_131_">
		<use xlink:href="#SVGID_8_"  style="overflow:visible;"/>
	</clipPath>
	<rect x="2" y="86" class="st99" width="529" height="1"/>
</g>
<g>
	<defs>
		<rect id="SVGID_7_" width="534" height="207"/>
	</defs>
	<clipPath id="SVGID_132_">
		<use xlink:href="#SVGID_7_"  style="overflow:visible;"/>
	</clipPath>
	<rect x="2" y="105" class="st15" width="529" height="1"/>
</g>
<g>
	<defs>
		<rect id="SVGID_6_" width="534" height="207"/>
	</defs>
	<clipPath id="SVGID_133_">
		<use xlink:href="#SVGID_6_"  style="overflow:visible;"/>
	</clipPath>
	<rect x="2" y="124" class="st139" width="529" height="1"/>
</g>
<g>
	<defs>
		<rect id="SVGID_5_" width="534" height="207"/>
	</defs>
	<clipPath id="SVGID_134_">
		<use xlink:href="#SVGID_5_"  style="overflow:visible;"/>
	</clipPath>
	<rect x="2" y="143" class="st22" width="529" height="1"/>
</g>
<g>
	<defs>
		<rect id="SVGID_4_" width="534" height="207"/>
	</defs>
	<clipPath id="SVGID_135_">
		<use xlink:href="#SVGID_4_"  style="overflow:visible;"/>
	</clipPath>
	<rect x="2" y="146" class="st2" width="529" height="1"/>
</g>
<g>
	<defs>
		<rect id="SVGID_3_" width="534" height="207"/>
	</defs>
	<clipPath id="SVGID_136_">
		<use xlink:href="#SVGID_3_"  style="overflow:visible;"/>
	</clipPath>
	<rect x="2" y="165" class="st26" width="529" height="1"/>
</g>
<g>
	<defs>
		<rect id="SVGID_2_" width="534" height="207"/>
	</defs>
	<clipPath id="SVGID_137_">
		<use xlink:href="#SVGID_2_"  style="overflow:visible;"/>
	</clipPath>
	<rect x="2" y="184" class="st9" width="529" height="1"/>
</g>
<g>
	<defs>
		<rect id="SVGID_1_" width="534" height="207"/>
	</defs>
	<clipPath id="SVGID_138_">
		<use xlink:href="#SVGID_1_"  style="overflow:visible;"/>
	</clipPath>
	<rect x="2" y="203" class="st101" width="529" height="1"/>
</g>
</svg>
