<?xml version="1.0" encoding="utf-8"?>
<!-- Generator: Adobe Illustrator 15.1.0, SVG Export Plug-In . SVG Version: 6.00 Build 0)  -->
<!DOCTYPE svg PUBLIC "-//W3C//DTD SVG 1.1//EN" "http://www.w3.org/Graphics/SVG/1.1/DTD/svg11.dtd">
<svg version="1.1" id="Layer_1" xmlns="http://www.w3.org/2000/svg" xmlns:xlink="http://www.w3.org/1999/xlink" x="0px" y="0px"
	 width="292.5px" height="114.75px" viewBox="0 0 292.5 114.75" enable-background="new 0 0 292.5 114.75" xml:space="preserve">
<g>
	<defs>
		<rect id="SVGID_1_" x="-249.75" y="-52.5" width="792" height="612"/>
	</defs>
	<clipPath id="SVGID_2_">
		<use xlink:href="#SVGID_1_"  overflow="visible"/>
	</clipPath>
	<g clip-path="url(#SVGID_2_)">
		<defs>
			<rect id="SVGID_3_" width="292.5" height="114.75"/>
		</defs>
		<clipPath id="SVGID_4_">
			<use xlink:href="#SVGID_3_"  overflow="visible"/>
		</clipPath>
		<rect x="1.5" y="1.5" clip-path="url(#SVGID_4_)" fill="#FFFFFF" width="290.25" height="112.5"/>
		<path opacity="0.149" clip-path="url(#SVGID_4_)" d="M0.75,113.25L0.75,113.25h291V114h-291V113.25z M0.75,90.75L0.75,90.75h291
			v0.75h-291V90.75z M0.75,68.25L0.75,68.25h291V69h-291V68.25z M0.75,45.75L0.75,45.75h291v0.75h-291V45.75z M0.75,23.25
			L0.75,23.25h291V24h-291V23.25z M0.75,0.75L0.75,0.75h291V1.5h-291V0.75z M291.75,91.5L291.75,91.5v21.75H291V91.5H291.75z
			 M291.75,69L291.75,69v21.75H291V69H291.75z M291.75,46.5L291.75,46.5v21.75H291V46.5H291.75z M291.75,24L291.75,24v21.75H291V24
			H291.75z M291.75,1.5L291.75,1.5v21.75H291V1.5H291.75z M251.25,91.5L251.25,91.5v21.75h-0.75V91.5H251.25z M251.25,69L251.25,69
			v21.75h-0.75V69H251.25z M251.25,46.5L251.25,46.5v21.75h-0.75V46.5H251.25z M251.25,24L251.25,24v21.75h-0.75V24H251.25z
			 M251.25,1.5L251.25,1.5v21.75h-0.75V1.5H251.25z M143.25,91.5L143.25,91.5v21.75h-0.75V91.5H143.25z M143.25,69L143.25,69v21.75
			h-0.75V69H143.25z M143.25,46.5L143.25,46.5v21.75h-0.75V46.5H143.25z M143.25,24L143.25,24v21.75h-0.75V24H143.25z M143.25,1.5
			L143.25,1.5v21.75h-0.75V1.5H143.25z M59.25,91.5L59.25,91.5v21.75H58.5V91.5H59.25z M59.25,69L59.25,69v21.75H58.5V69H59.25z
			 M59.25,46.5L59.25,46.5v21.75H58.5V46.5H59.25z M59.25,24L59.25,24v21.75H58.5V24H59.25z M59.25,1.5L59.25,1.5v21.75H58.5V1.5
			H59.25z M1.5,91.5L1.5,91.5v21.75H0.75V91.5H1.5z M1.5,69L1.5,69v21.75H0.75V69H1.5z M1.5,46.5L1.5,46.5v21.75H0.75V46.5H1.5z
			 M1.5,24L1.5,24v21.75H0.75V24H1.5z M1.5,1.5L1.5,1.5v21.75H0.75V1.5H1.5z"/>
		<g clip-path="url(#SVGID_4_)">
			<text transform="matrix(1 0 0 1 3.7495 18.9502)" font-family="'HelveticaNeue-Bold'" font-size="9.75">data</text>
		</g>
		<g clip-path="url(#SVGID_4_)">
			<text transform="matrix(1 0 0 1 61.4995 18.9502)" font-family="'HelveticaNeue'" font-size="9.75">qualitative</text>
		</g>
		<g clip-path="url(#SVGID_4_)">
			<text transform="matrix(1 0 0 1 145.4995 18.9502)" font-family="'HelveticaNeue'" font-size="9.75">quantitative</text>
		</g>
		<g clip-path="url(#SVGID_4_)">
			<text transform="matrix(1 0 0 1 61.4995 41.4502)" font-family="'HelveticaNeue'" font-size="9.75">grounded theory</text>
		</g>
		<g clip-path="url(#SVGID_4_)">
			<text transform="matrix(1 0 0 1 145.4995 41.4502)" font-family="'HelveticaNeue'" font-size="9.75">ideation metrics</text>
		</g>
		<g clip-path="url(#SVGID_4_)">
			<text transform="matrix(1 0 0 1 61.4995 63.9502)" font-family="'HelveticaNeue'" font-size="9.75">visual data</text>
		</g>
		<g clip-path="url(#SVGID_4_)">
			<text transform="matrix(1 0 0 1 145.4995 63.9502)" font-family="'HelveticaNeue'" font-size="9.75">engagement analytics</text>
		</g>
		<g clip-path="url(#SVGID_4_)">
			<text transform="matrix(1 0 0 1 3.7495 86.4502)" font-family="'HelveticaNeue-Bold'" font-size="9.75">setting</text>
		</g>
		<g clip-path="url(#SVGID_4_)">
			<text transform="matrix(1 0 0 1 61.4995 86.4502)" font-family="'HelveticaNeue'" font-size="9.75">field</text>
		</g>
		<g clip-path="url(#SVGID_4_)">
			<text transform="matrix(1 0 0 1 145.4995 86.4502)" font-family="'HelveticaNeue'" font-size="9.75">lab</text>
		</g>
		<g clip-path="url(#SVGID_4_)">
			<text transform="matrix(1 0 0 1 253.5 86.4502)" font-family="'HelveticaNeue'" font-size="9.75">crowd</text>
		</g>
		<g clip-path="url(#SVGID_4_)">
			<text transform="matrix(1 0 0 1 3.7495 108.9502)" font-family="'HelveticaNeue-Bold'" font-size="9.75">task</text>
		</g>
		<g clip-path="url(#SVGID_4_)">
			<text transform="matrix(1 0 0 1 61.4995 108.9502)" font-family="'HelveticaNeue'" font-size="9.75">situated</text>
		</g>
		<g clip-path="url(#SVGID_4_)">
			<text transform="matrix(1 0 0 1 145.4995 108.9502)" font-family="'HelveticaNeue'" font-size="9.75">controlled</text>
		</g>
	</g>
</g>
</svg>
