<?xml version="1.0" encoding="utf-8"?>
<!-- Generator: Adobe Illustrator 15.1.0, SVG Export Plug-In . SVG Version: 6.00 Build 0)  -->
<!DOCTYPE svg PUBLIC "-//W3C//DTD SVG 1.1//EN" "http://www.w3.org/Graphics/SVG/1.1/DTD/svg11.dtd">
<svg version="1.1" xmlns="http://www.w3.org/2000/svg" xmlns:xlink="http://www.w3.org/1999/xlink" x="0px" y="0px" width="1346px"
	 height="786px" viewBox="0 0 1346 786" enable-background="new 0 0 1346 786" xml:space="preserve">
<g id="Layer_1" display="none">
	<g display="inline">
		<g>
			<g>
				<rect x="682.843" y="401.07" fill="#FFFFFF" width="640" height="360"/>
				<rect x="682.843" y="401.07" fill="none" stroke="#231F20" stroke-miterlimit="10" width="640" height="360"/>
			</g>
			<g>
				<rect x="22.843" y="401.07" fill="#FFFFFF" width="640" height="360"/>
				<rect x="22.843" y="401.07" fill="none" stroke="#231F20" stroke-miterlimit="10" width="640" height="360"/>
			</g>
		</g>
		<g>
			<g>
				<rect x="682.843" y="21.07" fill="#FFFFFF" width="640" height="360"/>
				<rect x="682.843" y="21.07" fill="none" stroke="#231F20" stroke-miterlimit="10" width="640" height="360"/>
			</g>
			<g>
				<rect x="22.843" y="21.07" fill="#FFFFFF" width="640" height="360"/>
				<rect x="22.843" y="21.07" fill="none" stroke="#231F20" stroke-miterlimit="10" width="640" height="360"/>
			</g>
		</g>
	</g>
</g>
<g id="Layer_2">
	<g>
		<g>
			<g>
				
					<rect x="899.572" y="527.512" fill="none" stroke="#939598" stroke-width="2" stroke-miterlimit="10" width="427" height="240"/>
			</g>
			<g>
				
					<rect x="458.572" y="527.512" fill="none" stroke="#939598" stroke-width="2" stroke-miterlimit="10" width="427" height="240"/>
			</g>
			<g>
				<rect x="17.572" y="527.512" fill="none" stroke="#939598" stroke-width="2" stroke-miterlimit="10" width="427" height="240"/>
			</g>
		</g>
		<g>
			<g>
				
					<rect x="899.572" y="272.512" fill="none" stroke="#939598" stroke-width="2" stroke-miterlimit="10" width="427" height="240"/>
			</g>
			<g>
				
					<rect x="458.572" y="272.512" fill="none" stroke="#939598" stroke-width="2" stroke-miterlimit="10" width="427" height="240"/>
			</g>
			<g>
				<rect x="17.572" y="272.512" fill="none" stroke="#939598" stroke-width="2" stroke-miterlimit="10" width="427" height="240"/>
			</g>
		</g>
		<g>
			<g>
				<rect x="899.572" y="17.512" fill="none" stroke="#939598" stroke-width="2" stroke-miterlimit="10" width="427" height="240"/>
			</g>
			<g>
				<rect x="458.572" y="17.512" fill="none" stroke="#939598" stroke-width="2" stroke-miterlimit="10" width="427" height="240"/>
			</g>
			<g>
				<rect x="17.572" y="17.512" fill="none" stroke="#939598" stroke-width="2" stroke-miterlimit="10" width="427" height="240"/>
			</g>
		</g>
	</g>
</g>
</svg>
