<?xml version="1.0" encoding="utf-8"?>
<!-- Generator: Adobe Illustrator 15.1.0, SVG Export Plug-In  -->
<!DOCTYPE svg PUBLIC "-//W3C//DTD SVG 1.1//EN" "http://www.w3.org/Graphics/SVG/1.1/DTD/svg11.dtd" [
	<!ENTITY ns_flows "http://ns.adobe.com/Flows/1.0/">
]>
<svg version="1.1"
	 xmlns="http://www.w3.org/2000/svg" xmlns:xlink="http://www.w3.org/1999/xlink" xmlns:a="http://ns.adobe.com/AdobeSVGViewerExtensions/3.0/"
	 x="0px" y="0px" width="1346px" height="528px" viewBox="-16.572 241 1346 528"
	 overflow="visible" enable-background="new -16.572 241 1346 528" xml:space="preserve">
<defs>
</defs>
<g display="none">
	<g display="inline">
		<g>
			<rect x="666.271" y="384.07" fill="#FFFFFF" width="640" height="360"/>
			<rect x="666.271" y="384.07" fill="none" stroke="#231F20" stroke-miterlimit="10" width="640" height="360"/>
		</g>
		<g>
			<rect x="6.271" y="384.07" fill="#FFFFFF" width="640" height="360"/>
			<rect x="6.271" y="384.07" fill="none" stroke="#231F20" stroke-miterlimit="10" width="640" height="360"/>
		</g>
	</g>
	<g display="inline">
		<g>
			<rect x="666.271" y="4.07" fill="#FFFFFF" width="640" height="360"/>
			<rect x="666.271" y="4.07" fill="none" stroke="#231F20" stroke-miterlimit="10" width="640" height="360"/>
		</g>
		<g>
			<rect x="6.271" y="4.07" fill="#FFFFFF" width="640" height="360"/>
			<rect x="6.271" y="4.07" fill="none" stroke="#231F20" stroke-miterlimit="10" width="640" height="360"/>
		</g>
	</g>
</g>
<g display="none">
	<g display="inline">
		<g>
			<rect x="883.428" y="510.999" fill="none" stroke="#939598" stroke-width="2" stroke-miterlimit="10" width="427" height="240"/>
		</g>
		<g>
			<rect x="442.428" y="510.999" fill="none" stroke="#939598" stroke-width="2" stroke-miterlimit="10" width="427" height="240"/>
		</g>
		<g>
			<rect x="1.428" y="510.999" fill="none" stroke="#939598" stroke-width="2" stroke-miterlimit="10" width="427" height="240"/>
		</g>
	</g>
	<g display="inline">
		<g>
			<rect x="883.428" y="256" fill="none" stroke="#939598" stroke-width="2" stroke-miterlimit="10" width="427" height="239.999"/>
		</g>
		<g>
			<rect x="442.428" y="256" fill="none" stroke="#939598" stroke-width="2" stroke-miterlimit="10" width="427" height="239.999"/>
		</g>
		<g>
			<rect x="1.428" y="256" fill="none" stroke="#939598" stroke-width="2" stroke-miterlimit="10" width="427" height="239.999"/>
		</g>
	</g>
	<g display="inline">
		<g>
			<rect x="883.428" y="1" fill="none" stroke="#939598" stroke-width="2" stroke-miterlimit="10" width="427" height="240"/>
		</g>
		<g>
			<rect x="442.428" y="1" fill="none" stroke="#939598" stroke-width="2" stroke-miterlimit="10" width="427" height="240"/>
		</g>
		<g>
			<rect x="1.428" y="1" fill="none" stroke="#939598" stroke-width="2" stroke-miterlimit="10" width="427" height="240"/>
		</g>
	</g>
</g>
<g display="none">
	<g display="inline">
		<g>
			<rect x="883" y="511" fill="none" stroke="#939598" stroke-width="2" stroke-miterlimit="10" width="427" height="240"/>
		</g>
		<g>
			<rect x="442" y="511" fill="none" stroke="#939598" stroke-width="2" stroke-miterlimit="10" width="427" height="240"/>
		</g>
		<g>
			<rect x="1" y="511" fill="none" stroke="#939598" stroke-width="2" stroke-miterlimit="10" width="427" height="240"/>
		</g>
	</g>
	<g display="inline">
		<g>
			<rect x="883" y="256" fill="none" stroke="#939598" stroke-width="2" stroke-miterlimit="10" width="427" height="240"/>
		</g>
		<g>
			<rect x="442" y="256" fill="none" stroke="#939598" stroke-width="2" stroke-miterlimit="10" width="427" height="240"/>
		</g>
		<g>
			<rect x="1" y="256" fill="none" stroke="#939598" stroke-width="2" stroke-miterlimit="10" width="427" height="240"/>
		</g>
	</g>
</g>
<g>
	<g>
		<g>
			<rect x="883.428" y="511" fill="none" stroke="#939598" stroke-width="2" stroke-miterlimit="10" width="427" height="240"/>
		</g>
		<g>
			<rect x="442.428" y="511" fill="none" stroke="#939598" stroke-width="2" stroke-miterlimit="10" width="427" height="240"/>
		</g>
		<g>
			<rect x="1.428" y="511" fill="none" stroke="#939598" stroke-width="2" stroke-miterlimit="10" width="427" height="240"/>
		</g>
	</g>
	<g>
		<g>
			<rect x="883.428" y="256" fill="none" stroke="#939598" stroke-width="2" stroke-miterlimit="10" width="427" height="240"/>
		</g>
		<g>
			<rect x="442.428" y="256" fill="none" stroke="#939598" stroke-width="2" stroke-miterlimit="10" width="427" height="240"/>
		</g>
		<g>
			<rect x="1.428" y="256" fill="none" stroke="#939598" stroke-width="2" stroke-miterlimit="10" width="427" height="240"/>
		</g>
	</g>
</g>
</svg>
