<?xml version="1.0" encoding="utf-8"?>
<!-- Generator: Adobe Illustrator 15.1.0, SVG Export Plug-In  -->
<!DOCTYPE svg PUBLIC "-//W3C//DTD SVG 1.1//EN" "http://www.w3.org/Graphics/SVG/1.1/DTD/svg11.dtd" [
	<!ENTITY ns_flows "http://ns.adobe.com/Flows/1.0/">
]>
<svg version="1.1"
	 xmlns="http://www.w3.org/2000/svg" xmlns:xlink="http://www.w3.org/1999/xlink" xmlns:a="http://ns.adobe.com/AdobeSVGViewerExtensions/3.0/"
	 x="0px" y="0px" width="1346px" height="625px" viewBox="-16.572 -16.512 1346 625"
	 overflow="visible" enable-background="new -16.572 -16.512 1346 625" xml:space="preserve">
<defs>
</defs>
<g display="none">
	<g display="inline">
		<g>
			<rect x="666.271" y="384.558" fill="#FFFFFF" width="640" height="360"/>
			<rect x="666.271" y="384.558" fill="none" stroke="#231F20" stroke-miterlimit="10" width="640" height="360"/>
		</g>
		<g>
			<rect x="6.271" y="384.558" fill="#FFFFFF" width="640" height="360"/>
			<rect x="6.271" y="384.558" fill="none" stroke="#231F20" stroke-miterlimit="10" width="640" height="360"/>
		</g>
	</g>
	<g display="inline">
		<g>
			<rect x="666.271" y="4.558" fill="#FFFFFF" width="640" height="360"/>
			<rect x="666.271" y="4.558" fill="none" stroke="#231F20" stroke-miterlimit="10" width="640" height="360"/>
		</g>
		<g>
			<rect x="6.271" y="4.558" fill="#FFFFFF" width="640" height="360"/>
			<rect x="6.271" y="4.558" fill="none" stroke="#231F20" stroke-miterlimit="10" width="640" height="360"/>
		</g>
	</g>
</g>
<g display="none">
	<g display="inline">
		<g>
			<rect x="883.428" y="511.488" fill="none" stroke="#939598" stroke-width="2" stroke-miterlimit="10" width="427" height="240"/>
		</g>
		<g>
			<rect x="442.428" y="511.488" fill="none" stroke="#939598" stroke-width="2" stroke-miterlimit="10" width="427" height="240"/>
		</g>
		<g>
			<rect x="1.428" y="511.488" fill="none" stroke="#939598" stroke-width="2" stroke-miterlimit="10" width="427" height="240"/>
		</g>
	</g>
	<g display="inline">
		<g>
			<rect x="883.428" y="256.488" fill="none" stroke="#939598" stroke-width="2" stroke-miterlimit="10" width="427" height="240"/>
		</g>
		<g>
			<rect x="442.428" y="256.488" fill="none" stroke="#939598" stroke-width="2" stroke-miterlimit="10" width="427" height="240"/>
		</g>
		<g>
			<rect x="1.428" y="256.488" fill="none" stroke="#939598" stroke-width="2" stroke-miterlimit="10" width="427" height="240"/>
		</g>
	</g>
	<g display="inline">
		<g>
			<rect x="883.428" y="1.488" fill="none" stroke="#939598" stroke-width="2" stroke-miterlimit="10" width="427" height="240"/>
		</g>
		<g>
			<rect x="442.428" y="1.488" fill="none" stroke="#939598" stroke-width="2" stroke-miterlimit="10" width="427" height="240"/>
		</g>
		<g>
			<rect x="1.428" y="1.488" fill="none" stroke="#939598" stroke-width="2" stroke-miterlimit="10" width="427" height="240"/>
		</g>
	</g>
</g>
<g display="none">
	<g display="inline">
		<g>
			<rect x="883" y="511.488" fill="none" stroke="#939598" stroke-width="2" stroke-miterlimit="10" width="427" height="240"/>
		</g>
		<g>
			<rect x="442" y="511.488" fill="none" stroke="#939598" stroke-width="2" stroke-miterlimit="10" width="427" height="240"/>
		</g>
		<g>
			<rect x="1" y="511.488" fill="none" stroke="#939598" stroke-width="2" stroke-miterlimit="10" width="427" height="240"/>
		</g>
	</g>
	<g display="inline">
		<g>
			<rect x="883" y="256.488" fill="none" stroke="#939598" stroke-width="2" stroke-miterlimit="10" width="427" height="240"/>
		</g>
		<g>
			<rect x="442" y="256.488" fill="none" stroke="#939598" stroke-width="2" stroke-miterlimit="10" width="427" height="240"/>
		</g>
		<g>
			<rect x="1" y="256.488" fill="none" stroke="#939598" stroke-width="2" stroke-miterlimit="10" width="427" height="240"/>
		</g>
	</g>
</g>
<line display="none" fill="none" stroke="#939598" stroke-width="2" stroke-miterlimit="10" x1="1" y1="1" x2="1" y2="241"/>
<line display="none" fill="none" stroke="#939598" stroke-width="2" stroke-miterlimit="10" x1="1310.093" y1="1" x2="1310.093" y2="241"/>
<line display="none" fill="none" stroke="#939598" stroke-width="2" stroke-miterlimit="10" x1="1" y1="1" x2="1310.093" y2="1"/>
<g>
	<g>
		<g>
			<rect x="883.428" y="304.488" fill="none" stroke="#939598" stroke-width="2" stroke-miterlimit="10" width="427" height="288"/>
		</g>
		<g>
			<rect x="442.428" y="304.488" fill="none" stroke="#939598" stroke-width="2" stroke-miterlimit="10" width="427" height="288"/>
		</g>
		<g>
			<rect x="1.428" y="304.488" fill="none" stroke="#939598" stroke-width="2" stroke-miterlimit="10" width="427" height="288"/>
		</g>
	</g>
	<g>
		<g>
			<rect x="883.428" y="1.488" fill="none" stroke="#939598" stroke-width="2" stroke-miterlimit="10" width="427" height="288"/>
		</g>
		<g>
			<rect x="442.428" y="1.488" fill="none" stroke="#939598" stroke-width="2" stroke-miterlimit="10" width="427" height="288"/>
		</g>
		<g>
			<rect x="1.428" y="1.488" fill="none" stroke="#939598" stroke-width="2" stroke-miterlimit="10" width="427" height="288"/>
		</g>
	</g>
</g>
</svg>
