<?xml version="1.0" encoding="utf-8"?>
<!-- Generator: Adobe Illustrator 15.1.0, SVG Export Plug-In . SVG Version: 6.00 Build 0)  -->
<!DOCTYPE svg PUBLIC "-//W3C//DTD SVG 1.1//EN" "http://www.w3.org/Graphics/SVG/1.1/DTD/svg11.dtd">
<svg version="1.1" xmlns="http://www.w3.org/2000/svg" xmlns:xlink="http://www.w3.org/1999/xlink" x="0px" y="0px" width="1346px"
	 height="786px" viewBox="0 0 1346 786" enable-background="new 0 0 1346 786" xml:space="preserve">
<g id="Layer_1" display="none">
	<g display="inline">
		<g>
			<g>
				<rect x="682.843" y="401.07" fill="#FFFFFF" width="640" height="360"/>
				<rect x="682.843" y="401.07" fill="none" stroke="#231F20" stroke-miterlimit="10" width="640" height="360"/>
			</g>
			<g>
				<rect x="22.843" y="401.07" fill="#FFFFFF" width="640" height="360"/>
				<rect x="22.843" y="401.07" fill="none" stroke="#231F20" stroke-miterlimit="10" width="640" height="360"/>
			</g>
		</g>
		<g>
			<g>
				<rect x="682.843" y="21.07" fill="#FFFFFF" width="640" height="360"/>
				<rect x="682.843" y="21.07" fill="none" stroke="#231F20" stroke-miterlimit="10" width="640" height="360"/>
			</g>
			<g>
				<rect x="22.843" y="21.07" fill="#FFFFFF" width="640" height="360"/>
				<rect x="22.843" y="21.07" fill="none" stroke="#231F20" stroke-miterlimit="10" width="640" height="360"/>
			</g>
		</g>
	</g>
</g>
<g id="Layer_2" display="none">
	<g display="inline">
		<g>
			<g>
				<rect x="900" y="527.999" fill="none" stroke="#939598" stroke-width="2" stroke-miterlimit="10" width="427" height="240"/>
			</g>
			<g>
				<rect x="459" y="527.999" fill="none" stroke="#939598" stroke-width="2" stroke-miterlimit="10" width="427" height="240"/>
			</g>
			<g>
				<rect x="18" y="527.999" fill="none" stroke="#939598" stroke-width="2" stroke-miterlimit="10" width="427" height="240"/>
			</g>
		</g>
		<g>
			<g>
				<rect x="900" y="273" fill="none" stroke="#939598" stroke-width="2" stroke-miterlimit="10" width="427" height="239.999"/>
			</g>
			<g>
				<rect x="459" y="273" fill="none" stroke="#939598" stroke-width="2" stroke-miterlimit="10" width="427" height="239.999"/>
			</g>
			<g>
				<rect x="18" y="273" fill="none" stroke="#939598" stroke-width="2" stroke-miterlimit="10" width="427" height="239.999"/>
			</g>
		</g>
		<g>
			<g>
				<rect x="900" y="18" fill="none" stroke="#939598" stroke-width="2" stroke-miterlimit="10" width="427" height="240"/>
			</g>
			<g>
				<rect x="459" y="18" fill="none" stroke="#939598" stroke-width="2" stroke-miterlimit="10" width="427" height="240"/>
			</g>
			<g>
				<rect x="18" y="18" fill="none" stroke="#939598" stroke-width="2" stroke-miterlimit="10" width="427" height="240"/>
			</g>
		</g>
	</g>
</g>
<g id="Layer_2_copy" display="none">
	<g display="inline">
		<g>
			<g>
				<rect x="899.572" y="528" fill="none" stroke="#939598" stroke-width="2" stroke-miterlimit="10" width="427" height="240"/>
			</g>
			<g>
				<rect x="458.572" y="528" fill="none" stroke="#939598" stroke-width="2" stroke-miterlimit="10" width="427" height="240"/>
			</g>
			<g>
				<rect x="17.572" y="528" fill="none" stroke="#939598" stroke-width="2" stroke-miterlimit="10" width="427" height="240"/>
			</g>
		</g>
		<g>
			<g>
				<rect x="899.572" y="273" fill="none" stroke="#939598" stroke-width="2" stroke-miterlimit="10" width="427" height="240"/>
			</g>
			<g>
				<rect x="458.572" y="273" fill="none" stroke="#939598" stroke-width="2" stroke-miterlimit="10" width="427" height="240"/>
			</g>
			<g>
				<rect x="17.572" y="273" fill="none" stroke="#939598" stroke-width="2" stroke-miterlimit="10" width="427" height="240"/>
			</g>
		</g>
	</g>
	
		<line display="inline" fill="none" stroke="#939598" stroke-width="2" stroke-miterlimit="10" x1="17.572" y1="17.512" x2="17.572" y2="257.512"/>
	
		<line display="inline" fill="none" stroke="#939598" stroke-width="2" stroke-miterlimit="10" x1="1326.665" y1="17.512" x2="1326.665" y2="257.512"/>
	
		<line display="inline" fill="none" stroke="#939598" stroke-width="2" stroke-miterlimit="10" x1="17.572" y1="17.512" x2="1326.665" y2="17.512"/>
</g>
<g id="Layer_2_copy_2">
	<g>
		<g>
			<g>
				<rect x="900" y="528" fill="none" stroke="#939598" stroke-width="2" stroke-miterlimit="10" width="427" height="240"/>
			</g>
			<g>
				<rect x="459" y="528" fill="none" stroke="#939598" stroke-width="2" stroke-miterlimit="10" width="427" height="240"/>
			</g>
			<g>
				<rect x="18" y="528" fill="none" stroke="#939598" stroke-width="2" stroke-miterlimit="10" width="427" height="240"/>
			</g>
		</g>
		<g>
			<g>
				<rect x="900" y="273" fill="none" stroke="#939598" stroke-width="2" stroke-miterlimit="10" width="427" height="240"/>
			</g>
			<g>
				<rect x="459" y="273" fill="none" stroke="#939598" stroke-width="2" stroke-miterlimit="10" width="427" height="240"/>
			</g>
			<g>
				<rect x="18" y="273" fill="none" stroke="#939598" stroke-width="2" stroke-miterlimit="10" width="427" height="240"/>
			</g>
		</g>
	</g>
	<g>
		<g>
			<line fill="none" stroke="#939598" stroke-width="2" stroke-miterlimit="10" x1="900" y1="18" x2="1327" y2="18"/>
		</g>
		<g>
			<line fill="none" stroke="#939598" stroke-width="2" stroke-miterlimit="10" x1="459" y1="18" x2="886" y2="18"/>
		</g>
		<g>
			<line fill="none" stroke="#939598" stroke-width="2" stroke-miterlimit="10" x1="18" y1="18" x2="445" y2="18"/>
		</g>
	</g>
	<g>
		<g>
			<line fill="none" stroke="#939598" stroke-width="2" stroke-miterlimit="10" x1="1327" y1="17" x2="1327" y2="257"/>
		</g>
		<g>
			<line fill="none" stroke="#939598" stroke-width="2" stroke-miterlimit="10" x1="18" y1="17" x2="18" y2="257"/>
		</g>
	</g>
</g>
</svg>
