<?xml version="1.0" encoding="utf-8"?>
<!-- Generator: Adobe Illustrator 15.1.0, SVG Export Plug-In  -->
<!DOCTYPE svg PUBLIC "-//W3C//DTD SVG 1.1//EN" "http://www.w3.org/Graphics/SVG/1.1/DTD/svg11.dtd" [
	<!ENTITY ns_flows "http://ns.adobe.com/Flows/1.0/">
]>
<svg version="1.1"
	 xmlns="http://www.w3.org/2000/svg" xmlns:xlink="http://www.w3.org/1999/xlink" xmlns:a="http://ns.adobe.com/AdobeSVGViewerExtensions/3.0/"
	 x="0px" y="0px" width="261px" height="187px" viewBox="-4.2 -4.7 261 187"
	 overflow="visible" enable-background="new -4.2 -4.7 261 187" xml:space="preserve">
<style type="text/css">
<![CDATA[
]]>
</style>
<defs>
</defs>
<g>
	<defs>
		<rect id="SVGID_33_" x="2" y="2" width="251" height="176"/>
	</defs>
	<clipPath id="SVGID_34_">
		<use xlink:href="#SVGID_33_"  overflow="visible"/>
	</clipPath>
	<g clip-path="url(#SVGID_34_)">
		<text transform="matrix(1 0 0 1 4 21)"><tspan x="0" y="0" font-family="'Helvetica-Bold'" font-size="10">d</tspan><tspan x="6" y="0" font-family="'Helvetica-Bold'" font-size="10">a</tspan><tspan x="12" y="0" font-family="'Helvetica-Bold'" font-size="10">t</tspan><tspan x="15" y="0" font-family="'Helvetica-Bold'" font-size="10">a</tspan></text>
	</g>
</g>
<g>
	<defs>
		<rect id="SVGID_32_" x="2" y="2" width="251" height="176"/>
	</defs>
	<clipPath id="SVGID_35_">
		<use xlink:href="#SVGID_32_"  overflow="visible"/>
	</clipPath>
	<g clip-path="url(#SVGID_35_)">
		<text transform="matrix(1 0 0 1 49 21)"><tspan x="0" y="0" font-family="'Helvetica'" font-size="10">qua</tspan><tspan x="18" y="0" font-family="'Helvetica'" font-size="10">li</tspan><tspan x="22" y="0" font-family="'Helvetica'" font-size="10">t</tspan><tspan x="25" y="0" font-family="'Helvetica'" font-size="10">a</tspan><tspan x="31" y="0" font-family="'Helvetica'" font-size="10">t</tspan><tspan x="34" y="0" font-family="'Helvetica'" font-size="10">i</tspan><tspan x="36" y="0" font-family="'Helvetica'" font-size="10">ve</tspan></text>
	</g>
</g>
<g>
	<defs>
		<rect id="SVGID_31_" x="2" y="2" width="251" height="176"/>
	</defs>
	<clipPath id="SVGID_36_">
		<use xlink:href="#SVGID_31_"  overflow="visible"/>
	</clipPath>
	<g clip-path="url(#SVGID_36_)">
		<text transform="matrix(1 0 0 1 49 43)"><tspan x="0" y="0" font-family="'Helvetica'" font-size="10"> </tspan><tspan x="3" y="0" font-family="'Helvetica'" font-size="10">-</tspan><tspan x="6" y="0" font-family="'Helvetica'" font-size="10"> </tspan><tspan x="9" y="0" font-family="'Helvetica'" font-size="10">v</tspan><tspan x="14" y="0" font-family="'Helvetica'" font-size="10">i</tspan><tspan x="16" y="0" font-family="'Helvetica'" font-size="10">s</tspan><tspan x="21" y="0" font-family="'Helvetica'" font-size="10">ua</tspan><tspan x="33" y="0" font-family="'Helvetica'" font-size="10">l</tspan><tspan x="35" y="0" font-family="'Helvetica'" font-size="10"> </tspan><tspan x="38" y="0" font-family="'Helvetica'" font-size="10">da</tspan><tspan x="50" y="0" font-family="'Helvetica'" font-size="10">t</tspan><tspan x="53" y="0" font-family="'Helvetica'" font-size="10">a</tspan></text>
	</g>
</g>
<g>
	<defs>
		<rect id="SVGID_30_" x="2" y="2" width="251" height="176"/>
	</defs>
	<clipPath id="SVGID_37_">
		<use xlink:href="#SVGID_30_"  overflow="visible"/>
	</clipPath>
	<g clip-path="url(#SVGID_37_)">
		<text transform="matrix(1 0 0 1 49 65)"><tspan x="0" y="0" font-family="'Helvetica'" font-size="10"> </tspan><tspan x="3" y="0" font-family="'Helvetica'" font-size="10">-</tspan><tspan x="6" y="0" font-family="'Helvetica'" font-size="10"> </tspan><tspan x="9" y="0" font-family="'Helvetica'" font-size="10">g</tspan><tspan x="15" y="0" font-family="'Helvetica'" font-size="10">r</tspan><tspan x="18" y="0" font-family="'Helvetica'" font-size="10">ounded</tspan><tspan x="53.9" y="0" font-family="'Helvetica'" font-size="10"> t</tspan><tspan x="59.9" y="0" font-family="'Helvetica'" font-size="10">heo</tspan><tspan x="77.9" y="0" font-family="'Helvetica'" font-size="10">r</tspan><tspan x="80.9" y="0" font-family="'Helvetica'" font-size="10">y</tspan></text>
	</g>
</g>
<g>
	<defs>
		<rect id="SVGID_29_" x="2" y="2" width="251" height="176"/>
	</defs>
	<clipPath id="SVGID_38_">
		<use xlink:href="#SVGID_29_"  overflow="visible"/>
	</clipPath>
	<g clip-path="url(#SVGID_38_)">
		<text transform="matrix(1 0 0 1 4 109)"><tspan x="0" y="0" font-family="'Helvetica-Bold'" font-size="10">se</tspan><tspan x="12" y="0" font-family="'Helvetica-Bold'" font-size="10">tt</tspan><tspan x="18" y="0" font-family="'Helvetica-Bold'" font-size="10">i</tspan><tspan x="21" y="0" font-family="'Helvetica-Bold'" font-size="10">n</tspan><tspan x="27" y="0" font-family="'Helvetica-Bold'" font-size="10">g</tspan></text>
	</g>
</g>
<g>
	<defs>
		<rect id="SVGID_28_" x="2" y="2" width="251" height="176"/>
	</defs>
	<clipPath id="SVGID_39_">
		<use xlink:href="#SVGID_28_"  overflow="visible"/>
	</clipPath>
	<g clip-path="url(#SVGID_39_)">
		<text transform="matrix(1 0 0 1 49 109)"><tspan x="0" y="0" font-family="'Helvetica'" font-size="10">f</tspan><tspan x="3" y="0" font-family="'Helvetica'" font-size="10">i</tspan><tspan x="5" y="0" font-family="'Helvetica'" font-size="10">e</tspan><tspan x="11" y="0" font-family="'Helvetica'" font-size="10">l</tspan><tspan x="13" y="0" font-family="'Helvetica'" font-size="10">d</tspan></text>
	</g>
</g>
<g>
	<defs>
		<rect id="SVGID_27_" x="2" y="2" width="251" height="176"/>
	</defs>
	<clipPath id="SVGID_40_">
		<use xlink:href="#SVGID_27_"  overflow="visible"/>
	</clipPath>
	<g clip-path="url(#SVGID_40_)">
		<text transform="matrix(1 0 0 1 140 109)"><tspan x="0" y="0" font-family="'Helvetica'" font-size="10">l</tspan><tspan x="2" y="0" font-family="'Helvetica'" font-size="10">a</tspan><tspan x="8" y="0" font-family="'Helvetica'" font-size="10">b</tspan></text>
	</g>
</g>
<g>
	<defs>
		<rect id="SVGID_26_" x="2" y="2" width="251" height="176"/>
	</defs>
	<clipPath id="SVGID_41_">
		<use xlink:href="#SVGID_26_"  overflow="visible"/>
	</clipPath>
	<g clip-path="url(#SVGID_41_)">
		<text transform="matrix(1 0 0 1 213 109)"><tspan x="0" y="0" font-family="'Helvetica'" font-size="10">c</tspan><tspan x="5" y="0" font-family="'Helvetica'" font-size="10">r</tspan><tspan x="8" y="0" font-family="'Helvetica'" font-size="10">o</tspan><tspan x="14" y="0" font-family="'Helvetica'" font-size="10">w</tspan><tspan x="21" y="0" font-family="'Helvetica'" font-size="10">d</tspan></text>
	</g>
</g>
<g>
	<defs>
		<rect id="SVGID_25_" x="2" y="2" width="251" height="176"/>
	</defs>
	<clipPath id="SVGID_42_">
		<use xlink:href="#SVGID_25_"  overflow="visible"/>
	</clipPath>
	<g clip-path="url(#SVGID_42_)">
		<text transform="matrix(1 0 0 1 4 131)"><tspan x="0" y="0" font-family="'Helvetica-Bold'" font-size="10">t</tspan><tspan x="3" y="0" font-family="'Helvetica-Bold'" font-size="10">as</tspan><tspan x="15" y="0" font-family="'Helvetica-Bold'" font-size="10">k</tspan></text>
	</g>
</g>
<g>
	<defs>
		<rect id="SVGID_24_" x="2" y="2" width="251" height="176"/>
	</defs>
	<clipPath id="SVGID_43_">
		<use xlink:href="#SVGID_24_"  overflow="visible"/>
	</clipPath>
	<g clip-path="url(#SVGID_43_)">
		<text transform="matrix(1 0 0 1 49 131)"><tspan x="0" y="0" font-family="'Helvetica'" font-size="10">s</tspan><tspan x="5" y="0" font-family="'Helvetica'" font-size="10">i</tspan><tspan x="7" y="0" font-family="'Helvetica'" font-size="10">t</tspan><tspan x="10" y="0" font-family="'Helvetica'" font-size="10">ua</tspan><tspan x="22" y="0" font-family="'Helvetica'" font-size="10">t</tspan><tspan x="25" y="0" font-family="'Helvetica'" font-size="10">e</tspan><tspan x="31" y="0" font-family="'Helvetica'" font-size="10">d</tspan></text>
	</g>
</g>
<g>
	<defs>
		<rect id="SVGID_23_" x="2" y="2" width="251" height="176"/>
	</defs>
	<clipPath id="SVGID_44_">
		<use xlink:href="#SVGID_23_"  overflow="visible"/>
	</clipPath>
	<g clip-path="url(#SVGID_44_)">
		<text transform="matrix(1 0 0 1 140 131)"><tspan x="0" y="0" font-family="'Helvetica'" font-size="10">c</tspan><tspan x="5" y="0" font-family="'Helvetica'" font-size="10">on</tspan><tspan x="17" y="0" font-family="'Helvetica'" font-size="10">t</tspan><tspan x="20" y="0" font-family="'Helvetica'" font-size="10">r</tspan><tspan x="23" y="0" font-family="'Helvetica'" font-size="10">o</tspan><tspan x="29" y="0" font-family="'Helvetica'" font-size="10">ll</tspan><tspan x="33" y="0" font-family="'Helvetica'" font-size="10">e</tspan><tspan x="39" y="0" font-family="'Helvetica'" font-size="10">d</tspan></text>
	</g>
</g>
<g>
	<defs>
		<rect id="SVGID_22_" x="2" y="2" width="251" height="176"/>
	</defs>
	<clipPath id="SVGID_45_">
		<use xlink:href="#SVGID_22_"  overflow="visible"/>
	</clipPath>
	<g clip-path="url(#SVGID_45_)">
		<text transform="matrix(1 0 0 1 4 175)"><tspan x="0" y="0" font-family="'Helvetica-Bold'" font-size="10">ac</tspan><tspan x="12" y="0" font-family="'Helvetica-Bold'" font-size="10">t</tspan><tspan x="15" y="0" font-family="'Helvetica-Bold'" font-size="10">i</tspan><tspan x="18" y="0" font-family="'Helvetica-Bold'" font-size="10">v</tspan><tspan x="24" y="0" font-family="'Helvetica-Bold'" font-size="10">i</tspan><tspan x="27" y="0" font-family="'Helvetica-Bold'" font-size="10">t</tspan><tspan x="30" y="0" font-family="'Helvetica-Bold'" font-size="10">y</tspan></text>
	</g>
</g>
<g>
	<defs>
		<rect id="SVGID_21_" x="2" y="2" width="251" height="176"/>
	</defs>
	<clipPath id="SVGID_46_">
		<use xlink:href="#SVGID_21_"  overflow="visible"/>
	</clipPath>
	<g clip-path="url(#SVGID_46_)">
		<text transform="matrix(1 0 0 1 49 175)"><tspan x="0" y="0" font-family="'Helvetica'" font-size="10">open</tspan><tspan x="24" y="0" font-family="'Helvetica'" font-size="10">-</tspan><tspan x="27" y="0" font-family="'Helvetica'" font-size="10">ende</tspan><tspan x="50.9" y="0" font-family="'Helvetica'" font-size="10">d</tspan></text>
	</g>
</g>
<g>
	<defs>
		<rect id="SVGID_20_" x="138" y="2" width="114" height="21"/>
	</defs>
	<clipPath id="SVGID_47_">
		<use xlink:href="#SVGID_20_"  overflow="visible"/>
	</clipPath>
	<g clip-path="url(#SVGID_47_)">
		<text transform="matrix(1 0 0 1 140 21)"><tspan x="0" y="0" font-family="'Helvetica'" font-size="10">quan</tspan><tspan x="24" y="0" font-family="'Helvetica'" font-size="10">t</tspan><tspan x="27" y="0" font-family="'Helvetica'" font-size="10">i</tspan><tspan x="29" y="0" font-family="'Helvetica'" font-size="10">t</tspan><tspan x="32" y="0" font-family="'Helvetica'" font-size="10">a</tspan><tspan x="38" y="0" font-family="'Helvetica'" font-size="10">t</tspan><tspan x="41" y="0" font-family="'Helvetica'" font-size="10">i</tspan><tspan x="43" y="0" font-family="'Helvetica'" font-size="10">ve</tspan></text>
	</g>
</g>
<g>
	<defs>
		<rect id="SVGID_19_" x="138" y="24" width="114" height="21"/>
	</defs>
	<clipPath id="SVGID_48_">
		<use xlink:href="#SVGID_19_"  overflow="visible"/>
	</clipPath>
	<g clip-path="url(#SVGID_48_)">
		<text transform="matrix(1 0 0 1 140 43)"><tspan x="0" y="0" font-family="'Helvetica'" font-size="10"> </tspan><tspan x="3" y="0" font-family="'Helvetica'" font-size="10">-</tspan><tspan x="6" y="0" font-family="'Helvetica'" font-size="10"> </tspan><tspan x="9" y="0" font-family="'Helvetica'" font-size="10">i</tspan><tspan x="11" y="0" font-family="'Helvetica'" font-size="10">dea</tspan><tspan x="29" y="0" font-family="'Helvetica'" font-size="10">t</tspan><tspan x="32" y="0" font-family="'Helvetica'" font-size="10">i</tspan><tspan x="34" y="0" font-family="'Helvetica'" font-size="10">on</tspan><tspan x="46" y="0" font-family="'Helvetica'" font-size="10"> </tspan><tspan x="49" y="0" font-family="'Helvetica'" font-size="10">m</tspan><tspan x="57" y="0" font-family="'Helvetica'" font-size="10">e</tspan><tspan x="62.9" y="0" font-family="'Helvetica'" font-size="10">t</tspan><tspan x="65.9" y="0" font-family="'Helvetica'" font-size="10">r</tspan><tspan x="68.9" y="0" font-family="'Helvetica'" font-size="10">i</tspan><tspan x="70.9" y="0" font-family="'Helvetica'" font-size="10">cs</tspan></text>
	</g>
</g>
<g>
	<defs>
		<rect id="SVGID_18_" x="138" y="46" width="114" height="21"/>
	</defs>
	<clipPath id="SVGID_49_">
		<use xlink:href="#SVGID_18_"  overflow="visible"/>
	</clipPath>
	<g clip-path="url(#SVGID_49_)">
		<text transform="matrix(1 0 0 1 140 65)"><tspan x="0" y="0" font-family="'Helvetica'" font-size="10"> </tspan><tspan x="3" y="0" font-family="'Helvetica'" font-size="10">-</tspan><tspan x="6" y="0" font-family="'Helvetica'" font-size="10"> </tspan><tspan x="9" y="0" font-family="'Helvetica'" font-size="10">A</tspan><tspan x="16" y="0" font-family="'Helvetica'" font-size="10">I </tspan><tspan x="22" y="0" font-family="'Helvetica'" font-size="10">de</tspan><tspan x="34" y="0" font-family="'Helvetica'" font-size="10">s</tspan><tspan x="39" y="0" font-family="'Helvetica'" font-size="10">i</tspan><tspan x="41" y="0" font-family="'Helvetica'" font-size="10">gn</tspan><tspan x="53" y="0" font-family="'Helvetica'" font-size="10"> </tspan><tspan x="56" y="0" font-family="'Helvetica'" font-size="10">ana</tspan><tspan x="73.9" y="0" font-family="'Helvetica'" font-size="10">l</tspan><tspan x="75.9" y="0" font-family="'Helvetica'" font-size="10">y</tspan><tspan x="80.9" y="0" font-family="'Helvetica'" font-size="10">t</tspan><tspan x="83.9" y="0" font-family="'Helvetica'" font-size="10">i</tspan><tspan x="85.9" y="0" font-family="'Helvetica'" font-size="10">cs</tspan></text>
	</g>
</g>
<g>
	<defs>
		<rect id="SVGID_17_" x="138" y="68" width="114" height="21"/>
	</defs>
	<clipPath id="SVGID_50_">
		<use xlink:href="#SVGID_17_"  overflow="visible"/>
	</clipPath>
	<g clip-path="url(#SVGID_50_)">
		<text transform="matrix(1 0 0 1 140 87)"><tspan x="0" y="0" font-family="'Helvetica'" font-size="10"> </tspan><tspan x="3" y="0" font-family="'Helvetica'" font-size="10">-</tspan><tspan x="6" y="0" font-family="'Helvetica'" font-size="10"> </tspan><tspan x="9" y="0" font-family="'Helvetica'" font-size="10">engage</tspan><tspan x="44.9" y="0" font-family="'Helvetica'" font-size="10">m</tspan><tspan x="52.9" y="0" font-family="'Helvetica'" font-size="10">en</tspan><tspan x="64.9" y="0" font-family="'Helvetica'" font-size="10">t </tspan><tspan x="70.9" y="0" font-family="'Helvetica'" font-size="10">ana</tspan><tspan x="88.9" y="0" font-family="'Helvetica'" font-size="10">l</tspan><tspan x="90.9" y="0" font-family="'Helvetica'" font-size="10">y</tspan><tspan x="95.9" y="0" font-family="'Helvetica'" font-size="10">t</tspan><tspan x="98.9" y="0" font-family="'Helvetica'" font-size="10">i</tspan><tspan x="100.9" y="0" font-family="'Helvetica'" font-size="10">cs</tspan></text>
	</g>
</g>
<g>
	<defs>
		<rect id="SVGID_16_" x="47" y="134" width="163" height="21"/>
	</defs>
	<clipPath id="SVGID_51_">
		<use xlink:href="#SVGID_16_"  overflow="visible"/>
	</clipPath>
	<g clip-path="url(#SVGID_51_)">
		<text transform="matrix(1 0 0 1 49 153)"><tspan x="0" y="0" font-family="'Helvetica'" font-size="10"> </tspan><tspan x="3" y="0" font-family="'Helvetica'" font-size="10">-</tspan><tspan x="6" y="0" font-family="'Helvetica'" font-size="10"> </tspan><tspan x="9" y="0" font-family="'Helvetica'" font-size="10">i</tspan><tspan x="11" y="0" font-family="'Helvetica'" font-size="10">n</tspan><tspan x="17" y="0" font-family="'Helvetica'" font-size="10">f</tspan><tspan x="20" y="0" font-family="'Helvetica'" font-size="10">o</tspan><tspan x="26" y="0" font-family="'Helvetica'" font-size="10">rm</tspan><tspan x="37" y="0" font-family="'Helvetica'" font-size="10">a</tspan><tspan x="43" y="0" font-family="'Helvetica'" font-size="10">t</tspan><tspan x="46" y="0" font-family="'Helvetica'" font-size="10">i</tspan><tspan x="48" y="0" font-family="'Helvetica'" font-size="10">on</tspan><tspan x="60" y="0" font-family="'Helvetica'" font-size="10">-</tspan><tspan x="63" y="0" font-family="'Helvetica'" font-size="10">ba</tspan><tspan x="74.9" y="0" font-family="'Helvetica'" font-size="10">s</tspan><tspan x="79.9" y="0" font-family="'Helvetica'" font-size="10">ed</tspan><tspan x="91.9" y="0" font-family="'Helvetica'" font-size="10"> </tspan><tspan x="94.9" y="0" font-family="'Helvetica'" font-size="10">i</tspan><tspan x="96.9" y="0" font-family="'Helvetica'" font-size="10">dea</tspan><tspan x="114.9" y="0" font-family="'Helvetica'" font-size="10">t</tspan><tspan x="117.9" y="0" font-family="'Helvetica'" font-size="10">i</tspan><tspan x="119.9" y="0" font-family="'Helvetica'" font-size="10">o</tspan><tspan x="125.9" y="0" font-family="'Helvetica'" font-size="10">n</tspan></text>
	</g>
</g>
<g>
	<defs>
		<rect id="SVGID_15_" width="256" height="181"/>
	</defs>
	<clipPath id="SVGID_52_">
		<use xlink:href="#SVGID_15_"  overflow="visible"/>
	</clipPath>
	<rect x="137" y="2" clip-path="url(#SVGID_52_)" fill="#AEAAAA" width="1" height="132"/>
</g>
<g>
	<defs>
		<rect id="SVGID_14_" width="256" height="181"/>
	</defs>
	<clipPath id="SVGID_53_">
		<use xlink:href="#SVGID_14_"  overflow="visible"/>
	</clipPath>
	<rect x="1" y="1" clip-path="url(#SVGID_53_)" fill="#AEAAAA" width="1" height="177"/>
</g>
<g>
	<defs>
		<rect id="SVGID_13_" width="256" height="181"/>
	</defs>
	<clipPath id="SVGID_54_">
		<use xlink:href="#SVGID_13_"  overflow="visible"/>
	</clipPath>
	<rect x="46" y="2" clip-path="url(#SVGID_54_)" fill="#AEAAAA" width="1" height="176"/>
</g>
<g>
	<defs>
		<rect id="SVGID_12_" width="256" height="181"/>
	</defs>
	<clipPath id="SVGID_55_">
		<use xlink:href="#SVGID_12_"  overflow="visible"/>
	</clipPath>
	<rect x="137" y="156" clip-path="url(#SVGID_55_)" fill="#AEAAAA" width="1" height="22"/>
</g>
<g>
	<defs>
		<rect id="SVGID_11_" width="256" height="181"/>
	</defs>
	<clipPath id="SVGID_56_">
		<use xlink:href="#SVGID_11_"  overflow="visible"/>
	</clipPath>
	<rect x="252" y="2" clip-path="url(#SVGID_56_)" fill="#AEAAAA" width="1" height="132"/>
</g>
<g>
	<defs>
		<rect id="SVGID_10_" width="256" height="181"/>
	</defs>
	<clipPath id="SVGID_57_">
		<use xlink:href="#SVGID_10_"  overflow="visible"/>
	</clipPath>
	<rect x="210" y="90" clip-path="url(#SVGID_57_)" fill="#AEAAAA" width="1" height="88"/>
</g>
<g>
	<defs>
		<rect id="SVGID_9_" width="256" height="181"/>
	</defs>
	<clipPath id="SVGID_58_">
		<use xlink:href="#SVGID_9_"  overflow="visible"/>
	</clipPath>
	<rect x="2" y="1" clip-path="url(#SVGID_58_)" fill="#AEAAAA" width="251" height="1"/>
</g>
<g>
	<defs>
		<rect id="SVGID_8_" width="256" height="181"/>
	</defs>
	<clipPath id="SVGID_59_">
		<use xlink:href="#SVGID_8_"  overflow="visible"/>
	</clipPath>
	<rect x="2" y="23" clip-path="url(#SVGID_59_)" fill="#AEAAAA" width="251" height="1"/>
</g>
<g>
	<defs>
		<rect id="SVGID_7_" width="256" height="181"/>
	</defs>
	<clipPath id="SVGID_60_">
		<use xlink:href="#SVGID_7_"  overflow="visible"/>
	</clipPath>
	<rect x="2" y="45" clip-path="url(#SVGID_60_)" fill="#AEAAAA" width="251" height="1"/>
</g>
<g>
	<defs>
		<rect id="SVGID_6_" width="256" height="181"/>
	</defs>
	<clipPath id="SVGID_61_">
		<use xlink:href="#SVGID_6_"  overflow="visible"/>
	</clipPath>
	<rect x="2" y="67" clip-path="url(#SVGID_61_)" fill="#AEAAAA" width="251" height="1"/>
</g>
<g>
	<defs>
		<rect id="SVGID_5_" width="256" height="181"/>
	</defs>
	<clipPath id="SVGID_62_">
		<use xlink:href="#SVGID_5_"  overflow="visible"/>
	</clipPath>
	<rect x="2" y="89" clip-path="url(#SVGID_62_)" fill="#AEAAAA" width="251" height="1"/>
</g>
<g>
	<defs>
		<rect id="SVGID_4_" width="256" height="181"/>
	</defs>
	<clipPath id="SVGID_63_">
		<use xlink:href="#SVGID_4_"  overflow="visible"/>
	</clipPath>
	<rect x="2" y="111" clip-path="url(#SVGID_63_)" fill="#AEAAAA" width="251" height="1"/>
</g>
<g>
	<defs>
		<rect id="SVGID_3_" width="256" height="181"/>
	</defs>
	<clipPath id="SVGID_64_">
		<use xlink:href="#SVGID_3_"  overflow="visible"/>
	</clipPath>
	<rect x="2" y="133" clip-path="url(#SVGID_64_)" fill="#AEAAAA" width="251" height="1"/>
</g>
<g>
	<defs>
		<rect id="SVGID_2_" width="256" height="181"/>
	</defs>
	<clipPath id="SVGID_65_">
		<use xlink:href="#SVGID_2_"  overflow="visible"/>
	</clipPath>
	<rect x="2" y="155" clip-path="url(#SVGID_65_)" fill="#AEAAAA" width="209" height="1"/>
</g>
<g>
	<defs>
		<rect id="SVGID_1_" width="256" height="181"/>
	</defs>
	<clipPath id="SVGID_66_">
		<use xlink:href="#SVGID_1_"  overflow="visible"/>
	</clipPath>
	<rect x="2" y="177" clip-path="url(#SVGID_66_)" fill="#AEAAAA" width="209" height="1"/>
</g>
</svg>
