<?xml version="1.0" encoding="UTF-8" standalone="no"?>
<!DOCTYPE svg PUBLIC "-//W3C//DTD SVG 1.1//EN" "http://www.w3.org/Graphics/SVG/1.1/DTD/svg11.dtd">
<svg xmlns="http://www.w3.org/2000/svg" xmlns:xlink="http://www.w3.org/1999/xlink" version="1.1" width="489.75pt" height="216pt" viewBox="0 0 489.75 216">
<g enable-background="new">
<g>
<g id="Layer-1" data-name="Layer 1">
<path transform="matrix(1,0,0,-1,0,216)" d="M .75 0 L 489.751 0 L 489.751 215.25 L .75 215.25 Z " fill="#ffffff"/>
<clipPath id="cp0">
<path transform="matrix(1,0,0,-1,0,216)" d="M 0 0 L 489.75 0 L 489.75 216 L 0 216 Z "/>
</clipPath>
<g clip-path="url(#cp0)">
<g opacity=".149017">
<clipPath id="cp1">
<path transform="matrix(1,0,0,-1,0,216)" d="M 0 0 L 489.75 0 L 489.75 216 L 0 216 Z "/>
</clipPath>
<g clip-path="url(#cp1)">
<path transform="matrix(1,0,0,-1,.75,.75)" d="M 0 0 L 0 0 L 0 -27 L -.75 -27 L -.75 0 Z M 0 -27.75 L 0 -27.75 L 0 -45.75 L -.75 -45.75 L -.75 -27.75 Z M 0 -46.5 L 0 -46.5 L 0 -64.5 L -.75 -64.5 L -.75 -46.5 Z M 0 -65.25 L 0 -65.25 L 0 -83.25 L -.75 -83.25 L -.75 -65.25 Z M 0 -84 L 0 -84 L 0 -102 L -.75 -102 L -.75 -84 Z M 0 -102.75 L 0 -102.75 L 0 -120.75 L -.75 -120.75 L -.75 -102.75 Z M 0 -121.5 L 0 -121.5 L 0 -139.5 L -.75 -139.5 L -.75 -121.5 Z M 0 -140.25 L 0 -140.25 L 0 -155.25 L -.75 -155.25 L -.75 -140.25 Z M 0 -156 L 0 -156 L 0 -158.25 L -.75 -158.25 L -.75 -156 Z M 0 -159 L 0 -159 L 0 -177 L -.75 -177 L -.75 -159 Z M 0 -177.75 L 0 -177.75 L 0 -195.75 L -.75 -195.75 L -.75 -177.75 Z M 0 -196.5 L 0 -196.5 L 0 -214.5 L -.75 -214.5 L -.75 -196.5 Z M 162.75 0 L 162.75 0 L 162.75 -27 L 162 -27 L 162 0 Z M 162.75 -27.75 L 162.75 -27.75 L 162.75 -45.75 L 162 -45.75 L 162 -27.75 Z M 162.75 -46.5 L 162.75 -46.5 L 162.75 -64.5 L 162 -64.5 L 162 -46.5 Z M 162.75 -65.25 L 162.75 -65.25 L 162.75 -83.25 L 162 -83.25 L 162 -65.25 Z M 162.75 -84 L 162.75 -84 L 162.75 -102 L 162 -102 L 162 -84 Z M 162.75 -102.75 L 162.75 -102.75 L 162.75 -120.75 L 162 -120.75 L 162 -102.75 Z M 162.75 -121.5 L 162.75 -121.5 L 162.75 -139.5 L 162 -139.5 L 162 -121.5 Z M 162.75 -140.25 L 162.75 -140.25 L 162.75 -155.25 L 162 -155.25 L 162 -140.25 Z M 162.75 -156 L 162.75 -156 L 162.75 -158.25 L 162 -158.25 L 162 -156 Z M 162.75 -159 L 162.75 -159 L 162.75 -177 L 162 -177 L 162 -159 Z M 162.75 -177.75 L 162.75 -177.75 L 162.75 -195.75 L 162 -195.75 L 162 -177.75 Z M 162.75 -196.5 L 162.75 -196.5 L 162.75 -214.5 L 162 -214.5 L 162 -196.5 Z M 228 0 L 228 0 L 228 -27 L 227.25 -27 L 227.25 0 Z M 228 -27.75 L 228 -27.75 L 228 -45.75 L 227.25 -45.75 L 227.25 -27.75 Z M 228 -46.5 L 228 -46.5 L 228 -64.5 L 227.25 -64.5 L 227.25 -46.5 Z M 228 -65.25 L 228 -65.25 L 228 -83.25 L 227.25 -83.25 L 227.25 -65.25 Z M 228 -84 L 228 -84 L 228 -102 L 227.25 -102 L 227.25 -84 Z M 228 -102.75 L 228 -102.75 L 228 -120.75 L 227.25 -120.75 L 227.25 -102.75 Z M 228 -121.5 L 228 -121.5 L 228 -139.5 L 227.25 -139.5 L 227.25 -121.5 Z M 228 -140.25 L 228 -140.25 L 228 -155.25 L 227.25 -155.25 L 227.25 -140.25 Z M 228 -156 L 228 -156 L 228 -158.25 L 227.25 -158.25 L 227.25 -156 Z M 228 -159 L 228 -159 L 228 -177 L 227.25 -177 L 227.25 -159 Z M 228 -177.75 L 228 -177.75 L 228 -195.75 L 227.25 -195.75 L 227.25 -177.75 Z M 228 -196.5 L 228 -196.5 L 228 -214.5 L 227.25 -214.5 L 227.25 -196.5 Z M 293.25 0 L 293.25 0 L 293.25 -27 L 292.5 -27 L 292.5 0 Z M 293.25 -27.75 L 293.25 -27.75 L 293.25 -45.75 L 292.5 -45.75 L 292.5 -27.75 Z M 293.25 -46.5 L 293.25 -46.5 L 293.25 -64.5 L 292.5 -64.5 L 292.5 -46.5 Z M 293.25 -65.25 L 293.25 -65.25 L 293.25 -83.25 L 292.5 -83.25 L 292.5 -65.25 Z M 293.25 -84 L 293.25 -84 L 293.25 -102 L 292.5 -102 L 292.5 -84 Z M 293.25 -102.75 L 293.25 -102.75 L 293.25 -120.75 L 292.5 -120.75 L 292.5 -102.75 Z M 293.25 -121.5 L 293.25 -121.5 L 293.25 -139.5 L 292.5 -139.5 L 292.5 -121.5 Z M 293.25 -140.25 L 293.25 -140.25 L 293.25 -155.25 L 292.5 -155.25 L 292.5 -140.25 Z M 293.25 -156 L 293.25 -156 L 293.25 -158.25 L 292.5 -158.25 L 292.5 -156 Z M 293.25 -159 L 293.25 -159 L 293.25 -177 L 292.5 -177 L 292.5 -159 Z M 293.25 -177.75 L 293.25 -177.75 L 293.25 -195.75 L 292.5 -195.75 L 292.5 -177.75 Z M 293.25 -196.5 L 293.25 -196.5 L 293.25 -214.5 L 292.5 -214.5 L 292.5 -196.5 Z M 358.5 0 L 358.5 0 L 358.5 -27 L 357.75 -27 L 357.75 0 Z M 358.5 -27.75 L 358.5 -27.75 L 358.5 -45.75 L 357.75 -45.75 L 357.75 -27.75 Z M 358.5 -46.5 L 358.5 -46.5 L 358.5 -64.5 L 357.75 -64.5 L 357.75 -46.5 Z M 358.5 -65.25 L 358.5 -65.25 L 358.5 -83.25 L 357.75 -83.25 L 357.75 -65.25 Z M 358.5 -84 L 358.5 -84 L 358.5 -102 L 357.75 -102 L 357.75 -84 Z M 358.5 -102.75 L 358.5 -102.75 L 358.5 -120.75 L 357.75 -120.75 L 357.75 -102.75 Z M 358.5 -121.5 L 358.5 -121.5 L 358.5 -139.5 L 357.75 -139.5 L 357.75 -121.5 Z M 358.5 -140.25 L 358.5 -140.25 L 358.5 -155.25 L 357.75 -155.25 L 357.75 -140.25 Z M 358.5 -156 L 358.5 -156 L 358.5 -158.25 L 357.75 -158.25 L 357.75 -156 Z M 358.5 -159 L 358.5 -159 L 358.5 -177 L 357.75 -177 L 357.75 -159 Z M 358.5 -177.75 L 358.5 -177.75 L 358.5 -195.75 L 357.75 -195.75 L 357.75 -177.75 Z M 358.5 -196.5 L 358.5 -196.5 L 358.5 -214.5 L 357.75 -214.5 L 357.75 -196.5 Z M 423.75 0 L 423.75 0 L 423.75 -27 L 423 -27 L 423 0 Z M 423.75 -27.75 L 423.75 -27.75 L 423.75 -45.75 L 423 -45.75 L 423 -27.75 Z M 423.75 -46.5 L 423.75 -46.5 L 423.75 -64.5 L 423 -64.5 L 423 -46.5 Z M 423.75 -65.25 L 423.75 -65.25 L 423.75 -83.25 L 423 -83.25 L 423 -65.25 Z M 423.75 -84 L 423.75 -84 L 423.75 -102 L 423 -102 L 423 -84 Z M 423.75 -102.75 L 423.75 -102.75 L 423.75 -120.75 L 423 -120.75 L 423 -102.75 Z M 423.75 -121.5 L 423.75 -121.5 L 423.75 -139.5 L 423 -139.5 L 423 -121.5 Z M 423.75 -140.25 L 423.75 -140.25 L 423.75 -155.25 L 423 -155.25 L 423 -140.25 Z M 423.75 -156 L 423.75 -156 L 423.75 -158.25 L 423 -158.25 L 423 -156 Z M 423.75 -159 L 423.75 -159 L 423.75 -177 L 423 -177 L 423 -159 Z M 423.75 -177.75 L 423.75 -177.75 L 423.75 -195.75 L 423 -195.75 L 423 -177.75 Z M 423.75 -196.5 L 423.75 -196.5 L 423.75 -214.5 L 423 -214.5 L 423 -196.5 Z M 489 0 L 489 0 L 489 -27 L 488.25 -27 L 488.25 0 Z M 489 -27.75 L 489 -27.75 L 489 -45.75 L 488.25 -45.75 L 488.25 -27.75 Z M 489 -46.5 L 489 -46.5 L 489 -64.5 L 488.25 -64.5 L 488.25 -46.5 Z M 489 -65.25 L 489 -65.25 L 489 -83.25 L 488.25 -83.25 L 488.25 -65.25 Z M 489 -84 L 489 -84 L 489 -102 L 488.25 -102 L 488.25 -84 Z M 489 -102.75 L 489 -102.75 L 489 -120.75 L 488.25 -120.75 L 488.25 -102.75 Z M 489 -121.5 L 489 -121.5 L 489 -139.5 L 488.25 -139.5 L 488.25 -121.5 Z M 489 -140.25 L 489 -140.25 L 489 -155.25 L 488.25 -155.25 L 488.25 -140.25 Z M 489 -156 L 489 -156 L 489 -158.25 L 488.25 -158.25 L 488.25 -156 Z M 489 -159 L 489 -159 L 489 -177 L 488.25 -177 L 488.25 -159 Z M 489 -177.75 L 489 -177.75 L 489 -195.75 L 488.25 -195.75 L 488.25 -177.75 Z M 489 -196.5 L 489 -196.5 L 489 -214.5 L 488.25 -214.5 L 488.25 -196.5 Z M -.75 .75 L -.75 .75 L 489 .75 L 489 0 L -.75 0 Z M -.75 -27 L -.75 -27 L 489 -27 L 489 -27.75 L -.75 -27.75 Z M -.75 -45.75 L -.75 -45.75 L 489 -45.75 L 489 -46.5 L -.75 -46.5 Z M -.75 -64.5 L -.75 -64.5 L 489 -64.5 L 489 -65.25 L -.75 -65.25 Z M -.75 -83.25 L -.75 -83.25 L 489 -83.25 L 489 -84 L -.75 -84 Z M -.75 -102 L -.75 -102 L 489 -102 L 489 -102.75 L -.75 -102.75 Z M -.75 -120.75 L -.75 -120.75 L 489 -120.75 L 489 -121.5 L -.75 -121.5 Z M -.75 -139.5 L -.75 -139.5 L 489 -139.5 L 489 -140.25 L -.75 -140.25 Z M -.75 -155.25 L -.75 -155.25 L 489 -155.25 L 489 -156 L -.75 -156 Z M -.75 -158.25 L -.75 -158.25 L 489 -158.25 L 489 -159 L -.75 -159 Z M -.75 -177 L -.75 -177 L 489 -177 L 489 -177.75 L -.75 -177.75 Z M -.75 -195.75 L -.75 -195.75 L 489 -195.75 L 489 -196.5 L -.75 -196.5 Z M -.75 -214.5 L -.75 -214.5 L 489 -214.5 L 489 -215.25 L -.75 -215.25 Z "/>
</g>
</g>
</g>
<text xml:space="preserve" transform="matrix(1 0 -0 1 0 216)" font-size="9.75" font-family="HelveticaNeue" font-weight="bold"><tspan y="-203.3379" x="182.2495 187.3195 189.835 195.07076 200.85251 206.449">visual</tspan><tspan y="-191.0529" x="185.2525 191.20975 196.80625 200.23825">data</tspan><tspan y="-203.3379" x="237.00551 242.96276 246.68726 252.6445 258.42625 264.20799 270.16523 275.76173 281.71897">grounded </tspan><tspan y="-191.0529" x="246.00476 249.43677 255.21852 260.81504 266.77229 270.7015">theory</tspan><tspan y="-203.3379" x="295.5055 301.102 306.88374 312.84098 318.43748 324.3947 329.9912 338.8247 344.4212 350.20295 353.63496">engagement </tspan><tspan y="-191.0529" x="305.2555 310.852 316.63374 322.23023 324.74574 329.80598 333.23799 335.75349 341.34999">analytics</tspan><tspan y="-203.3379" x="371.25325 373.76875 379.72599 385.32249 390.91899 394.35099 396.8665 402.82374 408.60548">ideation </tspan><tspan y="-191.0529" x="373.5055 382.339 387.9355 391.3675 395.16026 397.67576 403.27226">metrics</tspan><tspan y="-203.3379" x="433.507 440.18574 443.06199 445.7725 451.72975 457.32624 462.56199 465.07749 471.03474 476.81648">AI design </tspan><tspan y="-191.0529" x="435.75926 441.35575 447.13749 452.73399 455.24949 460.30973 463.74174 466.25724 471.85374">analytics</tspan></text>
<text xml:space="preserve" transform="matrix(1 0 -0 1 0 216)" font-size="9.75" font-family="TimesLTPro"><tspan y="-172.59615" x="3.0055238 7.5100238 9.791524 17.923024 22.807774 25.801024 31.348774 36.048276 39.909276 44.794027 50.293027 52.360029 58.015027 63.367776 71.499279 77.04703 82.39978 86.26078 88.54228 91.76953 94.05103 99.403789">Time-based Composition</tspan></text>
<text xml:space="preserve" transform="matrix(1 0 -0 1 0 216)" font-size="9.75" font-family="HelveticaNeue"><tspan y="-175.7649" x="192.76003 258.00703 388.51078">xxx</tspan></text>
<text xml:space="preserve" transform="matrix(1 0 -0 1 0 216)" font-size="9.75" font-family="TimesLTPro"><tspan y="-153.8469" x="3.0055238 8.660524 14.013275 16.314276 18.547024 23.246525 28.794276 34.147027 37.335279 42.03478 45.262029 47.329027 51.882276 56.767026 58.834028 63.436029 65.50302 70.056278 74.941028 77.008029 84.84702 89.73177 95.230777 97.44402 102.143527 104.210529 109.865528 115.23778 118.426029 123.12553 126.352779 128.63428 133.98703">Collaborative Live Media Curation</tspan></text>
<text xml:space="preserve" transform="matrix(1 0 -0 1 0 216)" font-size="9.75" font-family="HelveticaNeue"><tspan y="-157.01564" x="192.76003 258.00703">xx</tspan></text>
<text xml:space="preserve" transform="matrix(1 0 -0 1 0 216)" font-size="9.75" font-family="TimesLTPro"><tspan y="-135.09764" x="3.0055238 7.8025238 15.934024 21.481774 26.834525 32.333524 34.615026 39.499776 44.998777 47.065778 54.904779 59.60428 63.97228 69.38353">Embodied Mache</tspan></text>
<text xml:space="preserve" transform="matrix(1 0 -0 1 0 216)" font-size="9.75" font-family="HelveticaNeue"><tspan y="-138.26639" x="192.76003 258.00703">xx</tspan></text>
<text xml:space="preserve" transform="matrix(1 0 -0 1 0 216)" font-size="9.75" font-family="ArialMT"><tspan y="-137.85689" x="323.25404">x</tspan></text>
<text xml:space="preserve" transform="matrix(1 0 -0 1 0 216)" font-size="9.75" font-family="TimesLTPro"><tspan y="-116.34839" x="3.0055238 8.036524 12.736024 15.963274 19.190526 24.075276 27.263525 32.674776 36.535776 38.602777 41.371778 46.120027 49.308279 54.193029 59.077779 62.07103 66.68277 72.03552 75.22377 83.35527 85.42227 91.07727 96.449527 99.63777 104.33727 107.56452 109.84602 115.19878 120.61002">Patterns [Free-Form Curation]</tspan></text>
<text xml:space="preserve" transform="matrix(1 0 -0 1 0 216)" font-size="9.75" font-family="HelveticaNeue"><tspan y="-119.517139" x="192.76001">x</tspan></text>
<text xml:space="preserve" transform="matrix(1 0 -0 1 0 216)" font-size="9.75" font-family="TimesLTPro"><tspan y="-97.59914" x="3.0055085 7.8122589 11.039509 14.227759 18.92726 22.15451 26.902758 32.35301 34.63451 39.51926 43.38026 45.44726 48.216264 52.96451 56.152765 61.037515 65.922267 68.91551 73.52726 78.88001 82.06826 90.19976 92.26676 97.92176 103.294017 106.48226 111.18176 114.40901 116.69051 122.04327 127.45451">Strategies [Free-Form Curation]</tspan></text>
<text xml:space="preserve" transform="matrix(1 0 -0 1 0 216)" font-size="9.75" font-family="HelveticaNeue"><tspan y="-100.76788" x="192.76001 258.00703">xx</tspan></text>
<text xml:space="preserve" transform="matrix(1 0 -0 1 0 216)" font-size="9.75" font-family="ArialMT"><tspan y="-100.35838" x="323.25404">x</tspan></text>
<text xml:space="preserve" transform="matrix(1 0 -0 1 0 216)" font-size="9.75" font-family="TimesLTPro"><tspan y="-78.849887" x="3.0055238 5.3357737 10.747024 16.246024 21.004023 25.518273 27.799773 33.21102 38.66127 40.201776 46.168775 51.580026 56.279527 58.580526 63.172777 66.400028 68.681529 73.04953 76.91053 78.97753 81.74653 88.24003 93.12478 96.98578 99.26728 104.71753 110.12878 112.19578 116.992778 122.491779 127.86403 132.23203 136.93152 140.15877 142.44026 147.79302 153.20427">Indexing Analytics [Design Education]</tspan></text>
<text xml:space="preserve" transform="matrix(1 0 -0 1 0 216)" font-size="9.75" font-family="HelveticaNeue"><tspan y="-82.01863" x="192.76004 258.00706">xx</tspan></text>
<text xml:space="preserve" transform="matrix(1 0 -0 1 0 216)" font-size="9.75" font-family="ArialMT"><tspan y="-81.60913" x="453.7578">x</tspan></text>
<text xml:space="preserve" transform="matrix(1 0 -0 1 0 216)" font-size="9.75" font-family="TimesLTPro"><tspan y="-63.09388" x="3.0055848 10.844585 15.729336 20.428837 24.289837 29.662087 32.850339 35.13184 40.54309 45.99334 48.06034 52.85734 60.988843 65.8736 68.90583 74.35608 79.24083 84.65208 89.02008">Measuring Emergence</tspan></text>
<text xml:space="preserve" transform="matrix(1 0 -0 1 0 216)" font-size="9.75" font-family="HelveticaNeue"><tspan y="-62.80138" x="192.76007 388.5108">xx</tspan></text>
<text xml:space="preserve" transform="matrix(1 0 -0 1 0 216)" font-size="9.75" font-family="TimesLTPro"><tspan y="-41.34163" x="3.0055543 7.8123047 11.039555 14.227805 19.112557 23.812058 31.943558 34.22506 39.63631 45.08656 47.15356 52.50631 57.91756 59.809057 63.874807 71.050807 73.332309 76.559558 80.92755">Streaming on Twitch</tspan></text>
<text xml:space="preserve" transform="matrix(1 0 -0 1 0 216)" font-size="9.75" font-family="HelveticaNeue"><tspan y="-44.51038" x="192.76006 258.00706">xx</tspan></text>
<text xml:space="preserve" transform="matrix(1 0 -0 1 0 216)" font-size="9.75" font-family="TimesLTPro"><tspan y="-22.59238" x="3.0055543 7.178554 12.063305 16.762806 24.894307 26.961306 32.616308 37.969057 43.321805 46.510057 52.009057 54.290559 59.70181 64.401309 67.628559 69.91006 75.26281 80.67406 82.74106 89.03956 93.73906 101.87056">Team Coordination Game</tspan></text>
<text xml:space="preserve" transform="matrix(1 0 -0 1 0 216)" font-size="9.75" font-family="HelveticaNeue"><tspan y="-25.761132" x="192.76006 258.00706">xx</tspan></text>
<text xml:space="preserve" transform="matrix(1 0 -0 1 0 216)" font-size="9.75" font-family="ArialMT"><tspan y="-25.351632" x="323.25407">x</tspan></text>
<text xml:space="preserve" transform="matrix(1 0 -0 1 0 216)" font-size="9.75" font-family="TimesLTPro"><tspan y="-3.84313" x="3.0055543 8.192554 13.077305 18.488556 21.481806 23.763306 29.174557 32.16781 38.524808 43.224309 48.63556 54.13456 56.20156 61.85656 67.20931 75.34081 83.47231 88.171817 93.58306">Pen-in-Hand Command</tspan></text>
<text xml:space="preserve" transform="matrix(1 0 -0 1 0 216)" font-size="9.75" font-family="HelveticaNeue"><tspan y="-7.01188" x="192.76006 258.00706">xx</tspan></text>
</g>
</g>
</g>
</svg>
