<?xml version="1.0" encoding="UTF-8" standalone="no"?>
<!DOCTYPE svg PUBLIC "-//W3C//DTD SVG 1.1//EN" "http://www.w3.org/Graphics/SVG/1.1/DTD/svg11.dtd">
<svg xmlns="http://www.w3.org/2000/svg" xmlns:xlink="http://www.w3.org/1999/xlink" version="1.1" width="490.5pt" height="217.5pt" viewBox="0 0 490.5 217.5">
<g enable-background="new">
<g>
<g id="Layer-1" data-name="Layer 1">
<path transform="matrix(1,0,0,-1,0,217.5)" d="M 1.5 216 L 490.5 216 L 490.5 .75 L 1.5 .75 Z " fill="#ffffff"/>
<clipPath id="cp0">
<path transform="matrix(1,0,0,-1,0,217.5)" d="M 0 0 L 490.5 0 L 490.5 217.5 L 0 217.5 Z "/>
</clipPath>
<g clip-path="url(#cp0)">
<g opacity=".149017">
<clipPath id="cp1">
<path transform="matrix(1,0,0,-1,0,217.5)" d="M .75 .75 L 490.5 .75 L 490.5 216.75 L .75 216.75 Z "/>
</clipPath>
<g clip-path="url(#cp1)">
<path transform="matrix(1,0,0,-1,1.5,1.5)" d="M 0 0 L 0 0 L 0 -27 L -.75 -27 L -.75 0 Z M 0 -27.75 L 0 -27.75 L 0 -45.75 L -.75 -45.75 L -.75 -27.75 Z M 0 -46.5 L 0 -46.5 L 0 -64.5 L -.75 -64.5 L -.75 -46.5 Z M 0 -65.25 L 0 -65.25 L 0 -83.25 L -.75 -83.25 L -.75 -65.25 Z M 0 -84 L 0 -84 L 0 -102 L -.75 -102 L -.75 -84 Z M 0 -102.75 L 0 -102.75 L 0 -120.75 L -.75 -120.75 L -.75 -102.75 Z M 0 -121.5 L 0 -121.5 L 0 -139.5 L -.75 -139.5 L -.75 -121.5 Z M 0 -140.25 L 0 -140.25 L 0 -155.25 L -.75 -155.25 L -.75 -140.25 Z M 0 -156 L 0 -156 L 0 -158.25 L -.75 -158.25 L -.75 -156 Z M 0 -159 L 0 -159 L 0 -177 L -.75 -177 L -.75 -159 Z M 0 -177.75 L 0 -177.75 L 0 -195.75 L -.75 -195.75 L -.75 -177.75 Z M 0 -196.5 L 0 -196.5 L 0 -214.5 L -.75 -214.5 L -.75 -196.5 Z M 162.75 0 L 162.75 0 L 162.75 -27 L 162 -27 L 162 0 Z M 162.75 -27.75 L 162.75 -27.75 L 162.75 -45.75 L 162 -45.75 L 162 -27.75 Z M 162.75 -46.5 L 162.75 -46.5 L 162.75 -64.5 L 162 -64.5 L 162 -46.5 Z M 162.75 -65.25 L 162.75 -65.25 L 162.75 -83.25 L 162 -83.25 L 162 -65.25 Z M 162.75 -84 L 162.75 -84 L 162.75 -102 L 162 -102 L 162 -84 Z M 162.75 -102.75 L 162.75 -102.75 L 162.75 -120.75 L 162 -120.75 L 162 -102.75 Z M 162.75 -121.5 L 162.75 -121.5 L 162.75 -139.5 L 162 -139.5 L 162 -121.5 Z M 162.75 -140.25 L 162.75 -140.25 L 162.75 -155.25 L 162 -155.25 L 162 -140.25 Z M 162.75 -156 L 162.75 -156 L 162.75 -158.25 L 162 -158.25 L 162 -156 Z M 162.75 -159 L 162.75 -159 L 162.75 -177 L 162 -177 L 162 -159 Z M 162.75 -177.75 L 162.75 -177.75 L 162.75 -195.75 L 162 -195.75 L 162 -177.75 Z M 162.75 -196.5 L 162.75 -196.5 L 162.75 -214.5 L 162 -214.5 L 162 -196.5 Z M 228 0 L 228 0 L 228 -27 L 227.25 -27 L 227.25 0 Z M 228 -27.75 L 228 -27.75 L 228 -45.75 L 227.25 -45.75 L 227.25 -27.75 Z M 228 -46.5 L 228 -46.5 L 228 -64.5 L 227.25 -64.5 L 227.25 -46.5 Z M 228 -65.25 L 228 -65.25 L 228 -83.25 L 227.25 -83.25 L 227.25 -65.25 Z M 228 -84 L 228 -84 L 228 -102 L 227.25 -102 L 227.25 -84 Z M 228 -102.75 L 228 -102.75 L 228 -120.75 L 227.25 -120.75 L 227.25 -102.75 Z M 228 -121.5 L 228 -121.5 L 228 -139.5 L 227.25 -139.5 L 227.25 -121.5 Z M 228 -140.25 L 228 -140.25 L 228 -155.25 L 227.25 -155.25 L 227.25 -140.25 Z M 228 -156 L 228 -156 L 228 -158.25 L 227.25 -158.25 L 227.25 -156 Z M 228 -159 L 228 -159 L 228 -177 L 227.25 -177 L 227.25 -159 Z M 228 -177.75 L 228 -177.75 L 228 -195.75 L 227.25 -195.75 L 227.25 -177.75 Z M 228 -196.5 L 228 -196.5 L 228 -214.5 L 227.25 -214.5 L 227.25 -196.5 Z M 293.25 0 L 293.25 0 L 293.25 -27 L 292.5 -27 L 292.5 0 Z M 293.25 -27.75 L 293.25 -27.75 L 293.25 -45.75 L 292.5 -45.75 L 292.5 -27.75 Z M 293.25 -46.5 L 293.25 -46.5 L 293.25 -64.5 L 292.5 -64.5 L 292.5 -46.5 Z M 293.25 -65.25 L 293.25 -65.25 L 293.25 -83.25 L 292.5 -83.25 L 292.5 -65.25 Z M 293.25 -84 L 293.25 -84 L 293.25 -102 L 292.5 -102 L 292.5 -84 Z M 293.25 -102.75 L 293.25 -102.75 L 293.25 -120.75 L 292.5 -120.75 L 292.5 -102.75 Z M 293.25 -121.5 L 293.25 -121.5 L 293.25 -139.5 L 292.5 -139.5 L 292.5 -121.5 Z M 293.25 -140.25 L 293.25 -140.25 L 293.25 -155.25 L 292.5 -155.25 L 292.5 -140.25 Z M 293.25 -156 L 293.25 -156 L 293.25 -158.25 L 292.5 -158.25 L 292.5 -156 Z M 293.25 -159 L 293.25 -159 L 293.25 -177 L 292.5 -177 L 292.5 -159 Z M 293.25 -177.75 L 293.25 -177.75 L 293.25 -195.75 L 292.5 -195.75 L 292.5 -177.75 Z M 293.25 -196.5 L 293.25 -196.5 L 293.25 -214.5 L 292.5 -214.5 L 292.5 -196.5 Z M 358.5 0 L 358.5 0 L 358.5 -27 L 357.75 -27 L 357.75 0 Z M 358.5 -27.75 L 358.5 -27.75 L 358.5 -45.75 L 357.75 -45.75 L 357.75 -27.75 Z M 358.5 -46.5 L 358.5 -46.5 L 358.5 -64.5 L 357.75 -64.5 L 357.75 -46.5 Z M 358.5 -65.25 L 358.5 -65.25 L 358.5 -83.25 L 357.75 -83.25 L 357.75 -65.25 Z M 358.5 -84 L 358.5 -84 L 358.5 -102 L 357.75 -102 L 357.75 -84 Z M 358.5 -102.75 L 358.5 -102.75 L 358.5 -120.75 L 357.75 -120.75 L 357.75 -102.75 Z M 358.5 -121.5 L 358.5 -121.5 L 358.5 -139.5 L 357.75 -139.5 L 357.75 -121.5 Z M 358.5 -140.25 L 358.5 -140.25 L 358.5 -155.25 L 357.75 -155.25 L 357.75 -140.25 Z M 358.5 -156 L 358.5 -156 L 358.5 -158.25 L 357.75 -158.25 L 357.75 -156 Z M 358.5 -159 L 358.5 -159 L 358.5 -177 L 357.75 -177 L 357.75 -159 Z M 358.5 -177.75 L 358.5 -177.75 L 358.5 -195.75 L 357.75 -195.75 L 357.75 -177.75 Z M 358.5 -196.5 L 358.5 -196.5 L 358.5 -214.5 L 357.75 -214.5 L 357.75 -196.5 Z M 423.75 0 L 423.75 0 L 423.75 -27 L 423 -27 L 423 0 Z M 423.75 -27.75 L 423.75 -27.75 L 423.75 -45.75 L 423 -45.75 L 423 -27.75 Z M 423.75 -46.5 L 423.75 -46.5 L 423.75 -64.5 L 423 -64.5 L 423 -46.5 Z M 423.75 -65.25 L 423.75 -65.25 L 423.75 -83.25 L 423 -83.25 L 423 -65.25 Z M 423.75 -84 L 423.75 -84 L 423.75 -102 L 423 -102 L 423 -84 Z M 423.75 -102.75 L 423.75 -102.75 L 423.75 -120.75 L 423 -120.75 L 423 -102.75 Z M 423.75 -121.5 L 423.75 -121.5 L 423.75 -139.5 L 423 -139.5 L 423 -121.5 Z M 423.75 -140.25 L 423.75 -140.25 L 423.75 -155.25 L 423 -155.25 L 423 -140.25 Z M 423.75 -156 L 423.75 -156 L 423.75 -158.25 L 423 -158.25 L 423 -156 Z M 423.75 -159 L 423.75 -159 L 423.75 -177 L 423 -177 L 423 -159 Z M 423.75 -177.75 L 423.75 -177.75 L 423.75 -195.75 L 423 -195.75 L 423 -177.75 Z M 423.75 -196.5 L 423.75 -196.5 L 423.75 -214.5 L 423 -214.5 L 423 -196.5 Z M 489 0 L 489 0 L 489 -27 L 488.25 -27 L 488.25 0 Z M 489 -27.75 L 489 -27.75 L 489 -45.75 L 488.25 -45.75 L 488.25 -27.75 Z M 489 -46.5 L 489 -46.5 L 489 -64.5 L 488.25 -64.5 L 488.25 -46.5 Z M 489 -65.25 L 489 -65.25 L 489 -83.25 L 488.25 -83.25 L 488.25 -65.25 Z M 489 -84 L 489 -84 L 489 -102 L 488.25 -102 L 488.25 -84 Z M 489 -102.75 L 489 -102.75 L 489 -120.75 L 488.25 -120.75 L 488.25 -102.75 Z M 489 -121.5 L 489 -121.5 L 489 -139.5 L 488.25 -139.5 L 488.25 -121.5 Z M 489 -140.25 L 489 -140.25 L 489 -155.25 L 488.25 -155.25 L 488.25 -140.25 Z M 489 -156 L 489 -156 L 489 -158.25 L 488.25 -158.25 L 488.25 -156 Z M 489 -159 L 489 -159 L 489 -177 L 488.25 -177 L 488.25 -159 Z M 489 -177.75 L 489 -177.75 L 489 -195.75 L 488.25 -195.75 L 488.25 -177.75 Z M 489 -196.5 L 489 -196.5 L 489 -214.5 L 488.25 -214.5 L 488.25 -196.5 Z M -.75 .75 L -.75 .75 L 489 .75 L 489 0 L -.75 0 Z M -.75 -27 L -.75 -27 L 489 -27 L 489 -27.75 L -.75 -27.75 Z M -.75 -45.75 L -.75 -45.75 L 489 -45.75 L 489 -46.5 L -.75 -46.5 Z M -.75 -64.5 L -.75 -64.5 L 489 -64.5 L 489 -65.25 L -.75 -65.25 Z M -.75 -83.25 L -.75 -83.25 L 489 -83.25 L 489 -84 L -.75 -84 Z M -.75 -102 L -.75 -102 L 489 -102 L 489 -102.75 L -.75 -102.75 Z M -.75 -120.75 L -.75 -120.75 L 489 -120.75 L 489 -121.5 L -.75 -121.5 Z M -.75 -139.5 L -.75 -139.5 L 489 -139.5 L 489 -140.25 L -.75 -140.25 Z M -.75 -155.25 L -.75 -155.25 L 489 -155.25 L 489 -156 L -.75 -156 Z M -.75 -158.25 L -.75 -158.25 L 489 -158.25 L 489 -159 L -.75 -159 Z M -.75 -177 L -.75 -177 L 489 -177 L 489 -177.75 L -.75 -177.75 Z M -.75 -195.75 L -.75 -195.75 L 489 -195.75 L 489 -196.5 L -.75 -196.5 Z M -.75 -214.5 L -.75 -214.5 L 489 -214.5 L 489 -215.25 L -.75 -215.25 Z "/>
</g>
</g>
</g>
<text xml:space="preserve" transform="matrix(1 0 -0 1 0 217.5)" font-size="9.75" font-family="HelveticaNeue" font-weight="bold"><tspan y="-204.0879" x="182.9995 188.0695 190.585 195.82076 201.60251 207.199">visual</tspan><tspan y="-191.8029" x="186.0025 191.95975 197.55625 200.98825">data</tspan><tspan y="-204.0879" x="237.75551 243.71276 247.43726 253.3945 259.17625 264.95799 270.91523 276.51173 282.46897">grounded </tspan><tspan y="-191.8029" x="246.75476 250.18677 255.96852 261.56504 267.52229 271.4515">theory</tspan><tspan y="-204.0879" x="296.2555 301.852 307.63374 313.59098 319.18748 325.1447 330.7412 339.5747 345.1712 350.95295 354.38496">engagement </tspan><tspan y="-191.8029" x="306.0055 311.602 317.38374 322.98023 325.49574 330.55598 333.98799 336.50349 342.09999">analytics</tspan><tspan y="-204.0879" x="372.00325 374.51875 380.47599 386.07249 391.66899 395.10099 397.6165 403.57374 409.35548">ideation </tspan><tspan y="-191.8029" x="374.2555 383.089 388.6855 392.1175 395.91026 398.42576 404.02226">metrics</tspan><tspan y="-204.0879" x="434.257 440.93574 443.81199 446.5225 452.47975 458.07624 463.31199 465.82749 471.78474 477.56648">AI design </tspan><tspan y="-191.8029" x="436.50926 442.10575 447.88749 453.48399 455.99949 461.05973 464.49174 467.00724 472.60374">analytics</tspan></text>
<text xml:space="preserve" transform="matrix(1 0 -0 1 0 217.5)" font-size="9.75" font-family="TimesLTPro"><tspan y="-173.34615" x="3.7555238 8.260023 10.541523 18.673024 23.557774 26.551024 32.098775 36.798276 40.659276 45.544027 51.043027 53.110029 58.765027 64.117778 72.249279 77.79703 83.14978 87.01078 89.29228 92.51953 94.80103 100.153789">Time-based Composition</tspan></text>
<text xml:space="preserve" transform="matrix(1 0 -0 1 0 217.5)" font-size="9.75" font-family="HelveticaNeue"><tspan y="-176.5149" x="193.51003 258.75703 389.26078">xxx</tspan></text>
<text xml:space="preserve" transform="matrix(1 0 -0 1 0 217.5)" font-size="9.75" font-family="TimesLTPro"><tspan y="-154.5969" x="3.7555238 9.410524 14.763275 17.064276 19.297024 23.996525 29.544276 34.897027 38.085279 42.78478 46.012029 48.079027 52.632276 57.517026 59.584028 64.18603 66.25302 70.806278 75.691028 77.758029 85.59702 90.48177 95.980777 98.19402 102.893527 104.960529 110.615528 115.98778 119.176029 123.87553 127.102779 129.38428 134.73703">Collaborative Live Media Curation</tspan></text>
<text xml:space="preserve" transform="matrix(1 0 -0 1 0 217.5)" font-size="9.75" font-family="HelveticaNeue"><tspan y="-157.76564" x="193.51003 258.75703">xx</tspan></text>
<text xml:space="preserve" transform="matrix(1 0 -0 1 0 217.5)" font-size="9.75" font-family="TimesLTPro"><tspan y="-135.84764" x="3.7555238 8.552524 16.684025 22.231776 27.584527 33.083528 35.36503 40.24978 45.74878 47.81578 55.65478 60.354284 64.72228 70.13353">Embodied Mache</tspan></text>
<text xml:space="preserve" transform="matrix(1 0 -0 1 0 217.5)" font-size="9.75" font-family="HelveticaNeue"><tspan y="-139.01639" x="193.51003 258.75703">xx</tspan></text>
<text xml:space="preserve" transform="matrix(1 0 -0 1 0 217.5)" font-size="9.75" font-family="ArialMT"><tspan y="-138.60689" x="324.00404">x</tspan></text>
<text xml:space="preserve" transform="matrix(1 0 -0 1 0 217.5)" font-size="9.75" font-family="TimesLTPro"><tspan y="-117.09839" x="3.7555238 8.786524 13.486024 16.713274 19.940526 24.825276 28.013525 33.424776 37.285776 39.352777 42.121778 46.870027 50.058279 54.943029 59.827779 62.82103 67.43277 72.78552 75.97377 84.10527 86.17227 91.82727 97.199527 100.38777 105.08727 108.31452 110.59602 115.94878 121.36002">Patterns [Free-Form Curation]</tspan></text>
<text xml:space="preserve" transform="matrix(1 0 -0 1 0 217.5)" font-size="9.75" font-family="HelveticaNeue"><tspan y="-120.267139" x="193.51001">x</tspan></text>
<text xml:space="preserve" transform="matrix(1 0 -0 1 0 217.5)" font-size="9.75" font-family="TimesLTPro"><tspan y="-98.34914" x="3.7555085 8.562259 11.789509 14.977759 19.67726 22.90451 27.652758 33.10301 35.38451 40.26926 44.13026 46.19726 48.966264 53.71451 56.902765 61.787515 66.672267 69.66551 74.27726 79.63001 82.81826 90.94976 93.01676 98.67176 104.044017 107.23226 111.93176 115.15901 117.44051 122.79327 128.20452">Strategies [Free-Form Curation]</tspan></text>
<text xml:space="preserve" transform="matrix(1 0 -0 1 0 217.5)" font-size="9.75" font-family="HelveticaNeue"><tspan y="-101.51788" x="193.51001 258.75703">xx</tspan></text>
<text xml:space="preserve" transform="matrix(1 0 -0 1 0 217.5)" font-size="9.75" font-family="ArialMT"><tspan y="-101.10838" x="324.00404">x</tspan></text>
<text xml:space="preserve" transform="matrix(1 0 -0 1 0 217.5)" font-size="9.75" font-family="TimesLTPro"><tspan y="-79.599887" x="3.7555238 6.0857737 11.497024 16.996024 21.754023 26.268273 28.549773 33.96102 39.41127 40.951776 46.918775 52.330026 57.029527 59.330526 63.922777 67.150028 69.431529 73.79953 77.66053 79.72753 82.49653 88.99003 93.87478 97.73578 100.01728 105.46753 110.87878 112.94578 117.742778 123.241779 128.61403 132.98203 137.68152 140.90877 143.19026 148.54302 153.95427">Indexing Analytics [Design Education]</tspan></text>
<text xml:space="preserve" transform="matrix(1 0 -0 1 0 217.5)" font-size="9.75" font-family="HelveticaNeue"><tspan y="-82.76863" x="193.51004">x</tspan></text>
<text xml:space="preserve" transform="matrix(1 0 -0 1 0 217.5)" font-size="9.75" font-family="ArialMT"><tspan y="-82.35913" x="454.50779">x</tspan></text>
<text xml:space="preserve" transform="matrix(1 0 -0 1 0 217.5)" font-size="9.75" font-family="TimesLTPro"><tspan y="-63.84388" x="3.7555543 11.594555 16.479306 21.178807 25.039807 30.412056 33.600309 35.88181 41.29306 46.74331 48.81031 53.60731 61.73881 66.623569 69.6558 75.10605 79.9908 85.40205 89.77005">Measuring Emergence</tspan></text>
<text xml:space="preserve" transform="matrix(1 0 -0 1 0 217.5)" font-size="9.75" font-family="HelveticaNeue"><tspan y="-63.55138" x="193.51004 389.2608">xx</tspan></text>
<text xml:space="preserve" transform="matrix(1 0 -0 1 0 217.5)" font-size="9.75" font-family="TimesLTPro"><tspan y="-42.09163" x="3.7555543 8.5623049 11.789555 14.977805 19.862557 24.562058 32.693559 34.97506 40.38631 45.83656 47.90356 53.25631 58.66756 60.559057 64.6248 71.800807 74.082309 77.309558 81.67755">Streaming on Twitch</tspan></text>
<text xml:space="preserve" transform="matrix(1 0 -0 1 0 217.5)" font-size="9.75" font-family="HelveticaNeue"><tspan y="-45.26038" x="193.51006 258.75706">xx</tspan></text>
<text xml:space="preserve" transform="matrix(1 0 -0 1 0 217.5)" font-size="9.75" font-family="TimesLTPro"><tspan y="-23.34238" x="3.7555543 7.928554 12.813305 17.512806 25.644307 27.711306 33.366308 38.719057 44.071805 47.260057 52.759057 55.040559 60.45181 65.151309 68.378559 70.66006 76.01281 81.42406 83.49106 89.78956 94.48906 102.62056">Team Coordination Game</tspan></text>
<text xml:space="preserve" transform="matrix(1 0 -0 1 0 217.5)" font-size="9.75" font-family="HelveticaNeue"><tspan y="-26.511132" x="193.51006 258.75706">xx</tspan></text>
<text xml:space="preserve" transform="matrix(1 0 -0 1 0 217.5)" font-size="9.75" font-family="ArialMT"><tspan y="-26.101632" x="324.00407">x</tspan></text>
<text xml:space="preserve" transform="matrix(1 0 -0 1 0 217.5)" font-size="9.75" font-family="TimesLTPro"><tspan y="-4.59313" x="3.7555543 8.942554 13.827305 19.238556 22.231806 24.513306 29.924557 32.91781 39.274808 43.974309 49.38556 54.88456 56.95156 62.60656 67.95931 76.09081 84.22231 88.921817 94.33306">Pen-in-Hand Command</tspan></text>
<text xml:space="preserve" transform="matrix(1 0 -0 1 0 217.5)" font-size="9.75" font-family="HelveticaNeue"><tspan y="-7.76188" x="193.51006 258.75706">xx</tspan></text>
</g>
</g>
</g>
</svg>
