<?xml version="1.0" encoding="UTF-8" standalone="no"?>
<!DOCTYPE svg PUBLIC "-//W3C//DTD SVG 1.1//EN" "http://www.w3.org/Graphics/SVG/1.1/DTD/svg11.dtd">
<svg xmlns="http://www.w3.org/2000/svg" xmlns:xlink="http://www.w3.org/1999/xlink" version="1.1" width="290.148pt" height="136.4pt" viewBox="0 0 290.148 136.4">
<g enable-background="new">
<g>
<g id="Layer-1" data-name="Layer 1">
<path transform="matrix(1,0,0,-1,0,136.4)" d="M 1.174 135.207 L 289.924 135.207 L 289.924 .20700073 L 1.174 .20700073 Z " fill="#ffffff"/>
<clipPath id="cp0">
<path transform="matrix(1,0,0,-1,0,136.4)" d="M 0 0 L 290.148 0 L 290.148 136.399 L 0 136.399 Z "/>
</clipPath>
<g clip-path="url(#cp0)">
<g opacity=".149017">
<clipPath id="cp1">
<path transform="matrix(1,0,0,-1,0,136.4)" d="M .424316 .206543 L 289.924 .206543 L 289.924 135.957 L .424316 135.957 Z "/>
</clipPath>
<g clip-path="url(#cp1)">
<path transform="matrix(1,0,0,-1,1.1743,1.1934967)" d="M 0 0 L 0 0 L 0 -21.75 L -.75 -21.75 L -.75 0 Z M 0 -22.5 L 0 -22.5 L 0 -44.25 L -.75 -44.25 L -.75 -22.5 Z M 0 -45 L 0 -45 L 0 -66.75 L -.75 -66.75 L -.75 -45 Z M 0 -67.5 L 0 -67.5 L 0 -89.25 L -.75 -89.25 L -.75 -67.5 Z M 0 -90 L 0 -90 L 0 -111.75 L -.75 -111.75 L -.75 -90 Z M 0 -112.5 L 0 -112.5 L 0 -134.25 L -.75 -134.25 L -.75 -112.5 Z M 39 0 L 39 0 L 39 -21.75 L 38.25 -21.75 L 38.25 0 Z M 39 -22.5 L 39 -22.5 L 39 -44.25 L 38.25 -44.25 L 38.25 -22.5 Z M 39 -45 L 39 -45 L 39 -66.75 L 38.25 -66.75 L 38.25 -45 Z M 39 -67.5 L 39 -67.5 L 39 -89.25 L 38.25 -89.25 L 38.25 -67.5 Z M 39 -90 L 39 -90 L 39 -111.75 L 38.25 -111.75 L 38.25 -90 Z M 39 -112.5 L 39 -112.5 L 39 -134.25 L 38.25 -134.25 L 38.25 -112.5 Z M 135.75 0 L 135.75 0 L 135.75 -21.75 L 135 -21.75 L 135 0 Z M 135.75 -22.5 L 135.75 -22.5 L 135.75 -44.25 L 135 -44.25 L 135 -22.5 Z M 135.75 -45 L 135.75 -45 L 135.75 -66.75 L 135 -66.75 L 135 -45 Z M 135.75 -67.5 L 135.75 -67.5 L 135.75 -89.25 L 135 -89.25 L 135 -67.5 Z M 135.75 -90 L 135.75 -90 L 135.75 -111.75 L 135 -111.75 L 135 -90 Z M 135.75 -112.5 L 135.75 -112.5 L 135.75 -134.25 L 135 -134.25 L 135 -112.5 Z M 252 0 L 252 0 L 252 -21.75 L 251.25 -21.75 L 251.25 0 Z M 252 -22.5 L 252 -22.5 L 252 -44.25 L 251.25 -44.25 L 251.25 -22.5 Z M 252 -45 L 252 -45 L 252 -66.75 L 251.25 -66.75 L 251.25 -45 Z M 252 -67.5 L 252 -67.5 L 252 -89.25 L 251.25 -89.25 L 251.25 -67.5 Z M 252 -90 L 252 -90 L 252 -111.75 L 251.25 -111.75 L 251.25 -90 Z M 252 -112.5 L 252 -112.5 L 252 -134.25 L 251.25 -134.25 L 251.25 -112.5 Z M 288.75 0 L 288.75 0 L 288.75 -21.75 L 288 -21.75 L 288 0 Z M 288.75 -22.5 L 288.75 -22.5 L 288.75 -44.25 L 288 -44.25 L 288 -22.5 Z M 288.75 -45 L 288.75 -45 L 288.75 -66.75 L 288 -66.75 L 288 -45 Z M 288.75 -67.5 L 288.75 -67.5 L 288.75 -89.25 L 288 -89.25 L 288 -67.5 Z M 288.75 -90 L 288.75 -90 L 288.75 -111.75 L 288 -111.75 L 288 -90 Z M 288.75 -112.5 L 288.75 -112.5 L 288.75 -134.25 L 288 -134.25 L 288 -112.5 Z M -.75 .75 L -.75 .75 L 288.75 .75 L 288.75 0 L -.75 0 Z M -.75 -21.75 L -.75 -21.75 L 288.75 -21.75 L 288.75 -22.5 L -.75 -22.5 Z M -.75 -44.25 L -.75 -44.25 L 288.75 -44.25 L 288.75 -45 L -.75 -45 Z M -.75 -66.75 L -.75 -66.75 L 288.75 -66.75 L 288.75 -67.5 L -.75 -67.5 Z M -.75 -89.25 L -.75 -89.25 L 288.75 -89.25 L 288.75 -90 L -.75 -90 Z M -.75 -111.75 L -.75 -111.75 L 288.75 -111.75 L 288.75 -112.5 L -.75 -112.5 Z M -.75 -134.25 L -.75 -134.25 L 288.75 -134.25 L 288.75 -135 L -.75 -135 Z "/>
</g>
</g>
</g>
<text xml:space="preserve" transform="matrix(1 0 -0 1 0 136.4)" font-size="9.75" font-family="HelveticaNeue" font-weight="bold"><tspan y="-116.2563" x="3.4238 9.38105 14.9775509 18.40955">data</tspan></text>
<text xml:space="preserve" transform="matrix(1 0 -0 1 0 136.4)" font-size="9.75" font-family="HelveticaNeue"><tspan y="-116.2563" x="42.4238 48.20555 53.626554 58.862306 61.026807 63.191308 66.26256 71.49831 74.56956 76.734058 81.609058 139.17305 144.9548 150.37581 155.61156 161.03256 164.1038 166.26831 169.33956 174.5753 177.64655 179.81105 184.68605">qualitativequantitative</tspan><tspan y="-93.7533" x="42.423799 48.020299 51.09155 56.68805 62.10905 67.53005 73.311809 78.547557 84.32931 87.03981 90.11106 95.53206 100.76781 106.3643 109.650058 139.17305 141.33756 147.11931 152.35506 157.5908 160.66205 162.82656 168.42305 173.84406 176.55455 184.8713 190.10706 193.1783 196.42505 198.58956 203.8253">grounded theoryideation metrics</tspan><tspan y="-71.250308" x="42.423799 47.298799 49.4633 54.3383 59.7593 64.99505 67.159549 69.87005 75.6518 80.88755 83.9588 139.17305 145.49105 148.0163 150.72679 156.50855 161.7443 166.6193 168.7838 174.3803 179.8013 182.5118 187.74755 193.16855 198.4043 200.5688 205.4438 208.51505 210.67955 215.9153">visual dataAI design analytics</tspan><tspan y="-48.747308" x="139.17305 144.4088 149.8298 155.4263 160.66205 166.25855 171.4943 179.81105 185.0468 190.4678 193.53905 196.24954 201.48529 206.9063 212.14205 214.30655 219.18155 222.25279 224.4173 229.65305">engagement analytics</tspan></text>
<text xml:space="preserve" transform="matrix(1 0 -0 1 0 136.4)" font-size="9.75" font-family="HelveticaNeue" font-weight="bold"><tspan y="-26.244307" x="3.4237977 8.659548 14.256048 17.68805 21.120049 23.635548 29.417298">setting</tspan></text>
<text xml:space="preserve" transform="matrix(1 0 -0 1 0 136.4)" font-size="9.75" font-family="HelveticaNeue"><tspan y="-26.244307" x="42.423799 45.3098 47.4743 52.710054 54.874555 139.17305 141.33756 146.5733 255.4223 260.65806 263.90483 269.5013 276.8918">fieldlabcrowd</tspan></text>
<clipPath id="cp2">
<path transform="matrix(1,0,0,-1,0,136.4)" d="M 0 0 L 290.148 0 L 290.148 136.399 L 0 136.399 Z "/>
</clipPath>
<g clip-path="url(#cp2)">
<text xml:space="preserve" transform="matrix(1 0 -0 1 0 136.4)" font-size="9.75" font-family="HelveticaNeue" font-weight="bold"><tspan y="-3.7563" x="3.4238 6.8558 12.4523 17.68805">task</tspan></text>
<text xml:space="preserve" transform="matrix(1 0 -0 1 0 136.4)" font-size="9.75" font-family="HelveticaNeue"><tspan y="-3.7563" x="42.4238 47.2988 49.463304 52.534555 57.955556 63.191308 66.26256 71.49831 139.17305 144.4088 150.0053 155.4263 158.49755 161.7443 167.34079 169.5053 171.6698 176.90555">situatedcontrolled</tspan></text>
</g>
</g>
</g>
</g>
</svg>
