<?xml version="1.0" encoding="utf-8"?>
<!-- Generator: Adobe Illustrator 15.1.0, SVG Export Plug-In  -->
<!DOCTYPE svg PUBLIC "-//W3C//DTD SVG 1.1//EN" "http://www.w3.org/Graphics/SVG/1.1/DTD/svg11.dtd" [
	<!ENTITY ns_flows "http://ns.adobe.com/Flows/1.0/">
]>
<svg version="1.1"
	 xmlns="http://www.w3.org/2000/svg" xmlns:xlink="http://www.w3.org/1999/xlink" xmlns:a="http://ns.adobe.com/AdobeSVGViewerExtensions/3.0/"
	 x="0px" y="0px" width="491px" height="218px" viewBox="150.375 52.5 491 218"
	 overflow="visible" enable-background="new 150.375 52.5 491 218" xml:space="preserve">
<style type="text/css">
<![CDATA[
]]>
</style>
<defs>
</defs>
<g>
	<defs>
		<rect id="SVGID_1_" width="792" height="612"/>
	</defs>
	<clipPath id="SVGID_3_">
		<use xlink:href="#SVGID_1_"  overflow="visible"/>
	</clipPath>
	<g clip-path="url(#SVGID_3_)">
		<defs>
			<rect id="SVGID_2_" x="150.375" y="52.5" width="491.25" height="217.5"/>
		</defs>
		<clipPath id="SVGID_4_">
			<use xlink:href="#SVGID_2_"  overflow="visible"/>
		</clipPath>
		<rect x="151.875" y="54" clip-path="url(#SVGID_4_)" fill="#FFFFFF" width="489" height="215.25"/>
		<path opacity="0.149" clip-path="url(#SVGID_4_)" d="M151.125,268.5L151.125,268.5h489.75v0.75h-489.75V268.5z M151.125,249.75
			L151.125,249.75h489.75v0.75h-489.75V249.75z M151.125,231L151.125,231h489.75v0.75h-489.75V231z M151.125,212.25L151.125,212.25
			h489.75V213h-489.75V212.25z M151.125,209.25L151.125,209.25h489.75V210h-489.75V209.25z M151.125,193.5L151.125,193.5h489.75
			v0.75h-489.75V193.5z M151.125,174.75L151.125,174.75h489.75v0.75h-489.75V174.75z M151.125,156L151.125,156h489.75v0.75h-489.75
			V156z M151.125,137.25L151.125,137.25h489.75V138h-489.75V137.25z M151.125,118.5L151.125,118.5h489.75v0.75h-489.75V118.5z
			 M151.125,99.75L151.125,99.75h489.75v0.75h-489.75V99.75z M151.125,81L151.125,81h489.75v0.75h-489.75V81z M151.125,53.25
			L151.125,53.25h489.75V54h-489.75V53.25z M640.875,250.5L640.875,250.5v18h-0.75v-18H640.875z M640.875,231.75L640.875,231.75v18
			h-0.75v-18H640.875z M640.875,213L640.875,213v18h-0.75v-18H640.875z M640.875,210L640.875,210v2.25h-0.75V210H640.875z
			 M640.875,194.25L640.875,194.25v15h-0.75v-15H640.875z M640.875,175.5L640.875,175.5v18h-0.75v-18H640.875z M640.875,156.75
			L640.875,156.75v18h-0.75v-18H640.875z M640.875,138L640.875,138v18h-0.75v-18H640.875z M640.875,119.25L640.875,119.25v18h-0.75
			v-18H640.875z M640.875,100.5L640.875,100.5v18h-0.75v-18H640.875z M640.875,81.75L640.875,81.75v18h-0.75v-18H640.875z
			 M640.875,54L640.875,54v27h-0.75V54H640.875z M575.625,250.5L575.625,250.5v18h-0.75v-18H575.625z M575.625,231.75
			L575.625,231.75v18h-0.75v-18H575.625z M575.625,213L575.625,213v18h-0.75v-18H575.625z M575.625,210L575.625,210v2.25h-0.75V210
			H575.625z M575.625,194.25L575.625,194.25v15h-0.75v-15H575.625z M575.625,175.5L575.625,175.5v18h-0.75v-18H575.625z
			 M575.625,156.75L575.625,156.75v18h-0.75v-18H575.625z M575.625,138L575.625,138v18h-0.75v-18H575.625z M575.625,119.25
			L575.625,119.25v18h-0.75v-18H575.625z M575.625,100.5L575.625,100.5v18h-0.75v-18H575.625z M575.625,81.75L575.625,81.75v18
			h-0.75v-18H575.625z M575.625,54L575.625,54v27h-0.75V54H575.625z M510.375,250.5L510.375,250.5v18h-0.75v-18H510.375z
			 M510.375,231.75L510.375,231.75v18h-0.75v-18H510.375z M510.375,213L510.375,213v18h-0.75v-18H510.375z M510.375,210L510.375,210
			v2.25h-0.75V210H510.375z M510.375,194.25L510.375,194.25v15h-0.75v-15H510.375z M510.375,175.5L510.375,175.5v18h-0.75v-18
			H510.375z M510.375,156.75L510.375,156.75v18h-0.75v-18H510.375z M510.375,138L510.375,138v18h-0.75v-18H510.375z M510.375,119.25
			L510.375,119.25v18h-0.75v-18H510.375z M510.375,100.5L510.375,100.5v18h-0.75v-18H510.375z M510.375,81.75L510.375,81.75v18
			h-0.75v-18H510.375z M510.375,54L510.375,54v27h-0.75V54H510.375z M445.125,250.5L445.125,250.5v18h-0.75v-18H445.125z
			 M445.125,231.75L445.125,231.75v18h-0.75v-18H445.125z M445.125,213L445.125,213v18h-0.75v-18H445.125z M445.125,210L445.125,210
			v2.25h-0.75V210H445.125z M445.125,194.25L445.125,194.25v15h-0.75v-15H445.125z M445.125,175.5L445.125,175.5v18h-0.75v-18
			H445.125z M445.125,156.75L445.125,156.75v18h-0.75v-18H445.125z M445.125,138L445.125,138v18h-0.75v-18H445.125z M445.125,119.25
			L445.125,119.25v18h-0.75v-18H445.125z M445.125,100.5L445.125,100.5v18h-0.75v-18H445.125z M445.125,81.75L445.125,81.75v18
			h-0.75v-18H445.125z M445.125,54L445.125,54v27h-0.75V54H445.125z M379.875,250.5L379.875,250.5v18h-0.75v-18H379.875z
			 M379.875,231.75L379.875,231.75v18h-0.75v-18H379.875z M379.875,213L379.875,213v18h-0.75v-18H379.875z M379.875,210L379.875,210
			v2.25h-0.75V210H379.875z M379.875,194.25L379.875,194.25v15h-0.75v-15H379.875z M379.875,175.5L379.875,175.5v18h-0.75v-18
			H379.875z M379.875,156.75L379.875,156.75v18h-0.75v-18H379.875z M379.875,138L379.875,138v18h-0.75v-18H379.875z M379.875,119.25
			L379.875,119.25v18h-0.75v-18H379.875z M379.875,100.5L379.875,100.5v18h-0.75v-18H379.875z M379.875,81.75L379.875,81.75v18
			h-0.75v-18H379.875z M379.875,54L379.875,54v27h-0.75V54H379.875z M314.625,250.5L314.625,250.5v18h-0.75v-18H314.625z
			 M314.625,231.75L314.625,231.75v18h-0.75v-18H314.625z M314.625,213L314.625,213v18h-0.75v-18H314.625z M314.625,210L314.625,210
			v2.25h-0.75V210H314.625z M314.625,194.25L314.625,194.25v15h-0.75v-15H314.625z M314.625,175.5L314.625,175.5v18h-0.75v-18
			H314.625z M314.625,156.75L314.625,156.75v18h-0.75v-18H314.625z M314.625,138L314.625,138v18h-0.75v-18H314.625z M314.625,119.25
			L314.625,119.25v18h-0.75v-18H314.625z M314.625,100.5L314.625,100.5v18h-0.75v-18H314.625z M314.625,81.75L314.625,81.75v18
			h-0.75v-18H314.625z M314.625,54L314.625,54v27h-0.75V54H314.625z M151.875,250.5L151.875,250.5v18h-0.75v-18H151.875z
			 M151.875,231.75L151.875,231.75v18h-0.75v-18H151.875z M151.875,213L151.875,213v18h-0.75v-18H151.875z M151.875,210L151.875,210
			v2.25h-0.75V210H151.875z M151.875,194.25L151.875,194.25v15h-0.75v-15H151.875z M151.875,175.5L151.875,175.5v18h-0.75v-18
			H151.875z M151.875,156.75L151.875,156.75v18h-0.75v-18H151.875z M151.875,138L151.875,138v18h-0.75v-18H151.875z M151.875,119.25
			L151.875,119.25v18h-0.75v-18H151.875z M151.875,100.5L151.875,100.5v18h-0.75v-18H151.875z M151.875,81.75L151.875,81.75v18
			h-0.75v-18H151.875z M151.875,54L151.875,54v27h-0.75V54H151.875z"/>
		<g clip-path="url(#SVGID_4_)">
			<text transform="matrix(1 0 0 1 333.3745 65.9121)" font-family="'HelveticaNeue-Bold'" font-size="9.75">visual</text>
		</g>
		<g clip-path="url(#SVGID_4_)">
			<text transform="matrix(1 0 0 1 336.3745 78.2002)" font-family="'HelveticaNeue-Bold'" font-size="9.75">data</text>
		</g>
		<g clip-path="url(#SVGID_4_)">
			<text transform="matrix(1 0 0 1 388.1245 65.9121)"><tspan x="0" y="0" font-family="'HelveticaNeue-Bold'" font-size="9.75">g</tspan><tspan x="5.957" y="0" font-family="'HelveticaNeue-Bold'" font-size="9.75">r</tspan><tspan x="9.681" y="0" font-family="'HelveticaNeue-Bold'" font-size="9.75">ounded </tspan></text>
		</g>
		<g clip-path="url(#SVGID_4_)">
			<text transform="matrix(1 0 0 1 397.125 78.2002)"><tspan x="0" y="0" font-family="'HelveticaNeue-Bold'" font-size="9.75">theo</tspan><tspan x="20.767" y="0" font-family="'HelveticaNeue-Bold'" font-size="9.75">r</tspan><tspan x="24.696" y="0" font-family="'HelveticaNeue-Bold'" font-size="9.75">y</tspan></text>
		</g>
		<g clip-path="url(#SVGID_4_)">
			<text transform="matrix(1 0 0 1 446.625 65.9121)" font-family="'HelveticaNeue-Bold'" font-size="9.75">engagement </text>
		</g>
		<g clip-path="url(#SVGID_4_)">
			<text transform="matrix(1 0 0 1 456.375 78.2002)" font-family="'HelveticaNeue-Bold'" font-size="9.75">analytics</text>
		</g>
		<g clip-path="url(#SVGID_4_)">
			<text transform="matrix(1 0 0 1 522.375 65.9121)" font-family="'HelveticaNeue-Bold'" font-size="9.75">ideation </text>
		</g>
		<g clip-path="url(#SVGID_4_)">
			<text transform="matrix(1 0 0 1 524.625 78.2002)" font-family="'HelveticaNeue-Bold'" font-size="9.75">metrics</text>
		</g>
		<g clip-path="url(#SVGID_4_)">
			<text transform="matrix(1 0 0 1 584.625 65.9121)" font-family="'HelveticaNeue-Bold'" font-size="9.75">AI design </text>
		</g>
		<g clip-path="url(#SVGID_4_)">
			<text transform="matrix(1 0 0 1 586.875 78.2002)" font-family="'HelveticaNeue-Bold'" font-size="9.75">analytics</text>
		</g>
		<g clip-path="url(#SVGID_4_)">
			<text transform="matrix(1 0 0 1 154.1245 96.6587)"><tspan x="0" y="0" font-family="'TimesLTPro-Roman'" font-size="9.75">T</tspan><tspan x="4.504" y="0" font-family="'TimesLTPro-Roman'" font-size="9.75">ime-based Composition</tspan></text>
		</g>
		<g clip-path="url(#SVGID_4_)">
			<text transform="matrix(1 0 0 1 343.8745 93.4883)" font-family="'HelveticaNeue'" font-size="9.75">x</text>
		</g>
		<g clip-path="url(#SVGID_4_)">
			<text transform="matrix(1 0 0 1 409.125 93.4883)" font-family="'HelveticaNeue'" font-size="9.75">x</text>
		</g>
		<g clip-path="url(#SVGID_4_)">
			<text transform="matrix(1 0 0 1 539.625 93.4883)" font-family="'HelveticaNeue'" font-size="9.75">x</text>
		</g>
		<g clip-path="url(#SVGID_4_)">
			<text transform="matrix(1 0 0 1 154.1245 115.4087)"><tspan x="0" y="0" font-family="'TimesLTPro-Roman'" font-size="9.75">Col</tspan><tspan x="13.309" y="0" font-family="'TimesLTPro-Roman'" font-size="9.75">l</tspan><tspan x="15.541" y="0" font-family="'TimesLTPro-Roman'" font-size="9.75">aborat</tspan><tspan x="42.256" y="0" font-family="'TimesLTPro-Roman'" font-size="9.75">i</tspan><tspan x="44.323" y="0" font-family="'TimesLTPro-Roman'" font-size="9.75">v</tspan><tspan x="48.876" y="0" font-family="'TimesLTPro-Roman'" font-size="9.75">e L</tspan><tspan x="60.429" y="0" font-family="'TimesLTPro-Roman'" font-size="9.75">i</tspan><tspan x="62.496" y="0" font-family="'TimesLTPro-Roman'" font-size="9.75">v</tspan><tspan x="67.049" y="0" font-family="'TimesLTPro-Roman'" font-size="9.75">e Med</tspan><tspan x="92.223" y="0" font-family="'TimesLTPro-Roman'" font-size="9.75">i</tspan><tspan x="94.437" y="0" font-family="'TimesLTPro-Roman'" font-size="9.75">a Curation</tspan></text>
		</g>
		<g clip-path="url(#SVGID_4_)">
			<text transform="matrix(1 0 0 1 343.8745 112.2383)" font-family="'HelveticaNeue'" font-size="9.75">x</text>
		</g>
		<g clip-path="url(#SVGID_4_)">
			<text transform="matrix(1 0 0 1 409.125 112.2383)" font-family="'HelveticaNeue'" font-size="9.75">x</text>
		</g>
		<g clip-path="url(#SVGID_4_)">
			<text transform="matrix(1 0 0 1 154.1245 134.1587)" font-family="'TimesLTPro-Roman'" font-size="9.75">Embodied Mache</text>
		</g>
		<g clip-path="url(#SVGID_4_)">
			<text transform="matrix(1 0 0 1 343.8745 130.9883)" font-family="'HelveticaNeue'" font-size="9.75">x</text>
		</g>
		<g clip-path="url(#SVGID_4_)">
			<text transform="matrix(1 0 0 1 409.125 130.9883)" font-family="'HelveticaNeue'" font-size="9.75">x</text>
		</g>
		<g clip-path="url(#SVGID_4_)">
			<text transform="matrix(1 0 0 1 474.375 131.3955)" font-family="'ArialMT'" font-size="9.75">x</text>
		</g>
		<g clip-path="url(#SVGID_4_)">
			<text transform="matrix(1 0 0 1 154.1245 152.9087)"><tspan x="0" y="0" font-family="'TimesLTPro-Roman'" font-size="9.75">P</tspan><tspan x="5.031" y="0" font-family="'TimesLTPro-Roman'" font-size="9.75">atterns [Free-</tspan><tspan x="59.064" y="0" font-family="'TimesLTPro-Roman'" font-size="9.75">F</tspan><tspan x="63.676" y="0" font-family="'TimesLTPro-Roman'" font-size="9.75">orm Curation]</tspan></text>
		</g>
		<g clip-path="url(#SVGID_4_)">
			<text transform="matrix(1 0 0 1 343.8745 149.7383)" font-family="'HelveticaNeue'" font-size="9.75">x</text>
		</g>
		<g clip-path="url(#SVGID_4_)">
			<text transform="matrix(1 0 0 1 154.1245 171.6587)"><tspan x="0" y="0" font-family="'TimesLTPro-Roman'" font-size="9.75">Strat</tspan><tspan x="19.149" y="0" font-family="'TimesLTPro-Roman'" font-size="9.75">e</tspan><tspan x="23.897" y="0" font-family="'TimesLTPro-Roman'" font-size="9.75">gies [Free-</tspan><tspan x="65.909" y="0" font-family="'TimesLTPro-Roman'" font-size="9.75">F</tspan><tspan x="70.521" y="0" font-family="'TimesLTPro-Roman'" font-size="9.75">orm Curation]</tspan></text>
		</g>
		<g clip-path="url(#SVGID_4_)">
			<text transform="matrix(1 0 0 1 343.8745 168.4883)" font-family="'HelveticaNeue'" font-size="9.75">x</text>
		</g>
		<g clip-path="url(#SVGID_4_)">
			<text transform="matrix(1 0 0 1 409.125 168.4883)" font-family="'HelveticaNeue'" font-size="9.75">x</text>
		</g>
		<g clip-path="url(#SVGID_4_)">
			<text transform="matrix(1 0 0 1 474.375 168.8955)" font-family="'ArialMT'" font-size="9.75">x</text>
		</g>
		<g clip-path="url(#SVGID_4_)">
			<text transform="matrix(1 0 0 1 154.1245 190.4087)"><tspan x="0" y="0" font-family="'TimesLTPro-Roman'" font-size="9.75">Ind</tspan><tspan x="13.24" y="0" font-family="'TimesLTPro-Roman'" font-size="9.75">e</tspan><tspan x="17.998" y="0" font-family="'TimesLTPro-Roman'" font-size="9.75">xing</tspan><tspan x="35.655" y="0" font-family="'TimesLTPro-Roman'" font-size="9.75"> </tspan><tspan x="37.196" y="0" font-family="'TimesLTPro-Roman'" font-size="9.75">Analytics [Design Education]</tspan></text>
		</g>
		<g clip-path="url(#SVGID_4_)">
			<text transform="matrix(1 0 0 1 343.8745 187.2383)" font-family="'HelveticaNeue'" font-size="9.75">x</text>
		</g>
		<g clip-path="url(#SVGID_4_)">
			<text transform="matrix(1 0 0 1 604.875 187.6455)" font-family="'ArialMT'" font-size="9.75">x</text>
		</g>
		<g clip-path="url(#SVGID_4_)">
			<text transform="matrix(1 0 0 1 154.1245 206.1587)"><tspan x="0" y="0" font-family="'TimesLTPro-Roman'" font-size="9.75">Measuring Eme</tspan><tspan x="62.867" y="0" font-family="'TimesLTPro-Roman'" font-size="9.75">r</tspan><tspan x="65.899" y="0" font-family="'TimesLTPro-Roman'" font-size="9.75">gence</tspan></text>
		</g>
		<g clip-path="url(#SVGID_4_)">
			<text transform="matrix(1 0 0 1 343.8745 206.4502)" font-family="'HelveticaNeue'" font-size="9.75">x</text>
		</g>
		<g clip-path="url(#SVGID_4_)">
			<text transform="matrix(1 0 0 1 539.625 206.4502)" font-family="'HelveticaNeue'" font-size="9.75">x</text>
		</g>
		<g clip-path="url(#SVGID_4_)">
			<text transform="matrix(1 0 0 1 154.1245 227.9087)"><tspan x="0" y="0" font-family="'TimesLTPro-Roman'" font-size="9.75">Streaming on</tspan><tspan x="54.911" y="0" font-family="'TimesLTPro-Roman'" font-size="9.75"> </tspan><tspan x="56.803" y="0" font-family="'TimesLTPro-Roman'" font-size="9.75">T</tspan><tspan x="60.868" y="0" font-family="'TimesLTPro-Roman'" font-size="9.75">witch</tspan></text>
		</g>
		<g clip-path="url(#SVGID_4_)">
			<text transform="matrix(1 0 0 1 343.8745 224.7383)" font-family="'HelveticaNeue'" font-size="9.75">x</text>
		</g>
		<g clip-path="url(#SVGID_4_)">
			<text transform="matrix(1 0 0 1 409.125 224.7383)" font-family="'HelveticaNeue'" font-size="9.75">x</text>
		</g>
		<g clip-path="url(#SVGID_4_)">
			<text transform="matrix(1 0 0 1 154.1245 246.6587)"><tspan x="0" y="0" font-family="'TimesLTPro-Roman'" font-size="9.75">T</tspan><tspan x="4.173" y="0" font-family="'TimesLTPro-Roman'" font-size="9.75">eam Coordination Game</tspan></text>
		</g>
		<g clip-path="url(#SVGID_4_)">
			<text transform="matrix(1 0 0 1 343.8745 243.4883)" font-family="'HelveticaNeue'" font-size="9.75">x</text>
		</g>
		<g clip-path="url(#SVGID_4_)">
			<text transform="matrix(1 0 0 1 409.125 243.4883)" font-family="'HelveticaNeue'" font-size="9.75">x</text>
		</g>
		<g clip-path="url(#SVGID_4_)">
			<text transform="matrix(1 0 0 1 474.375 243.8955)" font-family="'ArialMT'" font-size="9.75">x</text>
		</g>
		<g clip-path="url(#SVGID_4_)">
			<text transform="matrix(1 0 0 1 154.1245 265.4087)" font-family="'TimesLTPro-Roman'" font-size="9.75">Pen-in-Hand Command</text>
		</g>
		<g clip-path="url(#SVGID_4_)">
			<text transform="matrix(1 0 0 1 343.8745 262.2383)" font-family="'HelveticaNeue'" font-size="9.75">x</text>
		</g>
		<g clip-path="url(#SVGID_4_)">
			<text transform="matrix(1 0 0 1 409.125 262.2383)" font-family="'HelveticaNeue'" font-size="9.75">x</text>
		</g>
	</g>
</g>
</svg>
