<?xml version="1.0" encoding="utf-8"?>
<!-- Generator: Adobe Illustrator 15.1.0, SVG Export Plug-In  -->
<!DOCTYPE svg PUBLIC "-//W3C//DTD SVG 1.1//EN" "http://www.w3.org/Graphics/SVG/1.1/DTD/svg11.dtd" [
	<!ENTITY ns_flows "http://ns.adobe.com/Flows/1.0/">
]>
<svg version="1.1"
	 xmlns="http://www.w3.org/2000/svg" xmlns:xlink="http://www.w3.org/1999/xlink" xmlns:a="http://ns.adobe.com/AdobeSVGViewerExtensions/3.0/"
	 x="0px" y="0px" width="332px" height="164px" viewBox="0 0 332 164" overflow="visible" enable-background="new 0 0 332 164"
	 xml:space="preserve">
<style type="text/css">
<![CDATA[
]]>
</style>
<defs>
</defs>
<rect fill="#FFFFFF" width="332.204" height="164"/>
<g>
	<defs>
		<rect id="SVGID_30_" x="2.421" y="1.754" width="328.579" height="160.579"/>
	</defs>
	<clipPath id="SVGID_31_">
		<use xlink:href="#SVGID_30_"  overflow="visible"/>
	</clipPath>
	<rect x="2.421" y="1.754" clip-path="url(#SVGID_31_)" fill="#D4D4D4" width="328.579" height="1.208"/>
</g>
<g>
	<defs>
		<rect id="SVGID_29_" x="2.421" y="1.754" width="328.579" height="160.579"/>
	</defs>
	<clipPath id="SVGID_32_">
		<use xlink:href="#SVGID_29_"  overflow="visible"/>
	</clipPath>
	<rect x="2.421" y="1.754" clip-path="url(#SVGID_32_)" fill="#D4D4D4" width="1.204" height="160.579"/>
</g>
<g>
	<defs>
		<rect id="SVGID_28_" x="3.625" y="2.961" width="327.375" height="159.372"/>
	</defs>
	<clipPath id="SVGID_33_">
		<use xlink:href="#SVGID_28_"  overflow="visible"/>
	</clipPath>
	<g clip-path="url(#SVGID_33_)">
		<text transform="matrix(0.9969 0 0 1 6.0317 25.9014)"><tspan x="0" y="0" font-family="'Helvetica-Bold'" font-size="12.0736">d</tspan><tspan x="7.254" y="0" font-family="'Helvetica-Bold'" font-size="12.0736">a</tspan><tspan x="14.488" y="0" font-family="'Helvetica-Bold'" font-size="12.0736">t</tspan><tspan x="18.11" y="0" font-family="'Helvetica-Bold'" font-size="12.0736">a</tspan></text>
	</g>
</g>
<g>
	<defs>
		<rect id="SVGID_27_" x="3.625" y="2.961" width="327.375" height="159.372"/>
	</defs>
	<clipPath id="SVGID_34_">
		<use xlink:href="#SVGID_27_"  overflow="visible"/>
	</clipPath>
	<g clip-path="url(#SVGID_34_)">
		<text transform="matrix(0.9969 0 0 1 60.1934 25.9014)"><tspan x="0" y="0" font-family="'Helvetica'" font-size="12.0736">qua</tspan><tspan x="21.702" y="0" font-family="'Helvetica'" font-size="12.0736">li</tspan><tspan x="26.535" y="0" font-family="'Helvetica'" font-size="12.0736">t</tspan><tspan x="30.155" y="0" font-family="'Helvetica'" font-size="12.0736">a</tspan><tspan x="37.389" y="0" font-family="'Helvetica'" font-size="12.0736">t</tspan><tspan x="41.009" y="0" font-family="'Helvetica'" font-size="12.0736">i</tspan><tspan x="43.426" y="0" font-family="'Helvetica'" font-size="12.0736">ve</tspan></text>
	</g>
</g>
<g>
	<defs>
		<rect id="SVGID_26_" x="3.625" y="2.961" width="327.375" height="159.372"/>
	</defs>
	<clipPath id="SVGID_35_">
		<use xlink:href="#SVGID_26_"  overflow="visible"/>
	</clipPath>
	<g clip-path="url(#SVGID_35_)">
		<text transform="matrix(0.9969 0 0 1 161.2939 25.9014)"><tspan x="0" y="0" font-family="'Helvetica'" font-size="12.0736">quan</tspan><tspan x="28.935" y="0" font-family="'Helvetica'" font-size="12.0736">t</tspan><tspan x="32.556" y="0" font-family="'Helvetica'" font-size="12.0736">i</tspan><tspan x="34.973" y="0" font-family="'Helvetica'" font-size="12.0736">t</tspan><tspan x="38.592" y="0" font-family="'Helvetica'" font-size="12.0736">a</tspan><tspan x="45.826" y="0" font-family="'Helvetica'" font-size="12.0736">t</tspan><tspan x="49.447" y="0" font-family="'Helvetica'" font-size="12.0736">i</tspan><tspan x="51.864" y="0" font-family="'Helvetica'" font-size="12.0736">ve</tspan></text>
	</g>
</g>
<g>
	<defs>
		<rect id="SVGID_25_" x="3.625" y="2.961" width="327.375" height="159.372"/>
	</defs>
	<clipPath id="SVGID_36_">
		<use xlink:href="#SVGID_25_"  overflow="visible"/>
	</clipPath>
	<g clip-path="url(#SVGID_36_)">
		<text transform="matrix(0.9969 0 0 1 60.1934 52.4629)"><tspan x="0" y="0" font-family="'Helvetica'" font-size="12.0736">g</tspan><tspan x="7.234" y="0" font-family="'Helvetica'" font-size="12.0736">r</tspan><tspan x="10.856" y="0" font-family="'Helvetica'" font-size="12.0736">ounded</tspan><tspan x="54.26" y="0" font-family="'Helvetica'" font-size="12.0736"> t</tspan><tspan x="61.5" y="0" font-family="'Helvetica'" font-size="12.0736">heo</tspan><tspan x="83.202" y="0" font-family="'Helvetica'" font-size="12.0736">r</tspan><tspan x="86.824" y="0" font-family="'Helvetica'" font-size="12.0736">y</tspan></text>
	</g>
</g>
<g>
	<defs>
		<rect id="SVGID_24_" x="3.625" y="2.961" width="327.375" height="159.372"/>
	</defs>
	<clipPath id="SVGID_37_">
		<use xlink:href="#SVGID_24_"  overflow="visible"/>
	</clipPath>
	<g clip-path="url(#SVGID_37_)">
		<text transform="matrix(0.9969 0 0 1 161.2939 52.4629)"><tspan x="0" y="0" font-family="'Helvetica'" font-size="12.0736">i</tspan><tspan x="2.417" y="0" font-family="'Helvetica'" font-size="12.0736">dea</tspan><tspan x="24.118" y="0" font-family="'Helvetica'" font-size="12.0736">t</tspan><tspan x="27.738" y="0" font-family="'Helvetica'" font-size="12.0736">i</tspan><tspan x="30.155" y="0" font-family="'Helvetica'" font-size="12.0736">on</tspan><tspan x="44.623" y="0" font-family="'Helvetica'" font-size="12.0736"> </tspan><tspan x="48.243" y="0" font-family="'Helvetica'" font-size="12.0736">m</tspan><tspan x="57.902" y="0" font-family="'Helvetica'" font-size="12.0736">e</tspan><tspan x="65.136" y="0" font-family="'Helvetica'" font-size="12.0736">t</tspan><tspan x="68.756" y="0" font-family="'Helvetica'" font-size="12.0736">r</tspan><tspan x="72.378" y="0" font-family="'Helvetica'" font-size="12.0736">i</tspan><tspan x="74.795" y="0" font-family="'Helvetica'" font-size="12.0736">cs</tspan></text>
	</g>
</g>
<g>
	<defs>
		<rect id="SVGID_23_" x="3.625" y="2.961" width="327.375" height="159.372"/>
	</defs>
	<clipPath id="SVGID_38_">
		<use xlink:href="#SVGID_23_"  overflow="visible"/>
	</clipPath>
	<g clip-path="url(#SVGID_38_)">
		<text transform="matrix(0.9969 0 0 1 60.1934 79.0254)"><tspan x="0" y="0" font-family="'Helvetica'" font-size="12.0736">v</tspan><tspan x="6.037" y="0" font-family="'Helvetica'" font-size="12.0736">i</tspan><tspan x="8.454" y="0" font-family="'Helvetica'" font-size="12.0736">s</tspan><tspan x="14.49" y="0" font-family="'Helvetica'" font-size="12.0736">ua</tspan><tspan x="28.958" y="0" font-family="'Helvetica'" font-size="12.0736">l</tspan><tspan x="31.375" y="0" font-family="'Helvetica'" font-size="12.0736"> </tspan><tspan x="34.995" y="0" font-family="'Helvetica'" font-size="12.0736">da</tspan><tspan x="49.463" y="0" font-family="'Helvetica'" font-size="12.0736">t</tspan><tspan x="53.083" y="0" font-family="'Helvetica'" font-size="12.0736">a</tspan></text>
	</g>
</g>
<g>
	<defs>
		<rect id="SVGID_22_" x="3.625" y="2.961" width="327.375" height="159.372"/>
	</defs>
	<clipPath id="SVGID_39_">
		<use xlink:href="#SVGID_22_"  overflow="visible"/>
	</clipPath>
	<g clip-path="url(#SVGID_39_)">
		<text transform="matrix(0.9969 0 0 1 161.2939 79.0254)"><tspan x="0" y="0" font-family="'Helvetica'" font-size="12.0736">A</tspan><tspan x="8.451" y="0" font-family="'Helvetica'" font-size="12.0736">I </tspan><tspan x="15.692" y="0" font-family="'Helvetica'" font-size="12.0736">de</tspan><tspan x="30.16" y="0" font-family="'Helvetica'" font-size="12.0736">s</tspan><tspan x="36.196" y="0" font-family="'Helvetica'" font-size="12.0736">i</tspan><tspan x="38.613" y="0" font-family="'Helvetica'" font-size="12.0736">gn</tspan><tspan x="53.081" y="0" font-family="'Helvetica'" font-size="12.0736"> </tspan><tspan x="56.701" y="0" font-family="'Helvetica'" font-size="12.0736">ana</tspan><tspan x="78.403" y="0" font-family="'Helvetica'" font-size="12.0736">l</tspan><tspan x="80.819" y="0" font-family="'Helvetica'" font-size="12.0736">y</tspan><tspan x="86.856" y="0" font-family="'Helvetica'" font-size="12.0736">t</tspan><tspan x="90.477" y="0" font-family="'Helvetica'" font-size="12.0736">i</tspan><tspan x="92.893" y="0" font-family="'Helvetica'" font-size="12.0736">cs</tspan></text>
	</g>
</g>
<g>
	<defs>
		<rect id="SVGID_21_" x="3.625" y="2.961" width="327.375" height="159.372"/>
	</defs>
	<clipPath id="SVGID_40_">
		<use xlink:href="#SVGID_21_"  overflow="visible"/>
	</clipPath>
	<g clip-path="url(#SVGID_40_)">
		<text transform="matrix(0.9969 0 0 1 161.2939 105.5869)"><tspan x="0" y="0" font-family="'Helvetica'" font-size="12.0736">engage</tspan><tspan x="43.403" y="0" font-family="'Helvetica'" font-size="12.0736">m</tspan><tspan x="53.063" y="0" font-family="'Helvetica'" font-size="12.0736">en</tspan><tspan x="67.531" y="0" font-family="'Helvetica'" font-size="12.0736">t </tspan><tspan x="74.77" y="0" font-family="'Helvetica'" font-size="12.0736">ana</tspan><tspan x="96.472" y="0" font-family="'Helvetica'" font-size="12.0736">l</tspan><tspan x="98.889" y="0" font-family="'Helvetica'" font-size="12.0736">y</tspan><tspan x="104.926" y="0" font-family="'Helvetica'" font-size="12.0736">t</tspan><tspan x="108.546" y="0" font-family="'Helvetica'" font-size="12.0736">i</tspan><tspan x="110.963" y="0" font-family="'Helvetica'" font-size="12.0736">cs</tspan></text>
	</g>
</g>
<g>
	<defs>
		<rect id="SVGID_20_" x="3.625" y="2.961" width="327.375" height="159.372"/>
	</defs>
	<clipPath id="SVGID_41_">
		<use xlink:href="#SVGID_20_"  overflow="visible"/>
	</clipPath>
	<g clip-path="url(#SVGID_41_)">
		<text transform="matrix(0.9969 0 0 1 6.0317 132.1494)"><tspan x="0" y="0" font-family="'Helvetica-Bold'" font-size="12.0736">se</tspan><tspan x="14.468" y="0" font-family="'Helvetica-Bold'" font-size="12.0736">tt</tspan><tspan x="21.712" y="0" font-family="'Helvetica-Bold'" font-size="12.0736">i</tspan><tspan x="25.332" y="0" font-family="'Helvetica-Bold'" font-size="12.0736">n</tspan><tspan x="32.586" y="0" font-family="'Helvetica-Bold'" font-size="12.0736">g</tspan></text>
	</g>
</g>
<g>
	<defs>
		<rect id="SVGID_19_" x="3.625" y="2.961" width="327.375" height="159.372"/>
	</defs>
	<clipPath id="SVGID_42_">
		<use xlink:href="#SVGID_19_"  overflow="visible"/>
	</clipPath>
	<g clip-path="url(#SVGID_42_)">
		<text transform="matrix(0.9969 0 0 1 60.1934 132.1494)"><tspan x="0" y="0" font-family="'Helvetica'" font-size="12.0736">f</tspan><tspan x="3.62" y="0" font-family="'Helvetica'" font-size="12.0736">i</tspan><tspan x="6.037" y="0" font-family="'Helvetica'" font-size="12.0736">e</tspan><tspan x="13.271" y="0" font-family="'Helvetica'" font-size="12.0736">l</tspan><tspan x="15.687" y="0" font-family="'Helvetica'" font-size="12.0736">d</tspan></text>
	</g>
</g>
<g>
	<defs>
		<rect id="SVGID_18_" x="3.625" y="2.961" width="327.375" height="159.372"/>
	</defs>
	<clipPath id="SVGID_43_">
		<use xlink:href="#SVGID_18_"  overflow="visible"/>
	</clipPath>
	<g clip-path="url(#SVGID_43_)">
		<text transform="matrix(0.9969 0 0 1 161.2939 132.1494)"><tspan x="0" y="0" font-family="'Helvetica'" font-size="12.0736">l</tspan><tspan x="2.417" y="0" font-family="'Helvetica'" font-size="12.0736">a</tspan><tspan x="9.65" y="0" font-family="'Helvetica'" font-size="12.0736">b</tspan></text>
	</g>
</g>
<g>
	<defs>
		<rect id="SVGID_17_" x="3.625" y="2.961" width="327.375" height="159.372"/>
	</defs>
	<clipPath id="SVGID_44_">
		<use xlink:href="#SVGID_17_"  overflow="visible"/>
	</clipPath>
	<g clip-path="url(#SVGID_44_)">
		<text transform="matrix(0.9969 0 0 1 282.8564 132.1494)"><tspan x="0" y="0" font-family="'Helvetica'" font-size="12.0736">c</tspan><tspan x="6.036" y="0" font-family="'Helvetica'" font-size="12.0736">r</tspan><tspan x="9.659" y="0" font-family="'Helvetica'" font-size="12.0736">o</tspan><tspan x="16.893" y="0" font-family="'Helvetica'" font-size="12.0736">w</tspan><tspan x="25.347" y="0" font-family="'Helvetica'" font-size="12.0736">d</tspan></text>
	</g>
</g>
<g>
	<defs>
		<rect id="SVGID_16_" x="3.625" y="2.961" width="327.375" height="159.372"/>
	</defs>
	<clipPath id="SVGID_45_">
		<use xlink:href="#SVGID_16_"  overflow="visible"/>
	</clipPath>
	<g clip-path="url(#SVGID_45_)">
		<text transform="matrix(0.9969 0 0 1 6.0317 158.7109)"><tspan x="0" y="0" font-family="'Helvetica-Bold'" font-size="12.0736">t</tspan><tspan x="3.622" y="0" font-family="'Helvetica-Bold'" font-size="12.0736">as</tspan><tspan x="18.09" y="0" font-family="'Helvetica-Bold'" font-size="12.0736">k</tspan></text>
	</g>
</g>
<g>
	<defs>
		<rect id="SVGID_15_" x="3.625" y="2.961" width="327.375" height="159.372"/>
	</defs>
	<clipPath id="SVGID_46_">
		<use xlink:href="#SVGID_15_"  overflow="visible"/>
	</clipPath>
	<g clip-path="url(#SVGID_46_)">
		<text transform="matrix(0.9969 0 0 1 60.1934 158.7109)"><tspan x="0" y="0" font-family="'Helvetica'" font-size="12.0736">s</tspan><tspan x="6.037" y="0" font-family="'Helvetica'" font-size="12.0736">i</tspan><tspan x="8.454" y="0" font-family="'Helvetica'" font-size="12.0736">t</tspan><tspan x="12.073" y="0" font-family="'Helvetica'" font-size="12.0736">ua</tspan><tspan x="26.542" y="0" font-family="'Helvetica'" font-size="12.0736">t</tspan><tspan x="30.161" y="0" font-family="'Helvetica'" font-size="12.0736">e</tspan><tspan x="37.395" y="0" font-family="'Helvetica'" font-size="12.0736">d</tspan></text>
	</g>
</g>
<g>
	<defs>
		<rect id="SVGID_14_" x="3.625" y="2.961" width="327.375" height="159.372"/>
	</defs>
	<clipPath id="SVGID_47_">
		<use xlink:href="#SVGID_14_"  overflow="visible"/>
	</clipPath>
	<g clip-path="url(#SVGID_47_)">
		<text transform="matrix(0.9969 0 0 1 161.2939 158.7109)"><tspan x="0" y="0" font-family="'Helvetica'" font-size="12.0736">c</tspan><tspan x="6.036" y="0" font-family="'Helvetica'" font-size="12.0736">on</tspan><tspan x="20.505" y="0" font-family="'Helvetica'" font-size="12.0736">t</tspan><tspan x="24.124" y="0" font-family="'Helvetica'" font-size="12.0736">r</tspan><tspan x="27.747" y="0" font-family="'Helvetica'" font-size="12.0736">o</tspan><tspan x="34.981" y="0" font-family="'Helvetica'" font-size="12.0736">ll</tspan><tspan x="39.814" y="0" font-family="'Helvetica'" font-size="12.0736">e</tspan><tspan x="47.049" y="0" font-family="'Helvetica'" font-size="12.0736">d</tspan></text>
	</g>
</g>
<g>
	<defs>
		<rect id="SVGID_13_" x="2.421" y="1.754" width="328.579" height="160.579"/>
	</defs>
	<clipPath id="SVGID_48_">
		<use xlink:href="#SVGID_13_"  overflow="visible"/>
	</clipPath>
	<rect x="279.246" y="1.754" clip-path="url(#SVGID_48_)" fill="#D4D4D4" width="1.203" height="80.893"/>
</g>
<g>
	<defs>
		<rect id="SVGID_12_" x="2.421" y="1.754" width="328.579" height="160.579"/>
	</defs>
	<clipPath id="SVGID_49_">
		<use xlink:href="#SVGID_12_"  overflow="visible"/>
	</clipPath>
	<rect x="2.421" y="1.754" clip-path="url(#SVGID_49_)" fill="#D4D4D4" width="1.204" height="161.786"/>
</g>
<g>
	<defs>
		<rect id="SVGID_11_" x="2.421" y="1.754" width="328.579" height="160.579"/>
	</defs>
	<clipPath id="SVGID_50_">
		<use xlink:href="#SVGID_11_"  overflow="visible"/>
	</clipPath>
	<rect x="56.583" y="1.754" clip-path="url(#SVGID_50_)" fill="#D4D4D4" width="1.204" height="161.786"/>
</g>
<g>
	<defs>
		<rect id="SVGID_10_" x="2.421" y="1.754" width="328.579" height="160.579"/>
	</defs>
	<clipPath id="SVGID_51_">
		<use xlink:href="#SVGID_10_"  overflow="visible"/>
	</clipPath>
	<rect x="157.684" y="1.754" clip-path="url(#SVGID_51_)" fill="#D4D4D4" width="1.203" height="161.786"/>
</g>
<g>
	<defs>
		<rect id="SVGID_9_" x="2.421" y="1.754" width="328.579" height="160.579"/>
	</defs>
	<clipPath id="SVGID_52_">
		<use xlink:href="#SVGID_9_"  overflow="visible"/>
	</clipPath>
	<rect x="279.246" y="109.209" clip-path="url(#SVGID_52_)" fill="#D4D4D4" width="1.203" height="54.331"/>
</g>
<g>
	<defs>
		<rect id="SVGID_8_" x="2.421" y="1.754" width="328.579" height="160.579"/>
	</defs>
	<clipPath id="SVGID_53_">
		<use xlink:href="#SVGID_8_"  overflow="visible"/>
	</clipPath>
	<rect x="329.797" y="1.754" clip-path="url(#SVGID_53_)" fill="#D4D4D4" width="1.203" height="161.786"/>
</g>
<g>
	<defs>
		<rect id="SVGID_7_" x="2.421" y="1.754" width="328.579" height="160.579"/>
	</defs>
	<clipPath id="SVGID_54_">
		<use xlink:href="#SVGID_7_"  overflow="visible"/>
	</clipPath>
	<rect x="2.421" y="1.754" clip-path="url(#SVGID_54_)" fill="#D4D4D4" width="329.783" height="1.208"/>
</g>
<g>
	<defs>
		<rect id="SVGID_6_" x="2.421" y="1.754" width="328.579" height="160.579"/>
	</defs>
	<clipPath id="SVGID_55_">
		<use xlink:href="#SVGID_6_"  overflow="visible"/>
	</clipPath>
	<rect x="2.421" y="28.316" clip-path="url(#SVGID_55_)" fill="#D4D4D4" width="329.783" height="1.208"/>
</g>
<g>
	<defs>
		<rect id="SVGID_5_" x="2.421" y="1.754" width="328.579" height="160.579"/>
	</defs>
	<clipPath id="SVGID_56_">
		<use xlink:href="#SVGID_5_"  overflow="visible"/>
	</clipPath>
	<rect x="2.421" y="54.878" clip-path="url(#SVGID_56_)" fill="#D4D4D4" width="329.783" height="1.207"/>
</g>
<g>
	<defs>
		<rect id="SVGID_4_" x="2.421" y="1.754" width="328.579" height="160.579"/>
	</defs>
	<clipPath id="SVGID_57_">
		<use xlink:href="#SVGID_4_"  overflow="visible"/>
	</clipPath>
	<rect x="2.421" y="81.44" clip-path="url(#SVGID_57_)" fill="#D4D4D4" width="329.783" height="1.207"/>
</g>
<g>
	<defs>
		<rect id="SVGID_3_" x="2.421" y="1.754" width="328.579" height="160.579"/>
	</defs>
	<clipPath id="SVGID_58_">
		<use xlink:href="#SVGID_3_"  overflow="visible"/>
	</clipPath>
	<rect x="2.421" y="108.002" clip-path="url(#SVGID_58_)" fill="#D4D4D4" width="329.783" height="1.207"/>
</g>
<g>
	<defs>
		<rect id="SVGID_2_" x="2.421" y="1.754" width="328.579" height="160.579"/>
	</defs>
	<clipPath id="SVGID_59_">
		<use xlink:href="#SVGID_2_"  overflow="visible"/>
	</clipPath>
	<rect x="2.421" y="134.563" clip-path="url(#SVGID_59_)" fill="#D4D4D4" width="329.783" height="1.208"/>
</g>
<g>
	<defs>
		<rect id="SVGID_1_" x="2.421" y="1.754" width="328.579" height="160.579"/>
	</defs>
	<clipPath id="SVGID_60_">
		<use xlink:href="#SVGID_1_"  overflow="visible"/>
	</clipPath>
	<rect x="2.421" y="161.126" clip-path="url(#SVGID_60_)" fill="#D4D4D4" width="329.783" height="1.207"/>
</g>
</svg>
