<?xml version="1.0" encoding="utf-8"?>
<!-- Generator: Adobe Illustrator 15.1.0, SVG Export Plug-In  -->
<!DOCTYPE svg [
	<!ENTITY ns_flows "http://ns.adobe.com/Flows/1.0/">
]>
<svg version="1.2" baseProfile="tiny"
	 xmlns="http://www.w3.org/2000/svg" xmlns:xlink="http://www.w3.org/1999/xlink" xmlns:a="http://ns.adobe.com/AdobeSVGViewerExtensions/3.0/"
	 x="0px" y="0px" width="255px" height="137px" viewBox="-1 -1 255 137" overflow="visible" xml:space="preserve">
<defs>
</defs>
<g>
	<path fill="none" d="M13,18.6l-0.3,0.1c-0.3,0.1-0.5,0.1-0.6,0.2c-0.2,0.1-0.3,0.3-0.3,0.6c0,0.2,0.1,0.4,0.2,0.5
		c0.1,0.1,0.3,0.2,0.5,0.2c0.3,0,0.6-0.1,0.8-0.3c0.3-0.2,0.4-0.5,0.4-1v-0.5c-0.1,0.1-0.2,0.1-0.3,0.1C13.3,18.6,13.1,18.6,13,18.6
		z"/>
	<path fill="none" d="M6.9,16.8c-0.4,0-0.7,0.2-0.9,0.5c-0.2,0.3-0.3,0.7-0.3,1.1c0,0.5,0.1,0.9,0.3,1.2C6.2,19.8,6.5,20,6.9,20
		s0.7-0.1,0.9-0.4s0.3-0.7,0.3-1.1c0-0.7-0.2-1.1-0.5-1.4C7.4,16.9,7.2,16.8,6.9,16.8z"/>
	<path fill="none" d="M22,18.6l-0.3,0.1c-0.3,0.1-0.5,0.1-0.6,0.2c-0.2,0.1-0.3,0.3-0.3,0.6c0,0.2,0.1,0.4,0.2,0.5
		c0.1,0.1,0.3,0.2,0.5,0.2c0.3,0,0.6-0.1,0.8-0.3c0.3-0.2,0.4-0.5,0.4-1v-0.5c-0.1,0.1-0.2,0.1-0.3,0.1C22.2,18.6,22.1,18.6,22,18.6
		z"/>
	<path d="M9.5,21v-7.2H8.1v2.5c-0.2-0.3-0.4-0.4-0.6-0.6c-0.3-0.1-0.5-0.2-0.9-0.2c-0.7,0-1.3,0.3-1.7,0.8s-0.6,1.2-0.6,2.1
		c0,0.8,0.2,1.4,0.6,1.9c0.4,0.5,0.9,0.8,1.6,0.8c0.4,0,0.7-0.1,0.9-0.2s0.5-0.4,0.7-0.7V21H9.5z M7.8,19.6C7.6,19.8,7.3,20,6.9,20
		S6.2,19.8,6,19.6c-0.2-0.3-0.3-0.7-0.3-1.2c0-0.5,0.1-0.8,0.3-1.1c0.2-0.3,0.5-0.5,0.9-0.5c0.3,0,0.5,0.1,0.7,0.3
		c0.3,0.3,0.5,0.7,0.5,1.4C8.1,18.9,8,19.3,7.8,19.6z"/>
	<path d="M13.3,17.6c-0.1,0-0.3,0.1-0.6,0.1l-0.5,0.1c-0.5,0.1-1,0.2-1.2,0.3c-0.5,0.3-0.8,0.8-0.8,1.4c0,0.5,0.2,0.9,0.5,1.2
		c0.3,0.3,0.7,0.4,1.2,0.4c0.4,0,0.7-0.1,1-0.3c0.3-0.1,0.5-0.3,0.7-0.5c0,0.1,0,0.2,0,0.3s0,0.2,0.1,0.3h1.5v-0.2
		c-0.1,0-0.2-0.1-0.2-0.2S15,20.4,15,20.3c0-0.2,0-0.4,0-0.6v-2.4c0-0.6-0.2-1.1-0.7-1.3s-1-0.3-1.6-0.3c-0.9,0-1.5,0.2-1.9,0.7
		c-0.2,0.3-0.4,0.7-0.4,1.1h1.3c0-0.2,0.1-0.4,0.2-0.5c0.1-0.2,0.4-0.2,0.7-0.2c0.3,0,0.5,0,0.7,0.1c0.2,0.1,0.2,0.2,0.2,0.5
		C13.6,17.4,13.5,17.6,13.3,17.6z M13.6,18.9c0,0.5-0.1,0.8-0.4,1c-0.3,0.2-0.5,0.3-0.8,0.3c-0.2,0-0.4-0.1-0.5-0.2
		c-0.1-0.1-0.2-0.3-0.2-0.5c0-0.3,0.1-0.5,0.3-0.6c0.1-0.1,0.3-0.1,0.6-0.2l0.3-0.1c0.2,0,0.3-0.1,0.4-0.1c0.1,0,0.2-0.1,0.3-0.1
		V18.9z"/>
	<path d="M16.8,14.2v1.5h-0.7v1h0.7V20c0,0.3,0.1,0.6,0.2,0.7c0.2,0.3,0.7,0.4,1.3,0.3l0.7,0v-1l-0.1,0l-0.1,0c-0.3,0-0.5,0-0.5-0.1
		c-0.1-0.1-0.1-0.2-0.1-0.4v-2.8h0.9v-1h-0.9v-1.5H16.8z"/>
	<path d="M24,20.3c0-0.2,0-0.4,0-0.6v-2.4c0-0.6-0.2-1.1-0.7-1.3s-1-0.3-1.6-0.3c-0.9,0-1.5,0.2-1.9,0.7c-0.2,0.3-0.4,0.7-0.4,1.1
		h1.3c0-0.2,0.1-0.4,0.2-0.5c0.1-0.2,0.4-0.2,0.7-0.2c0.3,0,0.5,0,0.7,0.1c0.2,0.1,0.2,0.2,0.2,0.5c0,0.2-0.1,0.3-0.3,0.4
		c-0.1,0-0.3,0.1-0.6,0.1l-0.5,0.1c-0.5,0.1-1,0.2-1.2,0.3c-0.5,0.3-0.8,0.8-0.8,1.4c0,0.5,0.2,0.9,0.5,1.2c0.3,0.3,0.7,0.4,1.2,0.4
		c0.4,0,0.7-0.1,1-0.3c0.3-0.1,0.5-0.3,0.7-0.5c0,0.1,0,0.2,0,0.3s0,0.2,0.1,0.3h1.5v-0.2c-0.1,0-0.2-0.1-0.2-0.2S24,20.4,24,20.3z
		 M22.6,18.9c0,0.5-0.1,0.8-0.4,1c-0.3,0.2-0.5,0.3-0.8,0.3c-0.2,0-0.4-0.1-0.5-0.2c-0.1-0.1-0.2-0.3-0.2-0.5c0-0.3,0.1-0.5,0.3-0.6
		c0.1-0.1,0.3-0.1,0.6-0.2l0.3-0.1c0.2,0,0.3-0.1,0.4-0.1c0.1,0,0.2-0.1,0.3-0.1V18.9z"/>
</g>
<g>
	<path fill="none" d="M64,18.6l-0.5,0.1c-0.3,0-0.6,0.1-0.7,0.2c-0.3,0.2-0.4,0.4-0.4,0.7c0,0.3,0.1,0.5,0.3,0.6
		c0.2,0.1,0.4,0.2,0.7,0.2c0.3,0,0.6-0.1,0.9-0.2c0.5-0.2,0.7-0.6,0.7-1.2v-0.7c-0.1,0.1-0.2,0.1-0.4,0.2S64.1,18.6,64,18.6z"/>
	<path fill="none" d="M77,18.6l-0.5,0.1c-0.3,0-0.6,0.1-0.7,0.2c-0.3,0.2-0.4,0.4-0.4,0.7c0,0.3,0.1,0.5,0.3,0.6
		c0.2,0.1,0.4,0.2,0.7,0.2c0.3,0,0.6-0.1,0.9-0.2c0.5-0.2,0.7-0.6,0.7-1.2v-0.7c-0.1,0.1-0.2,0.1-0.4,0.2S77.1,18.6,77,18.6z"/>
	<path fill="none" d="M52.8,17.2c-0.2-0.5-0.7-0.8-1.3-0.8c-0.4,0-0.7,0.2-1,0.5c-0.3,0.3-0.4,0.8-0.4,1.5c0,0.5,0.1,0.8,0.2,1.1
		c0.2,0.5,0.6,0.8,1.2,0.8c0.6,0,1-0.3,1.3-0.9c0.1-0.3,0.2-0.7,0.2-1.2C53.1,17.9,53,17.5,52.8,17.2z"/>
	<path fill="none" d="M92.7,16.4c-0.4,0-0.7,0.1-1,0.4c-0.3,0.3-0.4,0.7-0.4,1.1h2.9c0-0.4-0.1-0.7-0.2-0.9
		C93.7,16.6,93.3,16.4,92.7,16.4z"/>
	<path d="M64.4,17.8L63,18c-0.5,0.1-0.9,0.2-1.2,0.5s-0.5,0.6-0.5,1.1c0,0.4,0.2,0.8,0.5,1.1s0.7,0.4,1.2,0.4c0.4,0,0.8-0.1,1.1-0.3
		s0.6-0.4,0.8-0.6c0,0.2,0.1,0.4,0.2,0.5c0.1,0.2,0.4,0.3,0.7,0.3c0.1,0,0.2,0,0.3,0s0.2,0,0.3-0.1v-0.6l-0.2,0l-0.1,0
		c-0.1,0-0.2,0-0.2-0.1c0-0.1-0.1-0.1-0.1-0.2v-3c0-0.5-0.2-0.9-0.6-1.1c-0.4-0.2-0.9-0.4-1.5-0.4c-0.5,0-1,0.1-1.4,0.4
		c-0.4,0.3-0.6,0.7-0.6,1.3h0.8c0-0.3,0.1-0.5,0.2-0.6c0.2-0.2,0.5-0.4,1-0.4c0.4,0,0.7,0.1,0.9,0.2s0.3,0.4,0.3,0.7
		c0,0.1,0,0.3-0.1,0.3C64.8,17.7,64.6,17.8,64.4,17.8z M64.9,19c0,0.5-0.2,0.9-0.7,1.2c-0.3,0.1-0.6,0.2-0.9,0.2
		c-0.3,0-0.5-0.1-0.7-0.2c-0.2-0.1-0.3-0.3-0.3-0.6c0-0.3,0.1-0.6,0.4-0.7c0.2-0.1,0.4-0.2,0.7-0.2l0.5-0.1c0.2,0,0.3-0.1,0.5-0.1
		s0.3-0.1,0.4-0.2V19z"/>
	<path d="M53.9,23.1v-7.3h-0.8v0.7c-0.1-0.2-0.3-0.4-0.5-0.5c-0.3-0.2-0.7-0.3-1.1-0.3c-0.7,0-1.2,0.3-1.6,0.8s-0.6,1.2-0.6,2.1
		c0,0.9,0.2,1.6,0.7,2s0.9,0.7,1.5,0.7c0.4,0,0.7-0.1,1-0.2c0.3-0.1,0.5-0.3,0.6-0.6v2.7H53.9z M52.9,19.5c-0.2,0.6-0.7,0.9-1.3,0.9
		c-0.6,0-1-0.3-1.2-0.8c-0.1-0.3-0.2-0.7-0.2-1.1c0-0.7,0.1-1.2,0.4-1.5c0.3-0.3,0.6-0.5,1-0.5c0.6,0,1,0.3,1.3,0.8
		c0.1,0.3,0.2,0.7,0.2,1.1C53.1,18.8,53,19.2,52.9,19.5z"/>
	<path d="M55.6,15.8v3.6c0,0.4,0.1,0.8,0.2,1.1c0.3,0.5,0.8,0.7,1.5,0.7c0.5,0,0.9-0.1,1.2-0.4c0.2-0.1,0.3-0.3,0.4-0.5l0,0.8h0.8
		v-5.2h-0.9v2.6c0,0.5-0.1,0.9-0.2,1.2c-0.2,0.5-0.6,0.8-1.2,0.8c-0.4,0-0.7-0.2-0.9-0.5c-0.1-0.2-0.1-0.4-0.1-0.7v-3.5H55.6z"/>
	<rect x="67.6" y="13.8" width="0.9" height="7.2"/>
	<rect x="69.6" y="15.8" width="0.9" height="5.2"/>
	<rect x="69.6" y="13.8" width="0.9" height="1"/>
	<path d="M71.8,14.3v1.5h-0.7v0.7h0.7V20c0,0.3,0.1,0.6,0.2,0.8c0.1,0.2,0.4,0.3,0.8,0.3c0.1,0,0.2,0,0.4,0s0.2,0,0.3-0.1v-0.7
		l-0.2,0l-0.1,0c-0.2,0-0.3,0-0.3-0.1c-0.1-0.1-0.2-0.2-0.2-0.4v-3.4h0.8v-0.7h-0.8v-1.5H71.8z"/>
	<path d="M77.4,17.8L76,18c-0.5,0.1-0.9,0.2-1.2,0.5s-0.5,0.6-0.5,1.1c0,0.4,0.2,0.8,0.5,1.1s0.7,0.4,1.2,0.4c0.4,0,0.8-0.1,1.1-0.3
		s0.6-0.4,0.8-0.6c0,0.2,0.1,0.4,0.2,0.5c0.1,0.2,0.4,0.3,0.7,0.3c0.1,0,0.2,0,0.3,0s0.2,0,0.3-0.1v-0.6l-0.2,0l-0.1,0
		c-0.1,0-0.2,0-0.2-0.1c0-0.1-0.1-0.1-0.1-0.2v-3c0-0.5-0.2-0.9-0.6-1.1c-0.4-0.2-0.9-0.4-1.5-0.4c-0.5,0-1,0.1-1.4,0.4
		c-0.4,0.3-0.6,0.7-0.6,1.3h0.8c0-0.3,0.1-0.5,0.2-0.6c0.2-0.2,0.5-0.4,1-0.4c0.4,0,0.7,0.1,0.9,0.2s0.3,0.4,0.3,0.7
		c0,0.1,0,0.3-0.1,0.3C77.8,17.7,77.6,17.8,77.4,17.8z M77.9,19c0,0.5-0.2,0.9-0.7,1.2c-0.3,0.1-0.6,0.2-0.9,0.2
		c-0.3,0-0.5-0.1-0.7-0.2c-0.2-0.1-0.3-0.3-0.3-0.6c0-0.3,0.1-0.6,0.4-0.7c0.2-0.1,0.4-0.2,0.7-0.2l0.5-0.1c0.2,0,0.3-0.1,0.5-0.1
		s0.3-0.1,0.4-0.2V19z"/>
	<path d="M80.8,14.3v1.5h-0.7v0.7h0.7V20c0,0.3,0.1,0.6,0.2,0.8c0.1,0.2,0.4,0.3,0.8,0.3c0.1,0,0.2,0,0.4,0s0.2,0,0.3-0.1v-0.7
		l-0.2,0l-0.1,0c-0.2,0-0.3,0-0.3-0.1c-0.1-0.1-0.2-0.2-0.2-0.4v-3.4h0.8v-0.7h-0.8v-1.5H80.8z"/>
	<rect x="83.6" y="15.8" width="0.9" height="5.2"/>
	<rect x="83.6" y="13.8" width="0.9" height="1"/>
	<path d="M95,17.5c-0.1-0.4-0.2-0.7-0.3-0.9c-0.2-0.3-0.4-0.5-0.8-0.7c-0.3-0.2-0.7-0.3-1.1-0.3c-0.7,0-1.3,0.3-1.8,0.8
		c-0.5,0.5-0.7,1.2-0.7,2c0,0.9,0.2,1.5,0.7,2c0.4,0.5,1,0.7,1.6,0.7c0.3,0,0.5,0,0.7-0.1c0.4-0.1,0.7-0.3,1-0.5
		c0.2-0.1,0.3-0.3,0.4-0.6c0.1-0.2,0.2-0.5,0.2-0.6h-0.9c-0.1,0.2-0.2,0.4-0.3,0.6c-0.3,0.3-0.6,0.5-1.1,0.5c-0.5,0-0.8-0.2-1.1-0.5
		s-0.4-0.7-0.4-1.3h3.8C95.1,18.1,95,17.8,95,17.5z M91.3,18c0-0.4,0.2-0.8,0.4-1.1c0.3-0.3,0.6-0.4,1-0.4c0.6,0,1,0.2,1.2,0.6
		c0.1,0.2,0.2,0.5,0.2,0.9H91.3z"/>
	<polygon points="89.9,15.8 88.9,15.8 87.4,20 86,15.8 85,15.8 87,21 87.9,21 	"/>
</g>
<g>
	<path fill="none" d="M99.6,38.4c-0.4,0-0.8,0.2-1.1,0.5c-0.3,0.3-0.4,0.8-0.4,1.5c0,0.6,0.1,1,0.4,1.4s0.6,0.6,1.1,0.6
		c0.4,0,0.7-0.2,1-0.5c0.3-0.4,0.4-0.9,0.4-1.5c0-0.7-0.1-1.1-0.4-1.5C100.4,38.6,100,38.4,99.6,38.4z"/>
	<path fill="none" d="M117.7,38.4c-0.4,0-0.7,0.1-1,0.4c-0.3,0.3-0.4,0.7-0.4,1.1h2.9c0-0.4-0.1-0.7-0.2-0.9
		C118.6,38.6,118.2,38.4,117.7,38.4z"/>
	<path fill="none" d="M61.7,38.9c-0.3-0.3-0.6-0.5-1-0.5c-0.6,0-1,0.3-1.3,0.9c-0.1,0.3-0.2,0.7-0.2,1.2c0,0.6,0.1,1,0.4,1.3
		c0.2,0.3,0.6,0.5,1,0.5c0.6,0,1.1-0.3,1.3-0.9c0.1-0.3,0.2-0.7,0.2-1.1C62.1,39.7,61.9,39.2,61.7,38.9z"/>
	<path fill="none" d="M70.9,41.8c0.2-0.4,0.3-0.9,0.3-1.5c0-0.5-0.1-0.9-0.2-1.2c-0.2-0.5-0.7-0.7-1.3-0.7c-0.5,0-0.9,0.2-1.2,0.6
		c-0.2,0.4-0.4,0.9-0.4,1.5c0,0.6,0.1,1,0.4,1.4c0.2,0.4,0.6,0.6,1.1,0.6C70.3,42.4,70.7,42.2,70.9,41.8z"/>
	<path fill="none" d="M87.6,38.4c-0.4,0-0.8,0.2-1.1,0.5c-0.3,0.3-0.4,0.8-0.4,1.5c0,0.6,0.1,1,0.4,1.4s0.6,0.6,1.1,0.6
		c0.4,0,0.7-0.2,1-0.5c0.3-0.4,0.4-0.9,0.4-1.5c0-0.7-0.1-1.1-0.4-1.5C88.4,38.6,88,38.4,87.6,38.4z"/>
	<path fill="none" d="M93.7,38.4c-0.4,0-0.7,0.1-1,0.4c-0.3,0.3-0.4,0.7-0.4,1.1h2.9c0-0.4-0.1-0.7-0.2-0.9
		C94.7,38.6,94.3,38.4,93.7,38.4z"/>
	<path fill="none" d="M124.8,41.8c0.2-0.4,0.3-0.9,0.3-1.5c0-0.5-0.1-0.9-0.2-1.2c-0.2-0.5-0.7-0.7-1.3-0.7c-0.5,0-0.9,0.2-1.2,0.6
		c-0.2,0.4-0.4,0.9-0.4,1.5c0,0.6,0.1,1,0.4,1.4c0.2,0.4,0.6,0.6,1.1,0.6C124.2,42.4,124.6,42.2,124.8,41.8z"/>
	<rect x="52.4" y="39.8" width="2.5" height="0.9"/>
	<path d="M60.5,44.5c-0.4,0-0.7-0.1-0.9-0.3c-0.1-0.1-0.2-0.3-0.3-0.5h-0.9c0,0.5,0.3,0.9,0.6,1.2c0.4,0.3,0.9,0.4,1.4,0.4
		c1,0,1.7-0.4,2.1-1.1c0.2-0.4,0.3-0.9,0.3-1.6v-4.8h-0.8v0.7c-0.2-0.2-0.3-0.4-0.5-0.5c-0.3-0.2-0.7-0.3-1.1-0.3
		c-0.6,0-1.1,0.2-1.5,0.7s-0.6,1.2-0.6,2.1c0,0.9,0.2,1.6,0.6,2c0.4,0.4,0.9,0.6,1.5,0.6c0.4,0,0.7-0.1,1-0.2s0.5-0.3,0.6-0.6
		c0,0.7,0,1.2-0.2,1.5C61.6,44.2,61.2,44.5,60.5,44.5z M61.8,41.5c-0.3,0.6-0.7,0.9-1.3,0.9c-0.4,0-0.7-0.2-1-0.5
		c-0.2-0.3-0.4-0.8-0.4-1.3c0-0.5,0.1-0.9,0.2-1.2c0.2-0.6,0.6-0.9,1.3-0.9c0.4,0,0.7,0.2,1,0.5s0.4,0.8,0.4,1.4
		C62.1,40.8,62,41.2,61.8,41.5z"/>
	<path d="M64.7,37.8V43h0.9v-3c0-0.4,0.1-0.7,0.4-1c0.2-0.3,0.6-0.4,1-0.4l0.1,0l0.1,0v-0.9c-0.1,0-0.2,0-0.2,0l-0.1,0
		c-0.3,0-0.7,0.1-0.9,0.4c-0.3,0.3-0.4,0.5-0.5,0.6v-0.9H64.7z"/>
	<path d="M71.5,42.4c0.4-0.5,0.6-1.2,0.6-2.1c0-0.9-0.2-1.5-0.7-2c-0.5-0.4-1-0.7-1.7-0.7c-0.7,0-1.3,0.3-1.8,0.8s-0.7,1.2-0.7,2.1
		c0,0.8,0.2,1.5,0.6,2c0.4,0.5,1,0.7,1.7,0.7C70.5,43.2,71.1,42.9,71.5,42.4z M68.5,41.9c-0.2-0.4-0.4-0.8-0.4-1.4
		c0-0.6,0.1-1.1,0.4-1.5c0.2-0.4,0.6-0.6,1.2-0.6c0.6,0,1,0.2,1.3,0.7c0.2,0.3,0.2,0.7,0.2,1.2c0,0.5-0.1,1-0.3,1.5
		c-0.2,0.4-0.6,0.7-1.2,0.7C69.2,42.4,68.8,42.2,68.5,41.9z"/>
	<path d="M79.6,37.8V43h0.9v-2.7c0-0.3,0-0.6,0.1-0.8c0-0.2,0.1-0.4,0.3-0.5c0.2-0.2,0.4-0.4,0.6-0.4c0.1,0,0.3-0.1,0.5-0.1
		c0.4,0,0.7,0.2,0.8,0.5c0.1,0.2,0.1,0.5,0.1,0.8V43h0.9v-3.4c0-0.5-0.1-0.9-0.2-1.2c-0.3-0.5-0.8-0.8-1.5-0.8
		c-0.3,0-0.6,0.1-0.9,0.2s-0.5,0.4-0.8,0.7v-0.7H79.6z"/>
	<path d="M73.6,37.8v3.6c0,0.4,0.1,0.8,0.2,1.1c0.3,0.5,0.8,0.7,1.5,0.7c0.5,0,0.9-0.1,1.2-0.4c0.2-0.1,0.3-0.3,0.4-0.5l0,0.8h0.8
		v-5.2h-0.9v2.6c0,0.5-0.1,0.9-0.2,1.2c-0.2,0.5-0.6,0.8-1.2,0.8c-0.4,0-0.7-0.2-0.9-0.5c-0.1-0.2-0.1-0.4-0.1-0.7v-3.5H73.6z"/>
	<path d="M101.8,43v-7.2H101v2.6c-0.2-0.2-0.4-0.4-0.5-0.5c-0.3-0.2-0.6-0.3-1-0.3c-0.7,0-1.3,0.3-1.7,0.8c-0.4,0.6-0.6,1.2-0.6,2
		c0,0.8,0.2,1.5,0.6,2c0.4,0.5,0.9,0.7,1.5,0.7c0.4,0,0.7-0.1,1-0.2c0.3-0.1,0.5-0.4,0.7-0.7V43H101.8z M100.6,41.9
		c-0.3,0.3-0.6,0.5-1,0.5c-0.5,0-0.9-0.2-1.1-0.6s-0.4-0.8-0.4-1.4c0-0.7,0.1-1.2,0.4-1.5c0.3-0.3,0.6-0.5,1.1-0.5
		c0.4,0,0.7,0.2,1,0.5c0.3,0.3,0.4,0.8,0.4,1.5C101,41,100.9,41.5,100.6,41.9z"/>
	<path d="M89.9,43v-7.2H89v2.6c-0.2-0.2-0.4-0.4-0.5-0.5c-0.3-0.2-0.6-0.3-1-0.3c-0.7,0-1.3,0.3-1.7,0.8c-0.4,0.6-0.6,1.2-0.6,2
		c0,0.8,0.2,1.5,0.6,2c0.4,0.5,0.9,0.7,1.5,0.7c0.4,0,0.7-0.1,1-0.2c0.3-0.1,0.5-0.4,0.7-0.7V43H89.9z M88.7,41.9
		c-0.3,0.3-0.6,0.5-1,0.5c-0.5,0-0.9-0.2-1.1-0.6s-0.4-0.8-0.4-1.4c0-0.7,0.1-1.2,0.4-1.5c0.3-0.3,0.6-0.5,1.1-0.5
		c0.4,0,0.7,0.2,1,0.5c0.3,0.3,0.4,0.8,0.4,1.5C89,41,88.9,41.5,88.7,41.9z"/>
	<path d="M96,39.5c-0.1-0.4-0.2-0.7-0.3-0.9c-0.2-0.3-0.4-0.5-0.8-0.7c-0.3-0.2-0.7-0.3-1.1-0.3c-0.7,0-1.3,0.3-1.8,0.8
		c-0.5,0.5-0.7,1.2-0.7,2c0,0.9,0.2,1.5,0.7,2c0.4,0.5,1,0.7,1.6,0.7c0.3,0,0.5,0,0.7-0.1c0.4-0.1,0.7-0.3,1-0.5
		c0.2-0.1,0.3-0.3,0.4-0.6c0.1-0.2,0.2-0.5,0.2-0.6h-0.9c-0.1,0.2-0.2,0.4-0.3,0.6c-0.3,0.3-0.6,0.5-1.1,0.5c-0.5,0-0.8-0.2-1.1-0.5
		s-0.4-0.7-0.4-1.3H96C96,40.1,96,39.8,96,39.5z M92.3,40c0-0.4,0.2-0.8,0.4-1.1c0.3-0.3,0.6-0.4,1-0.4c0.6,0,1,0.2,1.2,0.6
		c0.1,0.2,0.2,0.5,0.2,0.9H92.3z"/>
	<path d="M106.8,36.3v1.5H106v0.7h0.7V42c0,0.3,0.1,0.6,0.2,0.8c0.1,0.2,0.4,0.3,0.8,0.3c0.1,0,0.2,0,0.4,0s0.2,0,0.3-0.1v-0.7
		l-0.2,0l-0.1,0c-0.2,0-0.3,0-0.3-0.1c-0.1-0.1-0.2-0.2-0.2-0.4v-3.4h0.8v-0.7h-0.8v-1.5H106.8z"/>
	<path d="M109.6,35.8V43h0.9v-2.8c0-0.7,0.1-1.2,0.4-1.4s0.6-0.4,1-0.4c0.4,0,0.7,0.1,0.9,0.4c0.1,0.2,0.1,0.5,0.1,0.8V43h0.9v-3.4
		c0-0.5-0.1-0.9-0.2-1.2c-0.3-0.5-0.8-0.8-1.5-0.8c-0.4,0-0.8,0.1-1.1,0.3c-0.2,0.1-0.4,0.3-0.6,0.6v-2.7H109.6z"/>
	<path d="M119.9,39.5c-0.1-0.4-0.2-0.7-0.3-0.9c-0.2-0.3-0.4-0.5-0.8-0.7c-0.3-0.2-0.7-0.3-1.1-0.3c-0.7,0-1.3,0.3-1.8,0.8
		c-0.5,0.5-0.7,1.2-0.7,2c0,0.9,0.2,1.5,0.7,2c0.4,0.5,1,0.7,1.6,0.7c0.3,0,0.5,0,0.7-0.1c0.4-0.1,0.7-0.3,1-0.5
		c0.2-0.1,0.3-0.3,0.4-0.6c0.1-0.2,0.2-0.5,0.2-0.6h-0.9c-0.1,0.2-0.2,0.4-0.3,0.6c-0.3,0.3-0.6,0.5-1.1,0.5c-0.5,0-0.8-0.2-1.1-0.5
		s-0.4-0.7-0.4-1.3h3.8C120,40.1,120,39.8,119.9,39.5z M116.2,40c0-0.4,0.2-0.8,0.4-1.1c0.3-0.3,0.6-0.4,1-0.4c0.6,0,1,0.2,1.2,0.6
		c0.1,0.2,0.2,0.5,0.2,0.9H116.2z"/>
	<path d="M125.4,42.4c0.4-0.5,0.6-1.2,0.6-2.1c0-0.9-0.2-1.5-0.7-2c-0.5-0.4-1-0.7-1.7-0.7c-0.7,0-1.3,0.3-1.8,0.8s-0.7,1.2-0.7,2.1
		c0,0.8,0.2,1.5,0.6,2c0.4,0.5,1,0.7,1.7,0.7C124.4,43.2,125,42.9,125.4,42.4z M122.5,41.9c-0.2-0.4-0.4-0.8-0.4-1.4
		c0-0.6,0.1-1.1,0.4-1.5c0.2-0.4,0.6-0.6,1.2-0.6c0.6,0,1,0.2,1.3,0.7c0.2,0.3,0.2,0.7,0.2,1.2c0,0.5-0.1,1-0.3,1.5
		c-0.2,0.4-0.6,0.7-1.2,0.7C123.1,42.4,122.7,42.2,122.5,41.9z"/>
	<path d="M130.1,37.8L130.1,37.8c-0.1-0.1-0.2-0.1-0.2-0.1l-0.1,0c-0.3,0-0.7,0.1-0.9,0.4c-0.3,0.3-0.4,0.5-0.5,0.6v-0.9h-0.8V43
		h0.9v-3c0-0.4,0.1-0.7,0.4-1c0.2-0.3,0.6-0.4,1-0.4l0.1,0l0.1,0v-0.5l-0.1-0.3H130.1z"/>
	<path d="M132.4,42l-1.4-4.3h-0.9H130l0.1,0.3l1.8,5.1c0,0.1-0.1,0.3-0.2,0.5c-0.1,0.2-0.2,0.4-0.2,0.4l-0.2,0.2
		c-0.1,0.1-0.2,0.1-0.4,0.1l-0.2,0c-0.1,0-0.2,0-0.3-0.1v0.8c0.1,0,0.2,0,0.2,0.1s0.2,0,0.3,0c0.5,0,0.9-0.1,1.1-0.4
		s0.6-1.1,1.1-2.4c0.2-0.6,0.5-1.3,0.8-2.2c0.4-1.2,0.7-2,0.8-2.3h-1L132.4,42z"/>
</g>
<g>
	<path fill="none" d="M89.7,60.4c-0.4,0-0.8,0.2-1.1,0.5c-0.3,0.3-0.4,0.8-0.4,1.5c0,0.6,0.1,1,0.4,1.4s0.6,0.6,1.1,0.6
		c0.4,0,0.7-0.2,1-0.5c0.3-0.4,0.4-0.9,0.4-1.5c0-0.7-0.1-1.1-0.4-1.5C90.4,60.6,90.1,60.4,89.7,60.4z"/>
	<path fill="none" d="M79,62.6l-0.5,0.1c-0.3,0-0.6,0.1-0.7,0.2c-0.3,0.2-0.4,0.4-0.4,0.7c0,0.3,0.1,0.5,0.3,0.6
		c0.2,0.1,0.4,0.2,0.7,0.2c0.3,0,0.6-0.1,0.9-0.2c0.5-0.2,0.7-0.6,0.7-1.2v-0.7c-0.1,0.1-0.2,0.1-0.4,0.2S79.1,62.6,79,62.6z"/>
	<path fill="none" d="M95.9,62.6l-0.5,0.1c-0.3,0-0.6,0.1-0.7,0.2c-0.3,0.2-0.4,0.4-0.4,0.7c0,0.3,0.1,0.5,0.3,0.6
		c0.2,0.1,0.4,0.2,0.7,0.2c0.3,0,0.6-0.1,0.9-0.2c0.5-0.2,0.7-0.6,0.7-1.2v-0.7c-0.1,0.1-0.2,0.1-0.4,0.2S96.1,62.6,95.9,62.6z"/>
	<path fill="none" d="M104.9,62.6l-0.5,0.1c-0.3,0-0.6,0.1-0.7,0.2c-0.3,0.2-0.4,0.4-0.4,0.7c0,0.3,0.1,0.5,0.3,0.6
		c0.2,0.1,0.4,0.2,0.7,0.2c0.3,0,0.6-0.1,0.9-0.2c0.5-0.2,0.7-0.6,0.7-1.2v-0.7c-0.1,0.1-0.2,0.1-0.4,0.2S105.1,62.6,104.9,62.6z"/>
	<rect x="52.4" y="61.8" width="2.5" height="0.9"/>
	<polygon points="62.9,59.8 61.9,59.8 60.5,64 59.1,59.8 58.1,59.8 60,65 60.9,65 	"/>
	<rect x="63.6" y="59.8" width="0.9" height="5.2"/>
	<rect x="63.6" y="57.8" width="0.9" height="1"/>
	<path d="M68.4,64.2c-0.3,0.1-0.5,0.2-0.9,0.2c-0.6,0-1-0.1-1.2-0.4c-0.1-0.2-0.2-0.4-0.2-0.7h-0.8c0,0.5,0.2,1,0.5,1.3
		c0.3,0.4,0.9,0.5,1.7,0.5c0.7,0,1.3-0.2,1.6-0.5c0.4-0.3,0.5-0.7,0.5-1.2c0-0.5-0.2-0.8-0.5-1.1c-0.2-0.1-0.6-0.3-1.3-0.4l-0.6-0.1
		c-0.3-0.1-0.5-0.1-0.6-0.2c-0.2-0.1-0.3-0.3-0.3-0.5c0-0.2,0.1-0.4,0.3-0.5c0.2-0.1,0.4-0.2,0.8-0.2c0.5,0,0.9,0.1,1.1,0.3
		c0.1,0.2,0.2,0.3,0.2,0.5h0.8c0-0.3-0.1-0.7-0.3-0.9c-0.4-0.5-0.9-0.7-1.7-0.7c-0.6,0-1.1,0.2-1.5,0.5c-0.4,0.3-0.5,0.7-0.5,1.2
		c0,0.4,0.2,0.7,0.6,1c0.2,0.1,0.5,0.3,1,0.4l0.7,0.2c0.4,0.1,0.6,0.2,0.8,0.2c0.2,0.1,0.3,0.3,0.3,0.5
		C68.8,63.9,68.7,64.1,68.4,64.2z"/>
	<path d="M79.4,61.8L78,62c-0.5,0.1-0.9,0.2-1.2,0.5s-0.5,0.6-0.5,1.1c0,0.4,0.2,0.8,0.5,1.1s0.7,0.4,1.2,0.4c0.4,0,0.8-0.1,1.1-0.3
		s0.6-0.4,0.8-0.6c0,0.2,0.1,0.4,0.2,0.5c0.1,0.2,0.4,0.3,0.7,0.3c0.1,0,0.2,0,0.3,0s0.2,0,0.3-0.1v-0.6l-0.2,0l-0.1,0
		c-0.1,0-0.2,0-0.2-0.1c0-0.1-0.1-0.1-0.1-0.2v-3c0-0.5-0.2-0.9-0.6-1.1c-0.4-0.2-0.9-0.4-1.5-0.4c-0.5,0-1,0.1-1.4,0.4
		c-0.4,0.3-0.6,0.7-0.6,1.3h0.8c0-0.3,0.1-0.5,0.2-0.6c0.2-0.2,0.5-0.4,1-0.4c0.4,0,0.7,0.1,0.9,0.2s0.3,0.4,0.3,0.7
		c0,0.1,0,0.3-0.1,0.3C79.8,61.7,79.6,61.8,79.4,61.8z M79.9,63c0,0.5-0.2,0.9-0.7,1.2c-0.3,0.1-0.6,0.2-0.9,0.2
		c-0.3,0-0.5-0.1-0.7-0.2c-0.2-0.1-0.3-0.3-0.3-0.6c0-0.3,0.1-0.6,0.4-0.7c0.2-0.1,0.4-0.2,0.7-0.2l0.5-0.1c0.2,0,0.3-0.1,0.5-0.1
		s0.3-0.1,0.4-0.2V63z"/>
	<path d="M70.6,59.8v3.6c0,0.4,0.1,0.8,0.2,1.1c0.3,0.5,0.8,0.7,1.5,0.7c0.5,0,0.9-0.1,1.2-0.4c0.2-0.1,0.3-0.3,0.4-0.5l0,0.8h0.8
		v-5.2h-0.9v2.6c0,0.5-0.1,0.9-0.2,1.2c-0.2,0.5-0.6,0.8-1.2,0.8c-0.4,0-0.7-0.2-0.9-0.5c-0.1-0.2-0.1-0.4-0.1-0.7v-3.5H70.6z"/>
	<rect x="82.7" y="57.8" width="0.9" height="7.2"/>
	<path d="M96.4,61.8L95,62c-0.5,0.1-0.9,0.2-1.2,0.5s-0.5,0.6-0.5,1.1c0,0.4,0.2,0.8,0.5,1.1s0.7,0.4,1.2,0.4c0.4,0,0.8-0.1,1.1-0.3
		s0.6-0.4,0.8-0.6c0,0.2,0.1,0.4,0.2,0.5c0.1,0.2,0.4,0.3,0.7,0.3c0.1,0,0.2,0,0.3,0s0.2,0,0.3-0.1v-0.6l-0.2,0l-0.1,0
		c-0.1,0-0.2,0-0.2-0.1c0-0.1-0.1-0.1-0.1-0.2v-3c0-0.5-0.2-0.9-0.6-1.1c-0.4-0.2-0.9-0.4-1.5-0.4c-0.5,0-1,0.1-1.4,0.4
		c-0.4,0.3-0.6,0.7-0.6,1.3h0.8c0-0.3,0.1-0.5,0.2-0.6c0.2-0.2,0.5-0.4,1-0.4c0.4,0,0.7,0.1,0.9,0.2s0.3,0.4,0.3,0.7
		c0,0.1,0,0.3-0.1,0.3C96.8,61.7,96.6,61.8,96.4,61.8z M96.9,63c0,0.5-0.2,0.9-0.7,1.2c-0.3,0.1-0.6,0.2-0.9,0.2
		c-0.3,0-0.5-0.1-0.7-0.2c-0.2-0.1-0.3-0.3-0.3-0.6c0-0.3,0.1-0.6,0.4-0.7c0.2-0.1,0.4-0.2,0.7-0.2l0.5-0.1c0.2,0,0.3-0.1,0.5-0.1
		s0.3-0.1,0.4-0.2V63z"/>
	<path d="M91.9,65v-7.2H91v2.6c-0.2-0.2-0.4-0.4-0.5-0.5c-0.3-0.2-0.6-0.3-1-0.3c-0.7,0-1.3,0.3-1.7,0.8c-0.4,0.6-0.6,1.2-0.6,2
		c0,0.8,0.2,1.5,0.6,2c0.4,0.5,0.9,0.7,1.5,0.7c0.4,0,0.7-0.1,1-0.2c0.3-0.1,0.5-0.4,0.7-0.7V65H91.9z M90.7,63.9
		c-0.3,0.3-0.6,0.5-1,0.5c-0.5,0-0.9-0.2-1.1-0.6s-0.4-0.8-0.4-1.4c0-0.7,0.1-1.2,0.4-1.5c0.3-0.3,0.6-0.5,1.1-0.5
		c0.4,0,0.7,0.2,1,0.5c0.3,0.3,0.4,0.8,0.4,1.5C91.1,63,90.9,63.5,90.7,63.9z"/>
	<path d="M99.8,58.3v1.5h-0.7v0.7h0.7V64c0,0.3,0.1,0.6,0.2,0.8c0.1,0.2,0.4,0.3,0.8,0.3c0.1,0,0.2,0,0.4,0s0.2,0,0.3-0.1v-0.7
		l-0.2,0l-0.1,0c-0.2,0-0.3,0-0.3-0.1c-0.1-0.1-0.2-0.2-0.2-0.4v-3.4h0.8v-0.7h-0.8v-1.5H99.8z"/>
	<path d="M107,64.4c-0.1,0-0.2,0-0.2-0.1c0-0.1-0.1-0.1-0.1-0.2v-3c0-0.5-0.2-0.9-0.6-1.1c-0.4-0.2-0.9-0.4-1.5-0.4
		c-0.5,0-1,0.1-1.4,0.4c-0.4,0.3-0.6,0.7-0.6,1.3h0.8c0-0.3,0.1-0.5,0.2-0.6c0.2-0.2,0.5-0.4,1-0.4c0.4,0,0.7,0.1,0.9,0.2
		s0.3,0.4,0.3,0.7c0,0.1,0,0.3-0.1,0.3c-0.1,0.1-0.2,0.2-0.4,0.3L104,62c-0.5,0.1-0.9,0.2-1.2,0.5s-0.5,0.6-0.5,1.1
		c0,0.4,0.2,0.8,0.5,1.1s0.7,0.4,1.2,0.4c0.4,0,0.8-0.1,1.1-0.3s0.6-0.4,0.8-0.6c0,0.2,0.1,0.4,0.2,0.5c0.1,0.2,0.4,0.3,0.7,0.3
		c0.1,0,0.2,0,0.3,0s0.2,0,0.3-0.1v-0.6l-0.2,0L107,64.4z M105.8,63c0,0.5-0.2,0.9-0.7,1.2c-0.3,0.1-0.6,0.2-0.9,0.2
		c-0.3,0-0.5-0.1-0.7-0.2c-0.2-0.1-0.3-0.3-0.3-0.6c0-0.3,0.1-0.6,0.4-0.7c0.2-0.1,0.4-0.2,0.7-0.2l0.5-0.1c0.2,0,0.3-0.1,0.5-0.1
		s0.3-0.1,0.4-0.2V63z"/>
</g>
<g>
	<path fill="none" d="M33.9,104.8c-0.5,0-0.8,0.2-1,0.7c-0.1,0.2-0.1,0.5-0.1,0.9c0,0.3,0.1,0.6,0.2,0.8c0.2,0.4,0.5,0.7,1,0.7
		c0.3,0,0.6-0.1,0.8-0.4c0.2-0.2,0.3-0.6,0.3-1.2c0-0.5-0.1-0.9-0.3-1.2C34.6,104.9,34.3,104.8,33.9,104.8z"/>
	<path fill="none" d="M12.9,104.7c-0.4,0-0.6,0.1-0.8,0.3c-0.2,0.2-0.3,0.5-0.4,0.8h2.4c0-0.4-0.1-0.6-0.4-0.8
		C13.5,104.8,13.2,104.7,12.9,104.7z"/>
	<path d="M15.5,105.7c-0.1-0.4-0.2-0.8-0.4-1.1c-0.2-0.4-0.5-0.6-0.9-0.8c-0.4-0.2-0.8-0.2-1.3-0.2c-0.8,0-1.4,0.2-1.9,0.7
		c-0.5,0.5-0.7,1.2-0.7,2.1c0,1,0.3,1.7,0.8,2.1s1.2,0.7,1.9,0.7c0.9,0,1.5-0.3,2-0.8c0.3-0.3,0.5-0.6,0.5-1H14
		c-0.1,0.2-0.2,0.3-0.3,0.4c-0.2,0.2-0.5,0.2-0.8,0.2c-0.3,0-0.6-0.1-0.8-0.2c-0.3-0.2-0.5-0.6-0.6-1.1h3.9
		C15.5,106.3,15.5,105.9,15.5,105.7z M11.7,105.8c0.1-0.3,0.2-0.6,0.4-0.8c0.2-0.2,0.5-0.3,0.8-0.3c0.3,0,0.6,0.1,0.8,0.3
		c0.2,0.2,0.3,0.5,0.4,0.8H11.7z"/>
	<path d="M7.5,108c-0.2,0.1-0.4,0.1-0.7,0.1c-0.5,0-0.8-0.1-1-0.3c-0.1-0.1-0.2-0.3-0.2-0.5H4.3c0,0.5,0.2,1,0.6,1.3
		c0.4,0.4,1,0.5,1.9,0.5c0.8,0,1.4-0.2,1.8-0.5c0.4-0.3,0.6-0.8,0.6-1.3c0-0.4-0.1-0.7-0.4-1c-0.3-0.3-0.7-0.5-1.2-0.6
		c-0.8-0.2-1.3-0.3-1.5-0.4c-0.1-0.1-0.2-0.2-0.2-0.3c0-0.1,0.1-0.2,0.2-0.3s0.3-0.1,0.6-0.1c0.4,0,0.6,0.1,0.8,0.3
		c0.1,0.1,0.1,0.2,0.2,0.4H9c-0.1-0.7-0.3-1.1-0.7-1.4c-0.4-0.3-1-0.4-1.6-0.4c-0.7,0-1.2,0.2-1.6,0.5c-0.4,0.4-0.6,0.8-0.6,1.3
		c0,0.4,0.1,0.7,0.4,1c0.2,0.2,0.7,0.4,1.3,0.6c0.8,0.2,1.3,0.3,1.5,0.4s0.2,0.2,0.2,0.4C7.8,107.8,7.7,107.9,7.5,108z"/>
	<path d="M16.8,102.2v1.5h-0.7v1h0.7v3.3c0,0.3,0.1,0.6,0.2,0.7c0.2,0.3,0.7,0.4,1.3,0.3l0.7,0v-1l-0.1,0l-0.1,0
		c-0.3,0-0.5,0-0.5-0.1c-0.1-0.1-0.1-0.2-0.1-0.4v-2.8h0.9v-1h-0.9v-1.5H16.8z"/>
	<path d="M19.8,102.2v1.5h-0.7v1h0.7v3.3c0,0.3,0.1,0.6,0.2,0.7c0.2,0.3,0.7,0.4,1.3,0.3l0.7,0v-1l-0.1,0l-0.1,0
		c-0.3,0-0.5,0-0.5-0.1c-0.1-0.1-0.1-0.2-0.1-0.4v-2.8h0.9v-1h-0.9v-1.5H19.8z"/>
	<rect x="22.7" y="101.8" width="1.4" height="1.3"/>
	<rect x="22.7" y="103.7" width="1.4" height="5.3"/>
	<path d="M25.6,103.7v5.3H27v-2.9c0-0.3,0-0.6,0.1-0.8c0.2-0.4,0.5-0.6,1-0.6c0.4,0,0.6,0.1,0.8,0.4c0.1,0.1,0.1,0.4,0.1,0.6v3.2
		h1.4v-3.6c0-0.7-0.2-1.1-0.5-1.4c-0.3-0.3-0.8-0.4-1.3-0.4c-0.4,0-0.8,0.1-1.1,0.3c-0.2,0.1-0.3,0.3-0.5,0.6v-0.8H25.6z"/>
	<path d="M35.1,104.4c-0.2-0.4-0.5-0.6-0.8-0.8c-0.2-0.1-0.4-0.1-0.7-0.1c-0.7,0-1.3,0.3-1.7,0.8c-0.4,0.5-0.6,1.2-0.6,2
		c0,0.8,0.2,1.5,0.6,2c0.4,0.5,1,0.7,1.6,0.7c0.4,0,0.8-0.1,1.1-0.3c0.2-0.1,0.3-0.3,0.4-0.5v0.3c0,0.5-0.1,0.9-0.2,1.1
		c-0.2,0.3-0.5,0.5-1,0.5c-0.4,0-0.6-0.1-0.8-0.2c-0.1-0.1-0.2-0.2-0.2-0.4h-1.5c0,0.5,0.3,0.9,0.7,1.2s1,0.4,1.7,0.4
		c1.1,0,1.9-0.3,2.3-0.9c0.2-0.3,0.3-0.9,0.3-1.6v-5h-1.4V104.4z M34.7,107.5c-0.2,0.2-0.5,0.4-0.8,0.4c-0.5,0-0.8-0.2-1-0.7
		c-0.1-0.2-0.2-0.5-0.2-0.8c0-0.4,0-0.7,0.1-0.9c0.2-0.5,0.5-0.7,1-0.7c0.4,0,0.6,0.1,0.9,0.4c0.2,0.3,0.3,0.6,0.3,1.2
		C35.1,106.9,35,107.2,34.7,107.5z"/>
</g>
<g>
	<path fill="none" d="M56.7,104.4c-0.4,0-0.7,0.1-1,0.4c-0.3,0.3-0.4,0.7-0.4,1.1h2.9c0-0.4-0.1-0.7-0.2-0.9
		C57.7,104.6,57.3,104.4,56.7,104.4z"/>
	<path fill="none" d="M64.7,104.4c-0.4,0-0.8,0.2-1.1,0.5c-0.3,0.3-0.4,0.8-0.4,1.5c0,0.6,0.1,1,0.4,1.4s0.6,0.6,1.1,0.6
		c0.4,0,0.7-0.2,1-0.5c0.3-0.4,0.4-0.9,0.4-1.5c0-0.7-0.1-1.1-0.4-1.5C65.4,104.6,65.1,104.4,64.7,104.4z"/>
	<path d="M51.3,102.5l0.1,0c0,0,0.1,0,0.2,0v-0.8l-0.2,0l-0.2,0c-0.6,0-1,0.1-1.2,0.4c-0.1,0.2-0.2,0.4-0.2,0.8v0.8h-0.7v0.7h0.7
		v4.5h0.9v-4.5h0.9v-0.7h-0.9c0-0.6,0-0.9,0.1-1.1C50.9,102.6,51,102.5,51.3,102.5z"/>
	<rect x="52.6" y="101.8" width="0.9" height="1"/>
	<rect x="52.6" y="103.8" width="0.9" height="5.2"/>
	<path d="M59,105.5c-0.1-0.4-0.2-0.7-0.3-0.9c-0.2-0.3-0.4-0.5-0.8-0.7c-0.3-0.2-0.7-0.3-1.1-0.3c-0.7,0-1.3,0.3-1.8,0.8
		c-0.5,0.5-0.7,1.2-0.7,2c0,0.9,0.2,1.5,0.7,2c0.4,0.5,1,0.7,1.6,0.7c0.3,0,0.5,0,0.7-0.1c0.4-0.1,0.7-0.3,1-0.5
		c0.2-0.1,0.3-0.3,0.4-0.6c0.1-0.2,0.2-0.5,0.2-0.6h-0.9c-0.1,0.2-0.2,0.4-0.3,0.6c-0.3,0.3-0.6,0.5-1.1,0.5c-0.5,0-0.8-0.2-1.1-0.5
		s-0.4-0.7-0.4-1.3h3.8C59.1,106.1,59.1,105.8,59,105.5z M55.3,106c0-0.4,0.2-0.8,0.4-1.1c0.3-0.3,0.6-0.4,1-0.4
		c0.6,0,1,0.2,1.2,0.6c0.1,0.2,0.2,0.5,0.2,0.9H55.3z"/>
	<rect x="60.7" y="101.8" width="0.9" height="7.2"/>
	<path d="M66,104.4c-0.2-0.2-0.4-0.4-0.5-0.5c-0.3-0.2-0.6-0.3-1-0.3c-0.7,0-1.3,0.3-1.7,0.8c-0.4,0.6-0.6,1.2-0.6,2
		c0,0.8,0.2,1.5,0.6,2c0.4,0.5,0.9,0.7,1.5,0.7c0.4,0,0.7-0.1,1-0.2c0.3-0.1,0.5-0.4,0.7-0.7v0.7h0.8v-7.2H66V104.4z M65.7,107.9
		c-0.3,0.3-0.6,0.5-1,0.5c-0.5,0-0.9-0.2-1.1-0.6s-0.4-0.8-0.4-1.4c0-0.7,0.1-1.2,0.4-1.5c0.3-0.3,0.6-0.5,1.1-0.5
		c0.4,0,0.7,0.2,1,0.5c0.3,0.3,0.4,0.8,0.4,1.5C66.1,107,65.9,107.5,65.7,107.9z"/>
</g>
<g>
	<path fill="none" d="M145,106.6l-0.5,0.1c-0.3,0-0.6,0.1-0.7,0.2c-0.3,0.2-0.4,0.4-0.4,0.7c0,0.3,0.1,0.5,0.3,0.6
		c0.2,0.1,0.4,0.2,0.7,0.2c0.3,0,0.6-0.1,0.9-0.2c0.5-0.2,0.7-0.6,0.7-1.2v-0.7c-0.1,0.1-0.2,0.1-0.4,0.2
		C145.3,106.6,145.1,106.6,145,106.6z"/>
	<path fill="none" d="M150.9,104.4c-0.4,0-0.8,0.1-1.1,0.4s-0.5,0.8-0.5,1.5c0,0.5,0.1,0.9,0.2,1.2c0.2,0.6,0.7,0.9,1.3,0.9
		c0.5,0,0.8-0.2,1.1-0.6c0.2-0.4,0.4-0.9,0.4-1.5c0-0.5-0.1-1-0.4-1.4C151.7,104.6,151.3,104.4,150.9,104.4z"/>
	<rect x="140.7" y="101.8" width="0.9" height="7.2"/>
	<path d="M145.4,105.8L144,106c-0.5,0.1-0.9,0.2-1.2,0.5s-0.5,0.6-0.5,1.1c0,0.4,0.2,0.8,0.5,1.1s0.7,0.4,1.2,0.4
		c0.4,0,0.8-0.1,1.1-0.3c0.3-0.2,0.6-0.4,0.8-0.6c0,0.2,0.1,0.4,0.2,0.5c0.1,0.2,0.4,0.3,0.7,0.3c0.1,0,0.2,0,0.3,0
		c0.1,0,0.2,0,0.3-0.1v-0.6l-0.2,0l-0.1,0c-0.1,0-0.2,0-0.2-0.1c0-0.1-0.1-0.1-0.1-0.2v-3c0-0.5-0.2-0.9-0.6-1.1
		c-0.4-0.2-0.9-0.4-1.5-0.4c-0.5,0-1,0.1-1.4,0.4s-0.6,0.7-0.6,1.3h0.8c0-0.3,0.1-0.5,0.2-0.6c0.2-0.2,0.5-0.4,1-0.4
		c0.4,0,0.7,0.1,0.9,0.2s0.3,0.4,0.3,0.7c0,0.1,0,0.3-0.1,0.3C145.8,105.7,145.7,105.8,145.4,105.8z M145.9,107
		c0,0.5-0.2,0.9-0.7,1.2c-0.3,0.1-0.6,0.2-0.9,0.2c-0.3,0-0.5-0.1-0.7-0.2c-0.2-0.1-0.3-0.3-0.3-0.6c0-0.3,0.1-0.6,0.4-0.7
		c0.2-0.1,0.4-0.2,0.7-0.2l0.5-0.1c0.2,0,0.3-0.1,0.5-0.1c0.2,0,0.3-0.1,0.4-0.2V107z"/>
	<path d="M151,103.6c-0.3,0-0.6,0.1-0.9,0.2c-0.3,0.1-0.5,0.3-0.7,0.6v-2.6h-0.9v7.2h0.8v-0.7c0.2,0.3,0.4,0.4,0.5,0.5
		c0.3,0.2,0.6,0.3,1,0.3c0.7,0,1.3-0.3,1.7-0.8c0.4-0.5,0.6-1.2,0.6-2.1c0-0.9-0.2-1.5-0.6-2C152.2,103.9,151.6,103.6,151,103.6z
		 M151.9,107.8c-0.2,0.4-0.6,0.6-1.1,0.6c-0.6,0-1.1-0.3-1.3-0.9c-0.1-0.3-0.2-0.7-0.2-1.2c0-0.7,0.2-1.2,0.5-1.5s0.7-0.4,1.1-0.4
		c0.5,0,0.8,0.2,1,0.5c0.2,0.4,0.4,0.8,0.4,1.4C152.3,106.9,152.2,107.4,151.9,107.8z"/>
</g>
<g>
	<path fill="none" d="M224.9,107.8c0.2-0.4,0.3-0.9,0.3-1.5c0-0.5-0.1-0.9-0.2-1.2c-0.2-0.5-0.7-0.7-1.3-0.7c-0.5,0-0.9,0.2-1.2,0.6
		c-0.2,0.4-0.4,0.9-0.4,1.5c0,0.6,0.1,1,0.4,1.4c0.2,0.4,0.6,0.6,1.1,0.6C224.3,108.4,224.7,108.2,224.9,107.8z"/>
	<path fill="none" d="M236.7,104.4c-0.4,0-0.8,0.2-1.1,0.5c-0.3,0.3-0.4,0.8-0.4,1.5c0,0.6,0.1,1,0.4,1.4s0.6,0.6,1.1,0.6
		c0.4,0,0.7-0.2,1-0.5c0.3-0.4,0.4-0.9,0.4-1.5c0-0.7-0.1-1.1-0.4-1.5C237.4,104.6,237.1,104.4,236.7,104.4z"/>
	<path d="M215.7,104.4c0.4,0,0.7,0.1,0.9,0.3c0.2,0.2,0.3,0.5,0.4,0.8h0.9c-0.1-0.7-0.3-1.2-0.7-1.5c-0.4-0.3-0.8-0.4-1.4-0.4
		c-0.7,0-1.3,0.3-1.7,0.8s-0.7,1.2-0.7,2.1c0,0.7,0.2,1.4,0.6,1.9c0.4,0.5,1,0.7,1.6,0.7c0.6,0,1.1-0.2,1.5-0.5
		c0.4-0.3,0.6-0.8,0.7-1.5h-0.9c-0.1,0.4-0.2,0.7-0.4,0.9c-0.2,0.2-0.5,0.3-0.9,0.3c-0.5,0-0.8-0.2-1-0.5c-0.2-0.4-0.3-0.8-0.3-1.3
		c0-0.5,0.1-1,0.2-1.3C214.7,104.7,215.1,104.4,215.7,104.4z"/>
	<path d="M218.7,103.8v5.2h0.9v-3c0-0.4,0.1-0.7,0.4-1c0.2-0.3,0.6-0.4,1-0.4l0.1,0l0.1,0v-0.9c-0.1,0-0.2,0-0.2,0l-0.1,0
		c-0.3,0-0.7,0.1-0.9,0.4c-0.3,0.3-0.4,0.5-0.5,0.6v-0.9H218.7z"/>
	<path d="M225.5,108.4c0.4-0.5,0.6-1.2,0.6-2.1c0-0.9-0.2-1.5-0.7-2c-0.5-0.4-1-0.7-1.7-0.7c-0.7,0-1.3,0.3-1.8,0.8
		s-0.7,1.2-0.7,2.1c0,0.8,0.2,1.5,0.6,2s1,0.7,1.7,0.7C224.5,109.2,225.1,108.9,225.5,108.4z M222.6,107.9c-0.2-0.4-0.4-0.8-0.4-1.4
		c0-0.6,0.1-1.1,0.4-1.5c0.2-0.4,0.6-0.6,1.2-0.6c0.6,0,1,0.2,1.3,0.7c0.2,0.3,0.2,0.7,0.2,1.2c0,0.5-0.1,1-0.3,1.5
		s-0.6,0.7-1.2,0.7C223.2,108.4,222.8,108.2,222.6,107.9z"/>
	<polygon points="230.5,105 231.6,109 232.5,109 234,103.8 233.2,103.8 232.1,107.9 231.1,103.8 230.1,103.8 229,107.9 228,103.8 
		227.1,103.8 228.6,109 229.5,109 	"/>
	<path d="M238,104.4c-0.2-0.2-0.4-0.4-0.5-0.5c-0.3-0.2-0.6-0.3-1-0.3c-0.7,0-1.3,0.3-1.7,0.8c-0.4,0.6-0.6,1.2-0.6,2
		c0,0.8,0.2,1.5,0.6,2c0.4,0.5,0.9,0.7,1.5,0.7c0.4,0,0.7-0.1,1-0.2c0.3-0.1,0.5-0.4,0.7-0.7v0.7h0.8v-7.2H238V104.4z M237.7,107.9
		c-0.3,0.3-0.6,0.5-1,0.5c-0.5,0-0.9-0.2-1.1-0.6s-0.4-0.8-0.4-1.4c0-0.7,0.1-1.2,0.4-1.5c0.3-0.3,0.6-0.5,1.1-0.5
		c0.4,0,0.7,0.2,1,0.5c0.3,0.3,0.4,0.8,0.4,1.5C238.1,107,237.9,107.5,237.7,107.9z"/>
</g>
<g>
	<path fill="none" d="M10,128.6l-0.3,0.1c-0.3,0.1-0.5,0.1-0.6,0.2c-0.2,0.1-0.3,0.3-0.3,0.6c0,0.2,0.1,0.4,0.2,0.5
		c0.1,0.1,0.3,0.2,0.5,0.2c0.3,0,0.6-0.1,0.8-0.3c0.3-0.2,0.4-0.5,0.4-1v-0.5c-0.1,0.1-0.2,0.1-0.3,0.1
		C10.2,128.6,10.1,128.6,10,128.6z"/>
	<path d="M4.8,124.2v1.5H4.1v1h0.7v3.3c0,0.3,0.1,0.6,0.2,0.7c0.2,0.3,0.7,0.4,1.3,0.3l0.7,0v-1l-0.1,0l-0.1,0c-0.3,0-0.5,0-0.5-0.1
		c-0.1-0.1-0.1-0.2-0.1-0.4v-2.8h0.9v-1H6.2v-1.5H4.8z"/>
	<path d="M16.5,130c-0.2,0.1-0.4,0.1-0.7,0.1c-0.5,0-0.8-0.1-1-0.3c-0.1-0.1-0.2-0.3-0.2-0.5h-1.4c0,0.5,0.2,1,0.6,1.3
		c0.4,0.4,1,0.5,1.9,0.5c0.8,0,1.4-0.2,1.8-0.5c0.4-0.3,0.6-0.8,0.6-1.3c0-0.4-0.1-0.7-0.4-1c-0.3-0.3-0.7-0.5-1.2-0.6
		c-0.8-0.2-1.3-0.3-1.5-0.4c-0.1-0.1-0.2-0.2-0.2-0.3c0-0.1,0.1-0.2,0.2-0.3s0.3-0.1,0.6-0.1c0.4,0,0.6,0.1,0.8,0.3
		c0.1,0.1,0.1,0.2,0.2,0.4H18c-0.1-0.7-0.3-1.1-0.7-1.4c-0.4-0.3-1-0.4-1.6-0.4c-0.7,0-1.2,0.2-1.6,0.5c-0.4,0.4-0.6,0.8-0.6,1.3
		c0,0.4,0.1,0.7,0.4,1c0.2,0.2,0.7,0.4,1.3,0.6c0.8,0.2,1.3,0.3,1.5,0.4s0.2,0.2,0.2,0.4C16.8,129.8,16.7,129.9,16.5,130z"/>
	<path d="M10.3,127.6c-0.1,0-0.3,0.1-0.6,0.1l-0.5,0.1c-0.5,0.1-1,0.2-1.2,0.3c-0.5,0.3-0.8,0.8-0.8,1.4c0,0.5,0.2,0.9,0.5,1.2
		c0.3,0.3,0.7,0.4,1.2,0.4c0.4,0,0.7-0.1,1-0.3c0.3-0.1,0.5-0.3,0.7-0.5c0,0.1,0,0.2,0,0.3s0,0.2,0.1,0.3h1.5v-0.2
		c-0.1,0-0.2-0.1-0.2-0.2s-0.1-0.2-0.1-0.4c0-0.2,0-0.4,0-0.6v-2.4c0-0.6-0.2-1.1-0.7-1.3s-1-0.3-1.6-0.3c-0.9,0-1.5,0.2-1.9,0.7
		c-0.2,0.3-0.4,0.7-0.4,1.1h1.3c0-0.2,0.1-0.4,0.2-0.5c0.1-0.2,0.4-0.2,0.7-0.2c0.3,0,0.5,0,0.7,0.1c0.2,0.1,0.2,0.2,0.2,0.5
		C10.6,127.4,10.5,127.6,10.3,127.6z M10.6,128.9c0,0.5-0.1,0.8-0.4,1c-0.3,0.2-0.5,0.3-0.8,0.3c-0.2,0-0.4-0.1-0.5-0.2
		c-0.1-0.1-0.2-0.3-0.2-0.5c0-0.3,0.1-0.5,0.3-0.6c0.1-0.1,0.3-0.1,0.6-0.2l0.3-0.1c0.2,0,0.3-0.1,0.4-0.1c0.1,0,0.2-0.1,0.3-0.1
		V128.9z"/>
	<polygon points="24.5,125.7 22.7,125.7 21,127.7 21,123.8 19.6,123.8 19.6,131 21,131 21,129.3 21.6,128.7 22.9,131 24.5,131 
		22.6,127.7 	"/>
</g>
<g>
	<path fill="none" d="M68,128.6l-0.5,0.1c-0.3,0-0.6,0.1-0.7,0.2c-0.3,0.2-0.4,0.4-0.4,0.7c0,0.3,0.1,0.5,0.3,0.6
		c0.2,0.1,0.4,0.2,0.7,0.2c0.3,0,0.6-0.1,0.9-0.2c0.5-0.2,0.7-0.6,0.7-1.2v-0.7c-0.1,0.1-0.2,0.1-0.4,0.2S68.1,128.6,68,128.6z"/>
	<path fill="none" d="M76.7,126.4c-0.4,0-0.7,0.1-1,0.4c-0.3,0.3-0.4,0.7-0.4,1.1h2.9c0-0.4-0.1-0.7-0.2-0.9
		C77.7,126.6,77.3,126.4,76.7,126.4z"/>
	<path fill="none" d="M82.7,126.4c-0.4,0-0.8,0.2-1.1,0.5c-0.3,0.3-0.4,0.8-0.4,1.5c0,0.6,0.1,1,0.4,1.4s0.6,0.6,1.1,0.6
		c0.4,0,0.7-0.2,1-0.5c0.3-0.4,0.4-0.9,0.4-1.5c0-0.7-0.1-1.1-0.4-1.5C83.4,126.6,83.1,126.4,82.7,126.4z"/>
	<path d="M52.4,130.2c-0.3,0.1-0.5,0.2-0.9,0.2c-0.6,0-1-0.1-1.2-0.4c-0.1-0.2-0.2-0.4-0.2-0.7h-0.8c0,0.5,0.2,1,0.5,1.3
		c0.3,0.4,0.9,0.5,1.7,0.5c0.7,0,1.3-0.2,1.6-0.5c0.4-0.3,0.5-0.7,0.5-1.2c0-0.5-0.2-0.8-0.5-1.1c-0.2-0.1-0.6-0.3-1.3-0.4l-0.6-0.1
		c-0.3-0.1-0.5-0.1-0.6-0.2c-0.2-0.1-0.3-0.3-0.3-0.5c0-0.2,0.1-0.4,0.3-0.5c0.2-0.1,0.4-0.2,0.8-0.2c0.5,0,0.9,0.1,1.1,0.3
		c0.1,0.2,0.2,0.3,0.2,0.5h0.8c0-0.3-0.1-0.7-0.3-0.9c-0.4-0.5-0.9-0.7-1.7-0.7c-0.6,0-1.1,0.2-1.5,0.5c-0.4,0.3-0.5,0.7-0.5,1.2
		c0,0.4,0.2,0.7,0.6,1c0.2,0.1,0.5,0.3,1,0.4l0.7,0.2c0.4,0.1,0.6,0.2,0.8,0.2c0.2,0.1,0.3,0.3,0.3,0.5
		C52.8,129.9,52.7,130.1,52.4,130.2z"/>
	<rect x="54.6" y="125.8" width="0.9" height="5.2"/>
	<rect x="54.6" y="123.8" width="0.9" height="1"/>
	<path d="M56.8,124.3v1.5h-0.7v0.7h0.7v3.5c0,0.3,0.1,0.6,0.2,0.8c0.1,0.2,0.4,0.3,0.8,0.3c0.1,0,0.2,0,0.4,0s0.2,0,0.3-0.1v-0.7
		l-0.2,0l-0.1,0c-0.2,0-0.3,0-0.3-0.1c-0.1-0.1-0.2-0.2-0.2-0.4v-3.4h0.8v-0.7h-0.8v-1.5H56.8z"/>
	<path d="M59.6,125.8v3.6c0,0.4,0.1,0.8,0.2,1.1c0.3,0.5,0.8,0.7,1.5,0.7c0.5,0,0.9-0.1,1.2-0.4c0.2-0.1,0.3-0.3,0.4-0.5l0,0.8h0.8
		v-5.2h-0.9v2.6c0,0.5-0.1,0.9-0.2,1.2c-0.2,0.5-0.6,0.8-1.2,0.8c-0.4,0-0.7-0.2-0.9-0.5c-0.1-0.2-0.1-0.4-0.1-0.7v-3.5H59.6z"/>
	<path d="M68.4,127.8L67,128c-0.5,0.1-0.9,0.2-1.2,0.5s-0.5,0.6-0.5,1.1c0,0.4,0.2,0.8,0.5,1.1s0.7,0.4,1.2,0.4
		c0.4,0,0.8-0.1,1.1-0.3s0.6-0.4,0.8-0.6c0,0.2,0.1,0.4,0.2,0.5c0.1,0.2,0.4,0.3,0.7,0.3c0.1,0,0.2,0,0.3,0s0.2,0,0.3-0.1v-0.6
		l-0.2,0l-0.1,0c-0.1,0-0.2,0-0.2-0.1c0-0.1-0.1-0.1-0.1-0.2v-3c0-0.5-0.2-0.9-0.6-1.1c-0.4-0.2-0.9-0.4-1.5-0.4
		c-0.5,0-1,0.1-1.4,0.4c-0.4,0.3-0.6,0.7-0.6,1.3h0.8c0-0.3,0.1-0.5,0.2-0.6c0.2-0.2,0.5-0.4,1-0.4c0.4,0,0.7,0.1,0.9,0.2
		s0.3,0.4,0.3,0.7c0,0.1,0,0.3-0.1,0.3C68.8,127.7,68.6,127.8,68.4,127.8z M68.9,129c0,0.5-0.2,0.9-0.7,1.2
		c-0.3,0.1-0.6,0.2-0.9,0.2c-0.3,0-0.5-0.1-0.7-0.2c-0.2-0.1-0.3-0.3-0.3-0.6c0-0.3,0.1-0.6,0.4-0.7c0.2-0.1,0.4-0.2,0.7-0.2
		l0.5-0.1c0.2,0,0.3-0.1,0.5-0.1s0.3-0.1,0.4-0.2V129z"/>
	<path d="M71.8,124.3v1.5h-0.7v0.7h0.7v3.5c0,0.3,0.1,0.6,0.2,0.8c0.1,0.2,0.4,0.3,0.8,0.3c0.1,0,0.2,0,0.4,0s0.2,0,0.3-0.1v-0.7
		l-0.2,0l-0.1,0c-0.2,0-0.3,0-0.3-0.1c-0.1-0.1-0.2-0.2-0.2-0.4v-3.4h0.8v-0.7h-0.8v-1.5H71.8z"/>
	<path d="M79,127.5c-0.1-0.4-0.2-0.7-0.3-0.9c-0.2-0.3-0.4-0.5-0.8-0.7c-0.3-0.2-0.7-0.3-1.1-0.3c-0.7,0-1.3,0.3-1.8,0.8
		c-0.5,0.5-0.7,1.2-0.7,2c0,0.9,0.2,1.5,0.7,2c0.4,0.5,1,0.7,1.6,0.7c0.3,0,0.5,0,0.7-0.1c0.4-0.1,0.7-0.3,1-0.5
		c0.2-0.1,0.3-0.3,0.4-0.6c0.1-0.2,0.2-0.5,0.2-0.6h-0.9c-0.1,0.2-0.2,0.4-0.3,0.6c-0.3,0.3-0.6,0.5-1.1,0.5c-0.5,0-0.8-0.2-1.1-0.5
		s-0.4-0.7-0.4-1.3h3.8C79.1,128.1,79,127.8,79,127.5z M75.3,128c0-0.4,0.2-0.8,0.4-1.1c0.3-0.3,0.6-0.4,1-0.4c0.6,0,1,0.2,1.2,0.6
		c0.1,0.2,0.2,0.5,0.2,0.9H75.3z"/>
	<path d="M84,126.4c-0.2-0.2-0.4-0.4-0.5-0.5c-0.3-0.2-0.6-0.3-1-0.3c-0.7,0-1.3,0.3-1.7,0.8c-0.4,0.6-0.6,1.2-0.6,2
		c0,0.8,0.2,1.5,0.6,2c0.4,0.5,0.9,0.7,1.5,0.7c0.4,0,0.7-0.1,1-0.2c0.3-0.1,0.5-0.4,0.7-0.7v0.7h0.8v-7.2H84V126.4z M83.7,129.9
		c-0.3,0.3-0.6,0.5-1,0.5c-0.5,0-0.9-0.2-1.1-0.6s-0.4-0.8-0.4-1.4c0-0.7,0.1-1.2,0.4-1.5c0.3-0.3,0.6-0.5,1.1-0.5
		c0.4,0,0.7,0.2,1,0.5c0.3,0.3,0.4,0.8,0.4,1.5C84.1,129,83.9,129.5,83.7,129.9z"/>
</g>
<g>
	<path fill="none" d="M148.9,129.8c0.2-0.4,0.3-0.9,0.3-1.5c0-0.5-0.1-0.9-0.2-1.2c-0.2-0.5-0.7-0.7-1.3-0.7c-0.5,0-0.9,0.2-1.2,0.6
		c-0.2,0.4-0.4,0.9-0.4,1.5c0,0.6,0.1,1,0.4,1.4c0.2,0.4,0.6,0.6,1.1,0.6C148.3,130.4,148.7,130.2,148.9,129.8z"/>
	<path fill="none" d="M175.7,126.4c-0.4,0-0.7,0.1-1,0.4c-0.3,0.3-0.4,0.7-0.4,1.1h2.9c0-0.4-0.1-0.7-0.2-0.9
		C176.7,126.6,176.3,126.4,175.7,126.4z"/>
	<path fill="none" d="M181.7,126.4c-0.4,0-0.8,0.2-1.1,0.5c-0.3,0.3-0.4,0.8-0.4,1.5c0,0.6,0.1,1,0.4,1.4s0.6,0.6,1.1,0.6
		c0.4,0,0.7-0.2,1-0.5c0.3-0.4,0.4-0.9,0.4-1.5c0-0.7-0.1-1.1-0.4-1.5C182.4,126.6,182,126.4,181.7,126.4z"/>
	<path fill="none" d="M166.9,129.8c0.2-0.4,0.3-0.9,0.3-1.5c0-0.5-0.1-0.9-0.2-1.2c-0.2-0.5-0.7-0.7-1.3-0.7c-0.5,0-0.9,0.2-1.2,0.6
		c-0.2,0.4-0.4,0.9-0.4,1.5c0,0.6,0.1,1,0.4,1.4c0.2,0.4,0.6,0.6,1.1,0.6C166.3,130.4,166.7,130.2,166.9,129.8z"/>
	<path d="M142.7,126.4c0.4,0,0.7,0.1,0.9,0.3c0.2,0.2,0.3,0.5,0.4,0.8h0.9c-0.1-0.7-0.3-1.2-0.7-1.5c-0.4-0.3-0.8-0.4-1.4-0.4
		c-0.7,0-1.3,0.3-1.7,0.8s-0.7,1.2-0.7,2.1c0,0.7,0.2,1.4,0.6,1.9c0.4,0.5,1,0.7,1.6,0.7c0.6,0,1.1-0.2,1.5-0.5
		c0.4-0.3,0.6-0.8,0.7-1.5h-0.9c-0.1,0.4-0.2,0.7-0.4,0.9c-0.2,0.2-0.5,0.3-0.9,0.3c-0.5,0-0.8-0.2-1-0.5c-0.2-0.4-0.3-0.8-0.3-1.3
		c0-0.5,0.1-1,0.2-1.3C141.7,126.7,142.1,126.4,142.7,126.4z"/>
	<path d="M149.5,130.4c0.4-0.5,0.6-1.2,0.6-2.1c0-0.9-0.2-1.5-0.7-2c-0.5-0.4-1-0.7-1.7-0.7c-0.7,0-1.3,0.3-1.8,0.8
		s-0.7,1.2-0.7,2.1c0,0.8,0.2,1.5,0.6,2s1,0.7,1.7,0.7C148.5,131.2,149.1,130.9,149.5,130.4z M146.6,129.9c-0.2-0.4-0.4-0.8-0.4-1.4
		c0-0.6,0.1-1.1,0.4-1.5c0.2-0.4,0.6-0.6,1.2-0.6c0.6,0,1,0.2,1.3,0.7c0.2,0.3,0.2,0.7,0.2,1.2c0,0.5-0.1,1-0.3,1.5
		s-0.6,0.7-1.2,0.7C147.2,130.4,146.8,130.2,146.6,129.9z"/>
	<path d="M151.6,125.8v5.2h0.9v-2.7c0-0.3,0-0.6,0.1-0.8c0-0.2,0.1-0.4,0.3-0.5c0.2-0.2,0.4-0.4,0.6-0.4c0.1,0,0.3-0.1,0.5-0.1
		c0.4,0,0.7,0.2,0.8,0.5c0.1,0.2,0.1,0.5,0.1,0.8v3.3h0.9v-3.4c0-0.5-0.1-0.9-0.2-1.2c-0.3-0.5-0.8-0.8-1.5-0.8
		c-0.3,0-0.6,0.1-0.9,0.2c-0.3,0.1-0.5,0.4-0.8,0.7v-0.7H151.6z"/>
	<path d="M157.8,124.3v1.5h-0.7v0.7h0.7v3.5c0,0.3,0.1,0.6,0.2,0.8c0.1,0.2,0.4,0.3,0.8,0.3c0.1,0,0.2,0,0.4,0s0.2,0,0.3-0.1v-0.7
		l-0.2,0l-0.1,0c-0.2,0-0.3,0-0.3-0.1c-0.1-0.1-0.2-0.2-0.2-0.4v-3.4h0.8v-0.7h-0.8v-1.5H157.8z"/>
	<path d="M160.7,125.8v5.2h0.9v-3c0-0.4,0.1-0.7,0.4-1c0.2-0.3,0.6-0.4,1-0.4l0.1,0l0.1,0v-0.9c-0.1,0-0.2,0-0.2,0l-0.1,0
		c-0.3,0-0.7,0.1-0.9,0.4c-0.3,0.3-0.4,0.5-0.5,0.6v-0.9H160.7z"/>
	<path d="M167.5,130.4c0.4-0.5,0.6-1.2,0.6-2.1c0-0.9-0.2-1.5-0.7-2c-0.5-0.4-1-0.7-1.7-0.7c-0.7,0-1.3,0.3-1.8,0.8
		s-0.7,1.2-0.7,2.1c0,0.8,0.2,1.5,0.6,2c0.4,0.5,1,0.7,1.7,0.7C166.5,131.2,167.1,130.9,167.5,130.4z M164.5,129.9
		c-0.2-0.4-0.4-0.8-0.4-1.4c0-0.6,0.1-1.1,0.4-1.5c0.2-0.4,0.6-0.6,1.2-0.6c0.6,0,1,0.2,1.3,0.7c0.2,0.3,0.2,0.7,0.2,1.2
		c0,0.5-0.1,1-0.3,1.5c-0.2,0.4-0.6,0.7-1.2,0.7C165.2,130.4,164.8,130.2,164.5,129.9z"/>
	<rect x="169.6" y="123.8" width="0.9" height="7.2"/>
	<rect x="171.6" y="123.8" width="0.9" height="7.2"/>
	<path d="M178,127.5c-0.1-0.4-0.2-0.7-0.3-0.9c-0.2-0.3-0.4-0.5-0.8-0.7c-0.3-0.2-0.7-0.3-1.1-0.3c-0.7,0-1.3,0.3-1.8,0.8
		c-0.5,0.5-0.7,1.2-0.7,2c0,0.9,0.2,1.5,0.7,2c0.4,0.5,1,0.7,1.6,0.7c0.3,0,0.5,0,0.7-0.1c0.4-0.1,0.7-0.3,1-0.5
		c0.2-0.1,0.3-0.3,0.4-0.6c0.1-0.2,0.2-0.5,0.2-0.6h-0.9c-0.1,0.2-0.2,0.4-0.3,0.6c-0.3,0.3-0.6,0.5-1.1,0.5c-0.5,0-0.8-0.2-1.1-0.5
		s-0.4-0.7-0.4-1.3h3.8C178.1,128.1,178,127.8,178,127.5z M174.3,128c0-0.4,0.2-0.8,0.4-1.1c0.3-0.3,0.6-0.4,1-0.4
		c0.6,0,1,0.2,1.2,0.6c0.1,0.2,0.2,0.5,0.2,0.9H174.3z"/>
	<path d="M183,126.4c-0.2-0.2-0.4-0.4-0.5-0.5c-0.3-0.2-0.6-0.3-1-0.3c-0.7,0-1.3,0.3-1.7,0.8c-0.4,0.6-0.6,1.2-0.6,2
		c0,0.8,0.2,1.5,0.6,2c0.4,0.5,0.9,0.7,1.5,0.7c0.4,0,0.7-0.1,1-0.2c0.3-0.1,0.5-0.4,0.7-0.7v0.7h0.8v-7.2H183V126.4z M182.7,129.9
		c-0.3,0.3-0.6,0.5-1,0.5c-0.5,0-0.9-0.2-1.1-0.6s-0.4-0.8-0.4-1.4c0-0.7,0.1-1.2,0.4-1.5c0.3-0.3,0.6-0.5,1.1-0.5
		c0.4,0,0.7,0.2,1,0.5c0.3,0.3,0.4,0.8,0.4,1.5C183,129,182.9,129.5,182.7,129.9z"/>
</g>
<g>
	<path fill="none" d="M155,18.6l-0.5,0.1c-0.3,0-0.6,0.1-0.7,0.2c-0.3,0.2-0.4,0.4-0.4,0.7c0,0.3,0.1,0.5,0.3,0.6
		c0.2,0.1,0.4,0.2,0.7,0.2c0.3,0,0.6-0.1,0.9-0.2c0.5-0.2,0.7-0.6,0.7-1.2v-0.7c-0.1,0.1-0.2,0.1-0.4,0.2
		C155.3,18.6,155.1,18.6,155,18.6z"/>
	<path fill="none" d="M143.8,17.2c-0.2-0.5-0.7-0.8-1.3-0.8c-0.4,0-0.7,0.2-1,0.5c-0.3,0.3-0.4,0.8-0.4,1.5c0,0.5,0.1,0.8,0.2,1.1
		c0.2,0.5,0.6,0.8,1.2,0.8c0.6,0,1-0.3,1.3-0.9c0.1-0.3,0.2-0.7,0.2-1.2C144.1,17.9,144,17.5,143.8,17.2z"/>
	<path fill="none" d="M174.9,18.6l-0.5,0.1c-0.3,0-0.6,0.1-0.7,0.2c-0.3,0.2-0.4,0.4-0.4,0.7c0,0.3,0.1,0.5,0.3,0.6
		c0.2,0.1,0.4,0.2,0.7,0.2c0.3,0,0.6-0.1,0.9-0.2c0.5-0.2,0.7-0.6,0.7-1.2v-0.7c-0.1,0.1-0.2,0.1-0.4,0.2
		C175.3,18.6,175.1,18.6,174.9,18.6z"/>
	<path fill="none" d="M190.7,16.4c-0.4,0-0.7,0.1-1,0.4c-0.3,0.3-0.4,0.7-0.4,1.1h2.9c0-0.4-0.1-0.7-0.2-0.9
		C191.7,16.6,191.3,16.4,190.7,16.4z"/>
	<path d="M144.9,23v-7.2h-0.8v0.7c-0.1-0.2-0.3-0.4-0.5-0.5c-0.3-0.2-0.7-0.3-1.1-0.3c-0.7,0-1.2,0.3-1.6,0.8
		c-0.4,0.5-0.6,1.2-0.6,2.1c0,0.9,0.2,1.6,0.7,2s0.9,0.7,1.5,0.7c0.4,0,0.7-0.1,1-0.2c0.3-0.1,0.5-0.3,0.6-0.6V23H144.9z
		 M143.9,19.5c-0.2,0.6-0.7,0.9-1.3,0.9c-0.6,0-1-0.3-1.2-0.8c-0.1-0.3-0.2-0.7-0.2-1.1c0-0.7,0.1-1.2,0.4-1.5
		c0.3-0.3,0.6-0.5,1-0.5c0.6,0,1,0.3,1.3,0.8c0.1,0.3,0.2,0.7,0.2,1.1C144.1,18.8,144,19.2,143.9,19.5z"/>
	<path d="M146.6,15.8v3.6c0,0.4,0.1,0.8,0.2,1.1c0.3,0.5,0.8,0.7,1.5,0.7c0.5,0,0.9-0.1,1.2-0.4c0.2-0.1,0.3-0.3,0.4-0.5l0,0.8h0.8
		v-5.2h-0.9v2.6c0,0.5-0.1,0.9-0.2,1.2c-0.2,0.5-0.6,0.8-1.2,0.8c-0.4,0-0.7-0.2-0.9-0.5c-0.1-0.2-0.1-0.4-0.1-0.7v-3.5H146.6z"/>
	<path d="M158.6,15.8V21h0.9v-2.7c0-0.3,0-0.6,0.1-0.8c0-0.2,0.1-0.4,0.3-0.5c0.2-0.2,0.4-0.4,0.6-0.4c0.1,0,0.3-0.1,0.5-0.1
		c0.4,0,0.7,0.2,0.8,0.5c0.1,0.2,0.1,0.5,0.1,0.8V21h0.9v-3.4c0-0.5-0.1-0.9-0.2-1.2c-0.3-0.5-0.8-0.8-1.5-0.8
		c-0.3,0-0.6,0.1-0.9,0.2s-0.5,0.4-0.8,0.7v-0.7H158.6z"/>
	<path d="M155.4,17.8L154,18c-0.5,0.1-0.9,0.2-1.2,0.5s-0.5,0.6-0.5,1.1c0,0.4,0.2,0.8,0.5,1.1s0.7,0.4,1.2,0.4
		c0.4,0,0.8-0.1,1.1-0.3c0.3-0.2,0.6-0.4,0.8-0.6c0,0.2,0.1,0.4,0.2,0.5c0.1,0.2,0.4,0.3,0.7,0.3c0.1,0,0.2,0,0.3,0
		c0.1,0,0.2,0,0.3-0.1v-0.6l-0.2,0l-0.1,0c-0.1,0-0.2,0-0.2-0.1c0-0.1-0.1-0.1-0.1-0.2v-3c0-0.5-0.2-0.9-0.6-1.1
		c-0.4-0.2-0.9-0.4-1.5-0.4c-0.5,0-1,0.1-1.4,0.4c-0.4,0.3-0.6,0.7-0.6,1.3h0.8c0-0.3,0.1-0.5,0.2-0.6c0.2-0.2,0.5-0.4,1-0.4
		c0.4,0,0.7,0.1,0.9,0.2s0.3,0.4,0.3,0.7c0,0.1,0,0.3-0.1,0.3C155.8,17.7,155.6,17.8,155.4,17.8z M155.9,19c0,0.5-0.2,0.9-0.7,1.2
		c-0.3,0.1-0.6,0.2-0.9,0.2c-0.3,0-0.5-0.1-0.7-0.2c-0.2-0.1-0.3-0.3-0.3-0.6c0-0.3,0.1-0.6,0.4-0.7c0.2-0.1,0.4-0.2,0.7-0.2
		l0.5-0.1c0.2,0,0.3-0.1,0.5-0.1c0.2,0,0.3-0.1,0.4-0.2V19z"/>
	<path d="M164.8,14.3v1.5h-0.7v0.7h0.7V20c0,0.3,0.1,0.6,0.2,0.8c0.1,0.2,0.4,0.3,0.8,0.3c0.1,0,0.2,0,0.4,0s0.2,0,0.3-0.1v-0.7
		l-0.2,0l-0.1,0c-0.2,0-0.3,0-0.3-0.1c-0.1-0.1-0.2-0.2-0.2-0.4v-3.4h0.8v-0.7h-0.8v-1.5H164.8z"/>
	<rect x="167.6" y="13.8" width="0.9" height="1"/>
	<rect x="167.6" y="15.8" width="0.9" height="5.2"/>
	<path d="M169.8,14.3v1.5h-0.7v0.7h0.7V20c0,0.3,0.1,0.6,0.2,0.8c0.1,0.2,0.4,0.3,0.8,0.3c0.1,0,0.2,0,0.4,0s0.2,0,0.3-0.1v-0.7
		l-0.2,0l-0.1,0c-0.2,0-0.3,0-0.3-0.1c-0.1-0.1-0.2-0.2-0.2-0.4v-3.4h0.8v-0.7h-0.8v-1.5H169.8z"/>
	<path d="M175.4,17.8L174,18c-0.5,0.1-0.9,0.2-1.2,0.5s-0.5,0.6-0.5,1.1c0,0.4,0.2,0.8,0.5,1.1s0.7,0.4,1.2,0.4
		c0.4,0,0.8-0.1,1.1-0.3c0.3-0.2,0.6-0.4,0.8-0.6c0,0.2,0.1,0.4,0.2,0.5c0.1,0.2,0.4,0.3,0.7,0.3c0.1,0,0.2,0,0.3,0
		c0.1,0,0.2,0,0.3-0.1v-0.6l-0.2,0l-0.1,0c-0.1,0-0.2,0-0.2-0.1c0-0.1-0.1-0.1-0.1-0.2v-3c0-0.5-0.2-0.9-0.6-1.1
		c-0.4-0.2-0.9-0.4-1.5-0.4c-0.5,0-1,0.1-1.4,0.4s-0.6,0.7-0.6,1.3h0.8c0-0.3,0.1-0.5,0.2-0.6c0.2-0.2,0.5-0.4,1-0.4
		c0.4,0,0.7,0.1,0.9,0.2s0.3,0.4,0.3,0.7c0,0.1,0,0.3-0.1,0.3C175.7,17.7,175.6,17.8,175.4,17.8z M175.9,19c0,0.5-0.2,0.9-0.7,1.2
		c-0.3,0.1-0.6,0.2-0.9,0.2c-0.3,0-0.5-0.1-0.7-0.2c-0.2-0.1-0.3-0.3-0.3-0.6c0-0.3,0.1-0.6,0.4-0.7c0.2-0.1,0.4-0.2,0.7-0.2
		l0.5-0.1c0.2,0,0.3-0.1,0.5-0.1c0.2,0,0.3-0.1,0.4-0.2V19z"/>
	<path d="M178.8,14.3v1.5h-0.7v0.7h0.7V20c0,0.3,0.1,0.6,0.2,0.8c0.1,0.2,0.4,0.3,0.8,0.3c0.1,0,0.2,0,0.4,0c0.1,0,0.2,0,0.3-0.1
		v-0.7l-0.2,0l-0.1,0c-0.2,0-0.3,0-0.3-0.1c-0.1-0.1-0.2-0.2-0.2-0.4v-3.4h0.8v-0.7h-0.8v-1.5H178.8z"/>
	<rect x="181.6" y="13.8" width="0.9" height="1"/>
	<rect x="181.6" y="15.8" width="0.9" height="5.2"/>
	<path d="M193,17.5c-0.1-0.4-0.2-0.7-0.3-0.9c-0.2-0.3-0.4-0.5-0.8-0.7c-0.3-0.2-0.7-0.3-1.1-0.3c-0.7,0-1.3,0.3-1.8,0.8
		s-0.7,1.2-0.7,2c0,0.9,0.2,1.5,0.7,2c0.5,0.5,1,0.7,1.6,0.7c0.3,0,0.5,0,0.7-0.1c0.4-0.1,0.7-0.3,1-0.5c0.2-0.1,0.3-0.3,0.4-0.6
		c0.1-0.2,0.2-0.5,0.2-0.6h-0.9c-0.1,0.2-0.2,0.4-0.3,0.6c-0.3,0.3-0.6,0.5-1.1,0.5c-0.5,0-0.8-0.2-1.1-0.5s-0.4-0.7-0.4-1.3h3.8
		C193,18.1,193,17.8,193,17.5z M189.3,18c0-0.4,0.2-0.8,0.4-1.1c0.3-0.3,0.6-0.4,1-0.4c0.6,0,1,0.2,1.2,0.6c0.1,0.2,0.2,0.5,0.2,0.9
		H189.3z"/>
	<polygon points="187.8,15.8 186.9,15.8 185.4,20 184,15.8 183,15.8 184.9,21 185.9,21 	"/>
</g>
<g>
	<path fill="none" d="M199.7,38.4c-0.4,0-0.7,0.1-1,0.4c-0.3,0.3-0.4,0.7-0.4,1.1h2.9c0-0.4-0.1-0.7-0.2-0.9
		C200.7,38.6,200.3,38.4,199.7,38.4z"/>
	<path fill="none" d="M166,40.6l-0.5,0.1c-0.3,0-0.6,0.1-0.7,0.2c-0.3,0.2-0.4,0.4-0.4,0.7c0,0.3,0.1,0.5,0.3,0.6
		c0.2,0.1,0.4,0.2,0.7,0.2c0.3,0,0.6-0.1,0.9-0.2c0.5-0.2,0.7-0.6,0.7-1.2v-0.7c-0.1,0.1-0.2,0.1-0.4,0.2S166.1,40.6,166,40.6z"/>
	<path fill="none" d="M177.9,41.8c0.2-0.4,0.3-0.9,0.3-1.5c0-0.5-0.1-0.9-0.2-1.2c-0.2-0.5-0.7-0.7-1.3-0.7c-0.5,0-0.9,0.2-1.2,0.6
		c-0.2,0.4-0.4,0.9-0.4,1.5c0,0.6,0.1,1,0.4,1.4c0.2,0.4,0.6,0.6,1.1,0.6C177.3,42.4,177.6,42.2,177.9,41.8z"/>
	<path fill="none" d="M159.7,38.4c-0.4,0-0.7,0.1-1,0.4c-0.3,0.3-0.4,0.7-0.4,1.1h2.9c0-0.4-0.1-0.7-0.2-0.9
		C160.7,38.6,160.3,38.4,159.7,38.4z"/>
	<path fill="none" d="M153.7,38.4c-0.4,0-0.8,0.2-1.1,0.5c-0.3,0.3-0.4,0.8-0.4,1.5c0,0.6,0.1,1,0.4,1.4s0.6,0.6,1.1,0.6
		c0.4,0,0.7-0.2,1-0.5c0.3-0.4,0.4-0.9,0.4-1.5c0-0.7-0.1-1.1-0.4-1.5C154.4,38.6,154.1,38.4,153.7,38.4z"/>
	<rect x="143.4" y="39.8" width="2.5" height="0.9"/>
	<rect x="149.6" y="37.8" width="0.9" height="5.2"/>
	<rect x="149.6" y="35.8" width="0.9" height="1"/>
	<path d="M155.9,43v-7.2H155v2.6c-0.2-0.2-0.4-0.4-0.5-0.5c-0.3-0.2-0.6-0.3-1-0.3c-0.7,0-1.3,0.3-1.7,0.8c-0.4,0.6-0.6,1.2-0.6,2
		c0,0.8,0.2,1.5,0.6,2c0.4,0.5,0.9,0.7,1.5,0.7c0.4,0,0.7-0.1,1-0.2s0.5-0.4,0.7-0.7V43H155.9z M154.7,41.9c-0.3,0.3-0.6,0.5-1,0.5
		c-0.5,0-0.9-0.2-1.1-0.6s-0.4-0.8-0.4-1.4c0-0.7,0.1-1.2,0.4-1.5c0.3-0.3,0.6-0.5,1.1-0.5c0.4,0,0.7,0.2,1,0.5
		c0.3,0.3,0.4,0.8,0.4,1.5C155.1,41,155,41.5,154.7,41.9z"/>
	<path d="M162,39.5c-0.1-0.4-0.2-0.7-0.3-0.9c-0.2-0.3-0.4-0.5-0.8-0.7c-0.3-0.2-0.7-0.3-1.1-0.3c-0.7,0-1.3,0.3-1.8,0.8
		s-0.7,1.2-0.7,2c0,0.9,0.2,1.5,0.7,2c0.5,0.5,1,0.7,1.6,0.7c0.3,0,0.5,0,0.7-0.1c0.4-0.1,0.7-0.3,1-0.5c0.2-0.1,0.3-0.3,0.4-0.6
		c0.1-0.2,0.2-0.5,0.2-0.6h-0.9c-0.1,0.2-0.2,0.4-0.3,0.6c-0.3,0.3-0.6,0.5-1.1,0.5c-0.5,0-0.8-0.2-1.1-0.5s-0.4-0.7-0.4-1.3h3.8
		C162.1,40.1,162.1,39.8,162,39.5z M158.3,40c0-0.4,0.2-0.8,0.4-1.1c0.3-0.3,0.6-0.4,1-0.4c0.6,0,1,0.2,1.2,0.6
		c0.1,0.2,0.2,0.5,0.2,0.9H158.3z"/>
	<path d="M166.4,39.8L165,40c-0.5,0.1-0.9,0.2-1.2,0.5s-0.5,0.6-0.5,1.1c0,0.4,0.2,0.8,0.5,1.1c0.3,0.3,0.7,0.4,1.2,0.4
		c0.4,0,0.8-0.1,1.1-0.3s0.6-0.4,0.8-0.6c0,0.2,0.1,0.4,0.2,0.5c0.1,0.2,0.4,0.3,0.7,0.3c0.1,0,0.2,0,0.3,0s0.2,0,0.3-0.1v-0.6
		l-0.2,0l-0.1,0c-0.1,0-0.2,0-0.2-0.1c0-0.1-0.1-0.1-0.1-0.2v-3c0-0.5-0.2-0.9-0.6-1.1c-0.4-0.2-0.9-0.4-1.5-0.4
		c-0.5,0-1,0.1-1.4,0.4c-0.4,0.3-0.6,0.7-0.6,1.3h0.8c0-0.3,0.1-0.5,0.2-0.6c0.2-0.2,0.5-0.4,1-0.4c0.4,0,0.7,0.1,0.9,0.2
		s0.3,0.4,0.3,0.7c0,0.1,0,0.3-0.1,0.3C166.8,39.7,166.6,39.8,166.4,39.8z M166.9,41c0,0.5-0.2,0.9-0.7,1.2
		c-0.3,0.1-0.6,0.2-0.9,0.2c-0.3,0-0.5-0.1-0.7-0.2c-0.2-0.1-0.3-0.3-0.3-0.6c0-0.3,0.1-0.6,0.4-0.7c0.2-0.1,0.4-0.2,0.7-0.2
		l0.5-0.1c0.2,0,0.3-0.1,0.5-0.1s0.3-0.1,0.4-0.2V41z"/>
	<path d="M169.8,36.3v1.5h-0.7v0.7h0.7V42c0,0.3,0.1,0.6,0.2,0.8c0.1,0.2,0.4,0.3,0.8,0.3c0.1,0,0.2,0,0.4,0s0.2,0,0.3-0.1v-0.7
		l-0.2,0l-0.1,0c-0.2,0-0.3,0-0.3-0.1c-0.1-0.1-0.2-0.2-0.2-0.4v-3.4h0.8v-0.7h-0.8v-1.5H169.8z"/>
	<rect x="172.6" y="37.8" width="0.9" height="5.2"/>
	<rect x="172.6" y="35.8" width="0.9" height="1"/>
	<path d="M180.6,37.8V43h0.9v-2.7c0-0.3,0-0.6,0.1-0.8c0-0.2,0.1-0.4,0.3-0.5c0.2-0.2,0.4-0.4,0.6-0.4c0.1,0,0.3-0.1,0.5-0.1
		c0.4,0,0.7,0.2,0.8,0.5c0.1,0.2,0.1,0.5,0.1,0.8V43h0.9v-3.4c0-0.5-0.1-0.9-0.2-1.2c-0.3-0.5-0.8-0.8-1.5-0.8
		c-0.3,0-0.6,0.1-0.9,0.2c-0.3,0.1-0.5,0.4-0.8,0.7v-0.7H180.6z"/>
	<path d="M178.5,42.4c0.4-0.5,0.6-1.2,0.6-2.1c0-0.9-0.2-1.5-0.7-2c-0.5-0.4-1-0.7-1.7-0.7c-0.7,0-1.3,0.3-1.8,0.8
		c-0.4,0.5-0.7,1.2-0.7,2.1c0,0.8,0.2,1.5,0.6,2c0.4,0.5,1,0.7,1.7,0.7C177.4,43.2,178.1,42.9,178.5,42.4z M175.5,41.9
		c-0.2-0.4-0.4-0.8-0.4-1.4c0-0.6,0.1-1.1,0.4-1.5c0.2-0.4,0.6-0.6,1.2-0.6c0.6,0,1,0.2,1.3,0.7c0.2,0.3,0.2,0.7,0.2,1.2
		c0,0.5-0.1,1-0.3,1.5c-0.2,0.4-0.6,0.7-1.2,0.7C176.2,42.4,175.8,42.2,175.5,41.9z"/>
	<path d="M189.6,37.8V43h0.9v-2.8c0-0.7,0.1-1.1,0.4-1.4c0.3-0.3,0.6-0.4,0.9-0.4c0.4,0,0.6,0.1,0.7,0.4c0.1,0.2,0.1,0.4,0.1,0.8V43
		h0.9v-3c0-0.5,0.1-0.9,0.4-1.2c0.2-0.2,0.5-0.3,0.9-0.3c0.3,0,0.5,0.1,0.6,0.2c0.2,0.1,0.3,0.4,0.3,0.7V43h0.9v-3.5
		c0-0.5-0.1-0.8-0.2-1.1c-0.3-0.5-0.7-0.8-1.4-0.8c-0.3,0-0.6,0.1-0.9,0.2c-0.3,0.1-0.5,0.3-0.7,0.6c-0.1-0.2-0.2-0.4-0.4-0.5
		c-0.3-0.2-0.6-0.3-1-0.3c-0.4,0-0.7,0.1-1,0.3c-0.2,0.1-0.4,0.3-0.6,0.6v-0.7H189.6z"/>
	<path d="M202,39.5c-0.1-0.4-0.2-0.7-0.3-0.9c-0.2-0.3-0.4-0.5-0.8-0.7c-0.3-0.2-0.7-0.3-1.1-0.3c-0.7,0-1.3,0.3-1.8,0.8
		s-0.7,1.2-0.7,2c0,0.9,0.2,1.5,0.7,2c0.5,0.5,1,0.7,1.6,0.7c0.3,0,0.5,0,0.7-0.1c0.4-0.1,0.7-0.3,1-0.5c0.2-0.1,0.3-0.3,0.4-0.6
		c0.1-0.2,0.2-0.5,0.2-0.6h-0.9c-0.1,0.2-0.2,0.4-0.3,0.6c-0.3,0.3-0.6,0.5-1.1,0.5c-0.5,0-0.8-0.2-1.1-0.5s-0.4-0.7-0.4-1.3h3.8
		C202,40.1,202,39.8,202,39.5z M198.3,40c0-0.4,0.2-0.8,0.4-1.1c0.3-0.3,0.6-0.4,1-0.4c0.6,0,1,0.2,1.2,0.6c0.1,0.2,0.2,0.5,0.2,0.9
		H198.3z"/>
	<path d="M203.8,36.3v1.5h-0.7v0.7h0.7V42c0,0.3,0.1,0.6,0.2,0.8c0.1,0.2,0.4,0.3,0.8,0.3c0.1,0,0.2,0,0.4,0s0.2,0,0.3-0.1v-0.7
		l-0.2,0l-0.1,0c-0.2,0-0.3,0-0.3-0.1c-0.1-0.1-0.2-0.2-0.2-0.4v-3.4h0.8v-0.7h-0.8v-1.5H203.8z"/>
	<path d="M206.6,37.8V43h0.9v-3c0-0.4,0.1-0.7,0.4-1c0.2-0.3,0.6-0.4,1-0.4l0.1,0l0.1,0v-0.9c-0.1,0-0.2,0-0.2,0l-0.1,0
		c-0.3,0-0.7,0.1-0.9,0.4c-0.3,0.3-0.4,0.5-0.5,0.6v-0.9H206.6z"/>
	<rect x="209.6" y="35.8" width="0.9" height="1"/>
	<rect x="209.6" y="37.8" width="0.9" height="5.2"/>
	<path d="M220.1,40.4c-0.2-0.1-0.6-0.3-1.3-0.4l-0.6-0.1c-0.3-0.1-0.5-0.1-0.6-0.2c-0.2-0.1-0.3-0.3-0.3-0.5c0-0.2,0.1-0.4,0.3-0.5
		c0.2-0.1,0.4-0.2,0.8-0.2c0.5,0,0.9,0.1,1.1,0.3c0.1,0.2,0.2,0.3,0.2,0.5h0.8c0-0.3-0.1-0.7-0.3-0.9c-0.4-0.5-0.9-0.7-1.7-0.7
		c-0.6,0-1.1,0.2-1.5,0.5c-0.4,0.3-0.5,0.7-0.5,1.2c0,0.4,0.2,0.7,0.6,1c0.2,0.1,0.5,0.3,1,0.4l0.7,0.2c0.4,0.1,0.6,0.2,0.8,0.2
		c0.2,0.1,0.3,0.3,0.3,0.5c0,0.3-0.1,0.5-0.4,0.7c-0.3,0.1-0.5,0.2-0.9,0.2c-0.6,0-1-0.1-1.2-0.4c-0.1-0.2-0.2-0.4-0.2-0.7h-0.8
		c0,0.5,0.2,1,0.5,1.3c0.3,0.4,0.9,0.5,1.7,0.5c0.7,0,1.3-0.2,1.6-0.5s0.5-0.7,0.5-1.2C220.6,41,220.5,40.7,220.1,40.4z"/>
	<path d="M213.6,38.4c0.4,0,0.7,0.1,0.9,0.3c0.2,0.2,0.3,0.5,0.4,0.8h0.9c-0.1-0.7-0.3-1.2-0.7-1.5s-0.8-0.4-1.4-0.4
		c-0.7,0-1.3,0.3-1.7,0.8c-0.4,0.5-0.7,1.2-0.7,2.1c0,0.7,0.2,1.4,0.6,1.9c0.4,0.5,1,0.7,1.6,0.7c0.6,0,1.1-0.2,1.5-0.5
		c0.4-0.3,0.6-0.8,0.7-1.5h-0.9c-0.1,0.4-0.2,0.7-0.4,0.9c-0.2,0.2-0.5,0.3-0.9,0.3c-0.5,0-0.8-0.2-1-0.5c-0.2-0.4-0.3-0.8-0.3-1.3
		c0-0.5,0.1-1,0.2-1.3C212.6,38.7,213,38.4,213.6,38.4z"/>
</g>
<g>
	<path fill="none" d="M170.7,60.4c-0.4,0-0.7,0.1-1,0.4c-0.3,0.3-0.4,0.7-0.4,1.1h2.9c0-0.4-0.1-0.7-0.2-0.9
		C171.7,60.6,171.3,60.4,170.7,60.4z"/>
	<path fill="none" d="M198.9,62.6l-0.5,0.1c-0.3,0-0.6,0.1-0.7,0.2c-0.3,0.2-0.4,0.4-0.4,0.7c0,0.3,0.1,0.5,0.3,0.6
		c0.2,0.1,0.4,0.2,0.7,0.2c0.3,0,0.6-0.1,0.9-0.2c0.5-0.2,0.7-0.6,0.7-1.2v-0.7c-0.1,0.1-0.2,0.1-0.4,0.2
		C199.3,62.6,199.1,62.6,198.9,62.6z"/>
	<path fill="none" d="M184.6,60.9c-0.3-0.3-0.6-0.5-1-0.5c-0.6,0-1,0.3-1.3,0.9c-0.1,0.3-0.2,0.7-0.2,1.2c0,0.6,0.1,1,0.4,1.3
		c0.2,0.3,0.6,0.5,1,0.5c0.6,0,1.1-0.3,1.3-0.9c0.1-0.3,0.2-0.7,0.2-1.1C185,61.7,184.9,61.2,184.6,60.9z"/>
	<path fill="none" d="M164.7,60.4c-0.4,0-0.8,0.2-1.1,0.5c-0.3,0.3-0.4,0.8-0.4,1.5c0,0.6,0.1,1,0.4,1.4s0.6,0.6,1.1,0.6
		c0.4,0,0.7-0.2,1-0.5c0.3-0.4,0.4-0.9,0.4-1.5c0-0.7-0.1-1.1-0.4-1.5C165.4,60.6,165.1,60.4,164.7,60.4z"/>
	<polygon fill="none" points="152.4,58.9 151.2,62.1 153.5,62.1 	"/>
	<path fill="none" d="M210.9,62.6l-0.5,0.1c-0.3,0-0.6,0.1-0.7,0.2c-0.3,0.2-0.4,0.4-0.4,0.7c0,0.3,0.1,0.5,0.3,0.6
		c0.2,0.1,0.4,0.2,0.7,0.2c0.3,0,0.6-0.1,0.9-0.2c0.5-0.2,0.7-0.6,0.7-1.2v-0.7c-0.1,0.1-0.2,0.1-0.4,0.2S211.1,62.6,210.9,62.6z"/>
	<rect x="143.4" y="61.8" width="2.5" height="0.9"/>
	<path d="M153.7,62.9l0.7,2.1h1.1l-2.6-7.2h-1.1l-2.7,7.2h1l0.8-2.1H153.7z M152.4,58.9l1.1,3.2h-2.3L152.4,58.9z"/>
	<rect x="157" y="57.8" width="1" height="7.2"/>
	<path d="M166.9,65v-7.2H166v2.6c-0.2-0.2-0.4-0.4-0.5-0.5c-0.3-0.2-0.6-0.3-1-0.3c-0.7,0-1.3,0.3-1.7,0.8c-0.4,0.6-0.6,1.2-0.6,2
		c0,0.8,0.2,1.5,0.6,2c0.4,0.5,0.9,0.7,1.5,0.7c0.4,0,0.7-0.1,1-0.2c0.3-0.1,0.5-0.4,0.7-0.7V65H166.9z M165.7,63.9
		c-0.3,0.3-0.6,0.5-1,0.5c-0.5,0-0.9-0.2-1.1-0.6s-0.4-0.8-0.4-1.4c0-0.7,0.1-1.2,0.4-1.5c0.3-0.3,0.6-0.5,1.1-0.5
		c0.4,0,0.7,0.2,1,0.5c0.3,0.3,0.4,0.8,0.4,1.5C166.1,63,165.9,63.5,165.7,63.9z"/>
	<path d="M173,61.5c-0.1-0.4-0.2-0.7-0.3-0.9c-0.2-0.3-0.4-0.5-0.8-0.7c-0.3-0.2-0.7-0.3-1.1-0.3c-0.7,0-1.3,0.3-1.8,0.8
		c-0.5,0.5-0.7,1.2-0.7,2c0,0.9,0.2,1.5,0.7,2c0.4,0.5,1,0.7,1.6,0.7c0.3,0,0.5,0,0.7-0.1c0.4-0.1,0.7-0.3,1-0.5
		c0.2-0.1,0.3-0.3,0.4-0.6c0.1-0.2,0.2-0.5,0.2-0.6h-0.9c-0.1,0.2-0.2,0.4-0.3,0.6c-0.3,0.3-0.6,0.5-1.1,0.5c-0.5,0-0.8-0.2-1.1-0.5
		s-0.4-0.7-0.4-1.3h3.8C173.1,62.1,173.1,61.8,173,61.5z M169.3,62c0-0.4,0.2-0.8,0.4-1.1c0.3-0.3,0.6-0.4,1-0.4
		c0.6,0,1,0.2,1.2,0.6c0.1,0.2,0.2,0.5,0.2,0.9H169.3z"/>
	<path d="M177.4,64.2c-0.3,0.1-0.5,0.2-0.9,0.2c-0.6,0-1-0.1-1.2-0.4c-0.1-0.2-0.2-0.4-0.2-0.7h-0.8c0,0.5,0.2,1,0.5,1.3
		c0.3,0.4,0.9,0.5,1.7,0.5c0.7,0,1.3-0.2,1.6-0.5s0.5-0.7,0.5-1.2c0-0.5-0.2-0.8-0.5-1.1c-0.2-0.1-0.7-0.3-1.3-0.4l-0.6-0.1
		c-0.3-0.1-0.5-0.1-0.6-0.2c-0.2-0.1-0.3-0.3-0.3-0.5c0-0.2,0.1-0.4,0.3-0.5c0.2-0.1,0.4-0.2,0.8-0.2c0.5,0,0.9,0.1,1.1,0.3
		c0.1,0.2,0.2,0.3,0.2,0.5h0.8c0-0.3-0.1-0.7-0.3-0.9c-0.4-0.5-0.9-0.7-1.7-0.7c-0.6,0-1.1,0.2-1.5,0.5c-0.4,0.3-0.5,0.7-0.5,1.2
		c0,0.4,0.2,0.7,0.6,1c0.2,0.1,0.5,0.3,1,0.4l0.7,0.2c0.4,0.1,0.6,0.2,0.8,0.2c0.2,0.1,0.3,0.3,0.3,0.5
		C177.8,63.9,177.7,64.1,177.4,64.2z"/>
	<rect x="179.6" y="57.8" width="0.9" height="1"/>
	<rect x="179.6" y="59.8" width="0.9" height="5.2"/>
	<path d="M187.6,59.8V65h0.9v-2.7c0-0.3,0-0.6,0.1-0.8c0-0.2,0.1-0.4,0.3-0.5c0.2-0.2,0.4-0.4,0.6-0.4c0.1,0,0.3-0.1,0.5-0.1
		c0.4,0,0.7,0.2,0.8,0.5c0.1,0.2,0.1,0.5,0.1,0.8V65h0.9v-3.4c0-0.5-0.1-0.9-0.2-1.2c-0.3-0.5-0.8-0.8-1.5-0.8
		c-0.3,0-0.6,0.1-0.9,0.2s-0.5,0.4-0.8,0.7v-0.7H187.6z"/>
	<path d="M185.6,66.1c0.2-0.4,0.3-0.9,0.3-1.6v-4.8H185v0.7c-0.2-0.2-0.3-0.4-0.5-0.5c-0.3-0.2-0.7-0.3-1.1-0.3
		c-0.6,0-1.1,0.2-1.5,0.7c-0.4,0.5-0.6,1.2-0.6,2.1c0,0.9,0.2,1.6,0.6,2c0.4,0.4,0.9,0.6,1.5,0.6c0.4,0,0.7-0.1,1-0.2
		s0.5-0.3,0.6-0.6c0,0.7,0,1.2-0.2,1.5c-0.2,0.5-0.6,0.7-1.3,0.7c-0.4,0-0.7-0.1-0.9-0.3c-0.1-0.1-0.2-0.3-0.3-0.5h-0.9
		c0,0.5,0.3,0.9,0.6,1.2c0.1,0.1,0.2,0.1,0.4,0.2h2.2C185,66.8,185.3,66.6,185.6,66.1z M184.8,63.5c-0.3,0.6-0.7,0.9-1.3,0.9
		c-0.4,0-0.7-0.2-1-0.5c-0.2-0.3-0.4-0.8-0.4-1.3c0-0.5,0.1-0.9,0.2-1.2c0.2-0.6,0.6-0.9,1.3-0.9c0.4,0,0.7,0.2,1,0.5
		s0.4,0.8,0.4,1.4C185,62.8,185,63.2,184.8,63.5z"/>
	<path d="M211.4,61.8L210,62c-0.5,0.1-0.9,0.2-1.2,0.5s-0.5,0.6-0.5,1.1c0,0.4,0.2,0.8,0.5,1.1c0.3,0.3,0.7,0.4,1.2,0.4
		c0.4,0,0.8-0.1,1.1-0.3s0.6-0.4,0.8-0.6c0,0.2,0.1,0.4,0.2,0.5c0.1,0.2,0.4,0.3,0.7,0.3c0.1,0,0.2,0,0.3,0s0.2,0,0.3-0.1v-0.6
		l-0.2,0l-0.1,0c-0.1,0-0.2,0-0.2-0.1c0-0.1-0.1-0.1-0.1-0.2v-3c0-0.5-0.2-0.9-0.6-1.1c-0.4-0.2-0.9-0.4-1.5-0.4
		c-0.5,0-1,0.1-1.4,0.4c-0.4,0.3-0.6,0.7-0.6,1.3h0.8c0-0.3,0.1-0.5,0.2-0.6c0.2-0.2,0.5-0.4,1-0.4c0.4,0,0.7,0.1,0.9,0.2
		s0.3,0.4,0.3,0.7c0,0.1,0,0.3-0.1,0.3C211.7,61.7,211.6,61.8,211.4,61.8z M211.8,63c0,0.5-0.2,0.9-0.7,1.2
		c-0.3,0.1-0.6,0.2-0.9,0.2c-0.3,0-0.5-0.1-0.7-0.2c-0.2-0.1-0.3-0.3-0.3-0.6c0-0.3,0.1-0.6,0.4-0.7c0.2-0.1,0.4-0.2,0.7-0.2
		l0.5-0.1c0.2,0,0.3-0.1,0.5-0.1s0.3-0.1,0.4-0.2V63z"/>
	<path d="M202.6,59.8V65h0.9v-2.7c0-0.3,0-0.6,0.1-0.8c0-0.2,0.1-0.4,0.3-0.5c0.2-0.2,0.4-0.4,0.6-0.4c0.1,0,0.3-0.1,0.5-0.1
		c0.4,0,0.7,0.2,0.8,0.5c0.1,0.2,0.1,0.5,0.1,0.8V65h0.9v-3.4c0-0.5-0.1-0.9-0.2-1.2c-0.3-0.5-0.8-0.8-1.5-0.8
		c-0.3,0-0.6,0.1-0.9,0.2c-0.3,0.1-0.5,0.4-0.8,0.7v-0.7H202.6z"/>
	<path d="M199.4,61.8L198,62c-0.5,0.1-0.9,0.2-1.2,0.5s-0.5,0.6-0.5,1.1c0,0.4,0.2,0.8,0.5,1.1s0.7,0.4,1.2,0.4
		c0.4,0,0.8-0.1,1.1-0.3c0.3-0.2,0.6-0.4,0.8-0.6c0,0.2,0.1,0.4,0.2,0.5c0.1,0.2,0.4,0.3,0.7,0.3c0.1,0,0.2,0,0.3,0
		c0.1,0,0.2,0,0.3-0.1v-0.6l-0.2,0l-0.1,0c-0.1,0-0.2,0-0.2-0.1c0-0.1-0.1-0.1-0.1-0.2v-3c0-0.5-0.2-0.9-0.6-1.1
		c-0.4-0.2-0.9-0.4-1.5-0.4c-0.5,0-1,0.1-1.4,0.4c-0.4,0.3-0.6,0.7-0.6,1.3h0.8c0-0.3,0.1-0.5,0.2-0.6c0.2-0.2,0.5-0.4,1-0.4
		c0.4,0,0.7,0.1,0.9,0.2s0.3,0.4,0.3,0.7c0,0.1,0,0.3-0.1,0.3C199.7,61.7,199.6,61.8,199.4,61.8z M199.8,63c0,0.5-0.2,0.9-0.7,1.2
		c-0.3,0.1-0.6,0.2-0.9,0.2c-0.3,0-0.5-0.1-0.7-0.2c-0.2-0.1-0.3-0.3-0.3-0.6c0-0.3,0.1-0.6,0.4-0.7c0.2-0.1,0.4-0.2,0.7-0.2
		l0.5-0.1c0.2,0,0.3-0.1,0.5-0.1c0.2,0,0.3-0.1,0.4-0.2V63z"/>
	<rect x="214.6" y="57.8" width="0.9" height="7.2"/>
	<path d="M217.6,66.1l-0.2,0.2c-0.1,0.1-0.2,0.1-0.4,0.1l-0.2,0c-0.1,0-0.2,0-0.3-0.1V67h1.2c0.2-0.1,0.3-0.2,0.4-0.3
		c0.2-0.3,0.6-1.1,1.1-2.4c0.2-0.6,0.5-1.3,0.8-2.2c0.4-1.2,0.7-2,0.8-2.3h-1l-1.4,4.3l-1.4-4.3h-1l1.9,5.4c0,0.1-0.1,0.3-0.2,0.5
		S217.6,66.1,217.6,66.1z"/>
	<path d="M221.8,58.3v1.5H221v0.7h0.7V64c0,0.3,0.1,0.6,0.2,0.8c0.1,0.2,0.4,0.3,0.8,0.3c0.1,0,0.2,0,0.4,0c0.1,0,0.2,0,0.3-0.1
		v-0.7l-0.2,0l-0.1,0c-0.2,0-0.3,0-0.3-0.1c-0.1-0.1-0.2-0.2-0.2-0.4v-3.4h0.8v-0.7h-0.8v-1.5H221.8z"/>
	<rect x="224.6" y="57.8" width="0.9" height="1"/>
	<rect x="224.6" y="59.8" width="0.9" height="5.2"/>
	<path d="M235.1,62.4c-0.2-0.1-0.7-0.3-1.3-0.4l-0.6-0.1c-0.3-0.1-0.5-0.1-0.6-0.2c-0.2-0.1-0.3-0.3-0.3-0.5c0-0.2,0.1-0.4,0.3-0.5
		c0.2-0.1,0.4-0.2,0.8-0.2c0.5,0,0.9,0.1,1.1,0.3c0.1,0.2,0.2,0.3,0.2,0.5h0.8c0-0.3-0.1-0.7-0.3-0.9c-0.4-0.5-0.9-0.7-1.7-0.7
		c-0.6,0-1.1,0.2-1.5,0.5c-0.4,0.3-0.5,0.7-0.5,1.2c0,0.4,0.2,0.7,0.6,1c0.2,0.1,0.5,0.3,1,0.4l0.7,0.2c0.4,0.1,0.6,0.2,0.8,0.2
		c0.2,0.1,0.3,0.3,0.3,0.5c0,0.3-0.1,0.5-0.4,0.7c-0.3,0.1-0.5,0.2-0.9,0.2c-0.6,0-1-0.1-1.2-0.4c-0.1-0.2-0.2-0.4-0.2-0.7h-0.8
		c0,0.5,0.2,1,0.5,1.3c0.3,0.4,0.9,0.5,1.7,0.5c0.7,0,1.3-0.2,1.6-0.5s0.5-0.7,0.5-1.2C235.6,63,235.5,62.7,235.1,62.4z"/>
	<path d="M228.6,60.4c0.4,0,0.7,0.1,0.9,0.3c0.2,0.2,0.3,0.5,0.4,0.8h0.9c-0.1-0.7-0.3-1.2-0.7-1.5c-0.4-0.3-0.8-0.4-1.4-0.4
		c-0.7,0-1.3,0.3-1.7,0.8s-0.7,1.2-0.7,2.1c0,0.7,0.2,1.4,0.6,1.9c0.4,0.5,1,0.7,1.6,0.7c0.6,0,1.1-0.2,1.5-0.5
		c0.4-0.3,0.6-0.8,0.7-1.5h-0.9c-0.1,0.4-0.2,0.7-0.4,0.9c-0.2,0.2-0.5,0.3-0.9,0.3c-0.5,0-0.8-0.2-1-0.5c-0.2-0.4-0.3-0.8-0.3-1.3
		c0-0.5,0.1-1,0.2-1.3C227.6,60.7,228,60.4,228.6,60.4z"/>
</g>
<g>
	<path fill="none" d="M176.6,82.9c-0.3-0.3-0.6-0.5-1-0.5c-0.6,0-1,0.3-1.3,0.9c-0.1,0.3-0.2,0.7-0.2,1.2c0,0.6,0.1,1,0.4,1.3
		c0.2,0.3,0.6,0.5,1,0.5c0.6,0,1.1-0.3,1.3-0.9c0.1-0.3,0.2-0.7,0.2-1.1C177,83.7,176.9,83.2,176.6,82.9z"/>
	<path fill="none" d="M181.7,82.4c-0.4,0-0.7,0.1-1,0.4c-0.3,0.3-0.4,0.7-0.4,1.1h2.9c0-0.4-0.1-0.7-0.2-0.9
		C182.7,82.6,182.3,82.4,181.7,82.4z"/>
	<path fill="none" d="M213.9,84.6l-0.5,0.1c-0.3,0-0.6,0.1-0.7,0.2c-0.3,0.2-0.4,0.4-0.4,0.7c0,0.3,0.1,0.5,0.3,0.6
		c0.2,0.1,0.4,0.2,0.7,0.2c0.3,0,0.6-0.1,0.9-0.2c0.5-0.2,0.7-0.6,0.7-1.2v-0.7c-0.1,0.1-0.2,0.1-0.4,0.2S214.1,84.6,213.9,84.6z"/>
	<path fill="none" d="M164.6,82.9c-0.3-0.3-0.6-0.5-1-0.5c-0.6,0-1,0.3-1.3,0.9c-0.1,0.3-0.2,0.7-0.2,1.2c0,0.6,0.1,1,0.4,1.3
		c0.2,0.3,0.6,0.5,1,0.5c0.6,0,1.1-0.3,1.3-0.9c0.1-0.3,0.2-0.7,0.2-1.1C165,83.7,164.9,83.2,164.6,82.9z"/>
	<path fill="none" d="M169.9,84.6l-0.5,0.1c-0.3,0-0.6,0.1-0.7,0.2c-0.3,0.2-0.4,0.4-0.4,0.7c0,0.3,0.1,0.5,0.3,0.6
		c0.2,0.1,0.4,0.2,0.7,0.2c0.3,0,0.6-0.1,0.9-0.2c0.5-0.2,0.7-0.6,0.7-1.2v-0.7c-0.1,0.1-0.2,0.1-0.4,0.2
		C170.3,84.6,170.1,84.6,169.9,84.6z"/>
	<path fill="none" d="M151.7,82.4c-0.4,0-0.7,0.1-1,0.4c-0.3,0.3-0.4,0.7-0.4,1.1h2.9c0-0.4-0.1-0.7-0.2-0.9
		C152.7,82.6,152.3,82.4,151.7,82.4z"/>
	<path fill="none" d="M195.7,82.4c-0.4,0-0.7,0.1-1,0.4c-0.3,0.3-0.4,0.7-0.4,1.1h2.9c0-0.4-0.1-0.7-0.2-0.9
		C196.6,82.6,196.3,82.4,195.7,82.4z"/>
	<path fill="none" d="M225.9,84.6l-0.5,0.1c-0.3,0-0.6,0.1-0.7,0.2c-0.3,0.2-0.4,0.4-0.4,0.7c0,0.3,0.1,0.5,0.3,0.6
		c0.2,0.1,0.4,0.2,0.7,0.2c0.3,0,0.6-0.1,0.9-0.2c0.5-0.2,0.7-0.6,0.7-1.2v-0.7c-0.1,0.1-0.2,0.1-0.4,0.2
		C226.2,84.6,226,84.6,225.9,84.6z"/>
	<rect x="143.4" y="83.8" width="2.5" height="0.9"/>
	<path d="M177.5,88.1c0.2-0.4,0.3-0.9,0.3-1.6v-4.8H177v0.7c-0.2-0.2-0.3-0.4-0.5-0.5c-0.3-0.2-0.7-0.3-1.1-0.3
		c-0.6,0-1.1,0.2-1.5,0.7s-0.6,1.2-0.6,2.1c0,0.9,0.2,1.6,0.6,2c0.4,0.4,0.9,0.6,1.5,0.6c0.4,0,0.7-0.1,1-0.2
		c0.2-0.1,0.5-0.3,0.6-0.6c0,0.7,0,1.2-0.2,1.5c-0.2,0.5-0.6,0.7-1.3,0.7c-0.4,0-0.7-0.1-0.9-0.3c-0.1-0.1-0.2-0.3-0.3-0.5h-0.9
		c0,0.5,0.3,0.9,0.6,1.2c0.1,0.1,0.2,0.1,0.4,0.2h2.2C177,88.8,177.3,88.6,177.5,88.1z M176.8,85.5c-0.3,0.6-0.7,0.9-1.3,0.9
		c-0.4,0-0.7-0.2-1-0.5c-0.2-0.3-0.4-0.8-0.4-1.3c0-0.5,0.1-0.9,0.2-1.2c0.2-0.6,0.6-0.9,1.3-0.9c0.4,0,0.7,0.2,1,0.5
		s0.4,0.8,0.4,1.4C177,84.8,176.9,85.2,176.8,85.5z"/>
	<path d="M165.6,88.1c0.2-0.4,0.3-0.9,0.3-1.6v-4.8H165v0.7c-0.2-0.2-0.3-0.4-0.5-0.5c-0.3-0.2-0.7-0.3-1.1-0.3
		c-0.6,0-1.1,0.2-1.5,0.7c-0.4,0.5-0.6,1.2-0.6,2.1c0,0.9,0.2,1.6,0.6,2c0.4,0.4,0.9,0.6,1.5,0.6c0.4,0,0.7-0.1,1-0.2
		s0.5-0.3,0.6-0.6c0,0.7,0,1.2-0.2,1.5c-0.2,0.5-0.6,0.7-1.3,0.7c-0.4,0-0.7-0.1-0.9-0.3c-0.1-0.1-0.2-0.3-0.3-0.5h-0.9
		c0,0.5,0.3,0.9,0.6,1.2c0.1,0.1,0.2,0.1,0.4,0.2h2.2C165,88.8,165.4,88.6,165.6,88.1z M164.8,85.5c-0.3,0.6-0.7,0.9-1.3,0.9
		c-0.4,0-0.7-0.2-1-0.5c-0.2-0.3-0.4-0.8-0.4-1.3c0-0.5,0.1-0.9,0.2-1.2c0.2-0.6,0.6-0.9,1.3-0.9c0.4,0,0.7,0.2,1,0.5
		s0.4,0.8,0.4,1.4C165,84.8,165,85.2,164.8,85.5z"/>
	<path d="M184,83.5c-0.1-0.4-0.2-0.7-0.3-0.9c-0.2-0.3-0.4-0.5-0.8-0.7c-0.3-0.2-0.7-0.3-1.1-0.3c-0.7,0-1.3,0.3-1.8,0.8
		s-0.7,1.2-0.7,2c0,0.9,0.2,1.5,0.7,2c0.5,0.5,1,0.7,1.6,0.7c0.3,0,0.5,0,0.7-0.1c0.4-0.1,0.7-0.3,1-0.5c0.2-0.1,0.3-0.3,0.4-0.6
		c0.1-0.2,0.2-0.5,0.2-0.6h-0.9c-0.1,0.2-0.2,0.4-0.3,0.6c-0.3,0.3-0.6,0.5-1.1,0.5c-0.5,0-0.8-0.2-1.1-0.5s-0.4-0.7-0.4-1.3h3.8
		C184,84.1,184,83.8,184,83.5z M180.3,84c0-0.4,0.2-0.8,0.4-1.1c0.3-0.3,0.6-0.4,1-0.4c0.6,0,1,0.2,1.2,0.6c0.1,0.2,0.2,0.5,0.2,0.9
		H180.3z"/>
	<path d="M154,83.5c-0.1-0.4-0.2-0.7-0.3-0.9c-0.2-0.3-0.4-0.5-0.8-0.7c-0.3-0.2-0.7-0.3-1.1-0.3c-0.7,0-1.3,0.3-1.8,0.8
		c-0.5,0.5-0.7,1.2-0.7,2c0,0.9,0.2,1.5,0.7,2c0.4,0.5,1,0.7,1.6,0.7c0.3,0,0.5,0,0.7-0.1c0.4-0.1,0.7-0.3,1-0.5
		c0.2-0.1,0.3-0.3,0.4-0.6c0.1-0.2,0.2-0.5,0.2-0.6h-0.9c-0.1,0.2-0.2,0.4-0.3,0.6c-0.3,0.3-0.6,0.5-1.1,0.5c-0.5,0-0.8-0.2-1.1-0.5
		s-0.4-0.7-0.4-1.3h3.8C154.1,84.1,154.1,83.8,154,83.5z M150.3,84c0-0.4,0.2-0.8,0.4-1.1c0.3-0.3,0.6-0.4,1-0.4
		c0.6,0,1,0.2,1.2,0.6c0.1,0.2,0.2,0.5,0.2,0.9H150.3z"/>
	<path d="M170.4,83.8L169,84c-0.5,0.1-0.9,0.2-1.2,0.5s-0.5,0.6-0.5,1.1c0,0.4,0.2,0.8,0.5,1.1s0.7,0.4,1.2,0.4
		c0.4,0,0.8-0.1,1.1-0.3c0.3-0.2,0.6-0.4,0.8-0.6c0,0.2,0.1,0.4,0.2,0.5c0.1,0.2,0.4,0.3,0.7,0.3c0.1,0,0.2,0,0.3,0
		c0.1,0,0.2,0,0.3-0.1v-0.6l-0.2,0l-0.1,0c-0.1,0-0.2,0-0.2-0.1c0-0.1-0.1-0.1-0.1-0.2v-3c0-0.5-0.2-0.9-0.6-1.1
		c-0.4-0.2-0.9-0.4-1.5-0.4c-0.5,0-1,0.1-1.4,0.4c-0.4,0.3-0.6,0.7-0.6,1.3h0.8c0-0.3,0.1-0.5,0.2-0.6c0.2-0.2,0.5-0.4,1-0.4
		c0.4,0,0.7,0.1,0.9,0.2s0.3,0.4,0.3,0.7c0,0.1,0,0.3-0.1,0.3C170.8,83.7,170.6,83.8,170.4,83.8z M170.9,85c0,0.5-0.2,0.9-0.7,1.2
		c-0.3,0.1-0.6,0.2-0.9,0.2c-0.3,0-0.5-0.1-0.7-0.2c-0.2-0.1-0.3-0.3-0.3-0.6c0-0.3,0.1-0.6,0.4-0.7c0.2-0.1,0.4-0.2,0.7-0.2
		l0.5-0.1c0.2,0,0.3-0.1,0.5-0.1c0.2,0,0.3-0.1,0.4-0.2V85z"/>
	<path d="M155.6,81.8V87h0.9v-2.7c0-0.3,0-0.6,0.1-0.8c0-0.2,0.1-0.4,0.3-0.5c0.2-0.2,0.4-0.4,0.6-0.4c0.1,0,0.3-0.1,0.5-0.1
		c0.4,0,0.7,0.2,0.8,0.5c0.1,0.2,0.1,0.5,0.1,0.8V87h0.9v-3.4c0-0.5-0.1-0.9-0.2-1.2c-0.3-0.5-0.8-0.8-1.5-0.8
		c-0.3,0-0.6,0.1-0.9,0.2s-0.5,0.4-0.8,0.7v-0.7H155.6z"/>
	<path d="M185.6,81.8V87h0.9v-2.8c0-0.7,0.1-1.1,0.4-1.4s0.6-0.4,0.9-0.4c0.4,0,0.6,0.1,0.7,0.4c0.1,0.2,0.1,0.4,0.1,0.8V87h0.9v-3
		c0-0.5,0.1-0.9,0.4-1.2s0.5-0.3,0.9-0.3c0.3,0,0.5,0.1,0.6,0.2s0.3,0.4,0.3,0.7V87h0.9v-3.5c0-0.5-0.1-0.8-0.2-1.1
		c-0.3-0.5-0.7-0.8-1.4-0.8c-0.3,0-0.6,0.1-0.9,0.2c-0.3,0.1-0.5,0.3-0.7,0.6c-0.1-0.2-0.2-0.4-0.4-0.5c-0.3-0.2-0.6-0.3-1-0.3
		c-0.4,0-0.7,0.1-1,0.3c-0.2,0.1-0.4,0.3-0.6,0.6v-0.7H185.6z"/>
	<path d="M198,83.5c-0.1-0.4-0.2-0.7-0.3-0.9c-0.2-0.3-0.4-0.5-0.8-0.7c-0.3-0.2-0.7-0.3-1.1-0.3c-0.7,0-1.3,0.3-1.8,0.8
		c-0.5,0.5-0.7,1.2-0.7,2c0,0.9,0.2,1.5,0.7,2c0.4,0.5,1,0.7,1.6,0.7c0.3,0,0.5,0,0.7-0.1c0.4-0.1,0.7-0.3,1-0.5
		c0.2-0.1,0.3-0.3,0.4-0.6c0.1-0.2,0.2-0.5,0.2-0.6h-0.9c-0.1,0.2-0.2,0.4-0.3,0.6c-0.3,0.3-0.6,0.5-1.1,0.5c-0.5,0-0.8-0.2-1.1-0.5
		s-0.4-0.7-0.4-1.3h3.8C198,84.1,198,83.8,198,83.5z M194.3,84c0-0.4,0.2-0.8,0.4-1.1c0.3-0.3,0.6-0.4,1-0.4c0.6,0,1,0.2,1.2,0.6
		c0.1,0.2,0.2,0.5,0.2,0.9H194.3z"/>
	<path d="M199.6,81.8V87h0.9v-2.7c0-0.3,0-0.6,0.1-0.8c0-0.2,0.1-0.4,0.3-0.5c0.2-0.2,0.4-0.4,0.6-0.4c0.1,0,0.3-0.1,0.5-0.1
		c0.4,0,0.7,0.2,0.8,0.5c0.1,0.2,0.1,0.5,0.1,0.8V87h0.9v-3.4c0-0.5-0.1-0.9-0.2-1.2c-0.3-0.5-0.8-0.8-1.5-0.8
		c-0.3,0-0.6,0.1-0.9,0.2s-0.5,0.4-0.8,0.7v-0.7H199.6z"/>
	<path d="M205.8,80.3v1.5H205v0.7h0.7V86c0,0.3,0.1,0.6,0.2,0.8c0.1,0.2,0.4,0.3,0.8,0.3c0.1,0,0.2,0,0.4,0s0.2,0,0.3-0.1v-0.7
		l-0.2,0l-0.1,0c-0.2,0-0.3,0-0.3-0.1c-0.1-0.1-0.2-0.2-0.2-0.4v-3.4h0.8v-0.7h-0.8v-1.5H205.8z"/>
	<path d="M214.4,83.8L213,84c-0.5,0.1-0.9,0.2-1.2,0.5s-0.5,0.6-0.5,1.1c0,0.4,0.2,0.8,0.5,1.1c0.3,0.3,0.7,0.4,1.2,0.4
		c0.4,0,0.8-0.1,1.1-0.3s0.6-0.4,0.8-0.6c0,0.2,0.1,0.4,0.2,0.5c0.1,0.2,0.4,0.3,0.7,0.3c0.1,0,0.2,0,0.3,0s0.2,0,0.3-0.1v-0.6
		l-0.2,0l-0.1,0c-0.1,0-0.2,0-0.2-0.1c0-0.1-0.1-0.1-0.1-0.2v-3c0-0.5-0.2-0.9-0.6-1.1c-0.4-0.2-0.9-0.4-1.5-0.4
		c-0.5,0-1,0.1-1.4,0.4c-0.4,0.3-0.6,0.7-0.6,1.3h0.8c0-0.3,0.1-0.5,0.2-0.6c0.2-0.2,0.5-0.4,1-0.4c0.4,0,0.7,0.1,0.9,0.2
		s0.3,0.4,0.3,0.7c0,0.1,0,0.3-0.1,0.3C214.7,83.7,214.6,83.8,214.4,83.8z M214.8,85c0,0.5-0.2,0.9-0.7,1.2
		c-0.3,0.1-0.6,0.2-0.9,0.2c-0.3,0-0.5-0.1-0.7-0.2c-0.2-0.1-0.3-0.3-0.3-0.6c0-0.3,0.1-0.6,0.4-0.7c0.2-0.1,0.4-0.2,0.7-0.2
		l0.5-0.1c0.2,0,0.3-0.1,0.5-0.1s0.3-0.1,0.4-0.2V85z"/>
	<path d="M226.4,83.8L225,84c-0.5,0.1-0.9,0.2-1.2,0.5s-0.5,0.6-0.5,1.1c0,0.4,0.2,0.8,0.5,1.1s0.7,0.4,1.2,0.4
		c0.4,0,0.8-0.1,1.1-0.3c0.3-0.2,0.6-0.4,0.8-0.6c0,0.2,0.1,0.4,0.2,0.5c0.1,0.2,0.4,0.3,0.7,0.3c0.1,0,0.2,0,0.3,0
		c0.1,0,0.2,0,0.3-0.1v-0.6l-0.2,0l-0.1,0c-0.1,0-0.2,0-0.2-0.1c0-0.1-0.1-0.1-0.1-0.2v-3c0-0.5-0.2-0.9-0.6-1.1
		c-0.4-0.2-0.9-0.4-1.5-0.4c-0.5,0-1,0.1-1.4,0.4c-0.4,0.3-0.6,0.7-0.6,1.3h0.8c0-0.3,0.1-0.5,0.2-0.6c0.2-0.2,0.5-0.4,1-0.4
		c0.4,0,0.7,0.1,0.9,0.2s0.3,0.4,0.3,0.7c0,0.1,0,0.3-0.1,0.3C226.7,83.7,226.6,83.8,226.4,83.8z M226.8,85c0,0.5-0.2,0.9-0.7,1.2
		c-0.3,0.1-0.6,0.2-0.9,0.2c-0.3,0-0.5-0.1-0.7-0.2c-0.2-0.1-0.3-0.3-0.3-0.6c0-0.3,0.1-0.6,0.4-0.7c0.2-0.1,0.4-0.2,0.7-0.2
		l0.5-0.1c0.2,0,0.3-0.1,0.5-0.1c0.2,0,0.3-0.1,0.4-0.2V85z"/>
	<path d="M217.6,81.8V87h0.9v-2.7c0-0.3,0-0.6,0.1-0.8c0-0.2,0.1-0.4,0.3-0.5c0.2-0.2,0.4-0.4,0.6-0.4c0.1,0,0.3-0.1,0.5-0.1
		c0.4,0,0.7,0.2,0.8,0.5c0.1,0.2,0.1,0.5,0.1,0.8V87h0.9v-3.4c0-0.5-0.1-0.9-0.2-1.2c-0.3-0.5-0.8-0.8-1.5-0.8
		c-0.3,0-0.6,0.1-0.9,0.2s-0.5,0.4-0.8,0.7v-0.7H217.6z"/>
	<rect x="229.6" y="79.8" width="0.9" height="7.2"/>
	<path d="M232.5,88.1l-0.2,0.2c-0.1,0.1-0.2,0.1-0.4,0.1l-0.2,0c-0.1,0-0.2,0-0.3-0.1V89h1.2c0.2-0.1,0.3-0.2,0.4-0.3
		c0.2-0.3,0.6-1.1,1.1-2.4c0.2-0.6,0.5-1.3,0.8-2.2c0.4-1.2,0.7-2,0.8-2.3h-1l-1.4,4.3l-1.4-4.3h-1l1.9,5.4c0,0.1-0.1,0.3-0.2,0.5
		C232.6,87.9,232.6,88.1,232.5,88.1z"/>
	<path d="M236.7,80.3v1.5H236v0.7h0.7V86c0,0.3,0.1,0.6,0.2,0.8c0.1,0.2,0.4,0.3,0.8,0.3c0.1,0,0.2,0,0.4,0s0.2,0,0.3-0.1v-0.7
		l-0.2,0l-0.1,0c-0.2,0-0.3,0-0.3-0.1c-0.1-0.1-0.2-0.2-0.2-0.4v-3.4h0.8v-0.7h-0.8v-1.5H236.7z"/>
	<rect x="239.5" y="79.8" width="0.9" height="1"/>
	<rect x="239.5" y="81.8" width="0.9" height="5.2"/>
	<path d="M250.1,84.4c-0.2-0.1-0.7-0.3-1.3-0.4l-0.6-0.1c-0.3-0.1-0.5-0.1-0.6-0.2c-0.2-0.1-0.3-0.3-0.3-0.5c0-0.2,0.1-0.4,0.3-0.5
		c0.2-0.1,0.4-0.2,0.8-0.2c0.5,0,0.9,0.1,1.1,0.3c0.1,0.2,0.2,0.3,0.2,0.5h0.8c0-0.3-0.1-0.7-0.3-0.9c-0.4-0.5-0.9-0.7-1.7-0.7
		c-0.6,0-1.1,0.2-1.5,0.5s-0.5,0.7-0.5,1.2c0,0.4,0.2,0.7,0.6,1c0.2,0.1,0.5,0.3,1,0.4l0.7,0.2c0.4,0.1,0.6,0.2,0.8,0.2
		c0.2,0.1,0.3,0.3,0.3,0.5c0,0.3-0.1,0.5-0.4,0.7c-0.3,0.1-0.5,0.2-0.9,0.2c-0.6,0-0.9-0.1-1.2-0.4c-0.1-0.2-0.2-0.4-0.2-0.7h-0.8
		c0,0.5,0.2,1,0.5,1.3c0.3,0.4,0.9,0.5,1.7,0.5c0.7,0,1.3-0.2,1.6-0.5c0.4-0.3,0.5-0.7,0.5-1.2C250.6,85,250.4,84.7,250.1,84.4z"/>
	<path d="M243.6,82.4c0.4,0,0.7,0.1,0.9,0.3c0.2,0.2,0.3,0.5,0.4,0.8h0.9c-0.1-0.7-0.3-1.2-0.7-1.5s-0.8-0.4-1.4-0.4
		c-0.7,0-1.3,0.3-1.7,0.8c-0.4,0.5-0.7,1.2-0.7,2.1c0,0.7,0.2,1.4,0.6,1.9c0.4,0.5,1,0.7,1.6,0.7c0.6,0,1.1-0.2,1.5-0.5
		c0.4-0.3,0.6-0.8,0.7-1.5h-0.9c-0.1,0.4-0.2,0.7-0.4,0.9c-0.2,0.2-0.5,0.3-0.9,0.3c-0.5,0-0.8-0.2-1-0.5c-0.2-0.4-0.3-0.8-0.3-1.3
		c0-0.5,0.1-1,0.2-1.3C242.6,82.7,243,82.4,243.6,82.4z"/>
</g>
<rect x="1" y="1" fill="#AEAAAA" width="1" height="133"/>
<rect x="46" y="2" fill="#AEAAAA" width="1" height="132"/>
<rect x="137" y="2" fill="#AEAAAA" width="1" height="132"/>
<rect x="252" y="2" fill="#AEAAAA" width="1" height="132"/>
<rect x="210" y="90" fill="#AEAAAA" width="1" height="44"/>
<rect x="2" y="1" fill="#AEAAAA" width="251" height="1"/>
<rect x="2" y="23" fill="#AEAAAA" width="251" height="1"/>
<rect x="2" y="45" fill="#AEAAAA" width="251" height="1"/>
<rect x="2" y="67" fill="#AEAAAA" width="251" height="1"/>
<rect x="2" y="89" fill="#AEAAAA" width="251" height="1"/>
<rect x="2" y="111" fill="#AEAAAA" width="251" height="1"/>
<rect x="2" y="133" fill="#AEAAAA" width="251" height="1"/>
</svg>
