<?xml version="1.0" encoding="utf-8"?>
<!-- Generator: Adobe Illustrator 15.1.0, SVG Export Plug-In  -->
<!DOCTYPE svg PUBLIC "-//W3C//DTD SVG 1.1//EN" "http://www.w3.org/Graphics/SVG/1.1/DTD/svg11.dtd" [
	<!ENTITY ns_flows "http://ns.adobe.com/Flows/1.0/">
]>
<svg version="1.1"
	 xmlns="http://www.w3.org/2000/svg" xmlns:xlink="http://www.w3.org/1999/xlink" xmlns:a="http://ns.adobe.com/AdobeSVGViewerExtensions/3.0/"
	 x="0px" y="0px" width="537px" height="210px" viewBox="-2.8 -2.8 537 210"
	 overflow="visible" enable-background="new -2.8 -2.8 537 210" xml:space="preserve">
<defs>
</defs>
<g>
	<defs>
		<rect id="SVGID_66_" x="2" y="2" width="529" height="27"/>
	</defs>
	<clipPath id="SVGID_67_">
		<use xlink:href="#SVGID_66_"  overflow="visible"/>
	</clipPath>
	<g clip-path="url(#SVGID_67_)">
		<text transform="matrix(1 0 0 1 205 14)"><tspan x="0" y="0" font-family="'Helvetica-Bold'" font-size="10">v</tspan><tspan x="6" y="0" font-family="'Helvetica-Bold'" font-size="10">i</tspan><tspan x="9" y="0" font-family="'Helvetica-Bold'" font-size="10">s</tspan><tspan x="15" y="0" font-family="'Helvetica-Bold'" font-size="10">u</tspan><tspan x="21" y="0" font-family="'Helvetica-Bold'" font-size="10">a</tspan><tspan x="27" y="0" font-family="'Helvetica-Bold'" font-size="10">l</tspan></text>
	</g>
</g>
<g>
	<defs>
		<rect id="SVGID_65_" x="2" y="2" width="529" height="27"/>
	</defs>
	<clipPath id="SVGID_68_">
		<use xlink:href="#SVGID_65_"  overflow="visible"/>
	</clipPath>
	<g clip-path="url(#SVGID_68_)">
		<text transform="matrix(1 0 0 1 210 27)"><tspan x="0" y="0" font-family="'Helvetica-Bold'" font-size="10">d</tspan><tspan x="6" y="0" font-family="'Helvetica-Bold'" font-size="10">a</tspan><tspan x="12" y="0" font-family="'Helvetica-Bold'" font-size="10">t</tspan><tspan x="15" y="0" font-family="'Helvetica-Bold'" font-size="10">a</tspan></text>
	</g>
</g>
<g>
	<defs>
		<rect id="SVGID_64_" x="255" y="2" width="68" height="27"/>
	</defs>
	<clipPath id="SVGID_69_">
		<use xlink:href="#SVGID_64_"  overflow="visible"/>
	</clipPath>
	<g clip-path="url(#SVGID_69_)">
		<text transform="matrix(1 0 0 1 266 14)"><tspan x="0" y="0" font-family="'Helvetica-Bold'" font-size="10">g</tspan><tspan x="6" y="0" font-family="'Helvetica-Bold'" font-size="10">r</tspan><tspan x="10" y="0" font-family="'Helvetica-Bold'" font-size="10">ound</tspan><tspan x="34" y="0" font-family="'Helvetica-Bold'" font-size="10">e</tspan><tspan x="40" y="0" font-family="'Helvetica-Bold'" font-size="10">d</tspan><tspan x="46" y="0" font-family="'Helvetica-Bold'" font-size="10"> </tspan></text>
	</g>
</g>
<g>
	<defs>
		<rect id="SVGID_63_" x="255" y="2" width="68" height="27"/>
	</defs>
	<clipPath id="SVGID_70_">
		<use xlink:href="#SVGID_63_"  overflow="visible"/>
	</clipPath>
	<g clip-path="url(#SVGID_70_)">
		<text transform="matrix(1 0 0 1 274 27)"><tspan x="0" y="0" font-family="'Helvetica-Bold'" font-size="10">t</tspan><tspan x="3" y="0" font-family="'Helvetica-Bold'" font-size="10">h</tspan><tspan x="9" y="0" font-family="'Helvetica-Bold'" font-size="10">e</tspan><tspan x="15" y="0" font-family="'Helvetica-Bold'" font-size="10">o</tspan><tspan x="21" y="0" font-family="'Helvetica-Bold'" font-size="10">r</tspan><tspan x="25" y="0" font-family="'Helvetica-Bold'" font-size="10">y</tspan></text>
	</g>
</g>
<g>
	<defs>
		<rect id="SVGID_62_" x="324" y="2" width="68" height="27"/>
	</defs>
	<clipPath id="SVGID_71_">
		<use xlink:href="#SVGID_62_"  overflow="visible"/>
	</clipPath>
	<g clip-path="url(#SVGID_71_)">
		<text transform="matrix(1 0 0 1 338 14)"><tspan x="0" y="0" font-family="'Helvetica-Bold'" font-size="10">i</tspan><tspan x="3" y="0" font-family="'Helvetica-Bold'" font-size="10">d</tspan><tspan x="9" y="0" font-family="'Helvetica-Bold'" font-size="10">ea</tspan><tspan x="21" y="0" font-family="'Helvetica-Bold'" font-size="10">t</tspan><tspan x="24" y="0" font-family="'Helvetica-Bold'" font-size="10">i</tspan><tspan x="27" y="0" font-family="'Helvetica-Bold'" font-size="10">on</tspan><tspan x="39" y="0" font-family="'Helvetica-Bold'" font-size="10"> </tspan></text>
	</g>
</g>
<g>
	<defs>
		<rect id="SVGID_61_" x="324" y="2" width="68" height="27"/>
	</defs>
	<clipPath id="SVGID_72_">
		<use xlink:href="#SVGID_61_"  overflow="visible"/>
	</clipPath>
	<g clip-path="url(#SVGID_72_)">
		<text transform="matrix(1 0 0 1 339 27)"><tspan x="0" y="0" font-family="'Helvetica-Bold'" font-size="10">m</tspan><tspan x="9" y="0" font-family="'Helvetica-Bold'" font-size="10">e</tspan><tspan x="15" y="0" font-family="'Helvetica-Bold'" font-size="10">t</tspan><tspan x="18" y="0" font-family="'Helvetica-Bold'" font-size="10">r</tspan><tspan x="22" y="0" font-family="'Helvetica-Bold'" font-size="10">i</tspan><tspan x="25" y="0" font-family="'Helvetica-Bold'" font-size="10">c</tspan><tspan x="31" y="0" font-family="'Helvetica-Bold'" font-size="10">s</tspan></text>
	</g>
</g>
<g>
	<defs>
		<rect id="SVGID_60_" x="393" y="2" width="68" height="27"/>
	</defs>
	<clipPath id="SVGID_73_">
		<use xlink:href="#SVGID_60_"  overflow="visible"/>
	</clipPath>
	<g clip-path="url(#SVGID_73_)">
		<text transform="matrix(1 0 0 1 404 14)"><tspan x="0" y="0" font-family="'Helvetica-Bold'" font-size="10">A</tspan><tspan x="7" y="0" font-family="'Helvetica-Bold'" font-size="10">I </tspan><tspan x="13" y="0" font-family="'Helvetica-Bold'" font-size="10">d</tspan><tspan x="19" y="0" font-family="'Helvetica-Bold'" font-size="10">es</tspan><tspan x="31" y="0" font-family="'Helvetica-Bold'" font-size="10">i</tspan><tspan x="34" y="0" font-family="'Helvetica-Bold'" font-size="10">gn</tspan><tspan x="46" y="0" font-family="'Helvetica-Bold'" font-size="10"> </tspan></text>
	</g>
</g>
<g>
	<defs>
		<rect id="SVGID_59_" x="393" y="2" width="68" height="27"/>
	</defs>
	<clipPath id="SVGID_74_">
		<use xlink:href="#SVGID_59_"  overflow="visible"/>
	</clipPath>
	<g clip-path="url(#SVGID_74_)">
		<text transform="matrix(1 0 0 1 405 27)"><tspan x="0" y="0" font-family="'Helvetica-Bold'" font-size="10">a</tspan><tspan x="6" y="0" font-family="'Helvetica-Bold'" font-size="10">n</tspan><tspan x="12" y="0" font-family="'Helvetica-Bold'" font-size="10">a</tspan><tspan x="18" y="0" font-family="'Helvetica-Bold'" font-size="10">l</tspan><tspan x="21" y="0" font-family="'Helvetica-Bold'" font-size="10">y</tspan><tspan x="27" y="0" font-family="'Helvetica-Bold'" font-size="10">t</tspan><tspan x="30" y="0" font-family="'Helvetica-Bold'" font-size="10">i</tspan><tspan x="33" y="0" font-family="'Helvetica-Bold'" font-size="10">c</tspan><tspan x="39" y="0" font-family="'Helvetica-Bold'" font-size="10">s</tspan></text>
	</g>
</g>
<g>
	<defs>
		<rect id="SVGID_58_" x="462" y="2" width="68" height="27"/>
	</defs>
	<clipPath id="SVGID_75_">
		<use xlink:href="#SVGID_58_"  overflow="visible"/>
	</clipPath>
	<g clip-path="url(#SVGID_75_)">
		<text transform="matrix(1 0 0 1 466 14)"><tspan x="0" y="0" font-family="'Helvetica-Bold'" font-size="10">e</tspan><tspan x="6" y="0" font-family="'Helvetica-Bold'" font-size="10">ng</tspan><tspan x="18" y="0" font-family="'Helvetica-Bold'" font-size="10">a</tspan><tspan x="24" y="0" font-family="'Helvetica-Bold'" font-size="10">g</tspan><tspan x="30" y="0" font-family="'Helvetica-Bold'" font-size="10">e</tspan><tspan x="36" y="0" font-family="'Helvetica-Bold'" font-size="10">m</tspan><tspan x="45" y="0" font-family="'Helvetica-Bold'" font-size="10">e</tspan><tspan x="51" y="0" font-family="'Helvetica-Bold'" font-size="10">n</tspan><tspan x="57" y="0" font-family="'Helvetica-Bold'" font-size="10">t</tspan><tspan x="60" y="0" font-family="'Helvetica-Bold'" font-size="10"> </tspan></text>
	</g>
</g>
<g>
	<defs>
		<rect id="SVGID_57_" x="462" y="2" width="68" height="27"/>
	</defs>
	<clipPath id="SVGID_76_">
		<use xlink:href="#SVGID_57_"  overflow="visible"/>
	</clipPath>
	<g clip-path="url(#SVGID_76_)">
		<text transform="matrix(1 0 0 1 474 27)"><tspan x="0" y="0" font-family="'Helvetica-Bold'" font-size="10">a</tspan><tspan x="6" y="0" font-family="'Helvetica-Bold'" font-size="10">n</tspan><tspan x="12" y="0" font-family="'Helvetica-Bold'" font-size="10">a</tspan><tspan x="18" y="0" font-family="'Helvetica-Bold'" font-size="10">l</tspan><tspan x="21" y="0" font-family="'Helvetica-Bold'" font-size="10">y</tspan><tspan x="27" y="0" font-family="'Helvetica-Bold'" font-size="10">t</tspan><tspan x="30" y="0" font-family="'Helvetica-Bold'" font-size="10">i</tspan><tspan x="33" y="0" font-family="'Helvetica-Bold'" font-size="10">c</tspan><tspan x="39" y="0" font-family="'Helvetica-Bold'" font-size="10">s</tspan></text>
	</g>
</g>
<g>
	<defs>
		<rect id="SVGID_56_" x="2" y="2" width="529" height="202"/>
	</defs>
	<clipPath id="SVGID_77_">
		<use xlink:href="#SVGID_56_"  overflow="visible"/>
	</clipPath>
	<g clip-path="url(#SVGID_77_)">
		<text transform="matrix(1 0 0 1 10 41)" font-family="'Helvetica'" font-size="6">2</text>
	</g>
</g>
<g>
	<defs>
		<rect id="SVGID_55_" x="2" y="2" width="529" height="202"/>
	</defs>
	<clipPath id="SVGID_78_">
		<use xlink:href="#SVGID_55_"  overflow="visible"/>
	</clipPath>
	<g clip-path="url(#SVGID_78_)">
		<text transform="matrix(1 0 0 1 23 42)"><tspan x="0" y="0" font-family="'Times-Roman'" font-size="10">A</tspan><tspan x="7" y="0" font-family="'Times-Roman'" font-size="10">l</tspan><tspan x="10" y="0" font-family="'Times-Roman'" font-size="10">go</tspan><tspan x="20" y="0" font-family="'Times-Roman'" font-size="10">r</tspan><tspan x="23" y="0" font-family="'Times-Roman'" font-size="10">it</tspan><tspan x="29" y="0" font-family="'Times-Roman'" font-size="10">h</tspan><tspan x="34" y="0" font-family="'Times-Roman'" font-size="10">m</tspan><tspan x="42" y="0" font-family="'Times-Roman'" font-size="10">-</tspan><tspan x="45" y="0" font-family="'Times-Roman'" font-size="10">i</tspan><tspan x="48" y="0" font-family="'Times-Roman'" font-size="10">n</tspan><tspan x="53" y="0" font-family="'Times-Roman'" font-size="10">-</tspan><tspan x="56" y="0" font-family="'Times-Roman'" font-size="10">L</tspan><tspan x="62" y="0" font-family="'Times-Roman'" font-size="10">oop</tspan><tspan x="77" y="0" font-family="'Times-Roman'" font-size="10"> </tspan><tspan x="80" y="0" font-family="'Times-Roman'" font-size="10">C</tspan><tspan x="87" y="0" font-family="'Times-Roman'" font-size="10">o</tspan><tspan x="92" y="0" font-family="'Times-Roman'" font-size="10">m</tspan><tspan x="100" y="0" font-family="'Times-Roman'" font-size="10">po</tspan><tspan x="110" y="0" font-family="'Times-Roman'" font-size="10">s</tspan><tspan x="114" y="0" font-family="'Times-Roman'" font-size="10">iti</tspan><tspan x="123" y="0" font-family="'Times-Roman'" font-size="10">on</tspan></text>
	</g>
</g>
<g>
	<defs>
		<rect id="SVGID_54_" x="2" y="2" width="529" height="202"/>
	</defs>
	<clipPath id="SVGID_79_">
		<use xlink:href="#SVGID_54_"  overflow="visible"/>
	</clipPath>
	<g clip-path="url(#SVGID_79_)">
		<text transform="matrix(1 0 0 1 218 43)" font-family="'Helvetica'" font-size="10">x</text>
	</g>
</g>
<g>
	<defs>
		<rect id="SVGID_53_" x="2" y="2" width="529" height="202"/>
	</defs>
	<clipPath id="SVGID_80_">
		<use xlink:href="#SVGID_53_"  overflow="visible"/>
	</clipPath>
	<g clip-path="url(#SVGID_80_)">
		<text transform="matrix(1 0 0 1 287 43)" font-family="'Helvetica'" font-size="10">x</text>
	</g>
</g>
<g>
	<defs>
		<rect id="SVGID_52_" x="2" y="2" width="529" height="202"/>
	</defs>
	<clipPath id="SVGID_81_">
		<use xlink:href="#SVGID_52_"  overflow="visible"/>
	</clipPath>
	<g clip-path="url(#SVGID_81_)">
		<text transform="matrix(1 0 0 1 356 43)" font-family="'Helvetica'" font-size="10">x</text>
	</g>
</g>
<g>
	<defs>
		<rect id="SVGID_51_" x="2" y="2" width="529" height="202"/>
	</defs>
	<clipPath id="SVGID_82_">
		<use xlink:href="#SVGID_51_"  overflow="visible"/>
	</clipPath>
	<g clip-path="url(#SVGID_82_)">
		<text transform="matrix(1 0 0 1 10 60)" font-family="'Helvetica'" font-size="6">3</text>
	</g>
</g>
<g>
	<defs>
		<rect id="SVGID_50_" x="2" y="2" width="529" height="202"/>
	</defs>
	<clipPath id="SVGID_83_">
		<use xlink:href="#SVGID_50_"  overflow="visible"/>
	</clipPath>
	<g clip-path="url(#SVGID_83_)">
		<text transform="matrix(1 0 0 1 23 61)"><tspan x="0" y="0" font-family="'Times-Roman'" font-size="10">S</tspan><tspan x="6" y="0" font-family="'Times-Roman'" font-size="10">t</tspan><tspan x="9" y="0" font-family="'Times-Roman'" font-size="10">r</tspan><tspan x="12" y="0" font-family="'Times-Roman'" font-size="10">a</tspan><tspan x="16" y="0" font-family="'Times-Roman'" font-size="10">t</tspan><tspan x="19" y="0" font-family="'Times-Roman'" font-size="10">e</tspan><tspan x="23" y="0" font-family="'Times-Roman'" font-size="10">g</tspan><tspan x="28" y="0" font-family="'Times-Roman'" font-size="10">i</tspan><tspan x="31" y="0" font-family="'Times-Roman'" font-size="10">e</tspan><tspan x="35" y="0" font-family="'Times-Roman'" font-size="10">s</tspan><tspan x="39" y="0" font-family="'Times-Roman'" font-size="10"> </tspan><tspan x="42" y="0" font-family="'Times-Roman'" font-size="10">[</tspan><tspan x="45" y="0" font-family="'Times-Roman'" font-size="10">F</tspan><tspan x="51" y="0" font-family="'Times-Roman'" font-size="10">r</tspan><tspan x="54" y="0" font-family="'Times-Roman'" font-size="10">ee</tspan><tspan x="62" y="0" font-family="'Times-Roman'" font-size="10">-</tspan><tspan x="65" y="0" font-family="'Times-Roman'" font-size="10">F</tspan><tspan x="71" y="0" font-family="'Times-Roman'" font-size="10">o</tspan><tspan x="76" y="0" font-family="'Times-Roman'" font-size="10">r</tspan><tspan x="79" y="0" font-family="'Times-Roman'" font-size="10">m</tspan><tspan x="87" y="0" font-family="'Times-Roman'" font-size="10"> </tspan><tspan x="90" y="0" font-family="'Times-Roman'" font-size="10">C</tspan><tspan x="97" y="0" font-family="'Times-Roman'" font-size="10">u</tspan><tspan x="102" y="0" font-family="'Times-Roman'" font-size="10">r</tspan><tspan x="105" y="0" font-family="'Times-Roman'" font-size="10">a</tspan><tspan x="109" y="0" font-family="'Times-Roman'" font-size="10">ti</tspan><tspan x="115" y="0" font-family="'Times-Roman'" font-size="10">on]</tspan></text>
	</g>
</g>
<g>
	<defs>
		<rect id="SVGID_49_" x="2" y="2" width="529" height="202"/>
	</defs>
	<clipPath id="SVGID_84_">
		<use xlink:href="#SVGID_49_"  overflow="visible"/>
	</clipPath>
	<g clip-path="url(#SVGID_84_)">
		<text transform="matrix(1 0 0 1 218 62)" font-family="'Helvetica'" font-size="10">x</text>
	</g>
</g>
<g>
	<defs>
		<rect id="SVGID_48_" x="2" y="2" width="529" height="202"/>
	</defs>
	<clipPath id="SVGID_85_">
		<use xlink:href="#SVGID_48_"  overflow="visible"/>
	</clipPath>
	<g clip-path="url(#SVGID_85_)">
		<text transform="matrix(1 0 0 1 287 62)" font-family="'Helvetica'" font-size="10">x</text>
	</g>
</g>
<g>
	<defs>
		<rect id="SVGID_47_" x="2" y="2" width="529" height="202"/>
	</defs>
	<clipPath id="SVGID_86_">
		<use xlink:href="#SVGID_47_"  overflow="visible"/>
	</clipPath>
	<g clip-path="url(#SVGID_86_)">
		<text transform="matrix(1 0 0 1 494 62)" font-family="'Helvetica'" font-size="10">x</text>
	</g>
</g>
<g>
	<defs>
		<rect id="SVGID_46_" x="2" y="2" width="529" height="202"/>
	</defs>
	<clipPath id="SVGID_87_">
		<use xlink:href="#SVGID_46_"  overflow="visible"/>
	</clipPath>
	<g clip-path="url(#SVGID_87_)">
		<text transform="matrix(1 0 0 1 10 79)" font-family="'Helvetica'" font-size="6">4</text>
	</g>
</g>
<g>
	<defs>
		<rect id="SVGID_45_" x="2" y="2" width="529" height="202"/>
	</defs>
	<clipPath id="SVGID_88_">
		<use xlink:href="#SVGID_45_"  overflow="visible"/>
	</clipPath>
	<g clip-path="url(#SVGID_88_)">
		<text transform="matrix(1 0 0 1 23 80)"><tspan x="0" y="0" font-family="'Times-Roman'" font-size="10">P</tspan><tspan x="6" y="0" font-family="'Times-Roman'" font-size="10">a</tspan><tspan x="10" y="0" font-family="'Times-Roman'" font-size="10">tt</tspan><tspan x="16" y="0" font-family="'Times-Roman'" font-size="10">e</tspan><tspan x="20" y="0" font-family="'Times-Roman'" font-size="10">r</tspan><tspan x="23" y="0" font-family="'Times-Roman'" font-size="10">n</tspan><tspan x="28" y="0" font-family="'Times-Roman'" font-size="10">s</tspan><tspan x="32" y="0" font-family="'Times-Roman'" font-size="10"> </tspan><tspan x="35" y="0" font-family="'Times-Roman'" font-size="10">[</tspan><tspan x="38" y="0" font-family="'Times-Roman'" font-size="10">F</tspan><tspan x="44" y="0" font-family="'Times-Roman'" font-size="10">r</tspan><tspan x="47" y="0" font-family="'Times-Roman'" font-size="10">ee</tspan><tspan x="55" y="0" font-family="'Times-Roman'" font-size="10">-</tspan><tspan x="58" y="0" font-family="'Times-Roman'" font-size="10">F</tspan><tspan x="64" y="0" font-family="'Times-Roman'" font-size="10">o</tspan><tspan x="69" y="0" font-family="'Times-Roman'" font-size="10">r</tspan><tspan x="72" y="0" font-family="'Times-Roman'" font-size="10">m</tspan><tspan x="80" y="0" font-family="'Times-Roman'" font-size="10"> </tspan><tspan x="83" y="0" font-family="'Times-Roman'" font-size="10">C</tspan><tspan x="90" y="0" font-family="'Times-Roman'" font-size="10">u</tspan><tspan x="95" y="0" font-family="'Times-Roman'" font-size="10">r</tspan><tspan x="98" y="0" font-family="'Times-Roman'" font-size="10">a</tspan><tspan x="102" y="0" font-family="'Times-Roman'" font-size="10">ti</tspan><tspan x="108" y="0" font-family="'Times-Roman'" font-size="10">on]</tspan></text>
	</g>
</g>
<g>
	<defs>
		<rect id="SVGID_44_" x="2" y="2" width="529" height="202"/>
	</defs>
	<clipPath id="SVGID_89_">
		<use xlink:href="#SVGID_44_"  overflow="visible"/>
	</clipPath>
	<g clip-path="url(#SVGID_89_)">
		<text transform="matrix(1 0 0 1 218 81)" font-family="'Helvetica'" font-size="10">x</text>
	</g>
</g>
<g>
	<defs>
		<rect id="SVGID_43_" x="2" y="2" width="529" height="202"/>
	</defs>
	<clipPath id="SVGID_90_">
		<use xlink:href="#SVGID_43_"  overflow="visible"/>
	</clipPath>
	<g clip-path="url(#SVGID_90_)">
		<text transform="matrix(1 0 0 1 10 98)" font-family="'Helvetica'" font-size="6">5</text>
	</g>
</g>
<g>
	<defs>
		<rect id="SVGID_42_" x="2" y="2" width="529" height="202"/>
	</defs>
	<clipPath id="SVGID_91_">
		<use xlink:href="#SVGID_42_"  overflow="visible"/>
	</clipPath>
	<g clip-path="url(#SVGID_91_)">
		<text transform="matrix(1 0 0 1 23 99)"><tspan x="0" y="0" font-family="'Times-Roman'" font-size="10">C</tspan><tspan x="7" y="0" font-family="'Times-Roman'" font-size="10">o</tspan><tspan x="12" y="0" font-family="'Times-Roman'" font-size="10">ll</tspan><tspan x="18" y="0" font-family="'Times-Roman'" font-size="10">a</tspan><tspan x="22" y="0" font-family="'Times-Roman'" font-size="10">bo</tspan><tspan x="32" y="0" font-family="'Times-Roman'" font-size="10">r</tspan><tspan x="35" y="0" font-family="'Times-Roman'" font-size="10">a</tspan><tspan x="39" y="0" font-family="'Times-Roman'" font-size="10">ti</tspan><tspan x="45" y="0" font-family="'Times-Roman'" font-size="10">v</tspan><tspan x="50" y="0" font-family="'Times-Roman'" font-size="10">e</tspan><tspan x="54" y="0" font-family="'Times-Roman'" font-size="10"> </tspan><tspan x="57" y="0" font-family="'Times-Roman'" font-size="10">L</tspan><tspan x="63" y="0" font-family="'Times-Roman'" font-size="10">i</tspan><tspan x="66" y="0" font-family="'Times-Roman'" font-size="10">v</tspan><tspan x="71" y="0" font-family="'Times-Roman'" font-size="10">e</tspan><tspan x="75" y="0" font-family="'Times-Roman'" font-size="10"> </tspan><tspan x="78" y="0" font-family="'Times-Roman'" font-size="10">M</tspan><tspan x="87" y="0" font-family="'Times-Roman'" font-size="10">e</tspan><tspan x="91" y="0" font-family="'Times-Roman'" font-size="10">d</tspan><tspan x="96" y="0" font-family="'Times-Roman'" font-size="10">i</tspan><tspan x="99" y="0" font-family="'Times-Roman'" font-size="10">a</tspan><tspan x="103" y="0" font-family="'Times-Roman'" font-size="10"> </tspan><tspan x="106" y="0" font-family="'Times-Roman'" font-size="10">C</tspan><tspan x="113" y="0" font-family="'Times-Roman'" font-size="10">u</tspan><tspan x="118" y="0" font-family="'Times-Roman'" font-size="10">r</tspan><tspan x="121" y="0" font-family="'Times-Roman'" font-size="10">a</tspan><tspan x="125" y="0" font-family="'Times-Roman'" font-size="10">ti</tspan><tspan x="131" y="0" font-family="'Times-Roman'" font-size="10">on</tspan></text>
	</g>
</g>
<g>
	<defs>
		<rect id="SVGID_41_" x="2" y="2" width="529" height="202"/>
	</defs>
	<clipPath id="SVGID_92_">
		<use xlink:href="#SVGID_41_"  overflow="visible"/>
	</clipPath>
	<g clip-path="url(#SVGID_92_)">
		<text transform="matrix(1 0 0 1 218 100)" font-family="'Helvetica'" font-size="10">x</text>
	</g>
</g>
<g>
	<defs>
		<rect id="SVGID_40_" x="2" y="2" width="529" height="202"/>
	</defs>
	<clipPath id="SVGID_93_">
		<use xlink:href="#SVGID_40_"  overflow="visible"/>
	</clipPath>
	<g clip-path="url(#SVGID_93_)">
		<text transform="matrix(1 0 0 1 287 100)" font-family="'Helvetica'" font-size="10">x</text>
	</g>
</g>
<g>
	<defs>
		<rect id="SVGID_39_" x="2" y="2" width="529" height="202"/>
	</defs>
	<clipPath id="SVGID_94_">
		<use xlink:href="#SVGID_39_"  overflow="visible"/>
	</clipPath>
	<g clip-path="url(#SVGID_94_)">
		<text transform="matrix(1 0 0 1 23 118)"><tspan x="0" y="0" font-family="'Times-Roman'" font-size="10">R</tspan><tspan x="7" y="0" font-family="'Times-Roman'" font-size="10">ec</tspan><tspan x="15" y="0" font-family="'Times-Roman'" font-size="10">ogn</tspan><tspan x="30" y="0" font-family="'Times-Roman'" font-size="10">i</tspan><tspan x="33" y="0" font-family="'Times-Roman'" font-size="10">z</tspan><tspan x="37" y="0" font-family="'Times-Roman'" font-size="10">i</tspan><tspan x="40" y="0" font-family="'Times-Roman'" font-size="10">ng</tspan><tspan x="50" y="0" font-family="'Times-Roman'" font-size="10"> </tspan><tspan x="53" y="0" font-family="'Times-Roman'" font-size="10">M</tspan><tspan x="62" y="0" font-family="'Times-Roman'" font-size="10">u</tspan><tspan x="67" y="0" font-family="'Times-Roman'" font-size="10">lti</tspan><tspan x="76" y="0" font-family="'Times-Roman'" font-size="10">s</tspan><tspan x="80" y="0" font-family="'Times-Roman'" font-size="10">ca</tspan><tspan x="88" y="0" font-family="'Times-Roman'" font-size="10">l</tspan><tspan x="91" y="0" font-family="'Times-Roman'" font-size="10">e</tspan><tspan x="95" y="0" font-family="'Times-Roman'" font-size="10"> </tspan><tspan x="98" y="0" font-family="'Times-Roman'" font-size="10">D</tspan><tspan x="105" y="0" font-family="'Times-Roman'" font-size="10">e</tspan><tspan x="109" y="0" font-family="'Times-Roman'" font-size="10">s</tspan><tspan x="113" y="0" font-family="'Times-Roman'" font-size="10">i</tspan><tspan x="116" y="0" font-family="'Times-Roman'" font-size="10">gn</tspan></text>
	</g>
</g>
<g>
	<defs>
		<rect id="SVGID_38_" x="2" y="2" width="529" height="202"/>
	</defs>
	<clipPath id="SVGID_95_">
		<use xlink:href="#SVGID_38_"  overflow="visible"/>
	</clipPath>
	<g clip-path="url(#SVGID_95_)">
		<text transform="matrix(1 0 0 1 218 119)" font-family="'Helvetica'" font-size="10">x</text>
	</g>
</g>
<g>
	<defs>
		<rect id="SVGID_37_" x="2" y="2" width="529" height="202"/>
	</defs>
	<clipPath id="SVGID_96_">
		<use xlink:href="#SVGID_37_"  overflow="visible"/>
	</clipPath>
	<g clip-path="url(#SVGID_96_)">
		<text transform="matrix(1 0 0 1 425 119)" font-family="'Helvetica'" font-size="10">x</text>
	</g>
</g>
<g>
	<defs>
		<rect id="SVGID_36_" x="2" y="2" width="529" height="202"/>
	</defs>
	<clipPath id="SVGID_97_">
		<use xlink:href="#SVGID_36_"  overflow="visible"/>
	</clipPath>
	<g clip-path="url(#SVGID_97_)">
		<text transform="matrix(1 0 0 1 10 136)" font-family="'Helvetica'" font-size="6">6</text>
	</g>
</g>
<g>
	<defs>
		<rect id="SVGID_35_" x="2" y="2" width="529" height="202"/>
	</defs>
	<clipPath id="SVGID_98_">
		<use xlink:href="#SVGID_35_"  overflow="visible"/>
	</clipPath>
	<g clip-path="url(#SVGID_98_)">
		<text transform="matrix(1 0 0 1 23 137)"><tspan x="0" y="0" font-family="'Times-Roman'" font-size="10">I</tspan><tspan x="3" y="0" font-family="'Times-Roman'" font-size="10">n</tspan><tspan x="8" y="0" font-family="'Times-Roman'" font-size="10">t</tspan><tspan x="11" y="0" font-family="'Times-Roman'" font-size="10">e</tspan><tspan x="15" y="0" font-family="'Times-Roman'" font-size="10">r</tspan><tspan x="18" y="0" font-family="'Times-Roman'" font-size="10">s</tspan><tspan x="22" y="0" font-family="'Times-Roman'" font-size="10">ti</tspan><tspan x="28" y="0" font-family="'Times-Roman'" font-size="10">ce</tspan><tspan x="36" y="0" font-family="'Times-Roman'" font-size="10">s</tspan><tspan x="40" y="0" font-family="'Times-Roman'" font-size="10"> </tspan><tspan x="43" y="0" font-family="'Times-Roman'" font-size="10">(</tspan><tspan x="46" y="0" font-family="'Times-Roman'" font-size="10">E</tspan><tspan x="52" y="0" font-family="'Times-Roman'" font-size="10">m</tspan><tspan x="60" y="0" font-family="'Times-Roman'" font-size="10">bod</tspan><tspan x="75" y="0" font-family="'Times-Roman'" font-size="10">i</tspan><tspan x="78" y="0" font-family="'Times-Roman'" font-size="10">e</tspan><tspan x="82" y="0" font-family="'Times-Roman'" font-size="10">d</tspan><tspan x="87" y="0" font-family="'Times-Roman'" font-size="10"> </tspan><tspan x="90" y="0" font-family="'Times-Roman'" font-size="10">M</tspan><tspan x="99" y="0" font-family="'Times-Roman'" font-size="10">ac</tspan><tspan x="107" y="0" font-family="'Times-Roman'" font-size="10">h</tspan><tspan x="112" y="0" font-family="'Times-Roman'" font-size="10">e</tspan><tspan x="116" y="0" font-family="'Times-Roman'" font-size="10">)</tspan></text>
	</g>
</g>
<g>
	<defs>
		<rect id="SVGID_34_" x="2" y="2" width="529" height="202"/>
	</defs>
	<clipPath id="SVGID_99_">
		<use xlink:href="#SVGID_34_"  overflow="visible"/>
	</clipPath>
	<g clip-path="url(#SVGID_99_)">
		<text transform="matrix(1 0 0 1 218 138)" font-family="'Helvetica'" font-size="10">x</text>
	</g>
</g>
<g>
	<defs>
		<rect id="SVGID_33_" x="2" y="2" width="529" height="202"/>
	</defs>
	<clipPath id="SVGID_100_">
		<use xlink:href="#SVGID_33_"  overflow="visible"/>
	</clipPath>
	<g clip-path="url(#SVGID_100_)">
		<text transform="matrix(1 0 0 1 287 138)" font-family="'Helvetica'" font-size="10">x</text>
	</g>
</g>
<g>
	<defs>
		<rect id="SVGID_32_" x="2" y="2" width="529" height="202"/>
	</defs>
	<clipPath id="SVGID_101_">
		<use xlink:href="#SVGID_32_"  overflow="visible"/>
	</clipPath>
	<g clip-path="url(#SVGID_101_)">
		<text transform="matrix(1 0 0 1 494 138)" font-family="'Helvetica'" font-size="10">x</text>
	</g>
</g>
<g>
	<defs>
		<rect id="SVGID_31_" x="2" y="2" width="529" height="202"/>
	</defs>
	<clipPath id="SVGID_102_">
		<use xlink:href="#SVGID_31_"  overflow="visible"/>
	</clipPath>
	<g clip-path="url(#SVGID_102_)">
		<text transform="matrix(1 0 0 1 10 158)" font-family="'Helvetica'" font-size="6">1</text>
	</g>
</g>
<g>
	<defs>
		<rect id="SVGID_30_" x="2" y="2" width="529" height="202"/>
	</defs>
	<clipPath id="SVGID_103_">
		<use xlink:href="#SVGID_30_"  overflow="visible"/>
	</clipPath>
	<g clip-path="url(#SVGID_103_)">
		<text transform="matrix(1 0 0 1 23 159)"><tspan x="0" y="0" font-family="'Times-Roman'" font-size="10">S</tspan><tspan x="6" y="0" font-family="'Times-Roman'" font-size="10">t</tspan><tspan x="9" y="0" font-family="'Times-Roman'" font-size="10">r</tspan><tspan x="12" y="0" font-family="'Times-Roman'" font-size="10">ea</tspan><tspan x="20" y="0" font-family="'Times-Roman'" font-size="10">mi</tspan><tspan x="31" y="0" font-family="'Times-Roman'" font-size="10">ng</tspan><tspan x="41" y="0" font-family="'Times-Roman'" font-size="10"> </tspan><tspan x="44" y="0" font-family="'Times-Roman'" font-size="10">on</tspan><tspan x="54" y="0" font-family="'Times-Roman'" font-size="10"> </tspan><tspan x="57" y="0" font-family="'Times-Roman'" font-size="10">T</tspan><tspan x="63" y="0" font-family="'Times-Roman'" font-size="10">w</tspan><tspan x="70" y="0" font-family="'Times-Roman'" font-size="10">it</tspan><tspan x="76" y="0" font-family="'Times-Roman'" font-size="10">c</tspan><tspan x="80" y="0" font-family="'Times-Roman'" font-size="10">h</tspan></text>
	</g>
</g>
<g>
	<defs>
		<rect id="SVGID_29_" x="2" y="2" width="529" height="202"/>
	</defs>
	<clipPath id="SVGID_104_">
		<use xlink:href="#SVGID_29_"  overflow="visible"/>
	</clipPath>
	<g clip-path="url(#SVGID_104_)">
		<text transform="matrix(1 0 0 1 218 160)" font-family="'Helvetica'" font-size="10">x</text>
	</g>
</g>
<g>
	<defs>
		<rect id="SVGID_28_" x="2" y="2" width="529" height="202"/>
	</defs>
	<clipPath id="SVGID_105_">
		<use xlink:href="#SVGID_28_"  overflow="visible"/>
	</clipPath>
	<g clip-path="url(#SVGID_105_)">
		<text transform="matrix(1 0 0 1 287 160)" font-family="'Helvetica'" font-size="10">x</text>
	</g>
</g>
<g>
	<defs>
		<rect id="SVGID_27_" x="2" y="2" width="529" height="202"/>
	</defs>
	<clipPath id="SVGID_106_">
		<use xlink:href="#SVGID_27_"  overflow="visible"/>
	</clipPath>
	<g clip-path="url(#SVGID_106_)">
		<text transform="matrix(1 0 0 1 23 178)"><tspan x="0" y="0" font-family="'Times-Roman'" font-size="10">T</tspan><tspan x="6" y="0" font-family="'Times-Roman'" font-size="10">ea</tspan><tspan x="14" y="0" font-family="'Times-Roman'" font-size="10">m</tspan><tspan x="22" y="0" font-family="'Times-Roman'" font-size="10"> </tspan><tspan x="25" y="0" font-family="'Times-Roman'" font-size="10">C</tspan><tspan x="32" y="0" font-family="'Times-Roman'" font-size="10">oo</tspan><tspan x="42" y="0" font-family="'Times-Roman'" font-size="10">r</tspan><tspan x="45" y="0" font-family="'Times-Roman'" font-size="10">d</tspan><tspan x="50" y="0" font-family="'Times-Roman'" font-size="10">i</tspan><tspan x="53" y="0" font-family="'Times-Roman'" font-size="10">n</tspan><tspan x="58" y="0" font-family="'Times-Roman'" font-size="10">a</tspan><tspan x="62" y="0" font-family="'Times-Roman'" font-size="10">ti</tspan><tspan x="68" y="0" font-family="'Times-Roman'" font-size="10">on</tspan><tspan x="78" y="0" font-family="'Times-Roman'" font-size="10"> </tspan><tspan x="81" y="0" font-family="'Times-Roman'" font-size="10">G</tspan><tspan x="88" y="0" font-family="'Times-Roman'" font-size="10">a</tspan><tspan x="92" y="0" font-family="'Times-Roman'" font-size="10">m</tspan><tspan x="100" y="0" font-family="'Times-Roman'" font-size="10">e</tspan></text>
	</g>
</g>
<g>
	<defs>
		<rect id="SVGID_26_" x="2" y="2" width="529" height="202"/>
	</defs>
	<clipPath id="SVGID_107_">
		<use xlink:href="#SVGID_26_"  overflow="visible"/>
	</clipPath>
	<g clip-path="url(#SVGID_107_)">
		<text transform="matrix(1 0 0 1 218 179)" font-family="'Helvetica'" font-size="10">x</text>
	</g>
</g>
<g>
	<defs>
		<rect id="SVGID_25_" x="2" y="2" width="529" height="202"/>
	</defs>
	<clipPath id="SVGID_108_">
		<use xlink:href="#SVGID_25_"  overflow="visible"/>
	</clipPath>
	<g clip-path="url(#SVGID_108_)">
		<text transform="matrix(1 0 0 1 287 179)" font-family="'Helvetica'" font-size="10">x</text>
	</g>
</g>
<g>
	<defs>
		<rect id="SVGID_24_" x="2" y="2" width="529" height="202"/>
	</defs>
	<clipPath id="SVGID_109_">
		<use xlink:href="#SVGID_24_"  overflow="visible"/>
	</clipPath>
	<g clip-path="url(#SVGID_109_)">
		<text transform="matrix(1 0 0 1 494 179)" font-family="'Helvetica'" font-size="10">x</text>
	</g>
</g>
<g>
	<defs>
		<rect id="SVGID_23_" x="2" y="2" width="529" height="202"/>
	</defs>
	<clipPath id="SVGID_110_">
		<use xlink:href="#SVGID_23_"  overflow="visible"/>
	</clipPath>
	<g clip-path="url(#SVGID_110_)">
		<text transform="matrix(1 0 0 1 23 197)"><tspan x="0" y="0" font-family="'Times-Roman'" font-size="10">P</tspan><tspan x="6" y="0" font-family="'Times-Roman'" font-size="10">e</tspan><tspan x="10" y="0" font-family="'Times-Roman'" font-size="10">n</tspan><tspan x="15" y="0" font-family="'Times-Roman'" font-size="10">-</tspan><tspan x="18" y="0" font-family="'Times-Roman'" font-size="10">i</tspan><tspan x="21" y="0" font-family="'Times-Roman'" font-size="10">n</tspan><tspan x="26" y="0" font-family="'Times-Roman'" font-size="10">-</tspan><tspan x="29" y="0" font-family="'Times-Roman'" font-size="10">H</tspan><tspan x="36" y="0" font-family="'Times-Roman'" font-size="10">a</tspan><tspan x="40" y="0" font-family="'Times-Roman'" font-size="10">nd</tspan><tspan x="50" y="0" font-family="'Times-Roman'" font-size="10"> </tspan><tspan x="53" y="0" font-family="'Times-Roman'" font-size="10">C</tspan><tspan x="60" y="0" font-family="'Times-Roman'" font-size="10">o</tspan><tspan x="65" y="0" font-family="'Times-Roman'" font-size="10">mm</tspan><tspan x="81" y="0" font-family="'Times-Roman'" font-size="10">a</tspan><tspan x="85" y="0" font-family="'Times-Roman'" font-size="10">nd</tspan></text>
	</g>
</g>
<g>
	<defs>
		<rect id="SVGID_22_" x="2" y="2" width="529" height="202"/>
	</defs>
	<clipPath id="SVGID_111_">
		<use xlink:href="#SVGID_22_"  overflow="visible"/>
	</clipPath>
	<g clip-path="url(#SVGID_111_)">
		<text transform="matrix(1 0 0 1 218 198)" font-family="'Helvetica'" font-size="10">x</text>
	</g>
</g>
<g>
	<defs>
		<rect id="SVGID_21_" x="2" y="2" width="529" height="202"/>
	</defs>
	<clipPath id="SVGID_112_">
		<use xlink:href="#SVGID_21_"  overflow="visible"/>
	</clipPath>
	<g clip-path="url(#SVGID_112_)">
		<text transform="matrix(1 0 0 1 287 198)" font-family="'Helvetica'" font-size="10">x</text>
	</g>
</g>
<g>
	<defs>
		<rect id="SVGID_20_" width="534" height="207"/>
	</defs>
	<clipPath id="SVGID_113_">
		<use xlink:href="#SVGID_20_"  overflow="visible"/>
	</clipPath>
	<rect x="185" y="1" clip-path="url(#SVGID_113_)" fill="#BFBFBF" width="1" height="203"/>
</g>
<g>
	<defs>
		<rect id="SVGID_19_" width="534" height="207"/>
	</defs>
	<clipPath id="SVGID_114_">
		<use xlink:href="#SVGID_19_"  overflow="visible"/>
	</clipPath>
	<rect x="254" y="2" clip-path="url(#SVGID_114_)" fill="#BFBFBF" width="1" height="202"/>
</g>
<g>
	<defs>
		<rect id="SVGID_18_" width="534" height="207"/>
	</defs>
	<clipPath id="SVGID_115_">
		<use xlink:href="#SVGID_18_"  overflow="visible"/>
	</clipPath>
	<rect x="323" y="2" clip-path="url(#SVGID_115_)" fill="#BFBFBF" width="1" height="202"/>
</g>
<g>
	<defs>
		<rect id="SVGID_17_" width="534" height="207"/>
	</defs>
	<clipPath id="SVGID_116_">
		<use xlink:href="#SVGID_17_"  overflow="visible"/>
	</clipPath>
	<rect x="392" y="2" clip-path="url(#SVGID_116_)" fill="#BFBFBF" width="1" height="202"/>
</g>
<g>
	<defs>
		<rect id="SVGID_16_" width="534" height="207"/>
	</defs>
	<clipPath id="SVGID_117_">
		<use xlink:href="#SVGID_16_"  overflow="visible"/>
	</clipPath>
	<rect x="461" y="2" clip-path="url(#SVGID_117_)" fill="#BFBFBF" width="1" height="202"/>
</g>
<g>
	<defs>
		<rect id="SVGID_15_" width="534" height="207"/>
	</defs>
	<clipPath id="SVGID_118_">
		<use xlink:href="#SVGID_15_"  overflow="visible"/>
	</clipPath>
	<rect x="530" y="2" clip-path="url(#SVGID_118_)" fill="#BFBFBF" width="1" height="202"/>
</g>
<g>
	<defs>
		<rect id="SVGID_14_" width="534" height="207"/>
	</defs>
	<clipPath id="SVGID_119_">
		<use xlink:href="#SVGID_14_"  overflow="visible"/>
	</clipPath>
	<rect x="1" y="29" clip-path="url(#SVGID_119_)" fill="#BFBFBF" width="1" height="175"/>
</g>
<g>
	<defs>
		<rect id="SVGID_13_" width="534" height="207"/>
	</defs>
	<clipPath id="SVGID_120_">
		<use xlink:href="#SVGID_13_"  overflow="visible"/>
	</clipPath>
	<rect x="20" y="30" clip-path="url(#SVGID_120_)" fill="#BFBFBF" width="1" height="174"/>
</g>
<g>
	<defs>
		<rect id="SVGID_12_" width="534" height="207"/>
	</defs>
	<clipPath id="SVGID_121_">
		<use xlink:href="#SVGID_12_"  overflow="visible"/>
	</clipPath>
	<rect x="186" y="1" clip-path="url(#SVGID_121_)" fill="#BFBFBF" width="345" height="1"/>
</g>
<g>
	<defs>
		<rect id="SVGID_11_" width="534" height="207"/>
	</defs>
	<clipPath id="SVGID_122_">
		<use xlink:href="#SVGID_11_"  overflow="visible"/>
	</clipPath>
	<rect x="2" y="29" clip-path="url(#SVGID_122_)" fill="#BFBFBF" width="529" height="1"/>
</g>
<g>
	<defs>
		<rect id="SVGID_10_" width="534" height="207"/>
	</defs>
	<clipPath id="SVGID_123_">
		<use xlink:href="#SVGID_10_"  overflow="visible"/>
	</clipPath>
	<rect x="2" y="48" clip-path="url(#SVGID_123_)" fill="#BFBFBF" width="529" height="1"/>
</g>
<g>
	<defs>
		<rect id="SVGID_9_" width="534" height="207"/>
	</defs>
	<clipPath id="SVGID_124_">
		<use xlink:href="#SVGID_9_"  overflow="visible"/>
	</clipPath>
	<rect x="2" y="67" clip-path="url(#SVGID_124_)" fill="#BFBFBF" width="529" height="1"/>
</g>
<g>
	<defs>
		<rect id="SVGID_8_" width="534" height="207"/>
	</defs>
	<clipPath id="SVGID_125_">
		<use xlink:href="#SVGID_8_"  overflow="visible"/>
	</clipPath>
	<rect x="2" y="86" clip-path="url(#SVGID_125_)" fill="#BFBFBF" width="529" height="1"/>
</g>
<g>
	<defs>
		<rect id="SVGID_7_" width="534" height="207"/>
	</defs>
	<clipPath id="SVGID_126_">
		<use xlink:href="#SVGID_7_"  overflow="visible"/>
	</clipPath>
	<rect x="2" y="105" clip-path="url(#SVGID_126_)" fill="#BFBFBF" width="529" height="1"/>
</g>
<g>
	<defs>
		<rect id="SVGID_6_" width="534" height="207"/>
	</defs>
	<clipPath id="SVGID_127_">
		<use xlink:href="#SVGID_6_"  overflow="visible"/>
	</clipPath>
	<rect x="2" y="124" clip-path="url(#SVGID_127_)" fill="#BFBFBF" width="529" height="1"/>
</g>
<g>
	<defs>
		<rect id="SVGID_5_" width="534" height="207"/>
	</defs>
	<clipPath id="SVGID_128_">
		<use xlink:href="#SVGID_5_"  overflow="visible"/>
	</clipPath>
	<rect x="2" y="143" clip-path="url(#SVGID_128_)" fill="#BFBFBF" width="529" height="1"/>
</g>
<g>
	<defs>
		<rect id="SVGID_4_" width="534" height="207"/>
	</defs>
	<clipPath id="SVGID_129_">
		<use xlink:href="#SVGID_4_"  overflow="visible"/>
	</clipPath>
	<rect x="2" y="146" clip-path="url(#SVGID_129_)" fill="#BFBFBF" width="529" height="1"/>
</g>
<g>
	<defs>
		<rect id="SVGID_3_" width="534" height="207"/>
	</defs>
	<clipPath id="SVGID_130_">
		<use xlink:href="#SVGID_3_"  overflow="visible"/>
	</clipPath>
	<rect x="2" y="165" clip-path="url(#SVGID_130_)" fill="#BFBFBF" width="529" height="1"/>
</g>
<g>
	<defs>
		<rect id="SVGID_2_" width="534" height="207"/>
	</defs>
	<clipPath id="SVGID_131_">
		<use xlink:href="#SVGID_2_"  overflow="visible"/>
	</clipPath>
	<rect x="2" y="184" clip-path="url(#SVGID_131_)" fill="#BFBFBF" width="529" height="1"/>
</g>
<g>
	<defs>
		<rect id="SVGID_1_" width="534" height="207"/>
	</defs>
	<clipPath id="SVGID_132_">
		<use xlink:href="#SVGID_1_"  overflow="visible"/>
	</clipPath>
	<rect x="2" y="203" clip-path="url(#SVGID_132_)" fill="#BFBFBF" width="529" height="1"/>
</g>
</svg>
