<?xml version="1.0" encoding="utf-8"?>
<!-- Generator: Adobe Illustrator 15.0.0, SVG Export Plug-In . SVG Version: 6.00 Build 0)  -->
<!DOCTYPE svg PUBLIC "-//W3C//DTD SVG 1.1//EN" "http://www.w3.org/Graphics/SVG/1.1/DTD/svg11.dtd">
<svg version="1.1" id="Layer_1" xmlns="http://www.w3.org/2000/svg" xmlns:xlink="http://www.w3.org/1999/xlink" x="0px" y="0px"
	 width="250px" height="180px" viewBox="0 0 250 180" enable-background="new 0 0 250 180" xml:space="preserve">
<text transform="matrix(0.9406 0 0 1 95.4712 83.9961)" font-family="'Helvetica-Bold'" font-size="20.2375">design</text>
<text transform="matrix(1 0 0 1 7.332 21.667)" font-family="'Helvetica'" font-size="12">discover</text>
<text transform="matrix(1 0 0 1 66.9912 21.667)" font-family="'Helvetica'" font-size="12">synthesize</text>
<text transform="matrix(1 0 0 1 136.6611 21.667)" font-family="'Helvetica'" font-size="12">construct</text>
<text transform="matrix(1 0 0 1 209.666 21.667)" font-family="'Helvetica'" font-size="12">reflect</text>
<text transform="matrix(1 0 0 1 26.3335 81.9282)" font-family="'Helvetica'" font-size="12">iterative</text>
<text transform="matrix(1 0 0 1 13.332 126.666)" font-family="'Helvetica'" font-size="14">product</text>
<text transform="matrix(1 0 0 1 101.4814 126.666)" font-family="'Helvetica'" font-size="14">process</text>
<text transform="matrix(1 0 0 1 191.999 126.666)" font-family="'Helvetica'" font-size="14">service</text>
<text transform="matrix(1 0 0 1 84.563 167.665)" font-family="'Helvetica'" font-size="14" letter-spacing="1">experience</text>
<line fill="none" stroke="#999999" stroke-miterlimit="10" x1="115.667" y1="63" x2="96" y2="30.667"/>
<line fill="none" stroke="#999999" stroke-miterlimit="10" x1="135.001" y1="63" x2="154.668" y2="30.667"/>
<line fill="none" stroke="#999999" stroke-miterlimit="10" x1="98" y1="62.333" x2="42.333" y2="32.333"/>
<line fill="none" stroke="#999999" stroke-miterlimit="10" x1="157.334" y1="62.333" x2="213" y2="32.333"/>
<g>
	<line fill="none" stroke="#999999" stroke-miterlimit="10" x1="117.667" y1="94" x2="38.333" y2="109.667"/>
	<line fill="none" stroke="#999999" stroke-miterlimit="10" x1="133.333" y1="94" x2="212.666" y2="109.667"/>
	<line fill="none" stroke="#999999" stroke-miterlimit="10" x1="125.5" y1="94" x2="125.5" y2="111"/>
</g>
<g>
	<line fill="none" stroke="#999999" stroke-miterlimit="10" x1="117.667" y1="151" x2="38.333" y2="135.333"/>
	<line fill="none" stroke="#999999" stroke-miterlimit="10" x1="133.333" y1="151" x2="212.666" y2="135.333"/>
	<line fill="none" stroke="#999999" stroke-miterlimit="10" x1="125.5" y1="151" x2="125.5" y2="134"/>
</g>
</svg>
