<?xml version="1.0" encoding="utf-8"?>
<!-- Generator: Adobe Illustrator 15.1.0, SVG Export Plug-In  -->
<!DOCTYPE svg PUBLIC "-//W3C//DTD SVG 1.1//EN" "http://www.w3.org/Graphics/SVG/1.1/DTD/svg11.dtd" [
	<!ENTITY ns_flows "http://ns.adobe.com/Flows/1.0/">
]>
<svg version="1.1"
	 xmlns="http://www.w3.org/2000/svg" xmlns:xlink="http://www.w3.org/1999/xlink" xmlns:a="http://ns.adobe.com/AdobeSVGViewerExtensions/3.0/"
	 x="0px" y="0px" width="510px" height="109px" viewBox="-4.7 -5.3 510 109"
	 overflow="visible" enable-background="new -4.7 -5.3 510 109" xml:space="preserve">
<defs>
</defs>
<g>
	<defs>
		<rect id="SVGID_15_" width="500.6" height="100"/>
	</defs>
	<clipPath id="SVGID_16_">
		<use xlink:href="#SVGID_15_"  overflow="visible"/>
	</clipPath>
	<rect x="0.2" y="0.2" clip-path="url(#SVGID_16_)" fill="#BFBFBF" width="500.1" height="10.3"/>
	<rect x="0.2" y="10.5" clip-path="url(#SVGID_16_)" fill="#F2F2F2" width="500.1" height="17.9"/>
	<rect x="0.2" y="28.4" clip-path="url(#SVGID_16_)" fill="#FFFFFF" width="500.1" height="17.9"/>
	<rect x="0.2" y="46.2" clip-path="url(#SVGID_16_)" fill="#F2F2F2" width="500.1" height="17.9"/>
	<rect x="0.2" y="64.1" clip-path="url(#SVGID_16_)" fill="#FFFFFF" width="500.1" height="17.9"/>
	<rect x="0.2" y="81.9" clip-path="url(#SVGID_16_)" fill="#F2F2F2" width="500.1" height="17.9"/>
	<g clip-path="url(#SVGID_16_)">
		<text transform="matrix(1 0 0 1 5.6401 7.9385)" font-family="'Verdana-Bold'" font-size="6.5424">Game Mechanic</text>
	</g>
	<g clip-path="url(#SVGID_16_)">
		<text transform="matrix(1 0 0 1 131.7222 7.9385)" font-family="'Verdana-Bold'" font-size="6.5424">Prior Mouse + Keyboard</text>
	</g>
	<g clip-path="url(#SVGID_16_)">
		<text transform="matrix(1 0 0 1 355.0942 7.9385)" font-family="'Verdana-Bold'" font-size="6.5424">Pen + Touch in PiHC</text>
	</g>
</g>
<g>
	<defs>
		<rect id="SVGID_14_" x="0.5" y="10.8" width="500.1" height="17.4"/>
	</defs>
	<clipPath id="SVGID_17_">
		<use xlink:href="#SVGID_14_"  overflow="visible"/>
	</clipPath>
	<g clip-path="url(#SVGID_17_)">
		<text transform="matrix(1 0 0 1 12.1543 21.5591)" font-family="'Verdana-Bold'" font-size="5.64">Unit Selection</text>
	</g>
	<g clip-path="url(#SVGID_17_)">
		<text transform="matrix(1 0 0 1 69.0337 21.5591)"><tspan x="0" y="0" font-family="'Verdana'" font-size="5.64">B</tspan><tspan x="3.9" y="0" font-family="'Verdana'" font-size="5.64">o</tspan><tspan x="7.2" y="0" font-family="'Verdana'" font-size="5.64">x selection and single unit clicking.</tspan></text>
	</g>
	<g clip-path="url(#SVGID_17_)">
		<text transform="matrix(1 0 0 1 285.2427 21.5591)" font-family="'Verdana'" font-size="5.64">Extended lasso and single unit tapping.</text>
	</g>
</g>
<g>
	<defs>
		<rect id="SVGID_13_" x="0.5" y="28.6" width="67.2" height="17.4"/>
	</defs>
	<clipPath id="SVGID_18_">
		<use xlink:href="#SVGID_13_"  overflow="visible"/>
	</clipPath>
	<g clip-path="url(#SVGID_18_)">
		<text transform="matrix(1 0 0 1 2.9048 35.6592)" font-family="'Verdana-Bold'" font-size="5.64">Command Selection </text>
	</g>
</g>
<g>
	<defs>
		<rect id="SVGID_12_" x="0.5" y="28.6" width="67.2" height="17.4"/>
	</defs>
	<clipPath id="SVGID_19_">
		<use xlink:href="#SVGID_12_"  overflow="visible"/>
	</clipPath>
	<g clip-path="url(#SVGID_19_)">
		<text transform="matrix(1 0 0 1 10.3188 43.1602)" font-family="'Verdana-Bold'" font-size="5.64">and Invocation</text>
	</g>
</g>
<g>
	<defs>
		<rect id="SVGID_11_" x="68.1" y="28.6" width="215.8" height="17.4"/>
	</defs>
	<clipPath id="SVGID_20_">
		<use xlink:href="#SVGID_11_"  overflow="visible"/>
	</clipPath>
	<g clip-path="url(#SVGID_20_)">
		<text transform="matrix(1 0 0 1 69.0337 35.6592)"><tspan x="0" y="0" font-family="'Verdana'" font-size="5.64">K</tspan><tspan x="3.7" y="0" font-family="'Verdana'" font-size="5.64">eyboard hot </tspan><tspan x="39.8" y="0" font-family="'Verdana'" font-size="5.64">k</tspan><tspan x="43.1" y="0" font-family="'Verdana'" font-size="5.64">eys, default command right click, queuing with the shift </tspan></text>
	</g>
	<g clip-path="url(#SVGID_20_)">
		<text transform="matrix(1 0 0 1 68.9873 43.1602)"><tspan x="0" y="0" font-family="'Verdana'" font-size="5.64">k</tspan><tspan x="3.3" y="0" font-family="'Verdana'" font-size="5.64">e</tspan><tspan x="6.6" y="0" font-family="'Verdana'" font-size="5.64">y</tspan><tspan x="9.5" y="0" font-family="'Verdana'" font-size="5.64">, and single-point click i</tspan><tspan x="77.1" y="0" font-family="'Verdana'" font-size="5.64">n</tspan><tspan x="80.6" y="0" font-family="'Verdana'" font-size="5.64">v</tspan><tspan x="83.9" y="0" font-family="'Verdana'" font-size="5.64">ocation.</tspan></text>
	</g>
</g>
<g>
	<defs>
		<rect id="SVGID_10_" x="284.3" y="28.6" width="215.8" height="17.4"/>
	</defs>
	<clipPath id="SVGID_21_">
		<use xlink:href="#SVGID_10_"  overflow="visible"/>
	</clipPath>
	<g clip-path="url(#SVGID_21_)">
		<text transform="matrix(1 0 0 1 285.2427 35.6592)" font-family="'Verdana'" font-size="5.64">Number of fingers command selection panel, queuing using scrubbed </text>
	</g>
	<g clip-path="url(#SVGID_21_)">
		<text transform="matrix(1 0 0 1 285.2886 43.1602)"><tspan x="0" y="0" font-family="'Verdana'" font-size="5.64">acti</tspan><tspan x="10.1" y="0" font-family="'Verdana'" font-size="5.64">v</tspan><tspan x="13.3" y="0" font-family="'Verdana'" font-size="5.64">ation, formation d</tspan><tspan x="64.5" y="0" font-family="'Verdana'" font-size="5.64">r</tspan><tspan x="66.8" y="0" font-family="'Verdana'" font-size="5.64">a</tspan><tspan x="70.1" y="0" font-family="'Verdana'" font-size="5.64">wing and tap i</tspan><tspan x="110.5" y="0" font-family="'Verdana'" font-size="5.64">n</tspan><tspan x="114" y="0" font-family="'Verdana'" font-size="5.64">v</tspan><tspan x="117.3" y="0" font-family="'Verdana'" font-size="5.64">ocation.</tspan></text>
	</g>
</g>
<g>
	<defs>
		<rect id="SVGID_9_" x="0.5" y="46.5" width="500.1" height="17.4"/>
	</defs>
	<clipPath id="SVGID_22_">
		<use xlink:href="#SVGID_9_"  overflow="visible"/>
	</clipPath>
	<g clip-path="url(#SVGID_22_)">
		<text transform="matrix(1 0 0 1 24.7314 57.2603)" font-family="'Verdana-Bold'" font-size="5.64">Macro</text>
	</g>
</g>
<g>
	<defs>
		<rect id="SVGID_8_" x="68.1" y="46.5" width="215.8" height="17.4"/>
	</defs>
	<clipPath id="SVGID_23_">
		<use xlink:href="#SVGID_8_"  overflow="visible"/>
	</clipPath>
	<g clip-path="url(#SVGID_23_)">
		<text transform="matrix(1 0 0 1 69.0337 53.5098)"><tspan x="0" y="0" font-family="'Verdana'" font-size="5.64">K</tspan><tspan x="3.7" y="0" font-family="'Verdana'" font-size="5.64">eyboard factory selection through control groups and </tspan><tspan x="156.8" y="0" font-family="'Verdana'" font-size="5.64">k</tspan><tspan x="160.1" y="0" font-family="'Verdana'" font-size="5.64">eyboard hot</tspan><tspan x="194.2" y="0" font-family="'Verdana'" font-size="5.64">k</tspan><tspan x="197.5" y="0" font-family="'Verdana'" font-size="5.64">eys </tspan></text>
	</g>
	<g clip-path="url(#SVGID_23_)">
		<text transform="matrix(1 0 0 1 69.0093 61.0107)" font-family="'Verdana'" font-size="5.64">for build commands.</text>
	</g>
</g>
<g>
	<defs>
		<rect id="SVGID_7_" x="0.5" y="46.5" width="500.1" height="17.4"/>
	</defs>
	<clipPath id="SVGID_24_">
		<use xlink:href="#SVGID_7_"  overflow="visible"/>
	</clipPath>
	<g clip-path="url(#SVGID_24_)">
		<text transform="matrix(1 0 0 1 285.2427 57.2603)"><tspan x="0" y="0" font-family="'Verdana'" font-size="5.64">In-context menu through direct and pr</tspan><tspan x="110.1" y="0" font-family="'Verdana'" font-size="5.64">o</tspan><tspan x="113.5" y="0" font-family="'Verdana'" font-size="5.64">xy selection.</tspan></text>
	</g>
</g>
<g>
	<defs>
		<rect id="SVGID_6_" x="0.5" y="64.3" width="67.2" height="17.4"/>
	</defs>
	<clipPath id="SVGID_25_">
		<use xlink:href="#SVGID_6_"  overflow="visible"/>
	</clipPath>
	<g clip-path="url(#SVGID_25_)">
		<text transform="matrix(1 0 0 1 4.9912 71.3604)" font-family="'Verdana-Bold'" font-size="5.64">View Manipulation </text>
	</g>
</g>
<g>
	<defs>
		<rect id="SVGID_5_" x="0.5" y="64.3" width="67.2" height="17.4"/>
	</defs>
	<clipPath id="SVGID_26_">
		<use xlink:href="#SVGID_5_"  overflow="visible"/>
	</clipPath>
	<g clip-path="url(#SVGID_26_)">
		<text transform="matrix(1 0 0 1 12.832 78.8613)" font-family="'Verdana-Bold'" font-size="5.64">and Selection</text>
	</g>
</g>
<g>
	<defs>
		<rect id="SVGID_4_" x="68.1" y="64.3" width="215.8" height="17.4"/>
	</defs>
	<clipPath id="SVGID_27_">
		<use xlink:href="#SVGID_4_"  overflow="visible"/>
	</clipPath>
	<g clip-path="url(#SVGID_27_)">
		<text transform="matrix(1 0 0 1 69.0337 71.3604)"><tspan x="0" y="0" font-family="'Verdana'" font-size="5.64">Screen edge panning, minimap d</tspan><tspan x="93.9" y="0" font-family="'Verdana'" font-size="5.64">r</tspan><tspan x="96.3" y="0" font-family="'Verdana'" font-size="5.64">agging, control group double-ta</tspan><tspan x="186.4" y="0" font-family="'Verdana'" font-size="5.64">p</tspan><tspan x="189.8" y="0" font-family="'Verdana'" font-size="5.64">, and </tspan></text>
	</g>
	<g clip-path="url(#SVGID_27_)">
		<text transform="matrix(1 0 0 1 68.9927 78.8613)"><tspan x="0" y="0" font-family="'Verdana'" font-size="5.64">s</tspan><tspan x="2.9" y="0" font-family="'Verdana'" font-size="5.64">a</tspan><tspan x="6.3" y="0" font-family="'Verdana'" font-size="5.64">v</tspan><tspan x="9.6" y="0" font-family="'Verdana'" font-size="5.64">ed came postion hot</tspan><tspan x="67.4" y="0" font-family="'Verdana'" font-size="5.64">k</tspan><tspan x="70.7" y="0" font-family="'Verdana'" font-size="5.64">eys. </tspan></text>
	</g>
</g>
<g>
	<defs>
		<rect id="SVGID_3_" x="284.3" y="64.3" width="215.8" height="17.4"/>
	</defs>
	<clipPath id="SVGID_28_">
		<use xlink:href="#SVGID_3_"  overflow="visible"/>
	</clipPath>
	<g clip-path="url(#SVGID_28_)">
		<text transform="matrix(1 0 0 1 285.2427 71.3604)"><tspan x="0" y="0" font-family="'Verdana'" font-size="5.64">Direct manipulation multi-touch, bimanual configu</tspan><tspan x="142.8" y="0" font-family="'Verdana'" font-size="5.64">r</tspan><tspan x="145.1" y="0" font-family="'Verdana'" font-size="5.64">able viewpoints, and </tspan></text>
	</g>
	<g clip-path="url(#SVGID_28_)">
		<text transform="matrix(1 0 0 1 285.2778 78.8613)" font-family="'Verdana'" font-size="5.64">double tap or two finger press on control group button.</text>
	</g>
</g>
<g>
	<defs>
		<rect id="SVGID_2_" x="0.5" y="82.2" width="500.1" height="17.4"/>
	</defs>
	<clipPath id="SVGID_29_">
		<use xlink:href="#SVGID_2_"  overflow="visible"/>
	</clipPath>
	<g clip-path="url(#SVGID_29_)">
		<text transform="matrix(1 0 0 1 10.4058 92.9614)" font-family="'Verdana-Bold'" font-size="5.64">Control Groups</text>
	</g>
	<g clip-path="url(#SVGID_29_)">
		<text transform="matrix(1 0 0 1 69.0337 92.9614)"><tspan x="0" y="0" font-family="'Verdana'" font-size="5.64">Number hot</tspan><tspan x="33.8" y="0" font-family="'Verdana'" font-size="5.64">k</tspan><tspan x="37" y="0" font-family="'Verdana'" font-size="5.64">eys, shift to add, and cntl to redefine.</tspan></text>
	</g>
</g>
<g>
	<defs>
		<rect id="SVGID_1_" x="284.3" y="82.2" width="215.8" height="17.4"/>
	</defs>
	<clipPath id="SVGID_30_">
		<use xlink:href="#SVGID_1_"  overflow="visible"/>
	</clipPath>
	<g clip-path="url(#SVGID_30_)">
		<text transform="matrix(1 0 0 1 285.2427 89.2109)" font-family="'Verdana'" font-size="5.64">Control group buttons. One finger to select/add, two fingers to see in </text>
	</g>
	<g clip-path="url(#SVGID_30_)">
		<text transform="matrix(1 0 0 1 285.2007 96.7119)"><tspan x="0" y="0" font-family="'Verdana'" font-size="5.64">game view and acti</tspan><tspan x="55.1" y="0" font-family="'Verdana'" font-size="5.64">v</tspan><tspan x="58.4" y="0" font-family="'Verdana'" font-size="5.64">ate default command.</tspan></text>
	</g>
</g>
</svg>
